<?xml version="1.0" encoding="utf-8"?>
<!-- Generator: Adobe Illustrator 18.1.0, SVG Export Plug-In . SVG Version: 6.00 Build 0)  -->
<svg version="1.1" id="圖層_1" xmlns="http://www.w3.org/2000/svg" xmlns:xlink="http://www.w3.org/1999/xlink" x="0px" y="0px"
	 viewBox="0 0 324 267" enable-background="new 0 0 324 267" xml:space="preserve">
<g>
	<circle fill="#FFFFFF" cx="185.2" cy="133.3" r="85.6"/>
	<g>
		<g id="XMLID_133_">
			<g>
				<path fill="#FFFFFF" d="M133.2,107c0,0,12-5.6,21.3-4.8c9.3,0.8,17.9,7.3,17.9,7.3c4.6,3.3,8.3,5.8,10.8,5.6
					c2.5-0.2,5.9-0.3,9.9,0.2c4,0.5,0,0,6.8,0.5c1.6,0.1,3.9,0.2,6.3,0.4c3.7,13,0.5,32.7-0.6,38.4c-5.3,0.2-9.8,0.4-10.8,0.5
					c-2.3,0.4-6.6,0.4-10,0c-3.5-0.4-3.5-0.2-9,1.2c-5.6,1.4-24.4,6.2-28,6.8s-3.7,0.2-5.3,0.9c-1.6,0.7-1.9,0-4.4,0
					s-8.4,0-10.7-2.9c-2.2-2.9-1.9-6.5-2.9-8.2s-4.8-3.8-5.2-5.6c-0.4-1.8,1-5.5,0.1-6.8c-0.9-1.3-4.7-2.8-7.5-3.7
					c-8.7-2.9-6-9.2-0.1-14.1c-0.9-0.5-2-1-3.2-1c-2.4,0-12.2-0.8-14.8,0c-2.6,0.8-7.9-0.1-10.6-0.4c-2.6-0.2-12-1.5-15.2-1.3
					c-3.2,0.2-10.2,0-11.2-2c-1-2-2.8-6.9,4.7-7.9c0,0,5.8-0.6,8.3-0.6s6.6,0,9.8,0S87,109,90.4,109c3.3,0,13.3,0,16.6,0
					c3.3,0,8.6-1.4,12.9-1.7C122.2,107.1,127.8,107,133.2,107z M64.8,111.7c0,0-6.2-0.3-7.5,0.9s-1.1,4.5,0.6,5
					c1.7,0.5,4.6,0.8,6.9,0.7C64.8,118.3,65.9,115.1,64.8,111.7z"/>
				<path fill="#FFFFFF" d="M57.3,112.7c1.3-1.2,7.5-0.9,7.5-0.9c1.1,3.3,0,6.6,0,6.6c-2.3,0.1-5.2-0.2-6.9-0.7
					C56.2,117.1,56,113.8,57.3,112.7z"/>
				<path d="M219.1,111.9c0,0,24.6-2,37.5,0.6c0,0,10.4,22.7-1,43.8c0,0-22.3,1.9-38.3,1.9c0,0,0.3-0.7,0.6-1.9h7.4
					c8.9-24.4,0-42.8,0-42.8c-1.6,0.2-3.4,0.3-5.3,0.3C219.7,113.1,219.4,112.5,219.1,111.9z"/>
				<path d="M220,113.8c1.9,0,3.7-0.2,5.3-0.3c0,0,8.9,18.4,0,42.8h-7.4c0.2-0.6,0.4-1.2,0.6-2c3-0.1,5-0.1,5-0.1
					c6.1-18.9,0.5-37.3,0.5-37.3s-1.1,0-3-0.1C220.8,115.7,220.4,114.8,220,113.8z"/>
				<path fill="#FFFFFF" d="M205.3,113.5c0,0,7.9,0.5,14.8,0.3c0.4,1,0.8,1.9,1.1,2.9c-3.6-0.1-9.7-0.3-14.9-0.5
					C205.9,115.3,205.6,114.4,205.3,113.5z"/>
				<path fill="#FFFFFF" d="M206.2,116.2c5.2,0.2,11.4,0.4,14.9,0.5c4,12.9-0.3,29.9-2.6,37.5c-3.6,0.1-8.5,0.3-13,0.4
					C206.6,148.9,209.9,129.2,206.2,116.2z"/>
				<path d="M221.1,116.8c1.8,0.1,3,0.1,3,0.1s5.6,18.4-0.5,37.3c0,0-2,0.1-5,0.1C220.9,146.7,225.1,129.6,221.1,116.8z"/>
				<path fill="#FFFFFF" d="M205.6,154.6c4.5-0.2,9.4-0.3,13-0.4c-0.2,0.8-0.5,1.5-0.6,2h-12.6C205.3,156.2,205.4,155.7,205.6,154.6
					z"/>
			</g>
			<g>
				<path fill="none" stroke="#000000" stroke-width="3" stroke-miterlimit="10" d="M113.1,126.4c2-1.8,0.2-2.6,0.2-2.6
					s-0.6-0.5-1.5-1c-0.9-0.5-2-1-3.2-1c-2.4,0-12.2-0.8-14.8,0c-2.6,0.8-7.9-0.1-10.6-0.4c-2.6-0.2-12-1.5-15.2-1.3
					c-3.2,0.2-10.2,0-11.2-2c-1-2-2.8-6.9,4.7-7.9c0,0,5.8-0.6,8.3-0.6s6.6,0,9.8,0S87,109,90.4,109c3.3,0,13.3,0,16.6,0
					c3.3,0,8.6-1.4,12.9-1.7c2.3-0.2,7.8-0.3,13.3-0.3c4.6,0,9.2,0.1,11.5,0.3c0,0,5.5,0.3,8.3,0.7"/>
				<path fill="none" stroke="#000000" stroke-width="3" stroke-miterlimit="10" d="M206.2,116.2c-2.5-0.1-4.7-0.2-6.3-0.4
					c-6.8-0.5-2.8,0-6.8-0.5c-4-0.5-7.4-0.4-9.9-0.2c-2.5,0.2-6.2-2.3-10.8-5.6c0,0-8.5-6.5-17.9-7.3c-9.3-0.8-21.3,4.8-21.3,4.8"/>
				<path fill="none" stroke="#000000" stroke-width="3" stroke-miterlimit="10" d="M111.8,122.7c-5.9,4.9-8.6,11.2,0.1,14.1
					c2.7,0.9,6.5,2.4,7.5,3.7c0.9,1.3-0.5,5-0.1,6.8c0.4,1.8,4.2,3.9,5.2,5.6s0.7,5.3,2.9,8.2c2.2,2.9,8.2,2.9,10.7,2.9
					s2.7,0.7,4.4,0c1.6-0.7,1.6-0.3,5.3-0.9s22.4-5.4,28-6.8c5.6-1.4,5.6-1.6,9-1.2c3.5,0.4,7.7,0.4,10,0c0.9-0.2,5.5-0.4,10.8-0.5"
					/>
				<path fill="none" stroke="#000000" stroke-miterlimit="10" d="M64.8,118.3c0,0,1.1-3.2,0-6.6c0,0-6.2-0.3-7.5,0.9
					s-1.1,4.5,0.6,5C59.6,118.1,62.5,118.4,64.8,118.3z"/>
				<path fill="none" stroke="#000000" stroke-miterlimit="10" d="M71.5,118.1c-0.3-0.8-0.6-1.7-0.6-2.6c-0.1-1,0-2,0.2-3"/>
				<path fill="none" stroke="#000000" stroke-miterlimit="10" d="M72.5,117.9c-0.4-1.7-0.6-3.5-0.5-5.3"/>
				<path fill="none" stroke="#000000" stroke-miterlimit="10" d="M73.5,116.5c-0.2-0.8-0.3-1.6-0.1-2.4"/>
				<path fill="none" stroke="#000000" stroke-miterlimit="10" d="M89.3,119.5c-0.6-2.6-0.7-5.3-0.3-7.9"/>
				<path fill="none" stroke="#000000" stroke-miterlimit="10" d="M90.6,117.9c0.2-1.8,0.1-3.7-0.1-5.5"/>
				<path fill="none" stroke="#000000" stroke-miterlimit="10" d="M92.5,119.2c0.9-2.1,0.9-4.6,0.1-6.7"/>
				<path fill="none" stroke="#000000" stroke-miterlimit="10" d="M117.1,136c2.3,0.2,4.7,0.5,6.8-0.6"/>
				<path fill="none" stroke="#000000" stroke-miterlimit="10" d="M116.2,132.2c3.2-0.5,6.7-0.7,9.5,0.8"/>
				<path fill="none" stroke="#000000" stroke-miterlimit="10" d="M127.5,125.6c3.1,0.1,6.2,0.2,9.2,0.4c2.5,0.2,5.1,0.3,7.6,0.5
					c2.5,0.2,5,0.4,7.4,0.5"/>
				<path fill="none" stroke="#000000" stroke-miterlimit="10" d="M126.5,149.4c0.9-0.9,1.8-1.9,1.8-3.1c0-0.5-0.2-1.1-0.3-1.6"/>
				<path fill="none" stroke="#000000" stroke-miterlimit="10" d="M128.4,140.1c7-1.6,14.1-2.2,21.2-2.8"/>
				<path fill="none" stroke="#000000" stroke-miterlimit="10" d="M136.7,151.4c9.3-2.5,19.2-2.2,28.7-4"/>
				<path fill="none" stroke="#000000" stroke-miterlimit="10" d="M140.9,163.8c-0.2,0.1-0.3-0.1-0.4-0.3c-0.6-1-1.2-2-1.8-3.1"/>
				<path fill="none" stroke="#000000" stroke-miterlimit="10" d="M141.4,163.1c-0.3-0.7-0.6-1.5-0.9-2.2"/>
				<path fill="none" stroke="#000000" stroke-miterlimit="10" d="M184.6,149.1c3.3,1.4,7.4,1.1,10.4-1"/>
				<path fill="none" stroke="#000000" stroke-miterlimit="10" d="M184.6,131c2.1-0.2,4.2-0.3,6.3-0.5"/>
				<path fill="none" stroke="#000000" stroke-miterlimit="10" d="M185.2,128.7c2-0.3,4.1-0.2,6.1,0.5"/>
				<path fill="none" stroke="#000000" stroke-width="3" stroke-miterlimit="10" d="M217.9,156.2h-12.6c0,0,0.1-0.6,0.3-1.6
					c1.1-5.7,4.3-25.5,0.6-38.4c-0.3-0.9-0.6-1.9-0.9-2.7c0,0,7.9,0.5,14.8,0.3"/>
				<path fill="none" stroke="#000000" stroke-width="3" stroke-miterlimit="10" d="M220,113.8c-0.3-0.7-0.6-1.3-1-1.9
					c0,0,24.6-2,37.5,0.6c0,0,10.4,22.7-1,43.8c0,0-22.3,1.9-38.3,1.9c0,0,0.3-0.7,0.6-1.9c0.2-0.6,0.4-1.2,0.6-2
					c2.3-7.6,6.5-24.6,2.6-37.5C220.8,115.7,220.4,114.8,220,113.8z"/>
			</g>
		</g>
	</g>
</g>
</svg>
