<?xml version="1.0" encoding="utf-8"?>
<!-- Generator: Adobe Illustrator 18.1.0, SVG Export Plug-In . SVG Version: 6.00 Build 0)  -->
<svg version="1.1" id="圖層_1" xmlns="http://www.w3.org/2000/svg" xmlns:xlink="http://www.w3.org/1999/xlink" x="0px" y="0px"
	 viewBox="0 0 324 267" enable-background="new 0 0 324 267" xml:space="preserve">
<g>
	<circle fill="#FFFFFF" cx="139.8" cy="133.3" r="85.6"/>
	<g>
		<g id="XMLID_132_">
			<g>
				<path fill="#FFFFFF" d="M213.1,122.7c0.9-0.5,2-1,3.2-1c2.4,0,12.2-0.8,14.8,0s7.9-0.1,10.6-0.4c2.6-0.2,12-1.5,15.2-1.3
					c3.2,0.2,10.2,0,11.2-2c1-2,2.8-6.9-4.7-7.9c0,0-5.8-0.6-8.3-0.6s-6.6,0-9.8,0c-3.2,0-7.3-0.5-10.7-0.5s-13.3,0-16.6,0
					s-8.6-1.4-12.9-1.7c-2.3-0.2-7.8-0.3-13.3-0.3c0,0-12-5.6-21.3-4.8c-9.3,0.8-17.9,7.3-17.9,7.3c-4.6,3.3-8.3,5.8-10.8,5.6
					c-2.5-0.2-5.9-0.3-9.9,0.2c-4,0.5,0,0-6.8,0.5c-1.6,0.1-3.9,0.2-6.3,0.4c-3.7,13-0.5,32.7,0.6,38.4c5.3,0.2,9.8,0.4,10.8,0.5
					c2.3,0.4,6.6,0.4,10,0c3.5-0.4,3.5-0.2,9,1.2c5.6,1.4,24.4,6.2,28,6.8c3.7,0.6,3.7,0.2,5.3,0.9s1.9,0,4.4,0s8.4,0,10.7-2.9
					c2.2-2.9,1.9-6.5,2.9-8.2s4.8-3.8,5.2-5.6c0.4-1.8-1-5.5-0.1-6.8c0.9-1.3,4.7-2.8,7.5-3.7C221.8,133.9,219,127.6,213.1,122.7z
					 M260.2,111.7c0,0,6.2-0.3,7.5,0.9c1.3,1.2,1.1,4.5-0.6,5c-1.7,0.5-4.6,0.8-6.9,0.7C260.2,118.3,259.1,115.1,260.2,111.7z"/>
				<path fill="#FFFFFF" d="M267.7,112.7c-1.3-1.2-7.5-0.9-7.5-0.9c-1.1,3.3,0,6.6,0,6.6c2.3,0.1,5.2-0.2,6.9-0.7
					C268.8,117.1,269,113.8,267.7,112.7z"/>
				<path d="M105.9,111.9c0,0-24.6-2-37.5,0.6c0,0-10.4,22.7,1,43.8c0,0,22.3,1.9,38.3,1.9c0,0-0.3-0.7-0.6-1.9h-7.4
					c-8.9-24.4,0-42.8,0-42.8c1.6,0.2,3.4,0.3,5.3,0.3C105.3,113.1,105.6,112.5,105.9,111.9z"/>
				<path d="M105,113.8c-1.9,0-3.7-0.2-5.3-0.3c0,0-8.9,18.4,0,42.8h7.4c-0.2-0.6-0.4-1.2-0.6-2c-3-0.1-5-0.1-5-0.1
					c-6.1-18.9-0.5-37.3-0.5-37.3s1.1,0,3-0.1C104.2,115.7,104.6,114.8,105,113.8z"/>
				<path fill="#FFFFFF" d="M119.7,113.5c0,0-7.9,0.5-14.8,0.3c-0.4,1-0.8,1.9-1.1,2.9c3.6-0.1,9.7-0.3,14.9-0.5
					C119.1,115.3,119.4,114.4,119.7,113.5z"/>
				<path fill="#FFFFFF" d="M118.8,116.2c-5.2,0.2-11.4,0.4-14.9,0.5c-4,12.9,0.3,29.9,2.6,37.5c3.6,0.1,8.5,0.3,13,0.4
					C118.4,148.9,115.1,129.2,118.8,116.2z"/>
				<path d="M103.9,116.8c-1.8,0.1-3,0.1-3,0.1s-5.6,18.4,0.5,37.3c0,0,2,0.1,5,0.1C104.1,146.7,99.9,129.6,103.9,116.8z"/>
				<path fill="#FFFFFF" d="M119.4,154.6c-4.5-0.2-9.4-0.3-13-0.4c0.2,0.8,0.5,1.5,0.6,2h12.6C119.7,156.2,119.6,155.7,119.4,154.6z
					"/>
			</g>
			<g>
				<path fill="none" stroke="#000000" stroke-width="3" stroke-miterlimit="10" d="M211.9,126.4c-2-1.8-0.2-2.6-0.2-2.6
					s0.6-0.5,1.5-1c0.9-0.5,2-1,3.2-1c2.4,0,12.2-0.8,14.8,0s7.9-0.1,10.6-0.4c2.6-0.2,12-1.5,15.2-1.3c3.2,0.2,10.2,0,11.2-2
					c1-2,2.8-6.9-4.7-7.9c0,0-5.8-0.6-8.3-0.6s-6.6,0-9.8,0c-3.2,0-7.3-0.5-10.7-0.5s-13.3,0-16.6,0s-8.6-1.4-12.9-1.7
					c-2.3-0.2-7.8-0.3-13.3-0.3c-4.6,0-9.2,0.1-11.5,0.3c0,0-5.5,0.3-8.3,0.7"/>
				<path fill="none" stroke="#000000" stroke-width="3" stroke-miterlimit="10" d="M118.8,116.2c2.5-0.1,4.7-0.2,6.3-0.4
					c6.8-0.5,2.8,0,6.8-0.5c4-0.5,7.4-0.4,9.9-0.2c2.5,0.2,6.2-2.3,10.8-5.6c0,0,8.5-6.5,17.9-7.3c9.3-0.8,21.3,4.8,21.3,4.8"/>
				<path fill="none" stroke="#000000" stroke-width="3" stroke-miterlimit="10" d="M213.1,122.7c5.9,4.9,8.6,11.2-0.1,14.1
					c-2.7,0.9-6.5,2.4-7.5,3.7c-0.9,1.3,0.5,5,0.1,6.8c-0.4,1.8-4.2,3.9-5.2,5.6s-0.7,5.3-2.9,8.2c-2.2,2.9-8.2,2.9-10.7,2.9
					s-2.7,0.7-4.4,0s-1.6-0.3-5.3-0.9c-3.7-0.6-22.4-5.4-28-6.8c-5.6-1.4-5.6-1.6-9-1.2c-3.5,0.4-7.7,0.4-10,0
					c-0.9-0.2-5.5-0.4-10.8-0.5"/>
				<path fill="none" stroke="#000000" stroke-miterlimit="10" d="M260.2,118.3c0,0-1.1-3.2,0-6.6c0,0,6.2-0.3,7.5,0.9
					c1.3,1.2,1.1,4.5-0.6,5C265.4,118.1,262.5,118.4,260.2,118.3z"/>
				<path fill="none" stroke="#000000" stroke-miterlimit="10" d="M253.5,118.1c0.3-0.8,0.6-1.7,0.6-2.6c0.1-1,0-2-0.2-3"/>
				<path fill="none" stroke="#000000" stroke-miterlimit="10" d="M252.5,117.9c0.4-1.7,0.6-3.5,0.5-5.3"/>
				<path fill="none" stroke="#000000" stroke-miterlimit="10" d="M251.5,116.5c0.2-0.8,0.3-1.6,0.1-2.4"/>
				<path fill="none" stroke="#000000" stroke-miterlimit="10" d="M235.7,119.5c0.6-2.6,0.7-5.3,0.3-7.9"/>
				<path fill="none" stroke="#000000" stroke-miterlimit="10" d="M234.4,117.9c-0.2-1.8-0.1-3.7,0.1-5.5"/>
				<path fill="none" stroke="#000000" stroke-miterlimit="10" d="M232.5,119.2c-0.9-2.1-0.9-4.6-0.1-6.7"/>
				<path fill="none" stroke="#000000" stroke-miterlimit="10" d="M207.9,136c-2.3,0.2-4.7,0.5-6.8-0.6"/>
				<path fill="none" stroke="#000000" stroke-miterlimit="10" d="M208.8,132.2c-3.2-0.5-6.7-0.7-9.5,0.8"/>
				<path fill="none" stroke="#000000" stroke-miterlimit="10" d="M197.5,125.6c-3.1,0.1-6.2,0.2-9.2,0.4c-2.5,0.2-5.1,0.3-7.6,0.5
					c-2.5,0.2-5,0.4-7.4,0.5"/>
				<path fill="none" stroke="#000000" stroke-miterlimit="10" d="M198.5,149.4c-0.9-0.9-1.8-1.9-1.8-3.1c0-0.5,0.2-1.1,0.3-1.6"/>
				<path fill="none" stroke="#000000" stroke-miterlimit="10" d="M196.6,140.1c-7-1.6-14.1-2.2-21.2-2.8"/>
				<path fill="none" stroke="#000000" stroke-miterlimit="10" d="M188.3,151.4c-9.3-2.5-19.2-2.2-28.7-4"/>
				<path fill="none" stroke="#000000" stroke-miterlimit="10" d="M184.1,163.8c0.2,0.1,0.3-0.1,0.4-0.3c0.6-1,1.2-2,1.8-3.1"/>
				<path fill="none" stroke="#000000" stroke-miterlimit="10" d="M183.6,163.1c0.3-0.7,0.6-1.5,0.9-2.2"/>
				<path fill="none" stroke="#000000" stroke-miterlimit="10" d="M140.4,149.1c-3.3,1.4-7.4,1.1-10.4-1"/>
				<path fill="none" stroke="#000000" stroke-miterlimit="10" d="M140.4,131c-2.1-0.2-4.2-0.3-6.3-0.5"/>
				<path fill="none" stroke="#000000" stroke-miterlimit="10" d="M139.8,128.7c-2-0.3-4.1-0.2-6.1,0.5"/>
				<path fill="none" stroke="#000000" stroke-width="3" stroke-miterlimit="10" d="M107.1,156.2h12.6c0,0-0.1-0.6-0.3-1.6
					c-1.1-5.7-4.3-25.5-0.6-38.4c0.3-0.9,0.6-1.9,0.9-2.7c0,0-7.9,0.5-14.8,0.3"/>
				<path fill="none" stroke="#000000" stroke-width="3" stroke-miterlimit="10" d="M105,113.8c0.3-0.7,0.6-1.3,1-1.9
					c0,0-24.6-2-37.5,0.6c0,0-10.4,22.7,1,43.8c0,0,22.3,1.9,38.3,1.9c0,0-0.3-0.7-0.6-1.9c-0.2-0.6-0.4-1.2-0.6-2
					c-2.3-7.6-6.5-24.6-2.6-37.5C104.2,115.7,104.6,114.8,105,113.8z"/>
			</g>
		</g>
	</g>
</g>
</svg>
