<?xml version="1.0" encoding="utf-8"?>
<!-- Generator: Adobe Illustrator 18.1.0, SVG Export Plug-In . SVG Version: 6.00 Build 0)  -->
<svg version="1.1" id="圖層_1" xmlns="http://www.w3.org/2000/svg" xmlns:xlink="http://www.w3.org/1999/xlink" x="0px" y="0px"
	 viewBox="0 0 265 212" enable-background="new 0 0 265 212" xml:space="preserve">
<g id="XMLID_19_">
	<g>
		<path fill="#231F20" d="M264.5,88.2v13.4c0-1.9-1.3-3-3.9-2.7c-3.6,0.3-6.7,3.5-9.1,3.5c-0.8,0-1.6-0.3-2.2-1.2
			c-2.2-2.8-5.5-1.8-5.4-3.1c6.3-0.9,4.4-3.4,11.3-3.8c7-0.4,3.5,4.3,7-0.4C263.7,91.6,264.5,89.6,264.5,88.2z"/>
		<path fill="#231F20" d="M255.1,107.5c-1.1,0.1-2,0.2-2.7,0.3l-1-5.5c2.5,0,5.5-3.2,9.1-3.5c2.7-0.2,3.9,0.9,3.9,2.7
			c0,1.5-0.8,3.4-2.3,5.5C258.6,111.8,262.1,107.1,255.1,107.5z"/>
		<path fill="#FFFFFF" d="M255.1,94.1c-6.9,0.4-5,2.9-11.3,3.8c0-0.4,0.3-0.9,1-1.7c3.1-3.9,3.4-6.9,1.9-9.5c-0.2-0.4-0.5-0.7-0.8-1
			c1,0.3,2.3,0.8,3.3,2.1c2.8,3.6,6.6-1.9,11.4-2.3c2.6-0.2,3.9,0.8,3.9,2.6v0.1c0,1.5-0.8,3.4-2.3,5.5
			C258.6,98.4,262.1,93.7,255.1,94.1z"/>
		<path fill="#231F20" d="M251.4,102.3l1,5.5c-3.9,0.8-3.3,2.8-8.9,3.5c-6.7,0.9-4.8,0.4-11.6,0.4c-6.8,0-10.8,3.5-19.6,3.9
			c-8.8,0.4-14.1,4.3-16.1,7.3c-2,3-3.9,6.5-5.7,11.3c-1.8,4.8-3.8,0.9-10.5,1.7c-6.7,0.9-3.3,2.2-8.6,8.2c-5.3,6-5.8,4.8-13.9,7.3
			c-8.1,2.6-8.2,0.4-15.4,1.3c-7.3,0.9-8.2,3.9-14.2,5.6c-6,1.7-7.8,3-13.7,6.9c-5.9,3.9-6.7,0.9-12.1,2.6c-5.4,1.7-8.6,4.8-13.8,6
			c-5.2,1.3-5.4,1.7-7.9,6.9c-2.5,5.2-4.9,7.3-10,10.8c-5.1,3.5-7.5,1.3-12.9,3c-5.4,1.7-5.1,5.6-10,8.6c-4.9,3-5.8,1.3-10.8,0
			c-5-1.3-3.9-1.3-4.3-7.8c-0.2-3.4-2.3-4.9-4-6.2l4.8-0.7c0.5,0.5,1.6,0.8,3.5,1.3c5,1.3,5.9,3,10.8,0s4.6-6.9,10-8.7
			c5.4-1.7,7.7,0.5,12.9-3c5.1-3.5,7.5-5.6,10-10.8c2.5-5.2,2.7-5.6,7.9-6.9c5.2-1.3,8.4-4.3,13.8-6c5.4-1.7,6.2,1.3,12.1-2.6
			c5.9-3.9,7.7-5.2,13.7-6.9c6-1.7,6.9-4.8,14.2-5.6c7.2-0.9,7.3,1.3,15.4-1.3s8.6-1.3,13.9-7.3c5.3-6,1.9-7.3,8.6-8.2
			c6.7-0.9,8.7,3,10.5-1.7c1.8-4.8,3.6-8.2,5.7-11.2c2-3,7.4-6.9,16.1-7.3c8.7-0.4,12.7-3.9,19.6-3.9c6.8,0,4.9,0.4,11.6-0.4
			c0.1,0,0.2,0,0.3,0c-0.2,1.3,3.2,0.3,5.4,3.1C249.8,102,250.6,102.3,251.4,102.3z"/>
		<path fill="#231F20" d="M246.6,73.3c-1.1-1.9-2.8-2.6-2.4-4c5.1-1.4,5.4-0.3,9.7,0.5c1.2,0.2,1.8,0.4,2,0.7
			c0.6,0.7-2.6,1.7-5.3,3.6c-3,2.2-2.2,3.1-3.7,5.1C247.9,77,247.7,75.1,246.6,73.3z"/>
		<path fill="#231F20" d="M253.9,69.9c-4.3-0.8-4.6-1.9-9.7-0.5c0.1-0.5,0.6-1.2,1.5-2.1c3.2-3,1.4-3.9,4.9-6.5
			c2.2-1.6,4.8-2.6,5.3-3.3v13C255.7,70.3,255.1,70.1,253.9,69.9z"/>
		<path fill="#FFFFFF" d="M245.7,80.7c0.5-0.5,1-1,1.2-1.4c-0.4,1.1-1.2,2.3-2.2,3.6c-0.2,0.3-0.4,0.5-0.5,0.7
			C244,82.8,244.3,82,245.7,80.7z"/>
		<path fill="#231F20" d="M244.2,83.6c0.2,0.7,0.9,1.3,1.6,2.1C244.2,85.2,243,85.3,244.2,83.6z"/>
		<path fill="#231F20" d="M163.6,62.4v-2.5C163.9,60.7,163.8,61.5,163.6,62.4z"/>
		<path fill="#FFFFFF" d="M163.6,46.6c0.2,0.8,0.2,1.6,0,2.5V46.6z"/>
		<path fill="#231F20" d="M163.6,49.1v10.8c-0.2-0.7-0.6-1.3-1.3-1.7c-0.6-0.5-1.3-0.9-2-1.3C161.1,54.6,163,51.6,163.6,49.1z"/>
		<path fill="#FFFFFF" d="M163.6,46.6v2.5c-0.6,2.5-2.5,5.5-3.4,7.8c-4.5-2.5-9.2-3.6-8.8-7.4c0.4-4.3-5.8,0.4-2.2-6.9
			c0.8-1.5,1.6-3,2.6-4.4c1.4,2.7,6.4,3.8,10.5,6.6C163,45.3,163.4,45.9,163.6,46.6z"/>
		<path fill="#FFFFFF" d="M149.7,8.9c5.4-1.7,4.8-0.4,10.8-2.2c2.3-0.7,3.1-0.4,3.2,0.4v0c0,1.3-1.9,3.8-2.8,5.6
			c-0.9,1.8-3.6,4.8-6.4,8.4h0c-1.1,0.1-2.3,0.3-4.7,1c-5.4,1.7-0.4,3-5.4,1.7c-5-1.3-8.7,0.4-11,2.6c-2.2,2.2-6.3,1.3-9.5,3
			c-3.1,1.7-0.2-3.9-9.8,2.2c-9.7,6-10.7,1.3-16.2,7.8c-3.7,4.4-6.7,7.2-9.5,9.5c-2.3-2.2-6.9-6.4-8.5-7.3c-2.2-1.3,0,0,4.3-3
			c4.3-3,8.1-6.1,13.6-12.6c5.5-6.5,6.6-1.7,16.2-7.8c9.6-6,6.7-0.4,9.8-2.2c3.1-1.7,7.2-0.9,9.5-3c2.2-2.2,5.9-3.9,11-2.6
			C149.3,12,144.2,10.7,149.7,8.9z"/>
		<path fill="#231F20" d="M163.6,20.6c0-0.8-0.8-1.1-3.2-0.5c-3.4,1-4.7,1-6.1,1.1c2.8-3.7,5.5-6.6,6.4-8.4c0.9-1.8,2.8-4.3,2.8-5.6
			V20.6z"/>
		<path fill="#231F20" d="M154.6,75.5c0.2-6,7.2-12.1,5.5-15.6c-0.4-0.8-0.2-1.8,0.2-3c0.7,0.4,1.4,0.8,2,1.3
			c0.7,0.5,1.1,1.1,1.3,1.7v2.5c-0.8,3.8-4.7,8.5-3.5,10.9c0.9,1.7-0.5,4.1-2,6.8C155.8,79.6,154.5,78.4,154.6,75.5z"/>
		<path fill="#FFFFFF" d="M154.6,88.9c0.1-3,1.9-6,3.4-8.7c2.4,0.6,5.9,0.3,9.9,0.6c7.8,0.4,9,2.6,15.2,2.6c6.3,0,5.9-2.6,15.4-10.4
			c9.6-7.8,8.5-3.5,13.2-8.2c4.6-4.8,5.3-3.9,9.1-6.9c3.8-3,5-0.9,11.6-0.4c6.6,0.4,3.3,1.3,10.1-0.9c6.8-2.2,6.7-0.9,11.4,0
			c1.8,0.3,2.2,0.6,2,1.1c-0.5,0.7-3,1.6-5.3,3.3c-3.6,2.6-1.7,3.5-4.9,6.5c-0.9,0.9-1.3,1.5-1.5,2.1c-0.5,0.1-1.1,0.3-1.7,0.5
			c-6.8,2.2-3.5,1.3-10.1,0.9c-6.6-0.4-7.8-2.6-11.6,0.4c-3.8,3-4.5,2.2-9.1,6.9c-4.7,4.8-3.6,0.4-13.2,8.2
			c-9.6,7.8-9.1,10.4-15.4,10.4c-6.2,0-7.4-2.2-15.2-2.6c-4.9-0.3-9,0.1-11.3-1c0.6-0.4,1.3-0.9,2-1.6c2.3-2.1-0.8-1.2-3.8-0.5
			C154.7,90.3,154.6,89.7,154.6,88.9z"/>
		<path fill="#231F20" d="M151.4,36.2c0.4-4.3-5.8,0.4-2.2-6.9c1.4-2.9,3.3-5.6,5.1-8h0c1.4-0.1,2.7-0.1,6.1-1.1
			c2.4-0.7,3.2-0.3,3.2,0.5c0,1.3-1.9,3.8-2.8,5.6c-1.2,2.4-5.5,6.7-9,12C151.5,37.6,151.4,37,151.4,36.2z"/>
		<path fill="#FFFFFF" d="M100.4,102.1c3,0,3.6,2.3,5.2,4.2c1.6,2-1.4,4.5,0.5,4.2c1.9-0.3,4.6-1.6,8.5-4.2c3.9-2.6,0.4,2.6,3.9,1.6
			c3.5-1,2.8,0.3,3.9,1.6c1.1,1.3,2.6,4.2,3.8,2.6c1.2-1.6,4.4-2.9,4.9-2.9s5.9-3.3,6.2-5.5c0.3-2.2,1.9-2.3,5.5-5.5
			c1.4,1.9,0.6,4.6,3.7,4.6c3.8,0,2.4,1.9,5.4,1.9s10-2.9,6.8,0s-5,3.3-7.9,3.9c-2.9,0.7-3.8-1-7.7,2.6c-3.9,3.6-5.6,3.6-5.9,5.8
			c-0.3,2.3-5.7,5.5-6.2,5.5s-3.6,1.3-4.9,2.9c-1.2,1.6-2.8-1.3-3.8-2.6c-1.1-1.3-0.4-2.6-3.9-1.6c-3.5,1,0-4.2-3.9-1.6
			c-3.9,2.6-6.6,3.9-8.5,4.2c-1.9,0.3,1.1-2.3-0.5-4.2c-1.6-1.9-2.2-4.2-5.2-4.2c-3,0-4.1,3.9-3,0c1.1-3.9,3.4-5.2,2.6-7.8
			c-0.6-1.9,0.2-4-0.8-5.4C99.6,102.2,100,102.1,100.4,102.1z"/>
		<path fill="#231F20" d="M97.7,101.3c0.8,0.2,1.2,0.6,1.5,1c-2.1,0.7-2.7,3.1-1.8-0.2C97.5,101.8,97.6,101.6,97.7,101.3z"/>
		<path fill="#FFFFFF" d="M84.9,64.2c0.4-0.9,1.2-1.8,2.1-3c1.6,1.5,2.8,2.6,2.8,2.6s2.8,1.3,0.4,6c-2.4,4.7-6.5,7.3-5.3,9.5
			c-0.3-0.4-3.1-4.1-1.9-8.6c0.5-2,1.3-3.6,1.8-5c0.1,0.1,0.1,0.2,0.2,0.2c-0.1-0.1-0.1-0.2-0.1-0.3C84.9,65.1,84.9,64.6,84.9,64.2z
			"/>
		<path fill="#231F20" d="M84.9,51.7c1.2-0.8,2.3-1.6,3.5-2.6c0.9,0.8,1.4,1.3,1.4,1.3s2.8,1.3,0.4,6c-0.9,1.9-2.1,3.4-3.2,4.7
			c-1.2-1.2-2.8-2.5-4.1-3.7c0-0.1,0-0.1,0-0.2C83.5,55,84.6,53.1,84.9,51.7C84.8,51.7,84.9,51.7,84.9,51.7z"/>
		<path fill="#231F20" d="M96.9,87.7c-4.3-0.9-5.3-2.2-9.1-3.1c-3.8-1-0.2-1.3-3.8-1c0,0-3.5-2.5,0.9-3.9c0.4-0.1,0.8-0.2,1.2-0.3
			c6.2-1.3,7.4-0.3,10.9-2.3c3.5-2,3.9-2.6,5.4-4.9c1.6-2.3,4-4.5,6.8-5.8c2.8-1.3,3.6-3.9,7.3-3.6c3.7,0.3,4.8-0.3,6.3,2
			c1.4,2.3,1.7,2.6,4.6,4.5c2.9,2,2.4,0.3,2.7,3.9c0.4,3.6-1.5,6.5,1.7,6.8c3.3,0.3,5.9,1.9,9.3,3.6c3.5,1.6,1.4,5.8,5.2,5.8
			s2.4,1.9,5.4,1.9c0.8,0,1.9-0.2,3-0.5c0.3,1,0.9,1.7,1.8,2.1c-2.1,1.5-3.7,1.8-5.9,2.3c-2.9,0.7-3.8-1-7.7,2.6
			c-0.1,0.1-0.2,0.2-0.4,0.3c-0.3-0.5-0.8-0.9-1.5-1.2c-3.5-1.6-6.1-3.3-9.3-3.6c-3.2-0.3-1.4-3.3-1.7-6.8c-0.3-3.6,0.1-1.9-2.7-3.9
			c-2.9-2-3.1-2.3-4.6-4.5c-1.4-2.3-2.6-1.6-6.3-2c-3.7-0.3-4.5,2.3-7.3,3.6s-5.2,3.6-6.8,5.8c-1.1,1.6-1.6,2.4-3.1,3.5
			C99,88.5,98.2,88,96.9,87.7z"/>
		<path fill="#FFFFFF" d="M96.9,101.1c-4.3-0.9-5.3-2.2-9.1-3.1c-3.8-1-0.2-1.3-3.8-1c0,0-4.1-2.9,2.1-4.2c6.2-1.3,7.4-0.3,10.9-2.3
			c1-0.6,1.7-1,2.3-1.4c0.9,1.4,0.1,3.4,0.7,5.2c0.8,2.4-1.2,3.7-2.4,7C97.5,101.2,97.2,101.2,96.9,101.1z"/>
		<path fill="#231F20" d="M79.9,41.8c1.6,0.9,6.1,5.1,8.5,7.3c-1.2,0.9-2.3,1.8-3.5,2.6c0.3-1.5-0.4-2.5-3.3-3
			c-0.6-0.1-1.1-0.1-1.7-0.2v0V41.8z"/>
		<path fill="#FFFFFF" d="M97.1,77.1c-3.5,1.9-4.7,1-10.9,2.3c-0.5,0.1-0.9,0.2-1.2,0.3l-0.1-0.3c0,0,0,0,0,0
			c-1.1-2.2,3-4.8,5.3-9.5c2.4-4.8-0.4-6-0.4-6s-1.2-1.1-2.8-2.6c1-1.3,2.3-2.9,3.2-4.7c2.4-4.8-0.4-6-0.4-6s-0.6-0.5-1.4-1.3
			c2.8-2.3,5.8-5.1,9.5-9.5c5.5-6.5,6.6-1.7,16.2-7.8c9.6-6,6.7-0.4,9.8-2.2c3.1-1.7,7.2-0.9,9.5-3c2.2-2.2,5.9-3.9,11-2.6
			c5,1.3,0,0,5.4-1.7c2.4-0.8,3.6-0.9,4.7-1c-1.8,2.4-3.7,5.1-5.1,8c-3.6,7.4,2.6,2.6,2.2,6.9c-0.1,0.8,0.1,1.4,0.4,2
			c-0.9,1.4-1.8,2.9-2.6,4.4c-3.6,7.4,2.6,2.6,2.2,6.9c-0.4,3.7,4.4,4.9,8.8,7.4c-0.4,1.2-0.6,2.2-0.2,3c1.7,3.5-5.3,9.5-5.5,15.6
			c-0.1,2.9,1.2,4.1,3.4,4.6c-1.6,2.7-3.3,5.7-3.4,8.7c0,0.8,0.1,1.5,0.2,2c-1.1,0.3-2.2,0.5-3,0.5c-3,0-1.6-1.9-5.4-1.9
			s-1.7-4.2-5.2-5.8c-3.5-1.6-6.1-3.3-9.3-3.6c-3.2-0.3-1.4-3.3-1.7-6.8c-0.3-3.6,0.1-1.9-2.7-3.9c-2.9-1.9-3.1-2.3-4.6-4.5
			c-1.4-2.3-2.6-1.6-6.3-2c-3.7-0.3-4.5,2.3-7.3,3.6c-2.8,1.3-5.2,3.6-6.8,5.8C100.9,74.5,100.6,75.2,97.1,77.1z"/>
		<path fill="#FFFFFF" d="M84.9,64.2c0.1,0.4,0,0.9-0.2,1.5C84.6,65.2,84.6,64.7,84.9,64.2z"/>
		<path fill="#231F20" d="M83,62.4c1.2,0.4,1.8,1,1.8,1.7c-0.2,0.5-0.3,1-0.2,1.5c0,0,0,0.1,0,0.1C84.3,65.3,83.5,64,83,62.4z"/>
		<path fill="#FFFFFF" d="M84.2,52.1c0.2-0.1,0.4-0.3,0.6-0.5c-0.3,1.4-1.3,3.4-1.9,5.7c0,0.1,0,0.1,0,0.2c-1.3-1.1-2.4-2-3-2.4
			C77.7,53.9,79.9,55.2,84.2,52.1z"/>
		<path fill="#FFFFFF" d="M84.2,52.1c-4.3,3-6.6,1.7-4.3,3c0.6,0.4,1.8,1.3,3,2.4c-0.4,1.8-0.2,3.5,0.2,4.9
			c-0.4-0.1-0.9-0.3-1.5-0.3c-5.8-0.9-8.1,1.3-14.1,4.3c-6.1,3-6.1,4.3-15.1,5.2c-9,0.9-9.6,6.6-15.4,4.6c-5.8-2-5.8-2-5.8-2
			s0,0-0.1,0.1c-1.9-1.2-3.5-2.6-4.7-4c-0.1-0.2-0.2-0.4-0.3-0.6V69v0c0.4-2.9,5-8.2,5-8.2s0,0,5.8,2c5.8,2,6.4-3.8,15.4-4.6
			c9-0.9,9-2.2,15.1-5.2c5.4-2.7,7.8-4.7,12.4-4.5c0.5,0,1.1,0.1,1.7,0.2c3,0.4,3.6,1.4,3.3,3c0,0,0,0,0,0
			C84.6,51.8,84.4,52,84.2,52.1z"/>
		<path fill="#FFFFFF" d="M52.9,93.2c-1.3,6-8.1,8.2-5.4,10.8c2.7,2.6,4.4,2.6,1.8,5.6c-2.6,3-7.8,4.3-11.4,6.9
			c-3.6,2.6-4.2,0.9-11.9,3c-5.3,1.5-8.6,0.9-10.4,1.7l-4.3-1c0.3-0.2,0.5-0.4,0.8-0.6c2-1.7,1.1-5.6,1.9-9.5
			c0.8-3.9,4.3-1.7,12-3.9s8.3-0.4,11.9-3c3.6-2.6,8.8-3.9,11.4-6.9c1.9-2.2,1.5-2.8,0.1-4C52.1,90.9,53.8,89.4,52.9,93.2z"/>
		<path fill="#231F20" d="M52.9,79.8c-1.3,6-8.1,8.2-5.4,10.8c0.7,0.7,1.3,1.2,1.8,1.6c-1.6,0.7-3.5,1.4-5.5,0.9
			c-5.6-1.3-6.1-2.6-9.4-3.9c-3.3-1.3-6.2-3.5-8-5.6c-0.4-0.5-0.4-1.2-0.1-2c0.8-2.8,4.2-6.8,4.8-7.4c1,0.6,2.2,1.2,3.4,1.7
			c3.3,1.3,3.8,2.6,9.4,3.9C49.5,81.1,54.3,73.8,52.9,79.8z"/>
		<path fill="#231F20" d="M32.4,182.3c0.2,4.1-0.1,5.6,0.8,6.5l-4.8,0.7c-1.6-1.2-3-2.2-2.5-4.2c1-3.7,1.5-4.5,3.8-8.2
			C31.1,178.3,32.3,179.7,32.4,182.3z"/>
		<path fill="#FFFFFF" d="M30.4,164.7c2.9,3.3,4,4.6,0.6,10.2c-0.5,0.8-0.9,1.6-1.3,2.2c-1.6-1.3-3.3-2.1-3.8-3.6v-1.6
			c1-3.7,1.5-4.5,3.7-8.1C29.9,164.1,30.1,164.4,30.4,164.7z"/>
		<path fill="#FFFFFF" d="M52.3,71.6c9-0.9,9-2.2,15.1-5.2c6.1-3,8.3-5.2,14.1-4.3c0.6,0.1,1.1,0.2,1.5,0.3c0.5,1.6,1.3,2.8,1.6,3.3
			c-0.4,1.3-1.3,3-1.8,5c-1.2,4.5,1.6,8.3,1.9,8.6c0,0,0,0,0,0l0.1,0.3c-4.4,1.4-0.9,3.9-0.9,3.9c3.6-0.3,0,0,3.8,1
			c3.8,1,4.8,2.3,9.1,3.1c1.3,0.3,2,0.8,2.4,1.4c-0.6,0.4-1.3,0.8-2.3,1.4c-3.5,1.9-4.7,1-10.9,2.3C79.9,94.1,84,97,84,97
			c3.6-0.3,0,0,3.8,1c3.8,1,4.8,2.3,9.1,3.1c0.3,0.1,0.5,0.1,0.8,0.2c-0.1,0.2-0.2,0.5-0.3,0.8c-0.9,3.3-0.3,1,1.8,0.2
			c1.1,1.4,0.2,3.5,0.8,5.4c0.8,2.6-1.5,3.9-2.6,7.8c-1.1,3.9,0,0,3,0c3,0,3.6,2.3,5.2,4.2c1.6,2-1.4,4.5,0.5,4.2
			c1.9-0.3,4.6-1.6,8.5-4.2c3.9-2.6,0.4,2.6,3.9,1.6c3.5-1,2.8,0.3,3.9,1.6c1.1,1.3,2.6,4.2,3.8,2.6c1.2-1.6,4.4-2.9,4.9-2.9
			s5.9-3.3,6.2-5.5c0.3-2.3,2-2.3,5.9-5.8c3.9-3.6,4.8-1.9,7.7-2.6c2.9-0.6,4.8-1,7.9-3.9s-3.8,0-6.8,0s-1.6-1.9-5.4-1.9
			c-3.1,0-2.3-2.7-3.7-4.6c0.1-0.1,0.2-0.2,0.4-0.3c3.9-3.6,4.8-1.9,7.7-2.6c2.2-0.5,3.8-0.8,5.9-2.3c2.3,1.2,6.4,0.8,11.3,1
			c7.8,0.4,9,2.6,15.2,2.6c6.3,0,5.9-2.6,15.4-10.4c9.6-7.8,8.5-3.5,13.2-8.2c4.6-4.8,5.3-3.9,9.1-6.9c3.8-3,5-0.9,11.6-0.4
			c6.6,0.4,3.3,1.3,10.1-0.9c0.6-0.2,1.2-0.3,1.7-0.5c-0.3,1.4,1.3,2.1,2.4,4c1,1.7,1.2,3.7,0.3,5.9c-0.3,0.4-0.7,0.9-1.2,1.4
			c-1.4,1.3-1.7,2.1-1.4,2.9c-1.2,1.8,0,1.7,1.6,2.1c0.3,0.3,0.5,0.7,0.8,1c1.6,2.6,1.2,5.6-1.9,9.5c-0.7,0.8-1,1.4-1,1.7
			c-0.1,0-0.2,0-0.3,0c-6.7,0.9-4.8,0.4-11.6,0.4c-6.8,0-10.8,3.5-19.6,3.9c-8.8,0.4-14.1,4.3-16.1,7.3c-2,3-3.9,6.5-5.7,11.2
			c-1.8,4.8-3.8,0.9-10.5,1.7c-6.7,0.9-3.3,2.2-8.6,8.2c-5.3,6-5.8,4.8-13.9,7.3s-8.2,0.4-15.4,1.3c-7.3,0.9-8.2,3.9-14.2,5.6
			c-6,1.7-7.8,3-13.7,6.9c-5.9,3.9-6.7,0.9-12.1,2.6c-5.4,1.7-8.6,4.8-13.8,6c-5.2,1.3-5.4,1.7-7.9,6.9c-2.5,5.2-4.9,7.3-10,10.8
			c-5.1,3.5-7.5,1.3-12.9,3c-5.4,1.7-5.1,5.6-10,8.7s-5.8,1.3-10.8,0c-1.9-0.5-2.9-0.8-3.5-1.3c-0.9-0.9-0.6-2.4-0.8-6.5
			c-0.2-2.6-1.4-4.1-2.7-5.2c0.4-0.6,0.8-1.4,1.3-2.2c3.4-5.6,2.3-6.9-0.6-10.2c-0.3-0.3-0.5-0.6-0.8-0.9c0.4-0.6,0.8-1.4,1.3-2.2
			c3.4-5.6,2.3-6.9-0.6-10.2s-1.9-1.9-6.2-4c-4.3-2.2-1.8,1.7-6.6,3.5c-4.8,1.7-4.7-0.9-7.6-3c-2.9-2.2-0.8-3-1.1-7.3
			c-0.2-3-0.7-3.3-1.9-3.9c1.2-1.3,3.5-2.1,5-3.5c2-1.7,1.1-5.6,1.9-9.5c0.3-1.2,0.8-1.8,1.6-2.2c1.8-0.8,5.1-0.2,10.4-1.7
			c7.7-2.2,8.3-0.4,11.9-3c3.6-2.6,8.8-3.9,11.4-6.9c2.6-3,0.9-3-1.8-5.6c-2.7-2.6,4.1-4.8,5.4-10.8c0.8-3.8-0.8-2.3-3.5-0.9
			c-0.5-0.4-1.1-0.9-1.8-1.6c-2.7-2.6,4.1-4.8,5.4-10.8s-3.5,1.3-9.1,0c-5.6-1.3-6.1-2.6-9.4-3.9c-1.2-0.5-2.3-1-3.4-1.7
			c0.1-0.1,0.1-0.1,0.1-0.1s0,0,5.8,2C42.8,78.2,43.4,72.4,52.3,71.6z"/>
		<path fill="#231F20" d="M25.9,185.3v-11.7c0.5,1.4,2.2,2.3,3.8,3.6C27.5,180.8,26.9,181.6,25.9,185.3z"/>
		<path fill="#231F20" d="M26.4,70.3c1.1,1.4,2.8,2.8,4.7,4c-0.6,0.7-4,4.7-4.8,7.4l-0.2-0.1V69.7C26.2,69.9,26.3,70.1,26.4,70.3z"
			/>
		<path fill="#FFFFFF" d="M26.1,69v0.7C26.1,69.5,26.1,69.3,26.1,69z"/>
		<path fill="#FFFFFF" d="M25.9,171.9v1.6C25.8,173.1,25.8,172.6,25.9,171.9z"/>
		<path fill="#FFFFFF" d="M6.3,124.4c0.4-1.9,3-2.8,5-4.2l4.3,1c-0.8,0.4-1.3,1-1.6,2.2c-0.8,3.9,0.1,7.8-1.9,9.5
			c-1.5,1.4-3.8,2.2-5,3.5c-0.5-0.3-1.2-0.6-2.1-1.3c-0.5-0.4-0.9-0.7-1.1-0.8V134v0c0.5-0.2,1.7-0.5,2.5-2.7
			C7.6,127.4,5.8,126.5,6.3,124.4z"/>
		<path fill="#231F20" d="M9,140.4c0.3,4.3-1.8,5.2,1.1,7.3c2.9,2.2,2.7,4.8,7.6,3c4.8-1.7,2.4-5.6,6.6-3.5c4.3,2.2,3.3,0.7,6.2,4
			s4,4.6,0.6,10.2c-0.5,0.9-1,1.6-1.3,2.2c-2-2.2-1.6-1.2-5.4-3.1c-4.3-2.2-1.8,1.7-6.6,3.5c-4.8,1.7-4.7-0.9-7.6-3
			c-2.9-2.2-0.8-3-1.1-7.3c-0.3-4.3-1.2-3-4.1-5.2c-0.8-0.6-1.1-0.9-1.2-1v0v-0.1c0,0,0,0,0,0c0.2-0.3,1.7-0.2,2.6-2.8
			c1.4-3.9-0.5-4.8,0-6.9c0.1-0.5,0.4-0.9,0.7-1.3C8.3,137.1,8.8,137.4,9,140.4z"/>
		<path fill="#231F20" d="M6.3,137.8c-0.5,2.2,1.3,3,0,6.9c-0.9,2.5-2.4,2.5-2.6,2.8l0.2-13.1c0.2,0.2,0.5,0.4,1.1,0.8
			c0.9,0.7,1.6,1,2.1,1.3C6.7,136.8,6.4,137.3,6.3,137.8z"/>
		<path fill="#FFFFFF" d="M3.8,134v0.4C3.6,134.1,3.6,134,3.8,134z"/>
		<path fill="#231F20" d="M3.7,147.5C3.7,147.5,3.7,147.5,3.7,147.5L3.7,147.5z"/>
	</g>
	<g>
		<path fill="none" stroke="#231F20" stroke-width="3" stroke-miterlimit="10" d="M99.2,102.3c-0.3-0.4-0.8-0.8-1.5-1"/>
		<path fill="none" stroke="#231F20" stroke-width="3" stroke-miterlimit="10" d="M99.4,89.1c1.5-1,2-1.9,3.1-3.5
			c1.6-2.3,4-4.5,6.8-5.8s3.6-3.9,7.3-3.6c3.7,0.3,4.8-0.3,6.3,2c1.4,2.3,1.7,2.6,4.6,4.5c2.9,1.9,2.4,0.3,2.7,3.9
			c0.4,3.6-1.5,6.5,1.7,6.8c3.3,0.3,5.9,1.9,9.3,3.6c0.7,0.3,1.1,0.7,1.5,1.2"/>
		<path fill="none" stroke="#231F20" stroke-width="3" stroke-miterlimit="10" d="M84.9,64.2c-0.1-0.8-0.6-1.4-1.8-1.7"/>
		<path fill="none" stroke="#231F20" stroke-width="3" stroke-miterlimit="10" d="M84.7,65.8c0,0,0-0.1,0-0.1"/>
		<path fill="none" stroke="#231F20" stroke-width="3" stroke-miterlimit="10" d="M82.9,57.5c1.3,1.2,2.8,2.5,4.1,3.7"/>
		<path fill="none" stroke="#231F20" stroke-width="3" stroke-miterlimit="10" d="M88.3,49.1c-1.2,0.9-2.3,1.8-3.5,2.6"/>
		<path fill="none" stroke="#231F20" stroke-width="3" stroke-miterlimit="10" d="M151.8,38.2c3.5-5.3,7.8-9.6,9-12
			c0.9-1.8,2.8-4.3,2.8-5.6c0-0.8-0.8-1.1-3.2-0.5c-3.4,1-4.7,1-6.1,1.1"/>
		<path fill="none" stroke="#231F20" stroke-width="3" stroke-miterlimit="10" d="M158,80.1c1.6-2.7,2.9-5.1,2-6.8
			c-1.2-2.4,2.7-7.1,3.5-10.9c0.2-0.9,0.2-1.7,0-2.5c-0.2-0.7-0.6-1.3-1.3-1.7c-0.6-0.5-1.3-0.9-2-1.3"/>
		<path fill="none" stroke="#231F20" stroke-width="3" stroke-miterlimit="10" d="M156.6,93c-0.9-0.4-1.5-1.1-1.8-2.1"/>
		<path fill="none" stroke="#231F20" stroke-width="3" stroke-miterlimit="10" d="M246.9,79.3c1.5-2,0.8-3,3.7-5.1
			c2.7-2,5.8-2.9,5.3-3.6c-0.2-0.3-0.8-0.5-2-0.7c-4.3-0.8-4.6-1.9-9.7-0.5"/>
		<path fill="none" stroke="#231F20" stroke-width="3" stroke-miterlimit="10" d="M245.9,85.7c-0.7-0.8-1.4-1.4-1.6-2.1"/>
		<path fill="none" stroke="#231F20" stroke-width="3" stroke-miterlimit="10" d="M29.7,177.1c-2.2,3.6-2.8,4.5-3.8,8.2
			c-0.5,2.1,0.8,3,2.5,4.2c1.8,1.3,3.8,2.8,4,6.2c0.4,6.5-0.8,6.5,4.3,7.8c5,1.3,5.9,3,10.8,0c4.9-3,4.6-6.9,10-8.6
			c5.4-1.7,7.7,0.4,12.9-3c5.1-3.5,7.5-5.6,10-10.8c2.5-5.2,2.7-5.6,7.9-6.9c5.2-1.3,8.4-4.3,13.8-6c5.4-1.7,6.2,1.3,12.1-2.6
			c5.9-3.9,7.7-5.2,13.7-6.9c6-1.7,6.9-4.8,14.2-5.6c7.2-0.9,7.3,1.3,15.4-1.3c8.1-2.6,8.6-1.3,13.9-7.3c5.3-6,1.9-7.3,8.6-8.2
			c6.7-0.9,8.7,3,10.5-1.7c1.8-4.8,3.6-8.2,5.7-11.3c2-3,7.4-6.9,16.1-7.3c8.7-0.4,12.7-3.9,19.6-3.9c6.8,0,4.9,0.4,11.6-0.4
			c5.6-0.7,5-2.7,8.9-3.5c0.7-0.2,1.6-0.3,2.7-0.3c7-0.4,3.5,4.3,7-0.4c1.6-2.1,2.3-4,2.3-5.5c0-1.9-1.3-3-3.9-2.7
			c-3.6,0.3-6.7,3.5-9.1,3.5c-0.8,0-1.6-0.3-2.2-1.2c-2.2-2.8-5.5-1.8-5.4-3.1"/>
		<path fill="none" stroke="#231F20" stroke-width="3" stroke-miterlimit="10" d="M3.7,147.5c0.1,0.1,0.4,0.4,1.2,1
			c2.9,2.2,3.8,0.9,4.1,5.2c0.3,4.3-1.8,5.2,1.1,7.3c2.9,2.2,2.7,4.8,7.6,3c4.8-1.7,2.4-5.6,6.6-3.5c3.8,1.9,3.4,1,5.4,3.1"/>
		<path fill="none" stroke="#231F20" stroke-width="3" stroke-miterlimit="10" d="M3.7,147.4C3.7,147.5,3.7,147.5,3.7,147.4"/>
		<path fill="none" stroke="#231F20" stroke-width="3" stroke-miterlimit="10" d="M7.1,136.5c-0.4,0.4-0.6,0.8-0.7,1.3
			c-0.5,2.2,1.3,3,0,6.9c-0.9,2.5-2.4,2.5-2.6,2.8"/>
		<path fill="none" stroke="#231F20" stroke-width="3" stroke-miterlimit="10" d="M31.1,74.3c-0.6,0.7-4,4.7-4.8,7.4
			c-0.3,0.8-0.3,1.5,0.1,2c1.8,2.2,4.7,4.3,8,5.6c3.3,1.3,3.8,2.6,9.4,3.9c2,0.5,4-0.2,5.5-0.9"/>
		<path fill="none" stroke="#231F20" stroke-width="3" stroke-miterlimit="10" d="M99.4,89.1c-0.4-0.6-1.1-1.1-2.4-1.4
			c-4.3-0.9-5.3-2.2-9.1-3.1c-3.8-1-0.2-1.3-3.8-1c0,0-3.5-2.5,0.9-3.9c0.4-0.1,0.8-0.2,1.2-0.3c6.2-1.3,7.4-0.3,10.9-2.3
			c3.5-2,3.9-2.6,5.4-4.9c1.6-2.3,4-4.5,6.8-5.8c2.8-1.3,3.6-3.9,7.3-3.6c3.7,0.3,4.8-0.3,6.3,2c1.4,2.3,1.7,2.6,4.6,4.5
			c2.9,2,2.4,0.3,2.7,3.9c0.4,3.6-1.5,6.5,1.7,6.8c3.3,0.3,5.9,1.9,9.3,3.6c3.5,1.6,1.4,5.8,5.2,5.8s2.4,1.9,5.4,1.9
			c0.8,0,1.9-0.2,3-0.5c3-0.7,6.1-1.7,3.8,0.5c-0.7,0.7-1.4,1.2-2,1.6c-2.1,1.5-3.7,1.8-5.9,2.3c-2.9,0.7-3.8-1-7.7,2.6
			c-0.1,0.1-0.2,0.2-0.4,0.3c-3.7,3.3-5.3,3.3-5.5,5.5c-0.3,2.3-5.7,5.5-6.2,5.5s-3.6,1.3-4.9,2.9c-1.2,1.6-2.8-1.3-3.8-2.6
			c-1.1-1.3-0.4-2.6-3.9-1.6c-3.5,1,0-4.2-3.9-1.6c-3.9,2.6-6.6,3.9-8.5,4.2c-1.9,0.3,1.1-2.3-0.5-4.2c-1.6-1.9-2.2-4.2-5.2-4.2
			c-0.4,0-0.8,0.1-1.2,0.2c-2.1,0.7-2.7,3.1-1.8-0.2c0.1-0.3,0.2-0.5,0.3-0.8c1.2-3.3,3.1-4.6,2.4-7C99.5,92.5,100.2,90.5,99.4,89.1
			z"/>
		<path fill="none" stroke="#231F20" stroke-width="3" stroke-miterlimit="10" d="M84.9,66C84.9,66,84.8,66,84.9,66
			c-0.1-0.1-0.1-0.1-0.2-0.2c-0.4-0.5-1.1-1.7-1.6-3.3c-0.4-1.4-0.6-3.1-0.2-4.9c0-0.1,0-0.1,0-0.2c0.6-2.3,1.7-4.2,1.9-5.7
			c0,0,0,0,0,0"/>
		<path fill="none" stroke="#231F20" stroke-width="3" stroke-miterlimit="10" d="M163.6,7.2c0-0.8-0.8-1.1-3.2-0.4
			c-6,1.7-5.4,0.4-10.8,2.2c-5.4,1.7-0.4,3-5.4,1.7c-5-1.3-8.7,0.4-11,2.6c-2.2,2.2-6.3,1.3-9.5,3c-3.1,1.7-0.2-3.9-9.8,2.2
			c-9.7,6-10.7,1.3-16.2,7.8c-5.5,6.5-9.3,9.5-13.6,12.6c-4.3,3-6.6,1.7-4.3,3c1.6,0.9,6.1,5.1,8.5,7.3c0.9,0.8,1.4,1.3,1.4,1.3
			s2.8,1.3,0.4,6c-0.9,1.9-2.1,3.4-3.2,4.7c-0.9,1.1-1.7,2.1-2.1,3c-0.2,0.5-0.3,1-0.2,1.5c0,0.1,0.1,0.2,0.1,0.3"/>
		<path fill="none" stroke="#231F20" stroke-width="3" stroke-miterlimit="10" d="M264.5,88.1c0-1.8-1.3-2.9-3.9-2.6
			c-4.8,0.4-8.6,5.9-11.4,2.3c-1-1.3-2.2-1.8-3.3-2.1c-1.7-0.5-2.8-0.3-1.6-2.1c0.1-0.2,0.3-0.4,0.5-0.7c1-1.3,1.7-2.4,2.2-3.6
			c0.9-2.3,0.8-4.2-0.3-5.9c-1.1-1.9-2.8-2.6-2.4-4c0.1-0.5,0.6-1.2,1.5-2.1c3.2-3,1.4-3.9,4.9-6.5c2.2-1.6,4.8-2.6,5.3-3.3
			c0.3-0.4-0.2-0.7-2-1.1c-4.7-0.9-4.6-2.2-11.4,0c-6.8,2.2-3.5,1.3-10.1,0.9c-6.6-0.4-7.8-2.6-11.6,0.4c-3.8,3-4.5,2.2-9.1,6.9
			c-4.7,4.8-3.6,0.4-13.2,8.2c-9.6,7.8-9.1,10.4-15.4,10.4c-6.2,0-7.4-2.2-15.2-2.6c-4-0.2-7.5,0-9.9-0.6c-2.2-0.5-3.5-1.7-3.4-4.6
			c0.2-6,7.2-12.1,5.5-15.6c-0.4-0.8-0.2-1.8,0.2-3c0.9-2.4,2.8-5.3,3.4-7.8c0.2-0.9,0.2-1.7,0-2.5c-0.2-0.7-0.6-1.3-1.3-1.8
			c-4-2.8-9-3.9-10.5-6.6c-0.3-0.6-0.5-1.3-0.4-2c0.4-4.3-5.8,0.4-2.2-6.9c1.4-2.9,3.3-5.6,5.1-8h0c2.8-3.7,5.5-6.6,6.4-8.4
			c0.9-1.8,2.8-4.3,2.8-5.6"/>
		<path fill="none" stroke="#231F20" stroke-width="3" stroke-miterlimit="10" d="M3.8,134c-0.2,0.1-0.2,0.1,0,0.4
			c0.2,0.2,0.5,0.4,1.1,0.8c0.9,0.7,1.6,1,2.1,1.3c1.2,0.6,1.7,0.9,1.9,3.9c0.3,4.3-1.8,5.2,1.1,7.3c2.9,2.2,2.7,4.8,7.6,3
			c4.8-1.7,2.4-5.6,6.6-3.5c4.3,2.2,3.3,0.7,6.2,4s4,4.6,0.6,10.2c-0.5,0.9-1,1.6-1.3,2.2c-2.2,3.6-2.8,4.5-3.7,8.1
			c-0.2,0.6-0.2,1.2,0,1.6c0.5,1.4,2.2,2.3,3.8,3.6c1.4,1.1,2.6,2.6,2.7,5.2c0.2,4.1-0.1,5.6,0.8,6.5c0.5,0.5,1.6,0.8,3.5,1.3
			c5,1.3,5.9,3,10.8,0s4.6-6.9,10-8.7c5.4-1.7,7.7,0.5,12.9-3c5.1-3.5,7.5-5.6,10-10.8c2.5-5.2,2.7-5.6,7.9-6.9
			c5.2-1.3,8.4-4.3,13.8-6c5.4-1.7,6.2,1.3,12.1-2.6c5.9-3.9,7.7-5.2,13.7-6.9c6-1.7,6.9-4.8,14.2-5.6c7.2-0.9,7.3,1.3,15.4-1.3
			s8.6-1.3,13.9-7.3c5.3-6,1.9-7.3,8.6-8.2c6.7-0.9,8.7,3,10.5-1.7c1.8-4.8,3.6-8.2,5.7-11.2c2-3,7.4-6.9,16.1-7.3
			c8.7-0.4,12.7-3.9,19.6-3.9c6.8,0,4.9,0.4,11.6-0.4c0.1,0,0.2,0,0.3,0c6.3-0.9,4.4-3.4,11.3-3.8c7-0.4,3.5,4.3,7-0.4
			c1.6-2.1,2.3-4,2.3-5.5"/>
		<path fill="none" stroke="#231F20" stroke-width="3" stroke-miterlimit="10" d="M26.1,69c0,0.3,0,0.5,0,0.7
			c0.1,0.2,0.1,0.4,0.3,0.6c1.1,1.4,2.8,2.8,4.7,4c1,0.6,2.2,1.2,3.4,1.7c3.3,1.3,3.8,2.6,9.4,3.9c5.6,1.3,10.4-6,9.1,0
			s-8.1,8.2-5.4,10.8c0.7,0.7,1.3,1.2,1.8,1.6c1.4,1.2,1.9,1.8-0.1,4c-2.6,3-7.8,4.3-11.4,6.9c-3.6,2.6-4.2,0.9-11.9,3
			s-11.2,0-12,3.9c-0.8,3.9,0.1,7.8-1.9,9.5c-0.3,0.2-0.5,0.4-0.8,0.6c-2,1.4-4.5,2.3-5,4.2c-0.5,2.2,1.3,3,0,6.9
			c-0.8,2.2-2,2.4-2.5,2.7"/>
		<path fill="none" stroke="#231F20" stroke-width="3" stroke-miterlimit="10" d="M79.9,48.5c-4.7-0.2-7,1.8-12.4,4.5
			c-6.1,3-6.1,4.3-15.1,5.2c-9,0.9-9.6,6.6-15.4,4.6c-5.8-2-5.8-2-5.8-2s-4.6,5.2-5,8.2"/>
		<polyline fill="none" stroke="#231F20" stroke-width="3" stroke-miterlimit="10" points="163.6,7.2 163.6,7.2 163.6,20.6 
			163.6,21.1 		"/>
		<polyline fill="none" stroke="#231F20" stroke-width="3" stroke-miterlimit="10" points="26.1,69 26.1,69 26.1,69.7 26.1,81.6 		
			"/>
		<polyline fill="none" stroke="#231F20" stroke-width="3" stroke-miterlimit="10" points="163.6,46.6 163.6,49.1 163.6,59.9 
			163.6,62.4 		"/>
		<line fill="none" stroke="#231F20" stroke-width="3" stroke-miterlimit="10" x1="79.9" y1="41.8" x2="79.9" y2="48.5"/>
		<polyline fill="none" stroke="#231F20" stroke-width="3" stroke-miterlimit="10" points="255.9,57.5 255.9,70.6 255.9,70.8 		"/>
		<polyline fill="none" stroke="#231F20" stroke-width="3" stroke-miterlimit="10" points="264.5,88.1 264.5,88.2 264.5,101.5 
			264.5,103 		"/>
		<polyline fill="none" stroke="#231F20" stroke-width="3" stroke-miterlimit="10" points="25.9,171.9 25.9,173.6 25.9,185.3 		"/>
		<path fill="none" stroke="#231F20" stroke-width="3" stroke-miterlimit="10" d="M3.8,133.9L3.8,133.9v0.4l-0.2,13.1c0,0,0,0,0,0
			v0.1v0l0,1"/>
	</g>
</g>
</svg>
