<?xml version="1.0" encoding="utf-8"?>
<!-- Generator: Adobe Illustrator 18.1.0, SVG Export Plug-In . SVG Version: 6.00 Build 0)  -->
<svg version="1.1" id="圖層_1" xmlns="http://www.w3.org/2000/svg" xmlns:xlink="http://www.w3.org/1999/xlink" x="0px" y="0px"
	 viewBox="0 0 265 212" enable-background="new 0 0 265 212" xml:space="preserve">
<g id="XMLID_23_">
	<g>
		<path fill="#FFFFFF" d="M193.6,39.3c5.5,2.1,17.4,2.1,16.1,5.8c-1.3,3.7-6.1,5.8-4.1,8.2c0.7,0.9,1.7,1.5,2.3,2
			c-3.4-1.4-10.4-1.8-14.3-3.3c-5.5-2.1-7.8-6.2-6.3-13.6c0.5-2.2,0.6-3.1,0.5-3.3l0.2-0.2C189.2,37,191.1,38.4,193.6,39.3z"/>
		<path fill="#231F20" d="M207.9,55.4c1.4,0.6,2.2,1.4,1.8,2.5c-1.3,3.7-6.1,5.8-4.1,8.2c2,2.5,5.3,2.5,0.2,6.2
			c-5.1,3.7-7.4,8.3-13.9,8.3c-6.5,0-12.9-1.2-15.7,2.1c-2.7,3.3-0.6,4.5-4.2,7.4c-2.3,1.8-5.7,3.7-7.5,5.4c-2.9-1.7,0.5-7.4-1-9.9
			c-1.5-2.5,4.9-5.4,8.5-8.2c3.6-2.9,1.5-4.1,4.2-7.4c2.7-3.3,9.2-2.1,15.7-2.1c6.5,0,8.8-4.6,13.9-8.3
			C209,57.2,208.9,56.3,207.9,55.4z"/>
		<path fill="#FFFFFF" d="M207.9,55.4c1,0.9,1.1,1.8-2.1,4.1c-5.1,3.7-7.4,8.3-13.9,8.3c-6.5,0-12.9-1.2-15.7,2.1
			c-2.7,3.3-0.6,4.5-4.2,7.4c-3.6,2.9-9.9,5.8-8.5,8.2c1.5,2.5-1.9,8.2,1,9.9c-1,1-1.5,2-1,2.9c1.5,2.5-1.9,8.3,1,9.9
			s3.9-1.2,2.3,4.1c-1.6,5.4-4.9,6.6,0.4,7.8c5.4,1.2,12.9,2.5,16,0s4.4-6.2,4.7-1.2c0,0.3,0,0.5,0,0.7c-1.2,1.4-2.9,3.1-4.2,6.8
			c-2.6,7.3-3.4,9,0,12.7c0,0,0,0.1,0,0.1c-2.6,7.4-3.4,9.1,0.1,12.8c-2.1,2.8-3.7,2-6.9,5.4c-3.5,3.7-3,4.9-7.5,7.4
			c-4.5,2.5-6.2,3.7-13.5,7.4s-6.7,7-11.8,6.2c-5-0.8-3.2-6.6-8.2-8.7c-4.4-1.8-4.6-4.3-8.9-7.8c4.6-3.2,8.4-5.6,8.7-9.6
			c0.4-4.6,2.1-9.3,0.2-14.2c0.7-4.9,2.1-9.8-1.2-15.1c-3.6-5.8-3.4-6.2-9.3-5.4c-3.4,0.5-6.4,1.2-8.1,1.1c-1.3-0.1-2-0.6-1.8-2
			c0.6-3.3,5.3-6.2-1.3-6.2c-2,0-3.8,0.2-5.4,0.3c0.1-0.6,0.1-1.1-0.1-1.6c-0.7-2-0.9-2.4-4.1-2.7c1.9-4,4.9-7.9,4.1-10.1
			c-0.9-2.5-0.9-2.5-7.2-2.9c-6.3-0.4-11.1,1.7-13.2-0.8c-1.3-1.6-4.1-2-5.8-3.9c-1-1.1-1.6-2.6-1.6-5.1c0.2-7,4.5-9.1-4.8-7.8
			c-0.8,0.1-1.6,0.2-2.3,0.4c4-4.1,8.9-8.6,12-10.3c5.2-2.9,23.2-7.4,29.6-11.5s8-6.2,15-6.2c7.1,0,7,1.3,14.2-2.5
			c7.3-3.7,12.1-5.8,20.5-7.4s11.2-4.9,16.4-2.5c3.7,1.7,5.6-1.4,5.8-0.9c0.1,0.2-0.1,1.1-0.5,3.3c-1.5,7.4,0.8,11.6,6.3,13.6
			C197.5,53.6,204.5,54,207.9,55.4z"/>
		<path fill="#231F20" d="M191,147.1v12.8c-1.5-1.2-3.4-4.1-7-7.8c0.2-0.2,0.4-0.5,0.6-0.8C187,147.5,191,147.1,191,147.1z"/>
		<path fill="#FFFFFF" d="M189.9,114.4c0.1,0.9,0.1,1.7-0.1,2.3v0c-0.3,1.2-0.9,2-1.7,2.9c0-0.2,0-0.5,0-0.7
			c-0.3-4.9-1.6-1.2-4.7,1.2s-10.6,1.2-16,0c-5.3-1.2-2-2.5-0.4-7.8c1.6-5.4,0.7-2.5-2.3-4.1s0.4-7.4-1-9.9c-0.5-0.9,0-1.9,1-2.9
			c0,0,0,0,0,0c3,1.6,3.9-1.2,2.3,4.1c-1.6,5.4-4.9,6.6,0.4,7.8c5.4,1.2,12.9,2.5,16,0c3.1-2.5,4.4-6.2,4.7-1.2
			C188.2,111.1,189.3,109.1,189.9,114.4z"/>
		<path fill="#231F20" d="M189.8,126.5c0,0.2,0,0.5,0.1,0.7c0.6,5.3-3.3,4.5-5.9,11.9c-3.5-3.7-2.6-5.3,0-12.7
			c1.3-3.7,2.9-5.4,4.2-6.8C188.3,123.5,189.2,122.3,189.8,126.5z"/>
		<path fill="#FFFFFF" d="M191,147.1c0,0-4,0.4-6.4,4.1c-0.2,0.3-0.4,0.5-0.6,0.8c-3.6-3.7-2.8-5.4-0.1-12.8c0,0,0-0.1,0-0.1
			c0,0,0.1,0.1,0.1,0.1C187.6,142.9,189.4,145.8,191,147.1z"/>
		<path fill="#231F20" d="M119.4,168.4c0.5-0.6,1.5-1.5,3-2.8c1.7-1.4,3.3-2.6,4.9-3.7c4.3,3.5,4.5,6,8.9,7.8
			c4.9,2.1,3.2,7.8,8.2,8.7c5,0.8,4.5-2.5,11.8-6.2s9-4.9,13.5-7.4c4.5-2.5,4-3.7,7.5-7.4c3.2-3.4,4.8-2.6,6.9-5.4
			c3.6,3.7,5.4,6.6,7,7.8c0,0-4,0.4-6.4,4.1c-2.4,3.7-3.9,2.5-7.4,6.2c-3.5,3.7-3,4.9-7.5,7.4c-4.5,2.5-6.2,3.7-13.5,7.4
			c-7.3,3.7-6.7,7-11.8,6.2c-5-0.8-3.2-6.6-8.2-8.7c-4.9-2.1-4.6-4.9-10.7-9.1C120.9,170.3,117.8,170.5,119.4,168.4z"/>
		<path fill="#FFFFFF" d="M188.1,35l-0.2,0.2c-0.3-0.5-2.1,2.6-5.8,0.9c-5.3-2.5-8,0.8-16.4,2.5s-13.3,3.7-20.5,7.4
			c-7.3,3.7-7.2,2.5-14.2,2.5c-7.1,0-8.6,2.1-15,6.2s-24.4,8.7-29.6,11.5c-3.1,1.7-7.9,6.2-12,10.3c-7.6,1.3-10.7,3.3-17.4-1.2
			c-2.4-1.6,8-0.8,10.9-4.5C70.7,67,81,56.3,86.2,53.4c5.2-2.9,23.2-7.4,29.6-11.5s8-6.2,15-6.2c7.1,0,7,1.2,14.2-2.5
			s12.1-5.8,20.5-7.4c8.4-1.6,11.2-4.9,16.4-2.5c5.3,2.5,6.8-4.9,5.3,2.5C186.5,29.7,186.8,32.7,188.1,35z"/>
		<path fill="#FFFFFF" d="M136.2,138.2c1.9,4.9,0.3,9.5-0.2,14.2c-0.4,4-4.2,6.4-8.7,9.6c-0.5-0.4-1.1-0.8-1.7-1.3
			c-2.9-2-5.2-2.6-6.2-3.4c-1-0.8-0.4-1.7,3-4.5c6.5-5.4,13.1-7.9,13.6-13.2C136.1,139.2,136.2,138.7,136.2,138.2z"/>
		<path fill="#231F20" d="M135.1,123.1c3.3,5.3,1.8,10.2,1.2,15.1c-0.3-0.8-0.7-1.5-1.2-2.3c-3.6-5.8-3.4-6.2-9.3-5.4
			c-5.8,0.8-10.5,2.5-9.9-0.8c0.4-2.6,3.4-4.9,1.6-5.8l0.1-5c1.8,0.1,4.8-0.7,8.1-1.1C131.6,116.9,131.4,117.3,135.1,123.1z"/>
		<path fill="#231F20" d="M125.6,160.7c0.7,0.5,1.2,0.9,1.7,1.3c-1.6,1.1-3.2,2.3-4.9,3.7c-1.5,1.3-2.5,2.1-3,2.8v-11.1
			C120.4,158.1,122.7,158.7,125.6,160.7z"/>
		<path fill="#231F20" d="M117.6,118.9l-0.1,5c-0.5-0.3-1.4-0.4-2.9-0.4c-6.5,0-11.9,2.1-10.2-2.5c1.4-3.7,4.2-7.4,4.7-10
			c1.6-0.1,3.5-0.3,5.4-0.3c6.5,0,1.8,2.9,1.3,6.2C115.7,118.3,116.3,118.8,117.6,118.9z"/>
		<path fill="#231F20" d="M109.1,96.7c0.8,2.2-2.2,6.1-4.1,10.1c-0.8-0.1-1.9-0.1-3.2-0.2c-6.3-0.4-11.1,1.6-13.2-0.8
			c-2-2.5-7.7-2.1-7.4-9.1c0.1-4,1.6-6.4,1.1-7.5l0.5-0.1c1.8,1.9,4.6,2.3,5.8,3.9c2,2.5,6.9,0.4,13.2,0.8
			C108.2,94.2,108.2,94.2,109.1,96.7z"/>
		<path fill="#FFFFFF" d="M109.1,109.5c0.2,0.5,0.2,1,0.1,1.6c-2.3,0.2-4.1,0.3-4.7-0.5v-2.3c0.2-0.5,0.4-1,0.6-1.4
			C108.2,107.1,108.4,107.5,109.1,109.5z"/>
		<path fill="#231F20" d="M104.5,110.6c0.7,0.7,2.4,0.7,4.7,0.5c-0.5,2.6-3.3,6.3-4.7,10V110.6z"/>
		<path fill="#FFFFFF" d="M104.5,108.3v2.3C104,110.2,104,109.5,104.5,108.3z"/>
		<path fill="#231F20" d="M82.9,89.1l-0.5,0.1c-0.4-0.8-1.9-0.9-5.9-0.4C67.2,90.1,64.2,93,56.9,88v-0.8c1.7-0.7,8.6-0.8,10.9-3.8
			c1.2-1.5,3.6-4.2,6.4-7c0.7-0.1,1.5-0.3,2.3-0.4c9.3-1.2,5,0.8,4.8,7.8C81.2,86.4,81.9,88,82.9,89.1z"/>
		<path fill="#231F20" d="M74.2,76.4c-2.8,2.8-5.2,5.5-6.4,7c-2.3,2.9-9.3,3-10.9,3.8v-12C63.5,79.8,66.7,77.8,74.2,76.4z"/>
		<path fill="#231F20" d="M56.9,87.2V88C56.3,87.7,56.4,87.4,56.9,87.2z"/>
	</g>
	<g>
		<path fill="none" stroke="#231F20" stroke-width="4" stroke-miterlimit="10" d="M105.1,106.8c-0.8-0.1-1.9-0.1-3.2-0.2
			c-6.3-0.4-11.1,1.6-13.2-0.8c-2-2.5-7.7-2.1-7.4-9.1c0.1-4,1.6-6.4,1.1-7.5c-0.4-0.8-1.9-0.9-5.9-0.4C67.2,90.1,64.2,93,56.9,88
			c-0.5-0.4-0.5-0.6,0-0.8c1.7-0.7,8.6-0.8,10.9-3.8c1.2-1.5,3.6-4.2,6.4-7"/>
		<path fill="none" stroke="#231F20" stroke-width="4" stroke-miterlimit="10" d="M136.2,138.2c-0.3-0.8-0.7-1.5-1.2-2.3
			c-3.6-5.8-3.4-6.2-9.3-5.4c-5.8,0.8-10.5,2.5-9.9-0.8c0.4-2.6,3.4-4.9,1.6-5.8c-0.5-0.3-1.4-0.4-2.9-0.4c-6.5,0-11.9,2.1-10.2-2.5
			c1.4-3.7,4.2-7.4,4.7-10"/>
		<path fill="none" stroke="#231F20" stroke-width="4" stroke-miterlimit="10" d="M184,152c3.6,3.7,5.4,6.6,7,7.8c0,0-4,0.4-6.4,4.1
			c-2.4,3.7-3.9,2.5-7.4,6.2c-3.5,3.7-3,4.9-7.5,7.4c-4.5,2.5-6.2,3.7-13.5,7.4c-7.3,3.7-6.7,7-11.8,6.2c-5-0.8-3.2-6.6-8.2-8.7
			c-4.9-2.1-4.6-4.9-10.7-9.1c-4.7-3.2-7.8-2.9-6.2-5c0.5-0.6,1.5-1.5,3-2.8c1.7-1.4,3.3-2.6,4.9-3.7"/>
		<path fill="none" stroke="#231F20" stroke-width="4" stroke-miterlimit="10" d="M188,119.7c0.3,3.8,1.2,2.6,1.7,6.8
			c0,0.2,0,0.5,0.1,0.7c0.6,5.3-3.3,4.5-5.9,11.9"/>
		<path fill="none" stroke="#231F20" stroke-width="4" stroke-miterlimit="10" d="M207.9,55.4c1.4,0.6,2.2,1.4,1.8,2.5
			c-1.3,3.7-6.1,5.8-4.1,8.2c2,2.5,5.3,2.5,0.2,6.2c-5.1,3.7-7.4,8.3-13.9,8.3c-6.5,0-12.9-1.2-15.7,2.1c-2.7,3.3-0.6,4.5-4.2,7.4
			c-2.3,1.8-5.7,3.7-7.5,5.4"/>
		<path fill="none" stroke="#231F20" stroke-width="4" stroke-miterlimit="10" d="M189.8,116.8c-0.3,1.2-0.9,2-1.7,2.9
			c-1.2,1.4-2.9,3.1-4.2,6.8c-2.6,7.3-3.4,9,0,12.7c0,0,0.1,0.1,0.1,0.1c3.6,3.7,5.4,6.6,7,7.8c0,0-4,0.4-6.4,4.1
			c-0.2,0.3-0.4,0.5-0.6,0.8c-2.1,2.8-3.7,2-6.9,5.4c-3.5,3.7-3,4.9-7.5,7.4c-4.5,2.5-6.2,3.7-13.5,7.4s-6.7,7-11.8,6.2
			c-5-0.8-3.2-6.6-8.2-8.7c-4.4-1.8-4.6-4.3-8.9-7.8c-0.5-0.4-1.1-0.8-1.7-1.3c-2.9-2-5.2-2.6-6.2-3.4c-1-0.8-0.4-1.7,3-4.5
			c6.5-5.4,13.1-7.9,13.6-13.2c0-0.5,0.1-0.9,0.2-1.4c0.7-4.9,2.1-9.8-1.2-15.1c-3.6-5.8-3.4-6.2-9.3-5.4c-3.4,0.5-6.4,1.2-8.1,1.1
			c-1.3-0.1-2-0.6-1.8-2c0.6-3.3,5.3-6.2-1.3-6.2c-2,0-3.8,0.2-5.4,0.3c-2.3,0.2-4.1,0.3-4.7-0.5c-0.4-0.4-0.5-1.1,0-2.3
			c0.2-0.5,0.4-1,0.6-1.4c1.9-4,4.9-7.9,4.1-10.1c-0.9-2.5-0.9-2.5-7.2-2.9c-6.3-0.4-11.1,1.7-13.2-0.8c-1.3-1.6-4.1-2-5.8-3.9
			c-1-1.1-1.6-2.6-1.6-5.1c0.2-7,4.5-9.1-4.8-7.8c-0.8,0.1-1.6,0.2-2.3,0.4c-7.6,1.3-10.7,3.3-17.4-1.2c-2.4-1.6,8-0.8,10.9-4.5
			C70.7,67,81,56.3,86.2,53.4c5.2-2.9,23.2-7.4,29.6-11.5s8-6.2,15-6.2c7.1,0,7,1.2,14.2-2.5s12.1-5.8,20.5-7.4
			c8.4-1.6,11.2-4.9,16.4-2.5c5.3,2.5,6.8-4.9,5.3,2.5c-0.8,4-0.5,7,0.7,9.3c1.1,2,3,3.4,5.5,4.4c5.5,2.1,17.4,2.1,16.1,5.8
			c-1.3,3.7-6.1,5.8-4.1,8.2c0.7,0.9,1.7,1.5,2.3,2c1,0.9,1.1,1.8-2.1,4.1c-5.1,3.7-7.4,8.3-13.9,8.3c-6.5,0-12.9-1.2-15.7,2.1
			c-2.7,3.3-0.6,4.5-4.2,7.4c-3.6,2.9-9.9,5.8-8.5,8.2c1.5,2.5-1.9,8.2,1,9.9c0,0,0,0,0,0c3,1.6,3.9-1.2,2.3,4.1
			c-1.6,5.4-4.9,6.6,0.4,7.8c5.4,1.2,12.9,2.5,16,0c3.1-2.5,4.4-6.2,4.7-1.2c0.2,4.9,1.3,2.9,1.9,8.2
			C189.9,115.4,189.9,116.1,189.8,116.8"/>
		<polyline fill="none" stroke="#231F20" stroke-width="4" stroke-miterlimit="10" points="56.9,75.2 56.9,87.2 56.9,88 		"/>
		<polyline fill="none" stroke="#231F20" stroke-width="4" stroke-miterlimit="10" points="119.4,157.3 119.4,168.4 119.4,168.6 		
			"/>
		<line fill="none" stroke="#231F20" stroke-width="4" stroke-miterlimit="10" x1="191" y1="147.1" x2="191" y2="159.8"/>
		<polyline fill="none" stroke="#231F20" stroke-width="4" stroke-miterlimit="10" points="189.8,116.7 189.8,116.8 189.8,126.5 
			189.8,127.2 		"/>
		<polyline fill="none" stroke="#231F20" stroke-width="4" stroke-miterlimit="10" points="104.5,108.3 104.5,110.6 104.5,121 		"/>
	</g>
</g>
</svg>
