<?xml version="1.0" encoding="utf-8"?>
<!-- Generator: Adobe Illustrator 18.1.0, SVG Export Plug-In . SVG Version: 6.00 Build 0)  -->
<svg version="1.1" id="圖層_1" xmlns="http://www.w3.org/2000/svg" xmlns:xlink="http://www.w3.org/1999/xlink" x="0px" y="0px"
	 viewBox="0 0 265 212" enable-background="new 0 0 265 212" xml:space="preserve">
<g id="XMLID_25_">
	<g>
		<path fill="#231F20" d="M246.9,81.7c0.2,0.8-0.1,1.7-1,2.5c-2.6,2.4-5,2.9-6.2,6.2c-1.2,3.2-10.2,4.3-11.9,7
			c-1.7,2.7-0.1,3.7-1.2,4.6c-1.1,0.8-5.3,0-8.1,2.1c-2.8,2.1-3.9,4.3-6.5,4.6c-2.6,0.3-2.8-0.8-5.5-1.1s-3.5,2.1-5.1,1.1
			c-1.6-1.1-0.4-2.7-4.3-1.3c-3.8,1.3-3,2.4-7.2,3.2c-4.3,0.8-10.5-1.6-14.6,0.3c-4.1,1.9-8,5.4-10.2,5.6c-2.3,0.3-3.7-0.3-6.3,0
			s-10.1,5.4-13.7,7c-3.6,1.6-4.7-2.7-8.5,0c-3.8,2.7-5.8,6.7-8.5,7.2c-2.7,0.5-6.3,0.5-9.5,0c-3.2-0.5-1.5-2.7-4.2-2.1
			c-2.7,0.5-0.9,1.1-4.8,2.5c-3.9,1.5-6.7,0.7-10.1,2.6c-3.4,1.9-3.4,6.2-6.8,7.2c-3.4,1.1-2.8-2.9-6.1-2.7c-3.3,0.3-3,3.2-6.9,4.6
			c-3.8,1.4-3.9,2.2-6.5,4.6c-2.6,2.4-4.5,1.9-9.4,3.2c-4.9,1.3-8.6,0.3-12,0c-3.4-0.3-2.5-1.3-5.6-0.8c0,0,4.5-2.7,3-4.6
			c-0.5-0.7-1.7-1-3-1.3v-2.4c3.1-0.5,2.2,0.5,5.6,0.8c3.4,0.3,7.1,1.3,12,0s6.7-0.8,9.4-3.2c2.6-2.4,2.7-3.2,6.5-4.6
			c3.8-1.3,3.5-4.3,6.9-4.6c3.3-0.3,2.7,3.7,6.1,2.7s3.4-5.4,6.8-7.2c3.4-1.9,6.2-1.1,10.1-2.6c3.9-1.5,2.1-2,4.8-2.5
			c2.7-0.5,1,1.6,4.2,2.1c3.2,0.5,6.8,0.5,9.5,0c2.7-0.5,4.7-4.6,8.5-7.2c3.8-2.7,4.8,1.6,8.5,0c3.6-1.6,11.1-6.7,13.7-7
			s4.1,0.3,6.3,0c2.2-0.3,6.1-3.7,10.2-5.6c4.1-1.9,10.3,0.5,14.6-0.3c4.3-0.8,3.4-1.9,7.2-3.2c3.8-1.4,2.7,0.3,4.3,1.3
			c1.6,1.1,2.4-1.3,5.1-1.1s2.9,1.3,5.5,1.1c2.6-0.3,3.7-2.4,6.5-4.6c2.8-2.1,7-1.3,8.1-2.1c1.1-0.8-0.5-1.9,1.2-4.6
			c1.7-2.7,10.7-3.7,11.9-7c0.3-0.8,0.7-1.4,1.1-1.9c0.3-0.1,0.6-0.2,1-0.3C244.5,79.2,246.6,80.2,246.9,81.7z"/>
		<path fill="#FFFFFF" d="M246.9,74.3c-0.1,0.5-0.4,1.1-1,1.6c-2,1.8-3.9,2.6-5.2,4.3c-3.7,1.2-5.4,3.3-8.6,1.3
			c-3.5-2.1-5.5-3.2-10-1.9c-4.5,1.3,0,0-1-3.7c-0.7-2.7,1.1-3.7,1.7-4.7c4-1,6,0,9.3,2.1c3.5,2.1,5.2-0.5,9.6-1.6
			C245.1,70.8,247.3,72.4,246.9,74.3z"/>
		<path fill="#231F20" d="M246.9,74.3v7.4c-0.3-1.5-2.4-2.5-5.2-1.8c-0.3,0.1-0.7,0.2-1,0.3c1.3-1.7,3.2-2.4,5.2-4.3
			C246.5,75.4,246.8,74.8,246.9,74.3z"/>
		<path fill="#FFFFFF" d="M240.7,80.2c-0.4,0.5-0.8,1.1-1.1,1.9c-1.2,3.2-10.2,4.3-11.9,7c-1.7,2.7-0.1,3.7-1.2,4.6
			c-1.1,0.8-5.3,0-8.1,2.1c-2.8,2.1-3.9,4.3-6.5,4.6c-2.6,0.3-2.8-0.8-5.5-1.1s-3.5,2.1-5.1,1.1c-1.6-1.1-0.4-2.7-4.3-1.3
			c-3.8,1.3-3,2.4-7.2,3.2c-4.3,0.8-10.5-1.6-14.6,0.3c-4.1,1.9-8,5.4-10.2,5.6c-2.3,0.3-3.7-0.3-6.3,0s-10.1,5.4-13.7,7
			c-3.6,1.6-4.7-2.7-8.5,0c-3.8,2.7-5.8,6.7-8.5,7.2c-2.7,0.5-6.3,0.5-9.5,0c-3.2-0.5-1.5-2.7-4.2-2.1c-2.7,0.5-0.9,1.1-4.8,2.5
			c-3.9,1.5-6.7,0.7-10.1,2.6c-3.4,1.9-3.4,6.2-6.8,7.2s-2.8-2.9-6.1-2.7c-3.3,0.3-3,3.2-6.9,4.6c-3.8,1.3-3.9,2.2-6.5,4.6
			c-2.6,2.4-4.5,1.9-9.4,3.2s-8.6,0.3-12,0c-3.4-0.3-2.5-1.3-5.6-0.8c0,0,4.5-2.7,3-4.6c-1.3-1.7-6-1.5-7.9-2.8
			c-0.3-0.2-0.5-0.4-0.6-0.7c-1-2.1,3-1.1,0.2-4.6c-2.8-3.5-5.8-5.4-11.3-7c-1.2-0.3-2-0.8-2.4-1.4c-1.6-2,0.7-4.9-0.5-7
			c-0.5-0.9-1.3-1.9-2.2-2.7c0.9-1,1.8-1.8,2.5-2.4c1.9-1.6,2.3,0.3,4.3-4.3c0.7-1.6,0.7-2.1,0.6-2.2c0.2,0.1,0.9,0,3.5-1.8
			c5.9-4,7.2-2.4,9.2-6.4c2-4,1.6-2.4,6.4-6.4c4.8-4,9.1-7,13.4-11.2s5.3-6.4,8.6-5.9c1.2,0.2,1.7,0.5,2,1c0.4,0.9,0.3,2.4,1.9,5.4
			c2.5,4.8,2.9,9.1,9.2,9.9c6.3,0.8,8.4,3,12.5,5.4c4.1,2.4,2.8,4.3,7.5,4.8c4.7,0.5,8.5-0.8,12.1-0.3c3.6,0.5,1.7,4.3,3.6,0.5
			c1.9-3.7,2-6.2,5.8-6.7c3.8-0.5,6.6,3.7,14,3c7.4-0.6,7.9-3.1,9.9,0c2,3.1,1.8,2.8,8.1,0c6.3-2.8,10.9-1.4,13.3-4.1
			c2.4-2.7,0.9-1.9,7.4-4.3c6.5-2.4,8.2-2.9,10.8-5.4c2.6-2.4,1.1-2.1,5.4-1.6c4.3,0.5,5.2-1.9,7.8-2.9c2.6-1.1,4-2.4,9.3-3.7
			c3.8-1,6.3-2,7.9-1.9c-0.3,2.5-3,3.3,0.8,2.2c0.2-0.1,0.5-0.1,0.7-0.2c-0.6,1-2.3,2-1.7,4.7c1,3.7-3.6,5.1,1,3.7
			c4.5-1.3,6.5-0.3,10,1.9C235.3,83.5,237,81.4,240.7,80.2z"/>
		<path fill="#231F20" d="M222.7,69.9c0.3,0.5,0.3,0.9,0.1,1.2c-0.2,0.1-0.5,0.1-0.7,0.2c-3.8,1.1-1.2,0.4-0.8-2.2
			C221.8,69.2,222.3,69.5,222.7,69.9z"/>
		<path fill="#FFFFFF" d="M222.7,61.6c0.4,0.5,0.3,1,0,1.4V61.6z"/>
		<path fill="#231F20" d="M222.7,63v6.9c-0.4-0.5-0.8-0.7-1.5-0.7c0.1-0.5,0-1-0.1-1.6C220.5,65.1,222,64,222.7,63z"/>
		<path fill="#FFFFFF" d="M222.7,61.6V63c-0.6,1-2.2,2-1.6,4.6c0.1,0.6,0.2,1.1,0.1,1.6c-1.6-0.1-4.1,0.9-7.9,1.9
			c-5.2,1.3-6.6,2.7-9.3,3.7c-2.7,1.1-3.5,3.5-7.8,2.9c-4.3-0.5-2.8-0.8-5.4,1.6c-2.6,2.4-4.3,2.9-10.8,5.4c-6.5,2.4-5,1.6-7.4,4.3
			c-2.4,2.7-7,1.3-13.3,4.1c-6.3,2.8-6.1,3.1-8.1,0c-2-3.1-2.5-0.6-9.9,0c-7.4,0.6-10.2-3.6-14-3c-3.8,0.5-3.9,2.9-5.8,6.7
			c-1.9,3.7,0,0-3.6-0.5c-3.6-0.5-7.4,0.8-12.1,0.3c-4.7-0.5-3.4-2.4-7.5-4.8c-4.1-2.4-6.2-4.6-12.5-5.4c-6.3-0.8-6.6-5.1-9.2-9.9
			c-1.6-3-1.4-4.6-1.9-5.4l3.1-0.2c1.6,3.7,2.8,6.6,7.9,7.3c6.3,0.8,8.4,3,12.5,5.4c4.1,2.4,2.8,4.3,7.5,4.8
			c4.7,0.5,8.5-0.8,12.1-0.3c3.6,0.5,1.7,4.3,3.6,0.5c1.9-3.7,2-6.2,5.8-6.7c3.8-0.5,6.6,3.7,14,3c7.4-0.6,7.9-3.1,9.9,0
			c2,3.1,1.8,2.8,8.1,0c6.3-2.8,10.9-1.4,13.3-4.1c2.4-2.7,0.9-1.9,7.4-4.3c6.5-2.4,8.2-2.9,10.8-5.4c2.6-2.4,1.1-2.1,5.4-1.6
			c4.3,0.5,5.2-1.9,7.8-2.9c2.6-1.1,4-2.4,9.3-3.7C218.5,61.4,221.4,60,222.7,61.6z"/>
		<path fill="#FFFFFF" d="M77.9,70.8L74.8,71c-0.3-0.5-0.8-0.8-2-1c-3.3-0.5-4.3,1.6-8.6,5.9s-8.5,7.2-13.4,11.2
			c-4.8,4-4.4,2.4-6.4,6.4c-2,4-3.3,2.4-9.2,6.4c-2.6,1.8-3.4,1.9-3.5,1.8c0-0.1-0.1,0,0,0c0.1,0.1,0.1,0.6-0.6,2.2
			c-1.9,4.6-2.4,2.7-4.3,4.3c-0.7,0.6-1.6,1.4-2.5,2.4c-1.6-1.5-3.2-2.6-3.2-2.6v0c0.7-3.5,3.9-6.4,5.8-8c1.9-1.6,2.3,0.3,4.3-4.3
			c0.7-1.6,0.7-2.1,0.6-2.2c0.2,0.1,0.9,0,3.5-1.8c5.9-4,7.2-2.4,9.2-6.4c2-4,1.6-2.4,6.4-6.4c4.8-4,9.1-7,13.4-11.2
			s5.3-6.4,8.6-5.9c3.3,0.5,1.3,1.6,3.8,6.4C77.2,69.1,77.6,69.9,77.9,70.8z"/>
		<path fill="#231F20" d="M49.2,136.8c1.5,1.9-3,4.6-3,4.6v2.4c-2.2-0.5-4.9-0.8-5.5-2.2c-1-2.1,3-1.1,0.2-4.6
			c-0.7-0.9-1.4-1.6-2.2-2.3l2.6-0.7C43.2,135.3,47.9,135.1,49.2,136.8z"/>
		<path fill="#231F20" d="M49.2,145.1c1.5,1.9-3,4.6-3,4.6v-5.9C47.5,144,48.7,144.4,49.2,145.1z"/>
		<path fill="#231F20" d="M41.3,134l-2.6,0.7c-2.3-2.1-5-3.4-9.1-4.6c-5.5-1.6-1.4-5.6-2.9-8.3c-0.2-0.3-0.4-0.7-0.7-1l1.2-0.3
			c0.4,0.5,1.2,1,2.4,1.4c5.5,1.6,8.5,3.5,11.3,7c2.8,3.5-1.2,2.4-0.2,4.6C40.9,133.6,41.1,133.8,41.3,134z"/>
		<path fill="#FFFFFF" d="M31.8,93.6C31.8,93.6,31.8,93.5,31.8,93.6L31.8,93.6z"/>
		<path fill="#FFFFFF" d="M31.8,101.9C31.8,101.8,31.8,101.8,31.8,101.9L31.8,101.9z"/>
		<path fill="#231F20" d="M27.1,120.4l-1.2,0.3c-1.7-2.3-4.8-4.4-4.8-4.4c0.4-2.1,1.8-4.1,3.2-5.6c0.9,0.8,1.7,1.8,2.2,2.7
			C27.8,115.5,25.5,118.4,27.1,120.4z"/>
		<path fill="#231F20" d="M24.4,110.7c-1.4,1.6-2.8,3.5-3.2,5.6v-8.3C21.2,108.1,22.9,109.2,24.4,110.7z"/>
	</g>
	<g>
		<path fill="none" stroke="#231F20" stroke-width="4" stroke-miterlimit="10" d="M240.7,80.2c0.3-0.1,0.6-0.2,1-0.3
			c2.9-0.7,4.9,0.3,5.2,1.8c0.2,0.8-0.1,1.7-1,2.5c-2.6,2.4-5,2.9-6.2,6.2c-1.2,3.2-10.2,4.3-11.9,7c-1.7,2.7-0.1,3.7-1.2,4.6
			c-1.1,0.8-5.3,0-8.1,2.1c-2.8,2.1-3.9,4.3-6.5,4.6c-2.6,0.3-2.8-0.8-5.5-1.1s-3.5,2.1-5.1,1.1c-1.6-1.1-0.4-2.7-4.3-1.3
			c-3.8,1.3-3,2.4-7.2,3.2c-4.3,0.8-10.5-1.6-14.6,0.3c-4.1,1.9-8,5.4-10.2,5.6c-2.3,0.3-3.7-0.3-6.3,0s-10.1,5.4-13.7,7
			c-3.6,1.6-4.7-2.7-8.5,0c-3.8,2.7-5.8,6.7-8.5,7.2c-2.7,0.5-6.3,0.5-9.5,0c-3.2-0.5-1.5-2.7-4.2-2.1c-2.7,0.5-0.9,1.1-4.8,2.5
			c-3.9,1.5-6.7,0.7-10.1,2.6c-3.4,1.9-3.4,6.2-6.8,7.2c-3.4,1.1-2.8-2.9-6.1-2.7c-3.3,0.3-3,3.2-6.9,4.6c-3.8,1.4-3.9,2.2-6.5,4.6
			c-2.6,2.4-4.5,1.9-9.4,3.2c-4.9,1.3-8.6,0.3-12,0c-3.4-0.3-2.5-1.3-5.6-0.8c0,0,4.5-2.7,3-4.6c-0.5-0.7-1.7-1-3-1.3
			c-2.2-0.5-4.9-0.8-5.5-2.2c-1-2.1,3-1.1,0.2-4.6c-0.7-0.9-1.4-1.6-2.2-2.3c-2.3-2.1-5-3.4-9.1-4.6c-5.5-1.6-1.4-5.6-2.9-8.3
			c-0.2-0.3-0.4-0.7-0.7-1c-1.7-2.3-4.8-4.4-4.8-4.4c0.4-2.1,1.8-4.1,3.2-5.6"/>
		<path fill="none" stroke="#231F20" stroke-width="4" stroke-miterlimit="10" d="M221.2,69.2c0.6,0,1.1,0.3,1.5,0.7
			c0.3,0.5,0.3,0.9,0.1,1.2"/>
		<path fill="none" stroke="#231F20" stroke-width="4" stroke-miterlimit="10" d="M31.8,93.6c0.2,0.1,0.9,0,3.5-1.8
			c5.9-4,7.2-2.4,9.2-6.4c2-4,1.6-2.4,6.4-6.4c4.8-4,9.1-7,13.4-11.2s5.3-6.4,8.6-5.9c3.3,0.5,1.3,1.6,3.8,6.4
			c0.5,0.9,0.9,1.8,1.2,2.6c1.6,3.7,2.8,6.6,7.9,7.3c6.3,0.8,8.4,3,12.5,5.4c4.1,2.4,2.8,4.3,7.5,4.8c4.7,0.5,8.5-0.8,12.1-0.3
			c3.6,0.5,1.7,4.3,3.6,0.5c1.9-3.7,2-6.2,5.8-6.7c3.8-0.5,6.6,3.7,14,3c7.4-0.6,7.9-3.1,9.9,0c2,3.1,1.8,2.8,8.1,0
			c6.3-2.8,10.9-1.4,13.3-4.1c2.4-2.7,0.9-1.9,7.4-4.3c6.5-2.4,8.2-2.9,10.8-5.4c2.6-2.4,1.1-2.1,5.4-1.6c4.3,0.5,5.2-1.9,7.8-2.9
			c2.6-1.1,4-2.4,9.3-3.7c5.3-1.4,8.1-2.8,9.4-1.2c0.4,0.5,0.3,1,0,1.4c-0.6,1-2.2,2-1.6,4.6c0.1,0.6,0.2,1.1,0.1,1.6
			c-0.3,2.5-3,3.3,0.8,2.2c0.2-0.1,0.5-0.1,0.7-0.2c4-1,6,0,9.3,2.1c3.5,2.1,5.2-0.5,9.6-1.6c3.4-0.8,5.6,0.8,5.2,2.7
			c-0.1,0.5-0.4,1.1-1,1.6c-2,1.8-3.9,2.6-5.2,4.3c-0.4,0.5-0.8,1.1-1.1,1.9c-1.2,3.2-10.2,4.3-11.9,7c-1.7,2.7-0.1,3.7-1.2,4.6
			c-1.1,0.8-5.3,0-8.1,2.1c-2.8,2.1-3.9,4.3-6.5,4.6c-2.6,0.3-2.8-0.8-5.5-1.1s-3.5,2.1-5.1,1.1c-1.6-1.1-0.4-2.7-4.3-1.3
			c-3.8,1.3-3,2.4-7.2,3.2c-4.3,0.8-10.5-1.6-14.6,0.3c-4.1,1.9-8,5.4-10.2,5.6c-2.3,0.3-3.7-0.3-6.3,0s-10.1,5.4-13.7,7
			c-3.6,1.6-4.7-2.7-8.5,0c-3.8,2.7-5.8,6.7-8.5,7.2c-2.7,0.5-6.3,0.5-9.5,0c-3.2-0.5-1.5-2.7-4.2-2.1c-2.7,0.5-0.9,1.1-4.8,2.5
			c-3.9,1.5-6.7,0.7-10.1,2.6c-3.4,1.9-3.4,6.2-6.8,7.2s-2.8-2.9-6.1-2.7c-3.3,0.3-3,3.2-6.9,4.6c-3.8,1.3-3.9,2.2-6.5,4.6
			c-2.6,2.4-4.5,1.9-9.4,3.2s-8.6,0.3-12,0c-3.4-0.3-2.5-1.3-5.6-0.8c0,0,4.5-2.7,3-4.6c-1.3-1.7-6-1.5-7.9-2.8
			c-0.3-0.2-0.5-0.4-0.6-0.7c-1-2.1,3-1.1,0.2-4.6c-2.8-3.5-5.8-5.4-11.3-7c-1.2-0.3-2-0.8-2.4-1.4c-1.6-2,0.7-4.9-0.5-7
			c-0.5-0.9-1.3-1.9-2.2-2.7c-1.6-1.5-3.2-2.6-3.2-2.6"/>
		<path fill="none" stroke="#231F20" stroke-width="4" stroke-miterlimit="10" d="M31.8,93.6C31.8,93.5,31.8,93.6,31.8,93.6
			L31.8,93.6z"/>
		<path fill="none" stroke="#231F20" stroke-width="4" stroke-miterlimit="10" d="M21.2,108.1c0.7-3.5,3.9-6.4,5.8-8
			c1.9-1.6,2.3,0.3,4.3-4.3c0.7-1.6,0.7-2.1,0.6-2.2"/>
		<polyline fill="none" stroke="#231F20" stroke-width="4" stroke-miterlimit="10" points="21.2,108.1 21.2,108.1 21.2,116.4 		"/>
		<polyline fill="none" stroke="#231F20" stroke-width="4" stroke-miterlimit="10" points="46.2,149.6 46.2,143.7 46.2,141.3 		"/>
		<polyline fill="none" stroke="#231F20" stroke-width="4" stroke-miterlimit="10" points="222.7,61.6 222.7,63 222.7,69.9 		"/>
		<polyline fill="none" stroke="#231F20" stroke-width="4" stroke-miterlimit="10" points="246.9,74.2 246.9,74.3 246.9,81.7 
			246.9,81.8 		"/>
	</g>
</g>
</svg>
