<?xml version="1.0" encoding="utf-8"?>
<!-- Generator: Adobe Illustrator 18.1.0, SVG Export Plug-In . SVG Version: 6.00 Build 0)  -->
<svg version="1.1" id="圖層_1" xmlns="http://www.w3.org/2000/svg" xmlns:xlink="http://www.w3.org/1999/xlink" x="0px" y="0px"
	 viewBox="0 0 265 212" enable-background="new 0 0 265 212" xml:space="preserve">
<g id="XMLID_30_">
	<g>
		<path fill="#231F20" d="M251.9,75.9V89c0,0-16.7,2.1-16.2,0c0.1-0.3,0.1-0.6,0.1-0.9c6.4-3.6,13.1-7.9,14.3-9.7
			C251.9,75.9,251.9,75.9,251.9,75.9z"/>
		<path fill="#FFFFFF" d="M251.9,75.9c0,0,0,0-1.8,2.5c-1.3,1.8-8,6.1-14.3,9.7c-0.2-1.8-2.2-3.3-5.4-0.8c-3.7,3-6.4,3.8-11.3,1.3
			c-4.9-2.5-11.4-3-6.8-7.6c2.4-2.5,4.4-4.1,6-5.9c0.3,0.1,0.6,0.2,0.8,0.4c4.9,2.5,7.5,1.7,11.3-1.3c3.7-3,5.8-0.4,5.3,1.7
			C235.2,78,251.9,75.9,251.9,75.9z"/>
		<path fill="#231F20" d="M251.9,89c0,0,0,0-1.8,2.5c-1.8,2.6-14.6,10.2-21.9,13.6c-7.3,3.4-9.9,13.2-14.6,17
			c-4.7,3.8-15.5,9.8-22.8,13.2c-7.3,3.4-14.7,8.1-21.6,11.9c-6.9,3.8-9.9,3-14.6,3.4c-4.7,0.4-0.3,5.1-3.6,7.2
			c-3.3,2.1-6.2,1.3-11.3,4.7c-5,3.4-6,9.8-10.6,12.3c-4.6,2.5-13,4.7-19,5.5c-6,0.9-6.5,8.5-11.2,9.1c-4.8,0.6-16.8-2.3-20.7-2.3
			c-3.9,0-8.8,3-15,2.1c-6.1-0.8-6.2-5.3-6.2-5.5c-9.4-1.3-6.3-6.4-10.5-8.1c-3.4-1.4-11,2.6-13.7,4.1v-0.7c0.8-1.2,1.9-3.2,2.6-5.9
			c1.2-4.7-1.2-4.2-2.6-5.9c-0.1-0.1-0.2-0.3-0.3-0.4c2.4-1.4,10.4-5.7,13.9-4.2c4.2,1.7,1.1,6.8,10.5,8.1c0,0.2,0.1,4.7,6.2,5.5
			c6.3,0.8,11.1-2.1,15-2.1c3.9,0,15.9,2.9,20.7,2.3c4.8-0.6,5.2-8.2,11.2-9.1c6-0.8,14.3-3,19-5.5c4.6-2.5,5.6-8.9,10.6-12.3
			c5-3.4,8-2.5,11.3-4.7c3.3-2.1-1.1-6.8,3.6-7.2c4.7-0.4,7.6,0.4,14.6-3.4c6.9-3.8,14.3-8.5,21.6-11.9c7.3-3.4,18.1-9.3,22.8-13.2
			c4.7-3.8,7.3-13.6,14.6-17c2.2-1,4.8-2.4,7.5-3.9c0,0.3,0,0.6-0.1,0.9C235.2,91.2,251.9,89,251.9,89z"/>
		<path fill="#FFFFFF" d="M230.4,87.3c3.2-2.5,5.2-1,5.4,0.8c-2.7,1.5-5.4,2.9-7.5,3.9c-7.3,3.4-9.9,13.2-14.6,17
			c-4.7,3.8-15.5,9.8-22.8,13.2c-7.3,3.4-14.7,8.1-21.6,11.9c-6.9,3.8-9.9,3-14.6,3.4c-4.7,0.4-0.3,5.1-3.6,7.2
			c-3.3,2.1-6.2,1.3-11.3,4.7c-5,3.4-6,9.8-10.6,12.3c-4.6,2.5-13,4.7-19,5.5c-6,0.8-6.5,8.5-11.2,9.1c-4.8,0.6-16.8-2.3-20.7-2.3
			c-3.9,0-8.8,3-15,2.1c-6.1-0.8-6.2-5.3-6.2-5.5c-9.4-1.3-6.3-6.4-10.5-8.1c-3.5-1.4-11.5,2.9-13.9,4.2c-0.1-0.1-0.1-0.2-0.1-0.3
			c0.8-1.1,2.2-3.3,3-6.5c1.2-4.7-1.2-4.2-2.6-5.9c-1.4-1.7,0.9-5.1-0.3-7.2c-1.1-2.1-3.6-0.8-5.6-3.4s-2-7.2-6.4-8.5
			c-1.3-0.4-2.5-0.9-3.6-1.6c0.5-2.6,4.8-4.2,7.6-7c3.1-3,8.3-3,9.9-6.4c1.7-3.4-3-6.4-2-9.3c0.3-0.9,0.9-1.9,1.8-2.9
			c1.8-2.1,4.6-4.3,6.6-6.1c1.5-1.3,4.7-3.5,7.5-5.4c2.8-1.9,5.3-3.5,5.3-3.5s-1.6-4.7,2.3-10.2c0.7-1,1.4-1.9,2.1-2.7
			c3-3.3,5.8-4.4,8.3-5.8c3.1-1.7,1.9-3.8,3.2-6.4c1.3-2.5,6.8-1.3,9.2-1.7c2.4-0.4,0.5-5.5,0.5-5.5s5.5,1.3,10.7,4.3
			c5.2,3,6.2,0,10.6,1.3s8.5-1.3,15.5-3c7-1.7,3.4-4.7,6.7-6.8c3.3-2.1,9.8,1.7,14-1.3c4.3-3,6.6-4.2,13.3-6.4
			c6.6-2.1,6.8-4.7,10.5-4.2c3.7,0.4,5.5-2.1,14.3-5.1c8.7-3,11.4-3.8,19.2-2.5c7.8,1.3,17.5,0.8,25.4,5.1c1.5,0.8,2.5,1.4,3,2
			c2.4,2.3-2.8,2.6-4.9,4c-2.5,1.7,1.3,3,4.1,6.4c0.1,0.1,0.2,0.2,0.3,0.3c0,0,0,0,0,0c-0.2,0.6-0.5,1.2-0.6,1.8
			c-1.4,5.1-4.5,6.8-9.1,11.5c-4.3,4.4,1.2,5,6,7.3c-1.6,1.8-3.6,3.4-6,5.9c-4.6,4.7,1.9,5.1,6.8,7.6
			C224,91.2,226.7,90.3,230.4,87.3z"/>
		<path fill="#FFFFFF" d="M226.4,46.1c0.5,0.6,0.7,1,0.6,1.3c-0.1,0.2-0.3,0.4-0.6,0.7V46.1z"/>
		<path fill="#231F20" d="M226.4,59.3c0.5,0.6,0.7,1,0.6,1.3c-0.4,0.8-4.1,3.8-5.6,8.9c-0.7,2.4-1.7,4-3.1,5.6
			c-4.7-2.2-10.3-2.9-6-7.3c4.6-4.7,7.6-6.4,9.1-11.5c0.2-0.6,0.4-1.3,0.6-1.8C223.8,56.6,225.5,58.2,226.4,59.3z"/>
		<path fill="#231F20" d="M226.4,48.1v11.2c-0.9-1.1-2.6-2.7-4.4-4.8c0,0,0,0,0,0C223.3,51.4,225.4,49.2,226.4,48.1z"/>
		<path fill="#FFFFFF" d="M226.4,46.1v2c-1,1.1-3.1,3.3-4.4,6.4c-0.1-0.1-0.2-0.2-0.3-0.3c-2.8-3.4-6.6-4.7-4.1-6.4
			c2.1-1.4,7.2-1.6,4.9-4l1.6-0.2C225.1,44.7,225.9,45.5,226.4,46.1z"/>
		<path fill="#FFFFFF" d="M224.1,43.7l-1.6,0.2c-0.6-0.5-1.5-1.2-3-2c-8-4.2-17.7-3.8-25.4-5.1c-7.8-1.3-10.4-0.4-19.2,2.5
			c-8.8,3-10.6,5.5-14.3,5.1c-3.7-0.4-3.9,2.1-10.5,4.2c-6.7,2.1-9,3.4-13.3,6.4c-4.3,3-10.8-0.8-14,1.3c-3.3,2.1,0.3,5.1-6.7,6.8
			c-7,1.7-11.1,4.3-15.5,3s-5.3,1.7-10.6-1.3c-5.2-3-10.7-4.3-10.7-4.3s1.9,5.1-0.5,5.5c-2.4,0.4-8-0.8-9.2,1.7
			c-1.3,2.5-0.1,4.7-3.2,6.4c-2.5,1.4-5.2,2.5-8.3,5.8l-4.7-0.1c0.2-0.1,0.3-0.2,0.3-0.2S52.1,75,56,69.5c3.9-5.5,7.3-6.8,10.4-8.5
			c3.1-1.7,1.9-3.8,3.2-6.4c1.3-2.6,6.8-1.3,9.2-1.7c2.4-0.4,0.5-5.5,0.5-5.5s5.5,1.3,10.7,4.2c5.2,3,6.2,0,10.6,1.3
			c4.4,1.3,8.5-1.3,15.5-3c7-1.7,3.4-4.7,6.7-6.8c3.3-2.1,9.8,1.7,14-1.3c4.3-3,6.6-4.2,13.3-6.4c6.6-2.1,6.8-4.7,10.5-4.2
			c3.7,0.4,5.5-2.1,14.3-5.1c8.7-3,11.4-3.8,19.2-2.5c7.8,1.3,17.5,0.8,25.4,5.1s0.7,4.2-1.8,5.9c-2.5,1.7,1.3,3,4.1,6.4
			C222.5,42,223.4,42.9,224.1,43.7z"/>
		<path fill="#FFFFFF" d="M53.5,79.9l4.7,0.1c-0.7,0.8-1.4,1.7-2.1,2.7c-3.9,5.5-2.3,10.2-2.3,10.2s-2.5,1.6-5.3,3.5
			c-2.8,1.9-6.1,4.1-7.5,5.4c-2,1.8-4.8,3.9-6.6,6.1l-0.2-0.2c0.2-0.2,0.3-0.5,0.5-0.7c1.7-3.4-3-6.4-2-9.3s5.4-6.4,8.4-8.9
			c1.5-1.3,4.7-3.5,7.5-5.4C50.7,81.7,52.8,80.3,53.5,79.9z"/>
		<path fill="#231F20" d="M32.9,154.1c1.4,1.7,3.8,1.3,2.6,5.9c-0.8,3.2-2.2,5.4-3,6.5c-0.5-1.8,1.1-4.7,0.1-6.5
			c-1.1-2.1-3.6-0.8-5.6-3.4s-2-7.2-6.4-8.5s-7.4-4.2-7.9-6.4v-0.4c0.4-1.8,6.2-2.2,6.2-2.2s-1.7-2.1-1.9-5.1c0-0.2,0-0.5,0.1-0.7
			c1,0.6,2.2,1.2,3.6,1.6c4.4,1.3,4.3,6,6.4,8.5s4.5,1.3,5.6,3.4C33.7,149,31.5,152.4,32.9,154.1z"/>
		<path fill="#FFFFFF" d="M32.5,110.7c-0.9,3,3.7,5.9,2,9.3c-1.7,3.4-6.9,3.4-9.9,6.4c-2.9,2.7-7.1,4.4-7.6,7
			c-2.4-1.5-3.9-3.3-4.3-4.8c-0.5-2.1,6.2-2.5,6.2-2.5s-1.7-2.1-1.9-5.1c-0.2-3,4.6-4.7,7.7-7.6c2.9-2.8,7.5-3,9.5-5.7l0.2,0.2
			C33.4,108.8,32.8,109.8,32.5,110.7z"/>
		<path fill="#231F20" d="M32.9,179.2v0.7c-0.5,0.3-0.8,0.5-0.9,0.5C32,180.3,32.4,179.9,32.9,179.2z"/>
		<path fill="#FFFFFF" d="M32.5,166.6c0,0.1,0.1,0.2,0.1,0.3c-0.4,0.2-0.6,0.3-0.7,0.4C32,167.2,32.2,167,32.5,166.6z"/>
		<path fill="#231F20" d="M16.9,134.1c0.2,3,1.9,5.1,1.9,5.1s-5.8,0.4-6.2,2.2v-12.8c0.3,1.5,1.9,3.4,4.3,4.8
			C16.9,133.7,16.9,133.9,16.9,134.1z"/>
		<path fill="#231F20" d="M12.7,141.4v0.4C12.7,141.6,12.7,141.5,12.7,141.4z"/>
	</g>
	<g>
		<path fill="none" stroke="#231F20" stroke-width="4" stroke-miterlimit="10" d="M218.3,75.1c1.4-1.5,2.4-3.2,3.1-5.6
			c1.4-5.1,5.1-8.1,5.6-8.9c0.1-0.3-0.1-0.7-0.6-1.3c-0.9-1.1-2.6-2.7-4.4-4.8"/>
		<path fill="none" stroke="#231F20" stroke-width="4" stroke-miterlimit="10" d="M31.9,180.5C31.9,180.5,31.9,180.5,31.9,180.5
			c0.1-0.1,0.5-0.3,1-0.6c2.7-1.5,10.3-5.5,13.7-4.1c4.2,1.7,1.1,6.8,10.5,8.1c0,0.2,0.1,4.7,6.2,5.5c6.3,0.8,11.1-2.1,15-2.1
			c3.9,0,15.9,2.9,20.7,2.3c4.8-0.6,5.2-8.2,11.2-9.1c6-0.8,14.3-3,19-5.5c4.6-2.5,5.6-8.9,10.6-12.3c5-3.4,8-2.5,11.3-4.7
			c3.3-2.1-1.1-6.8,3.6-7.2c4.7-0.4,7.6,0.4,14.6-3.4c6.9-3.8,14.3-8.5,21.6-11.9c7.3-3.4,18.1-9.3,22.8-13.2
			c4.7-3.8,7.3-13.6,14.6-17c7.3-3.4,20-11,21.9-13.6c1.8-2.5,1.8-2.5,1.8-2.5s-16.7,2.1-16.2,0c0.1-0.3,0.1-0.6,0.1-0.9"/>
		<path fill="none" stroke="#231F20" stroke-width="4" stroke-miterlimit="10" d="M32.6,166.9c0.1,0.1,0.2,0.3,0.3,0.4
			c1.4,1.7,3.8,1.3,2.6,5.9c-0.7,2.8-1.8,4.8-2.6,5.9c-0.5,0.7-0.8,1.1-0.9,1.2"/>
		<path fill="none" stroke="#231F20" stroke-width="4" stroke-miterlimit="10" d="M17,133.4c-0.1,0.2-0.1,0.4-0.1,0.7
			c0.2,3,1.9,5.1,1.9,5.1s-5.8,0.4-6.2,2.2c0,0.1,0,0.2,0,0.4c0.5,2.1,3.5,5.1,7.9,6.4s4.3,6,6.4,8.5s4.5,1.3,5.6,3.4
			c1,1.9-0.6,4.7-0.1,6.5"/>
		<path fill="none" stroke="#231F20" stroke-width="4" stroke-miterlimit="10" d="M222,54.5c1.3-3.1,3.4-5.3,4.4-6.4
			c0.3-0.3,0.5-0.5,0.6-0.7c0.1-0.3-0.1-0.7-0.6-1.3c-0.5-0.6-1.3-1.5-2.3-2.4c-0.7-0.8-1.6-1.7-2.4-2.7c-2.8-3.4-6.6-4.7-4.1-6.4
			c2.5-1.7,9.8-1.7,1.8-5.9s-17.7-3.8-25.4-5.1c-7.8-1.3-10.4-0.4-19.2,2.5c-8.8,3-10.6,5.5-14.3,5.1c-3.7-0.4-3.9,2.1-10.5,4.2
			c-6.7,2.1-9,3.4-13.3,6.4c-4.3,3-10.8-0.8-14,1.3c-3.3,2.1,0.3,5.1-6.7,6.8c-7,1.7-11.1,4.3-15.5,3c-4.4-1.3-5.3,1.7-10.6-1.3
			c-5.2-3-10.7-4.2-10.7-4.2s1.9,5.1-0.5,5.5c-2.4,0.4-8-0.9-9.2,1.7c-1.3,2.5-0.1,4.7-3.2,6.4c-3.1,1.7-6.5,3-10.4,8.5
			c-3.9,5.5-2.3,10.2-2.3,10.2s-0.1,0.1-0.3,0.2c-0.7,0.4-2.8,1.8-5.1,3.4c-2.8,1.9-6.1,4.1-7.5,5.4c-3,2.5-7.4,5.9-8.4,8.9
			s3.7,5.9,2,9.3c-0.1,0.3-0.3,0.5-0.5,0.7c-2,2.7-6.6,2.9-9.5,5.7c-3.1,3-7.9,4.7-7.7,7.6c0.2,3,1.9,5.1,1.9,5.1s-6.6,0.4-6.2,2.5
			c0.3,1.5,1.9,3.4,4.3,4.8c1,0.6,2.2,1.2,3.6,1.6c4.4,1.3,4.3,6,6.4,8.5s4.5,1.3,5.6,3.4c1.1,2.1-1.1,5.5,0.3,7.2
			c1.4,1.7,3.8,1.3,2.6,5.9c-0.8,3.2-2.2,5.4-3,6.5c-0.3,0.4-0.5,0.6-0.6,0.7"/>
		<path fill="none" stroke="#231F20" stroke-width="4" stroke-miterlimit="10" d="M31.9,167.3C31.9,167.3,31.9,167.3,31.9,167.3
			c0.1-0.1,0.4-0.2,0.7-0.4c2.4-1.4,10.4-5.7,13.9-4.2c4.2,1.7,1.1,6.8,10.5,8.1c0,0.2,0.1,4.7,6.2,5.5c6.3,0.8,11.1-2.1,15-2.1
			c3.9,0,15.9,2.9,20.7,2.3c4.8-0.6,5.2-8.2,11.2-9.1c6-0.8,14.3-3,19-5.5c4.6-2.5,5.6-8.9,10.6-12.3c5-3.4,8-2.5,11.3-4.7
			c3.3-2.1-1.1-6.8,3.6-7.2c4.7-0.4,7.6,0.4,14.6-3.4c6.9-3.8,14.3-8.5,21.6-11.9c7.3-3.4,18.1-9.3,22.8-13.2
			c4.7-3.8,7.3-13.6,14.6-17c2.2-1,4.8-2.4,7.5-3.9c6.4-3.6,13.1-7.9,14.3-9.7c1.8-2.5,1.8-2.5,1.8-2.5s-16.7,2.1-16.2,0
			c0.5-2.1-1.6-4.7-5.3-1.7c-3.7,3-6.4,3.8-11.3,1.3c-0.3-0.1-0.5-0.3-0.8-0.4c-4.7-2.2-10.3-2.9-6-7.3c4.6-4.7,7.6-6.4,9.1-11.5
			c0.2-0.6,0.4-1.3,0.6-1.8"/>
		<polyline fill="none" stroke="#231F20" stroke-width="4" stroke-miterlimit="10" points="226.4,46.1 226.4,48.1 226.4,59.3 
			226.4,60.6 		"/>
		<line fill="none" stroke="#231F20" stroke-width="4" stroke-miterlimit="10" x1="251.9" y1="75.9" x2="251.9" y2="89"/>
		<polyline fill="none" stroke="#231F20" stroke-width="4" stroke-miterlimit="10" points="12.7,128.6 12.7,141.4 12.7,141.8 		"/>
		<polyline fill="none" stroke="#231F20" stroke-width="4" stroke-miterlimit="10" points="32.9,167.3 32.9,179.2 32.9,179.9 
			32.9,180.5 		"/>
	</g>
</g>
</svg>
