<?xml version="1.0" encoding="utf-8"?>
<!-- Generator: Adobe Illustrator 18.1.0, SVG Export Plug-In . SVG Version: 6.00 Build 0)  -->
<svg version="1.1" id="圖層_1" xmlns="http://www.w3.org/2000/svg" xmlns:xlink="http://www.w3.org/1999/xlink" x="0px" y="0px"
	 viewBox="0 0 265 212" enable-background="new 0 0 265 212" xml:space="preserve">
<g id="XMLID_36_">
	<g>
		<path fill="#FFFFFF" d="M262.6,6.3c0.9,2,1.2,3.7,0.5,6.6c-0.1,0.5-0.4,0.8-0.8,1.1c-0.2-1.4,0.1-2.4-1.8-2.9
			c-2.4-0.6-0.4-1.4-6.4,0s-13,0.3-15.8,2c-2.8,1.7-6,5.2-8.5,5.7c-2.6,0.6-7,4.9-12.1,6.9s-5.3-0.9-9.3,2
			c-4.1,2.9-3.7,2.9-10.9,6.6s-13.6,4.6-13.6,4.6s-2.6,5.2-6.1,5.5s-15.4-3.2-17.5,0.3c-0.1,0.1-0.2,0.3-0.2,0.4
			c0.5-3.2-1.3-6.9,0.2-9.3c2.1-3.4,14,0,17.5-0.3s6.1-5.5,6.1-5.5s6.5-0.9,13.6-4.6s6.8-3.7,10.9-6.6c4.1-2.9,4.2,0,9.3-2
			s9.6-6.3,12.1-6.9c2.6-0.6,5.8-4,8.5-5.7c2.7-1.7,9.7-0.6,15.8-2s4.1-0.6,6.4,0C262.8,2.9,261.7,4.3,262.6,6.3z"/>
		<path fill="#231F20" d="M262.6,15.2c0.9,2,1.2,3.7,0.5,6.6c-0.3,1.1-1.8,1.8-3.6,2.4c0,0,0,0-0.1,0c-2.9-1.7-9-1.7-7.3-5.2
			c1.5-2.9,7.8-3.2,10.1-4.9C262.3,14.4,262.4,14.8,262.6,15.2z"/>
		<path fill="#FFFFFF" d="M260.4,11.2c1.9,0.5,1.6,1.5,1.8,2.9c-2.3,1.8-8.7,2-10.1,4.9c-1.7,3.4,4.3,3.4,7.3,5.2c0,0,0,0,0.1,0
			c-2.8,0.9-6.3,1.6-7.3,3.7c-0.9,1.9,0.4,2.7,2.3,3.4c-1.3,0.3-2.8,0.8-4.4,1.8c-4.3,2.6-11.1,4-16.7,5.5c-5.6,1.4-3,1.4-6.4,6
			s-4.4,3.4-6.6,6.3c-2.2,2.9-1.9,4.6-7.1,7.5c-5.2,2.9-6.2,6.3-8.8,10.3c-2.6,4-2.4,6.1-5.6,9.5s0.6,4-3.2,6.3
			c-3.8,2.3-3.3,0.6-8.5,3.2c-5.2,2.6-6.2,5.2-10.1,6.9c-3.9,1.7-6.3,6.6-7.8,10.3c-1.1,2.9-0.2,3.9,1.5,5.7c-0.6,1.1-1,2.2-1.5,3.2
			c-1.2,3.1-0.1,4,1.8,6c-0.8,1.2-1.5,2.1-1.5,2.1c-2.4-2-2.6-1.7-6-1.7c-3.4,0-9.6,4.9-14.5,4.9s-8.7-6.9-14.3-6.3
			c-5.6,0.6-7.1,1.4-11.5,0.3c-4.3-1.1-6.2,0.3-12,2s-8.9,4.9-11.8,5.5s-14.7,0.6-19.1,1.1c-4.4,0.6-2.5,2-4.1,3.8
			c-1.6,1.7-5.7,2.3-7.9,5.2s-4.7,10.9-7.4,15c-2.8,4-9,8.9-10.9,12.1c-1.5,2.4-2.1,5.7-3.9,9.1c-0.6,1.1-1.3,2.2-2.2,3.3
			c-3.7,4.3-5.5,8-10.9,9.8s-6.4,12.9-6.4,12.9s-5.1-4.9-7-8c-1.4-2.3-4.5-2.3-6.9-2.6c-0.4-0.8-0.9-1.6-1.5-2.9
			c1.2-1.3,3-2.8,2.5-4c-0.9-2-1.6-2.9-2.8-5.7s-2-5.2-4.1-6.9c-0.3-0.2-0.5-0.4-0.7-0.5c0.7-0.9,1.3-1.7,1.6-2.4
			c1.3-2.6,4.7-3.4,3.4-3.7c-1.4-0.3-0.8-1.4-2.4-5.8c-0.1-0.2-0.1-0.4-0.2-0.5c1.5-1.7,3.7-2.4,2.6-2.6s-0.9-1.1-1.8-3.9
			c0.4-1.2,0.7-2.4,0.6-3.9c-0.2-2.5-0.5-2.9-1.2-3.3c0.6-1.8,1.4-3.5,1.2-5.6c-0.1-1.2-0.2-1.9-0.4-2.4c0,0,0,0,0-0.1
			c-0.2-0.9-1-1.5-1.3-2.8c-0.2-0.9-0.1-1.9,0.2-2.9c0.3-0.3,0.6-0.7,0.8-1.1c0.4-0.7,0.4-1.3,0.4-1.7c0.1-0.3,0.3-0.6,0.4-0.9
			c1.2-2.5-0.5-3.9,0.1-6.2c0-0.1,0.1-0.3,0.1-0.4l7.9-2.9c0,0,2.1,2.6,2.3,3.7c0.2,1.2,3.7,1.7,6.2,2s1.9,2.3,4.3,3.4
			s7.4-1.1,10.7-0.3c3.3,0.9,10.8,1.1,13.6,0.9c2.8-0.3,5.2-5.2,8.3-7.5c3-2.3,6.5,1.4,11-0.9s5.1-7.2,6.3-8.9c1.2-1.7,4-2,8.1-4
			s3-3.7,4.7-4.9c1.7-1.1,5.4-0.3,9.4-1.4c4-1.1,7.6-5.5,10.5-7.5s10.4-4.9,15.6-7.8c5.2-2.9,7.3-7.8,11.5-12.4s12.7-8,17.2-11.8
			c3.8-3.2,1.3-7.8,1.7-11.2c0,0,0,0,0,0c0.2-0.4,0.3-0.8,0.3-1.3c0.1-0.1,0.1-0.3,0.2-0.4c2.1-3.4,14,0,17.5-0.3s6.1-5.5,6.1-5.5
			s6.5-0.9,13.6-4.6s6.8-3.7,10.9-6.6c4.1-2.9,4.2,0,9.3-2s9.6-6.3,12.1-6.9c2.6-0.6,5.8-4,8.5-5.7c2.7-1.7,9.7-0.6,15.8-2
			S258.1,10.6,260.4,11.2z"/>
		<path fill="#FFFFFF" d="M260.3,25.3c0.1,0.4,0.1,0.9,0,1.4V25.3z"/>
		<path fill="#231F20" d="M260.3,34.2c0.6,2.2-2.5,5.8-2.5,5.8s-3.5-0.6-7.8,2c-4.3,2.6-11.1,4-16.7,5.5c-5.6,1.4-3,1.4-6.4,6
			s-4.4,3.4-6.6,6.3c-2.2,2.9-1.9,4.6-7.1,7.5c-5.2,2.9-6.2,6.3-8.8,10.3c-2.6,4-2.4,6.1-5.6,9.5s0.6,4-3.2,6.3
			c-3.8,2.3-3.3,0.6-8.5,3.2c-5.2,2.6-6.2,5.2-10.1,6.9c-2.8,1.3-4.9,4.2-6.4,7.1c-1.7-1.8-2.6-2.8-1.5-5.7
			c1.5-3.7,3.9-8.6,7.8-10.3c3.9-1.7,4.9-4.3,10.1-6.9c5.2-2.6,4.7-0.9,8.5-3.2c3.8-2.3-0.1-2.9,3.2-6.3s3-5.5,5.6-9.5
			c2.6-4,3.6-7.5,8.8-10.3c5.2-2.9,4.9-4.6,7.1-7.5c2.2-2.9,3.1-1.7,6.6-6.3s0.8-4.6,6.4-6c5.6-1.4,12.4-2.9,16.7-5.5
			c1.7-1,3.2-1.5,4.4-1.8c1.6,0.6,3.6,1,4.9,1.8C259.9,33.4,260.2,33.8,260.3,34.2z"/>
		<path fill="#231F20" d="M260.3,26.7v7.5c-0.1-0.5-0.4-0.8-0.9-1.1c-1.3-0.8-3.3-1.2-4.9-1.8c2-0.4,3.4-0.2,3.4-0.2
			S259.9,28.7,260.3,26.7z"/>
		<path fill="#FFFFFF" d="M260.3,25.3v1.4c-0.4,2.1-2.5,4.4-2.5,4.4s-1.3-0.2-3.4,0.2c-1.9-0.7-3.3-1.5-2.3-3.4
			c1-2.1,4.5-2.8,7.3-3.7C259.9,24.5,260.2,24.9,260.3,25.3z"/>
		<path fill="#FFFFFF" d="M172.3,112.5c0.6,0.7,0.8,1.6,0.7,2.6c-0.2,1.7-1.1,3.5-2,4.8c-1.9-2-3-2.9-1.8-6c0.4-1,0.9-2.1,1.5-3.2
			C171.1,111.2,171.7,111.8,172.3,112.5z"/>
		<path fill="#231F20" d="M173,123.1c0.3,3.3-3.5,7.8-3.5,7.8c-2.4-2-2.6-1.7-6-1.7c-3.4,0-9.6,4.9-14.5,4.9s-8.7-6.9-14.3-6.3
			c-5.6,0.6-7.1,1.4-11.5,0.3c-4.3-1.1-6.2,0.3-12,2s-8.9,4.9-11.8,5.5s-14.7,0.6-19.1,1.1c-4.4,0.6-2.5,2-4.1,3.8s-5.7,2.3-7.9,5.2
			s-4.7,10.9-7.4,15c-2.8,4-9,8.9-10.9,12.1c-0.4,0.6-0.7,1.2-1,1.9l-3-1.8c1.8-3.4,2.5-6.7,3.9-9.1c2-3.2,8.2-8,10.9-12.1
			c2.8-4,5.3-12.1,7.4-15s6.3-3.4,7.9-5.2c1.6-1.7-0.3-3.2,4.1-3.8c4.4-0.6,16.2-0.6,19.1-1.1s6-3.7,11.8-5.5s7.6-3.2,12-2
			c4.3,1.1,5.9,0.3,11.5-0.3c5.6-0.6,9.3,6.3,14.3,6.3s11.1-4.9,14.5-4.9c3.4,0,3.6-0.3,6,1.7c0,0,0.7-0.8,1.5-2.1
			c0.4,0.4,0.9,0.9,1.3,1.5C172.7,121.9,172.9,122.5,173,123.1z"/>
		<path fill="#231F20" d="M173,115v8c-0.1-0.6-0.3-1.2-0.7-1.7c-0.5-0.6-0.9-1.1-1.3-1.5C171.8,118.5,172.8,116.7,173,115z"/>
		<path fill="#231F20" d="M159.9,45.3c-0.1,0.4-0.2,0.9-0.3,1.3C159.6,46.1,159.7,45.7,159.9,45.3z"/>
		<path fill="#FFFFFF" d="M159.5,46.6c-0.4,3.4,2.1,8-1.7,11.2c-4.5,3.8-13,7.2-17.2,11.8s-6.2,9.5-11.5,12.4
			c-5.2,2.9-12.7,5.7-15.6,7.8s-6.5,6.3-10.5,7.5c-4,1.1-7.7,0.3-9.4,1.4c-1.7,1.2-0.7,2.9-4.7,4.9s-6.8,2.3-8.1,4
			c-1.2,1.7-1.8,6.6-6.3,8.9s-8-1.4-11,0.9c-3,2.3-5.5,7.2-8.3,7.5c-2.8,0.3-10.2,0-13.6-0.9c-3.4-0.9-8.3,1.4-10.7,0.3
			s-1.8-3.2-4.3-3.4s-6-0.9-6.2-2c-0.2-1.1-2.3-3.7-2.3-3.7l-7.9,2.9c0,0.1-0.1,0.3-0.1,0.4l-1.2-0.4c0.3-0.7,0.7-1.4,1.1-2.2
			c1.3-2.6-0.6-4,0.3-6.6l7.9-2.9c0,0,2.1,2.6,2.3,3.7c0.2,1.2,3.7,1.7,6.2,2s1.9,2.3,4.3,3.4s7.4-1.1,10.7-0.3
			c3.3,0.9,10.8,1.1,13.6,0.9c2.8-0.3,5.2-5.2,8.3-7.5c3-2.3,6.5,1.4,11-0.9s5.1-7.2,6.3-8.9c1.2-1.7,4-2,8.1-4s3-3.7,4.7-4.9
			c1.7-1.1,5.4-0.3,9.4-1.4c4-1.1,7.6-5.5,10.5-7.5s10.4-4.9,15.6-7.8c5.2-2.9,7.3-7.8,11.5-12.4s12.7-8,17.2-11.8
			C158.6,48.2,159.2,47.4,159.5,46.6z"/>
		<path fill="#231F20" d="M46,172.8l3,1.8c-1.3,3-2.2,6.9-5.2,10.4c-3.7,4.3-5.5,8-10.9,9.8c-2.2,0.7-3.7,3-4.6,5.4l-1.8-1.4
			c0,0,1-11.2,6.4-12.9s7.3-5.5,10.9-9.8C44.7,175,45.4,173.9,46,172.8z"/>
		<path fill="#231F20" d="M10.4,194.9c1.1-1.4,3.8-3.4,3.2-4.7c-0.4-0.8-0.7-1.4-1-2c2.4,0.3,5.5,0.3,6.9,2.6c1.8,3.2,7,8,7,8
			l1.8,1.4c-1.4,3.6-1.8,7.5-1.8,7.5s-5.1-4.9-7-8c-1.8-3.2-6.9-2-9-3.2C9.8,196.1,9.9,195.5,10.4,194.9z"/>
		<path fill="#231F20" d="M13.6,181.2c0.5,1.1-1.2,2.6-2.5,4c-0.1-0.2-0.2-0.5-0.4-0.8c-1.2-2.9-2-5.2-4.1-6.9
			c-2.2-1.7-1.9-1.4-3.9-2.9c-0.2-0.2-0.4-0.4-0.4-0.7v-0.3c0.2-1.4,2.1-3.6,3.6-5.5c0.2,0.2,0.4,0.3,0.7,0.5c2.2,1.7,2.9,4,4.1,6.9
			S12.7,179.2,13.6,181.2z"/>
		<path fill="#231F20" d="M13.6,190.1c0.6,1.4-2.1,3.3-3.2,4.7v-7.3c0.5,0.3,1.3,0.4,2.1,0.5C12.9,188.7,13.2,189.4,13.6,190.1z"/>
		<path fill="#FFFFFF" d="M11.1,185.2c0.6,1.3,1,2.1,1.5,2.9c-0.9-0.1-1.6-0.2-2.1-0.5C9.5,187.1,10.2,186.2,11.1,185.2z"/>
		<path fill="#231F20" d="M11,153c1.1,0.2-1.1,0.9-2.6,2.6c-0.8-2.5,0.1-4.5,0.8-6.5C10.1,152,9.8,152.8,11,153z"/>
		<path fill="#FFFFFF" d="M11,161.9c1.4,0.3-2.1,1.1-3.4,3.7c-0.3,0.7-0.9,1.5-1.6,2.4c-1.5-1.1-1.5-1.1-3.2-2.3
			c-0.2-0.2-0.4-0.4-0.4-0.7v-0.2c0.1-2,4.1-5.8,5.2-8c0.2-0.4,0.5-0.8,0.8-1.1c0,0.2,0.1,0.3,0.2,0.5
			C10.2,160.5,9.6,161.7,11,161.9z"/>
		<path fill="#FFFFFF" d="M10.1,118.3c-0.6,2.4,1.1,3.8-0.1,6.2c-0.1,0.3-0.3,0.6-0.4,0.9c-0.1-1.1-1-1.8-1.4-3.1
			c-0.4-1.4,0-2.8,0.7-4.4L10.1,118.3z"/>
		<path fill="#231F20" d="M6,139.8c0.1-1.1,2.3-2,3.1-3.7c0.4-0.9,0.5-1.5,0.3-2.1c0.2,0.5,0.3,1.2,0.4,2.4c0.1,2.1-0.7,3.8-1.2,5.6
			c-0.5-0.2-1.1-0.4-1.9-1.1C6.2,140.5,6,140.1,6,139.8z"/>
		<path fill="#FFFFFF" d="M9.8,145.3c0.1,1.4-0.2,2.7-0.6,3.9c-0.2-0.5-0.4-1.1-0.6-1.8c-0.8-2-0.5-3.7,0-5.3
			C9.3,142.4,9.7,142.8,9.8,145.3z"/>
		<path fill="#231F20" d="M9.5,125.4c0.1,0.5,0,1-0.4,1.7c-0.2,0.4-0.5,0.8-0.8,1.1C8.6,127.4,9,126.4,9.5,125.4z"/>
		<path fill="#231F20" d="M9.5,134c0.1,0.6,0.1,1.2-0.3,2.1c-0.9,1.7-3,2.6-3.1,3.7v-8.7c0,0.3,0.3,0.6,0.7,1
			C8.2,133.2,9,132.9,9.5,134C9.4,133.9,9.4,134,9.5,134z"/>
		<path fill="#FFFFFF" d="M6,131.1c-0.1-0.9,1.3-1.7,2.3-2.8c-0.3,1-0.4,1.9-0.2,2.9c0.3,1.2,1,1.9,1.3,2.8c-0.4-1-1.2-0.7-2.7-1.9
			C6.3,131.7,6.1,131.4,6,131.1z"/>
		<path fill="#231F20" d="M2.8,165.7c1.7,1.3,1.7,1.2,3.2,2.3c-1.5,1.9-3.4,4.1-3.6,5.5V165C2.4,165.3,2.5,165.5,2.8,165.7z"/>
		<path fill="#231F20" d="M2.4,173.6v0.3C2.4,173.8,2.4,173.7,2.4,173.6z"/>
		<path fill="#FFFFFF" d="M2.4,164.7v0.2C2.4,164.9,2.4,164.8,2.4,164.7z"/>
	</g>
	<g>
		<path fill="none" stroke="#231F20" stroke-width="4" stroke-miterlimit="10" d="M159.9,45.3c-0.2,0.4-0.3,0.8-0.3,1.3"/>
		<path fill="none" stroke="#231F20" stroke-width="4" stroke-miterlimit="10" d="M259.5,24.2c1.8-0.6,3.4-1.2,3.6-2.4
			c0.7-2.9,0.4-4.6-0.5-6.6c-0.2-0.4-0.3-0.8-0.3-1.1"/>
		<path fill="none" stroke="#231F20" stroke-width="4" stroke-miterlimit="10" d="M170.7,110.7c1.5-2.9,3.5-5.9,6.4-7.1
			c3.9-1.7,4.9-4.3,10.1-6.9c5.2-2.6,4.7-0.9,8.5-3.2c3.8-2.3-0.1-2.9,3.2-6.3s3-5.5,5.6-9.5c2.6-4,3.6-7.5,8.8-10.3
			c5.2-2.9,4.9-4.6,7.1-7.5c2.2-2.9,3.1-1.7,6.6-6.3s0.8-4.6,6.4-6c5.6-1.4,12.4-2.9,16.7-5.5c4.3-2.6,7.8-2,7.8-2s3.1-3.6,2.5-5.8
			c-0.1-0.5-0.4-0.8-0.9-1.1c-1.3-0.8-3.3-1.2-4.9-1.8"/>
		<path fill="none" stroke="#231F20" stroke-width="4" stroke-miterlimit="10" d="M12.6,188.1c0.3,0.6,0.7,1.2,1,2
			c0.6,1.4-2.1,3.3-3.2,4.7c-0.5,0.7-0.6,1.2,0,1.6c2.1,1.1,7.2,0,9,3.2c1.8,3.2,7,8,7,8s0.4-4,1.8-7.5c1-2.4,2.5-4.7,4.6-5.4
			c5.4-1.7,7.3-5.5,10.9-9.8c3-3.5,3.9-7.4,5.2-10.4c0.3-0.7,0.6-1.4,1-1.9c2-3.2,8.2-8,10.9-12.1c2.8-4,5.3-12.1,7.4-15
			s6.3-3.4,7.9-5.2s-0.3-3.2,4.1-3.8c4.4-0.6,16.2-0.6,19.1-1.1s6-3.7,11.8-5.5s7.6-3.2,12-2c4.3,1.1,5.9,0.3,11.5-0.3
			c5.6-0.6,9.3,6.3,14.3,6.3s11.1-4.9,14.5-4.9c3.4,0,3.6-0.3,6,1.7c0,0,3.8-4.5,3.5-7.8c-0.1-0.6-0.3-1.2-0.7-1.7
			c-0.5-0.6-0.9-1.1-1.3-1.5"/>
		<path fill="none" stroke="#231F20" stroke-width="4" stroke-miterlimit="10" d="M6,168c-1.5,1.9-3.4,4.1-3.6,5.5
			c0,0.1,0,0.2,0,0.3c0,0.3,0.1,0.5,0.4,0.7c1.9,1.4,1.7,1.1,3.9,2.9c2.2,1.7,2.9,4,4.1,6.9c0.1,0.3,0.2,0.6,0.4,0.8"/>
		<path fill="none" stroke="#231F20" stroke-width="4" stroke-miterlimit="10" d="M9.2,149.1c-0.7,2.1-1.6,4-0.8,6.5"/>
		<path fill="none" stroke="#231F20" stroke-width="4" stroke-miterlimit="10" d="M9.5,134c0.1,0.6,0.1,1.2-0.3,2.1
			c-0.9,1.7-3,2.6-3.1,3.7c0,0.4,0.1,0.7,0.7,1.2c0.8,0.7,1.4,0.8,1.9,1.1"/>
		<path fill="none" stroke="#231F20" stroke-width="4" stroke-miterlimit="10" d="M9.5,125.4c-0.5,1-0.9,2-1.2,2.9"/>
		<path fill="none" stroke="#231F20" stroke-width="4" stroke-miterlimit="10" d="M8.9,117.9c-0.7,1.6-1.1,3-0.7,4.4
			c0.4,1.4,1.2,2.1,1.4,3.1c0.1,0.5,0,1-0.4,1.7c-0.2,0.4-0.5,0.8-0.8,1.1c-1.1,1.1-2.5,1.9-2.3,2.8c0,0.3,0.3,0.6,0.7,1
			c1.5,1.2,2.3,0.9,2.7,1.9c0,0,0,0,0,0.1c0.2,0.5,0.3,1.2,0.4,2.4c0.1,2.1-0.7,3.8-1.2,5.6c-0.5,1.6-0.8,3.2,0,5.3
			c0.3,0.7,0.5,1.3,0.6,1.8c0.9,2.8,0.6,3.7,1.8,3.9s-1.1,0.9-2.6,2.6c-0.3,0.3-0.6,0.7-0.8,1.1c-1.1,2.2-5.1,5.9-5.2,8
			c0,0.1,0,0.2,0,0.2c0,0.3,0.1,0.5,0.4,0.7c1.7,1.3,1.7,1.2,3.2,2.3c0.2,0.2,0.4,0.3,0.7,0.5c2.2,1.7,2.9,4,4.1,6.9
			s1.9,3.7,2.8,5.7c0.5,1.1-1.2,2.6-2.5,4c-1,1-1.6,1.9-0.7,2.4c0.5,0.3,1.3,0.4,2.1,0.5c2.4,0.3,5.5,0.3,6.9,2.6c1.8,3.2,7,8,7,8
			s1-11.2,6.4-12.9s7.3-5.5,10.9-9.8c0.9-1.1,1.6-2.2,2.2-3.3c1.8-3.4,2.5-6.7,3.9-9.1c2-3.2,8.2-8,10.9-12.1c2.8-4,5.3-12.1,7.4-15
			s6.3-3.4,7.9-5.2c1.6-1.7-0.3-3.2,4.1-3.8c4.4-0.6,16.2-0.6,19.1-1.1s6-3.7,11.8-5.5s7.6-3.2,12-2c4.3,1.1,5.9,0.3,11.5-0.3
			c5.6-0.6,9.3,6.3,14.3,6.3s11.1-4.9,14.5-4.9c3.4,0,3.6-0.3,6,1.7c0,0,0.7-0.8,1.5-2.1c0.9-1.4,1.8-3.2,2-4.8
			c0.1-0.9-0.1-1.8-0.7-2.6s-1.1-1.3-1.6-1.8c-1.7-1.8-2.6-2.8-1.5-5.7c1.5-3.7,3.9-8.6,7.8-10.3c3.9-1.7,4.9-4.3,10.1-6.9
			c5.2-2.6,4.7-0.9,8.5-3.2c3.8-2.3-0.1-2.9,3.2-6.3s3-5.5,5.6-9.5c2.6-4,3.6-7.5,8.8-10.3c5.2-2.9,4.9-4.6,7.1-7.5
			c2.2-2.9,3.1-1.7,6.6-6.3s0.8-4.6,6.4-6c5.6-1.4,12.4-2.9,16.7-5.5c1.7-1,3.2-1.5,4.4-1.8c2-0.4,3.4-0.2,3.4-0.2s2-2.3,2.5-4.4
			c0.1-0.5,0.1-1,0-1.4c-0.1-0.4-0.4-0.8-0.8-1.1c0,0,0,0-0.1,0c-2.9-1.7-9-1.7-7.3-5.2c1.5-2.9,7.8-3.2,10.1-4.9
			c0.4-0.3,0.7-0.7,0.8-1.1c0.7-2.9,0.4-4.6-0.5-6.6c-0.9-2,0.2-3.4-2.2-4c-2.4-0.6-0.4-1.4-6.4,0s-13,0.3-15.8,2
			c-2.8,1.7-6,5.2-8.5,5.7c-2.6,0.6-7,4.9-12.1,6.9s-5.3-0.9-9.3,2c-4.1,2.9-3.7,2.9-10.9,6.6s-13.6,4.6-13.6,4.6s-2.6,5.2-6.1,5.5
			s-15.4-3.2-17.5,0.3c-1.5,2.5,0.3,6.1-0.2,9.3c-0.1,0.4-0.2,0.9-0.3,1.3"/>
		<polyline fill="none" stroke="#231F20" stroke-width="4" stroke-miterlimit="10" points="260.3,25.3 260.3,26.7 260.3,34.2 
			260.3,35.2 		"/>
		<polyline fill="none" stroke="#231F20" stroke-width="4" stroke-miterlimit="10" points="173,115 173,123.1 173,123.7 		"/>
		<polyline fill="none" stroke="#231F20" stroke-width="4" stroke-miterlimit="10" points="10.4,187.6 10.4,194.9 10.4,195.3 		"/>
		<polyline fill="none" stroke="#231F20" stroke-width="4" stroke-miterlimit="10" points="2.4,164.7 2.4,165 2.4,173.6 2.4,173.9 
			2.4,174.6 		"/>
		<polyline fill="none" stroke="#231F20" stroke-width="4" stroke-miterlimit="10" points="6,131 6,131.1 6,139.8 6,139.9 		"/>
	</g>
</g>
</svg>
