<?xml version="1.0" encoding="utf-8"?>
<!-- Generator: Adobe Illustrator 18.1.0, SVG Export Plug-In . SVG Version: 6.00 Build 0)  -->
<svg version="1.1" xmlns="http://www.w3.org/2000/svg" xmlns:xlink="http://www.w3.org/1999/xlink" x="0px" y="0px"
	 viewBox="0 0 267 294" enable-background="0 0 267 294" xml:space="preserve" preserveAspectRatio="xMidYMid">
	 <circle cx="0" cy="0" r="10"/>
	 <circle cx="267" cy="0" r="10"/>
	 <circle cx="267" cy="294" r="10"/>
	 <circle cx="0" cy="294" r="10"/>
<g id="圖層_1">
</g>
<g id="圖層_2">
</g>
<g id="圖層_3">
</g>
<g id="圖層_4">
</g>
<g id="圖層_5">
	<g>
		<g id="XMLID_109_">
			<g>
				<g>
					<g>
						<g>
							<path fill="#231F20" d="M229.8,129.1c-0.1,11.1,1.2,22.4-3.9,24.9c-5.1,2.6-5.1,2.6-5.1,2.6l0,0c-1.1-12.2-2.9-22.1-2.7-27.7
								c0.4-8.3,1.5-12.1-2.9-25.3c-4.4-13.2-14.4-23-18.5-28.6c0,0,10.4,4,18.6,14.7S229.9,118,229.8,129.1z"/>
						</g>
					</g>
				</g>
				<g>
					<g>
						<g>
							<path fill="#FFFFFF" d="M104.3,278.6c-15.3-3.7-41.3-18.2-52.3-47.5c-1.5-4-2.6-9.1-3.4-14.5C45.9,197,47,172.2,47,172.2
								s2.5-2.7,7.5-7.5c5.8-9,6.5-13.2,3.8-20.9c-2.7-7.6,0.2-20.8,0.3-34.6S72.7,71.9,79,65.1c0.7-0.7,1.7-1.5,3-2.3
								c11.1-7.1,43.6-17.6,66.5-14.4c21.5,2.9,44.2,21.1,48.3,26.7c4.1,5.6,14.1,15.4,18.5,28.6c4.4,13.2,3.3,17,2.9,25.3
								c-0.3,5.5,1.6,15.5,2.7,27.7c0.6,6.1,0.9,12.9,0.8,19.8c-0.4,17.3-1.6,49.3-10,60.2l0,0c-3.3,17.6-6.5,20.8-15,29.7
								c-9,9.5-25.6,16.8-26.2,17.1c0,0,0,0,0,0c-1.9,2-4.1,4-6.5,5.5c-7.7,4.8-29.4,2.3-43-0.3
								C112.5,286.9,107.4,282.6,104.3,278.6z"/>
						</g>
					</g>
				</g>
				<g>
					<g>
						<g>
							<path fill="#231F20" d="M82,62.7c-1.3,0.8-2.3,1.6-3,2.3c-6.3,6.9-20.3,30.3-20.4,44.2s-3,27-0.3,34.6
								c2.7,7.6,2,11.9-3.8,20.9c-5,4.8-7.5,7.5-7.5,7.5s0.1-13.6-9.1-14.6c-2.2-0.2-4.2-0.2-6,0.2l0-0.2c0,0,0,0-2.7-5.6
								c-2.7-5.6,0.2-27.7,3.6-51.3c3.4-23.5,25.6-28.4,34.5-35.3C76.1,58.6,82,62.7,82,62.7z"/>
						</g>
					</g>
				</g>
				<g>
					<g>
						<g>
							<path fill="#FFFFFF" d="M47,172.2c0,0-1.1,24.8,1.7,44.4c-7.7,5-13.6-3.2-13.5-8.7c0-5.5-1.8-6-4-14.8
								c-2.2-8.8-6.8-15.8-7.2-24.1c-0.3-6.3,2.5-10.2,8-11.3c1.7-0.4,3.7-0.4,6-0.2C47.1,158.6,47,172.2,47,172.2z"/>
						</g>
					</g>
				</g>
			</g>
			<g>
				<g>
					<g>
						<g>
							<path fill="#231F20" d="M171.5,284.3l-2.1-2c3.9-4.2,6.5-8.6,6.5-8.7l2.5,1.5C178.3,275.3,175.6,279.9,171.5,284.3z"/>
						</g>
					</g>
				</g>
				<g>
					<g>
						<g>
							<path fill="#231F20" d="M148.8,293c-11.5,0-24.6-2.3-28.2-3c-7.4-1.4-13.2-4.9-17.4-10.5c-3.4-4.5-4.3-8.6-4.4-8.8l2.9-0.6
								c0,0,0.8,3.7,3.8,7.7c3.7,4.9,9,8.1,15.7,9.4c15.1,2.9,35.1,4.8,41.9,0.5c2-1.3,4.1-3.1,6.2-5.3l2.1,2
								c-2.3,2.4-4.6,4.4-6.8,5.8C161.2,292.3,155.2,293,148.8,293z"/>
						</g>
					</g>
				</g>
				<g>
					<g>
						<g>
							<path fill="#231F20" d="M170.4,284.8l0-1.5l-0.6-1.3c2.9-1.3,17.6-8.1,25.7-16.7l0.4-0.4c8-8.5,11-11.6,14.2-28.5l2.9,0.5
								c-3.3,17.7-6.7,21.3-15,30l-0.4,0.4c-8.6,9-23.7,16.1-26.6,17.4l-0.3,0.1L170.4,284.8z"/>
						</g>
					</g>
				</g>
				<g>
					<g>
						<g>
							<path fill="#231F20" d="M104.3,280.1L104,280c-14.4-3.5-41.7-17.6-53.3-48.4c-1.4-3.8-2.6-8.8-3.5-14.8
								c-2.8-19.5-1.7-44.4-1.7-44.7l0-0.5l0.4-0.4c0.1-0.1,2.5-2.7,7.5-7.4c5.4-8.4,6.1-12.2,3.5-19.4c-1.9-5.2-1.3-12.5-0.6-21
								c0.4-4.6,0.7-9.3,0.8-14.1c0.1-14.7,14.8-38.6,20.8-45.2c0.7-0.8,1.8-1.7,3.2-2.6c12.2-7.8,45.3-17.7,67.5-14.6
								c22.3,3.1,45.3,22,49.3,27.3c0.9,1.2,2,2.6,3.4,4.2c4.7,5.7,11.8,14.2,15.3,24.8c3.9,11.7,3.6,16.3,3.2,22.7
								c-0.1,1-0.1,2-0.2,3.1c-0.2,3.3,0.4,8.2,1.2,14.4c0.5,3.9,1,8.4,1.5,13.1c0.7,7.3,0.9,13.9,0.8,20
								c-0.6,22.6-2.2,49.9-10,60.6v0l-0.3,0.4c-2,2.6-4.3,4-6.9,4.3c-10.1,1-11.7-3.2-11.8-3.7l2.8-0.9c0,0,0,0,0,0
								c0,0,1.3,2.3,8.7,1.6c1.7-0.2,3.2-1.1,4.7-2.9l0.2-0.2c8.5-11.1,9.4-46.1,9.7-59.3c0.1-6-0.1-12.4-0.8-19.7
								c-0.4-4.7-1-9.1-1.5-13c-0.8-6.3-1.4-11.4-1.2-14.9c0.1-1.1,0.1-2.2,0.2-3.2c0.4-6.3,0.7-10.5-3-21.6
								c-3.3-10-10-18-14.8-23.8c-1.4-1.7-2.6-3.1-3.5-4.3c-4.1-5.6-26.9-23.3-47.3-26.1c-23.2-3.2-55.4,7.7-65.5,14.2
								c-1.2,0.8-2.1,1.5-2.7,2.1c-6.1,6.6-20,29.9-20.1,43.2c0,5-0.4,9.7-0.8,14.4c-0.7,8.1-1.2,15.2,0.4,19.8
								c2.9,8.1,2,12.9-3.9,22.1l-0.2,0.3c-3.9,3.7-6.2,6.1-7.1,7c-0.1,3.7-0.8,26,1.7,43.6c0.8,5.9,2,10.6,3.3,14.2
								c11.2,29.6,37.5,43.2,51.3,46.5l0.4,0.1L104.3,280.1z"/>
						</g>
					</g>
				</g>
				<g>
					<g>
						<g>
							<path fill="#231F20" d="M31.2,157.9l-2.7-5.6c-2.8-5.7,0.1-27.7,3.6-51.7C34.7,82.4,48.5,75,58.6,69.7
								c3.3-1.7,6.1-3.2,8.1-4.8c9.2-7.1,15.3-2.9,15.6-2.7l-0.8,1.2c-0.2-0.2-5.6-3.7-13.9,2.7c-2.2,1.7-5,3.2-8.3,5
								C48.9,76.5,36,83.3,33.5,100.8c-3.3,22.8-6.3,45.5-3.7,50.8l2.7,5.6L31.2,157.9z"/>
						</g>
					</g>
				</g>
				<g>
					<g>
						<g>
							<path fill="#231F20" d="M43.9,219.6c-1.4,0-2.8-0.3-4.1-1.1c-4-2.2-6.2-7.1-6.2-10.7c0-2.9-0.5-4.2-1.4-6.5
								c-0.7-1.8-1.6-4.1-2.6-7.9c-0.9-3.4-2.1-6.5-3.3-9.5c-1.9-4.9-3.7-9.6-4-14.8c-0.3-7,2.9-11.5,9.1-12.8
								c1.8-0.4,4-0.5,6.4-0.2c10.4,1.1,10.4,15.5,10.4,16.1l-2.9,0c0-0.1,0-12.3-7.8-13.2c-2.1-0.2-4-0.2-5.5,0.2
								c-4.8,1-7.1,4.2-6.8,9.8c0.2,4.8,2,9.2,3.8,13.9c1.2,3.1,2.5,6.3,3.4,9.9c0.9,3.6,1.8,5.8,2.5,7.6c0.9,2.4,1.6,4.2,1.6,7.6
								c0,2.7,1.7,6.5,4.7,8.1c2.1,1.1,4.3,0.9,6.6-0.6l1.6,2.4C47.6,219,45.7,219.6,43.9,219.6z"/>
						</g>
					</g>
				</g>
				<g>
					<g>
						<g>
							<path fill="#231F20" d="M221.1,157.2l-0.7-1.3l5.1-2.6c3.8-1.9,3.7-9.8,3.5-18.3c0-2-0.1-4,0-6c0.1-11.1-6.3-28.5-14.3-38.9
								c-8-10.4-18.2-14.4-18.3-14.5l0.5-1.4c0.4,0.2,10.6,4.2,18.9,14.9c8.2,10.6,14.7,28.5,14.6,39.8c0,2,0,4,0,5.9
								c0.1,9.3,0.3,17.3-4.3,19.6L221.1,157.2z"/>
						</g>
					</g>
				</g>
			</g>
		</g>
		<g>
			<g>
				<g>
					<g>
						<path fill="#231F20" d="M151.1,162.5c0-0.1-3.1-10.6-18.6-17.2c-15.5-6.7-29.8-0.3-30-0.2l-0.3-0.7c0.1-0.1,14.7-6.6,30.6,0.2
							c8.3,3.6,13,8.2,15.5,11.4c2.7,3.5,3.5,6.2,3.5,6.3L151.1,162.5z"/>
					</g>
				</g>
			</g>
		</g>
		<g>
			<g>
				<g>
					<g>
						<path fill="#231F20" d="M166.2,162.6l-0.7-0.2c0-0.1,2.7-10.4,13.2-14c10.4-3.6,20.2,0.1,20.3,0.2l-0.3,0.7
							c-0.1,0-9.7-3.7-19.8-0.2C168.8,152.6,166.3,162.5,166.2,162.6z"/>
					</g>
				</g>
			</g>
		</g>
		<g>
			<g>
				<g>
					<g>
						<path fill="#231F20" d="M109,179.5c-0.4,0-0.7,0-1.1,0l0-0.7c0.3,0,0.7,0,1,0c15.1,0,21.4-7.5,21.4-7.5l0.6,0.5
							C130.7,172,124.3,179.5,109,179.5z"/>
					</g>
				</g>
			</g>
		</g>
		<g>
			<g>
				<g>
					<g>
						<path fill="#231F20" d="M119.3,185.1l-0.2-0.7c11.4-3,10-8.9,10-8.9l0.7-0.2C129.9,175.6,131.3,182,119.3,185.1z"/>
					</g>
				</g>
			</g>
		</g>
		<g>
			<g>
				<g>
					<g>
						<path fill="#231F20" d="M195.3,180.5c-1.6,0-3.9-0.1-7.3-0.4c-9.4-0.8-10.4-5-10.5-5.2l0.7-0.2l-0.4,0.1l0.4-0.1
							c0,0,1,3.9,9.8,4.6c8.8,0.7,10.4,0.1,10.4,0.1l0.3,0.7C198.7,180.3,198.1,180.5,195.3,180.5z"/>
					</g>
				</g>
			</g>
		</g>
		<g>
			<g>
				<g>
					<g>
						<path fill="#231F20" d="M192.2,188.1c-9.8,0-16-8.1-16-8.2l0.6-0.4c0.1,0.1,6.9,9.1,17.7,7.7l0.1,0.7
							C193.7,188.1,192.9,188.1,192.2,188.1z"/>
					</g>
				</g>
			</g>
		</g>
		<g>
			<g>
				<g>
					<g>
						<path fill="#231F20" d="M123.3,225.9l-0.7-0.3c4.2-9.8,13.4-17.3,13.5-17.4l0.5,0.6C136.6,208.9,127.5,216.3,123.3,225.9z"/>
					</g>
				</g>
			</g>
		</g>
		<g>
			<g>
				<g>
					<g>
						<path fill="#231F20" d="M180,227.8c-0.3-3.5-5.8-11.7-5.8-11.8l0.6-0.4c0.2,0.3,5.6,8.5,6,12.1L180,227.8z"/>
					</g>
				</g>
			</g>
		</g>
		<g>
			<g>
				<g>
					<g>
						<path fill="#231F20" d="M92.7,261.2l-0.2-0.7c12.6-2.8,17.6-17.9,17.7-18.1l0.7,0.2C110.8,242.7,105.7,258.3,92.7,261.2z"/>
					</g>
				</g>
			</g>
		</g>
		<g>
			<g>
				<g>
					<g>
						<path fill="#231F20" d="M190.9,267.7c-12.8-4.5-13-19.5-13-19.6l0.7,0c0,0.1,0.4,14.6,12.5,18.9L190.9,267.7z"/>
					</g>
				</g>
			</g>
		</g>
		<g>
			<g>
				<g>
					<g>
						<path fill="#231F20" d="M118.9,243.3c-0.6-0.1,12.9,1,18.7,0.1s6.5-2.9,10.1-1.6s4.3,3.5,6,3.3c1.6-0.2,1.1-3.8,7.8-0.9
							c6.7,3,9.9,2.4,14,2.7C175.5,247,154.5,249.4,118.9,243.3z"/>
					</g>
				</g>
			</g>
			<g>
				<g>
					<g>
						<path fill="#231F20" d="M164,248.2c-9.5,0-25-0.7-45.2-4.2l-0.6-0.8l0.7-0.7c0.1,0,0.4,0,1,0.1c2.1,0.1,6.9,0.4,11.4,0.4
							c2.7,0,4.7-0.1,6.2-0.3c2.3-0.3,3.7-0.9,4.9-1.3c1.9-0.7,3.4-1,5.6-0.3c2,0.7,3.2,1.7,4,2.4c0.7,0.6,1.1,0.9,1.5,0.9
							c0.3,0,0.4-0.2,0.7-0.5c0.5-0.6,1.3-1.5,3.1-1.5c1.2,0,2.6,0.4,4.5,1.2c5.4,2.4,8.4,2.5,11.6,2.5c0.7,0,1.4,0,2.1,0.1l0,1.5
							C175.4,247.8,171.4,248.2,164,248.2z M131.8,244.5c15.2,2,26.8,2.3,34.1,2.2c-1.4-0.4-2.9-0.9-4.7-1.7c-1.6-0.7-3-1.1-3.9-1.1
							c-1.1,0-1.5,0.5-2,1c-0.4,0.4-0.8,0.9-1.6,1c-1.1,0.1-1.8-0.5-2.7-1.2c-0.8-0.7-1.8-1.5-3.6-2.1c-1.8-0.7-2.8-0.4-4.6,0.3
							c-1.2,0.4-2.8,1-5.2,1.3C136.3,244.4,134.3,244.5,131.8,244.5z"/>
					</g>
				</g>
			</g>
		</g>
		<g>
			<g>
				<g>
					<g>
						<path fill="#231F20" d="M152,257.7c-3.9,0-6.8-1.4-10.2-3.7c-3.9-2.6-14.8-6.1-14.9-6.1l0.4-1.4c0.5,0.1,11.2,3.6,15.2,6.3
							c4.2,2.8,7,3.7,10.7,3.4c2.2-0.2,4.2-1.3,6-2.4c1.5-0.9,3-1.7,4.5-2.1c3.1-0.6,8.2-3.3,8.3-3.3l0.7,1.3
							c-0.2,0.1-5.4,2.8-8.7,3.5c-1.3,0.3-2.6,1-4,1.9c-1.9,1.1-4.1,2.4-6.7,2.6C153,257.7,152.5,257.7,152,257.7z"/>
					</g>
				</g>
			</g>
		</g>
		<g>
			<g>
				<g>
					<g>
						<path fill="#231F20" d="M111.1,143.3c-0.3-1.1-0.8-2.1-1.5-3l1.1-0.9c0.4,0.5,0.8,1,1.1,1.6c0.3-0.4,0.6-0.7,1-0.9l1,0.3
							l0.4,0.7l0.4-0.1c0.2-0.4,0.4-0.8,0.8-1.1l0.9-0.1c0.3,0.2,0.6,0.4,0.9,0.7l0.4-0.3c0.3,0.1,0.6,0.2,0.9,0.4
							c0.1-0.6,0.2-1.1,0.2-1.7l1-0.6c0.7,0.3,1.3,0.9,1.8,1.6c0.3-0.4,0.6-0.8,1-1.1l1.1,0.3l0.4,0.8c0.1-0.5,0.3-1,0.5-1.5
							l0.7-0.5c0.7,0,1.2,0.4,1.6,1c0-0.1,0-0.2,0.1-0.3l1.2-0.5l0.7,0.5c0.1-0.2,0.2-0.5,0.3-0.7c0.4-0.7,1.1-1.3,1.8-1.5l0.9,0.6
							c0,0.1,0.1,0.3,0.2,0.3l-0.5,1.4c-0.3-0.1-0.6-0.3-0.8-0.6c-0.1,0.1-0.3,0.3-0.4,0.5c-0.2,0.4-0.3,0.8-0.2,1.2l-1.1,0.8
							l-1-0.7c-0.2,0.6-0.5,1.1-0.8,1.6l-1.3-0.4c0-0.5-0.1-1-0.3-1.4c-0.3,0.8-0.4,1.7-0.5,2.5l-1.4,0.3l-1-1.9
							c-0.3,0.5-0.5,1-0.5,1.5h-1.5c0-0.7-0.3-1.4-0.8-1.9c-0.1,0.9-0.3,1.7-0.6,2.5l-1.3-0.2l0,0.3l-1.5,0c0-0.5-0.2-1-0.6-1.4
							c-0.1,0.2-0.2,0.5-0.2,0.7l0,0.6l-1.5,0.1c0-0.1,0-0.1,0-0.2l-0.1,0l-0.9-0.3l-0.3-0.5c-0.3,0.3-0.4,0.8-0.4,1.2L111.1,143.3z
							"/>
					</g>
				</g>
			</g>
		</g>
		<g>
			<g>
				<g>
					<g>
						<path fill="#231F20" d="M199.8,150.1c-0.3-1.4-0.8-2.2-1.4-2.3l-0.4-1.2c0.2-0.2,0.2-0.6,0-0.8c-0.2-0.2-0.6-0.2-0.8,0
							c-0.2,0.2-0.3,0.4-0.5,0.8c-0.3,0.6-0.6,1.3-1.4,1.5l-0.9-0.7l0-1.5l-1.5,0.7l-1-0.7l0-1.7c-0.6,0.5-1,1.1-1.2,1.8l-1.4-0.2
							l0-1.9l-1,1L187,144c0.1-0.3,0.2-0.6,0.3-0.9l-1.1,1.6l-1.3-0.7c0.2-0.6,0.3-1.3,0.4-1.9c-0.3,0.4-0.6,0.8-0.8,1.2
							c-0.1,0.4-0.3,0.8-0.4,1.2l-1.4-0.4c0-0.1,0.1-0.2,0.1-0.3c-0.1,0.2-0.1,0.3-0.2,0.5l-1.4-0.4c0.1-0.7,0.4-1.4,0.7-2.1
							c0.1-0.5,0.1-1,0.1-1.5c-0.1,0.2-0.3,0.3-0.4,0.5l-0.7,3.4l-1.4,0c-0.3-2.3,0.8-4.7,2.7-6l1.1,0.5c0,0.3,0.1,0.5,0.1,0.8
							c0.1-0.1,0.2-0.2,0.3-0.3l1.3,0.5c0,0.3,0,0.6,0,0.9c0.2-0.2,0.4-0.3,0.6-0.4l1.1,0.5c0.1,0.3,0.1,0.7,0.1,1l0.7-1l1.3,0.3
							c0.1,0.5,0.1,0.9,0.1,1.4l0.6-0.6l1.2,0.5l0,1.1c0.5-0.4,1-0.8,1.6-1l1,0.7l0,1.9l1.6-0.7l1,0.7l0,0.4
							c0.1-0.2,0.3-0.3,0.4-0.5c0.8-0.7,2.1-0.6,2.8,0.1c0.5,0.5,0.7,1.2,0.5,1.9c1.2,0.7,1.6,2.4,1.7,3.1L199.8,150.1z
							 M183.2,142.1c-0.1,0.3-0.1,0.6-0.2,0.8c0-0.1,0-0.1,0.1-0.2C183.1,142.6,183.1,142.3,183.2,142.1
							C183.2,142.1,183.2,142.1,183.2,142.1z"/>
					</g>
				</g>
			</g>
		</g>
		<g>
			<g>
				<g>
					<g>
						<path fill="#231F20" d="M154,130c-3.5,0-7.8-1.2-14.3-4.9c-10.5-5.9-26.6-8.8-26.7-8.8l0.1-0.7c0.2,0,16.3,3,27,8.9
							c10.6,5.9,15.1,5.2,20.1,3.6c1.5-0.5,3.7-1.5,6.3-2.6c6.1-2.7,13.6-6.1,18-5.5c6,0.7,14.6,1.1,14.7,1.2l0,0.7
							c-0.1,0-8.7-0.4-14.8-1.2c-4.2-0.5-11.6,2.8-17.6,5.5c-2.6,1.1-4.8,2.1-6.4,2.6C158.3,129.4,156.3,130,154,130z"/>
					</g>
				</g>
			</g>
		</g>
		<g>
			<g>
				<g>
					<g>
						<path fill="#231F20" d="M153.2,125.7c-2.2,0-3.7-0.5-5.5-1c-0.9-0.3-1.9-0.6-3-0.8c-5-1.1-10.7-3.6-16.7-6.2
							c-1.1-0.5-2.2-0.9-3.3-1.4c-7.2-3.1-11.7-3.2-11.7-3.2l0-0.7c0.2,0,4.6,0.1,12,3.2c1.1,0.5,2.2,0.9,3.3,1.4
							c6,2.6,11.6,5,16.5,6.1c1.2,0.3,2.1,0.5,3,0.8c3.7,1.1,6.4,1.9,15.9-1.4l0.2,0.7C158.9,125.1,155.6,125.7,153.2,125.7z"/>
					</g>
				</g>
			</g>
		</g>
		<g>
			<g>
				<g>
					<g>
						<path fill="#231F20" d="M152.7,121.8c-0.5,0-0.9,0-1,0l0-0.7c0.1,0,11.3,0.2,16.7-2c6.6-2.7,12.2-2.9,14.2-2.9l0,0.7
							c-2,0-7.5,0.2-13.9,2.9C164.1,121.6,155.6,121.8,152.7,121.8z"/>
					</g>
				</g>
			</g>
		</g>
		<g>
			<g>
				<g>
					<g>
						<path fill="#231F20" d="M36.9,196.2l-2.3-6.5c-2.4-6.7,1.9-13.5,2-13.7l1.2,0.8c0,0.1-4,6.4-1.9,12.5l2.3,6.5L36.9,196.2z"/>
					</g>
				</g>
			</g>
		</g>
		<g>
			<g>
				<g>
					<g>
						<path fill="#231F20" d="M36.8,199.4c-0.2-6.9,9.2-10.2,9.6-10.4l0.5,1.4c-0.1,0-8.8,3.1-8.6,8.9L36.8,199.4z"/>
					</g>
				</g>
			</g>
		</g>
		<g id="XMLID_108_">
			<g>
				<g>
					<g>
						<g>
							<path fill="#231F20" d="M127.4,165.7c0.7,2.1-2.7,0.8-7.3,1c-2.4-0.9-0.6-3.7-0.6-3.7c1.3-0.2,2.4-0.2,3,0
								C125.7,164,126.6,163.5,127.4,165.7z"/>
						</g>
					</g>
				</g>
			</g>
			<g>
				<g>
					<g>
						<g>
							<path fill="#231F20" d="M126,167.7c-0.5,0-1.1,0-1.9-0.1c-1.2-0.1-2.5-0.2-4-0.1l-0.6,0c-2.5,0.2-5.9,0.1-8.6,0
								c-1.8-0.1-3.2-0.1-4.2-0.1l-0.3-1.4c0.3-0.1,8-2.9,12.9-3.6c1.5-0.2,2.6-0.2,3.4,0c0.8,0.2,1.4,0.4,1.9,0.5
								c1.7,0.4,2.7,0.6,3.4,2.7c0.2,0.6,0.2,1.1-0.1,1.5C127.5,167.6,126.7,167.7,126,167.7z M121,166c1.2,0,2.3,0.1,3.3,0.2
								c1.3,0.1,2.3,0.1,2.5,0c0,0,0-0.1-0.1-0.2c-0.4-1.3-0.8-1.3-2.3-1.7c-0.6-0.1-1.2-0.3-2-0.5c-0.3-0.1-1.3-0.2-2.7,0.1
								c-2.5,0.4-6,1.4-8.6,2.2c0,0,0,0,0,0c2.6,0.1,6,0.2,8.4,0l0.6,0C120.4,166,120.7,166,121,166z"/>
						</g>
					</g>
				</g>
				<g>
					<g>
						<g>
							<path fill="#231F20" d="M119.8,167.4c-1-0.4-1.4-1.1-1.6-1.6c-0.5-1.4,0.5-3,0.6-3.2l1.2,0.8c-0.2,0.3-0.7,1.3-0.4,1.9
								c0.1,0.3,0.3,0.5,0.7,0.7L119.8,167.4z"/>
						</g>
					</g>
				</g>
			</g>
		</g>
		<g id="XMLID_107_">
			<g>
				<g>
					<g>
						<g>
							<path fill="#231F20" d="M198.4,167.9c2.8,2.6,1.2,1.7,1.2,1.7s-5.4,0-9.7,0l0,0c-2.9-1.7,0-4,0-4
								C192.8,165.7,196.2,165.8,198.4,167.9z"/>
						</g>
					</g>
				</g>
			</g>
			<g>
				<g>
					<g>
						<g>
							<path fill="#231F20" d="M199.9,170.4c-0.1,0-0.3,0-0.6-0.2h-0.5c-1.6,0-5.7,0-9.1,0h-0.3c-1.8,0-3.5,0-4.3,0l-0.7,0
								c-2.3,0-3.7-0.2-3.8-0.2l-0.5-1.2c0.1-0.2,3.8-4.9,7.6-4.4c0.6,0.1,1.3,0.1,2,0.2l0.6,0c2.9,0.2,6.1,0.4,8.4,2.5
								c1.7,1.6,2,2,1.8,2.6L199.9,170.4z M182.4,168.8c0.6,0,1.3,0.1,2.1,0.1l0.7,0c0.8,0,2.4,0,4.3,0h0.3c3,0,6.7,0,8.5,0
								c-0.1-0.1-0.3-0.3-0.4-0.4c-1.9-1.8-4.7-2-7.5-2.1l-0.6,0c-0.7,0-1.4-0.1-2.1-0.2C185.8,165.8,183.7,167.5,182.4,168.8z"/>
						</g>
					</g>
				</g>
				<g>
					<g>
						<g>
							<path fill="#231F20" d="M189.4,170.2c-1-0.6-1.6-1.4-1.6-2.3c-0.1-1.6,1.4-2.8,1.6-3l0.9,1.1c-0.3,0.2-1.1,1-1,1.7
								c0,0.4,0.3,0.8,0.9,1.1L189.4,170.2z"/>
						</g>
					</g>
				</g>
			</g>
		</g>
		<g>
			<g>
				<g>
					<g>
						<path fill="#231F20" d="M111.5,60.8c-10.4-2.2-21.3-2.4-31.8-0.5l-0.3-1.4c10.6-2,21.8-1.8,32.3,0.5L111.5,60.8z"/>
					</g>
				</g>
			</g>
		</g>
		<g>
			<g>
				<g>
					<g>
						<path fill="#231F20" d="M128,53c-10.1-3.5-21.3-3.9-31.6-1l-0.4-1.4c10.6-3,22.1-2.6,32.4,1L128,53z"/>
					</g>
				</g>
			</g>
		</g>
		<g>
			<g>
				<g>
					<g>
						<path fill="#231F20" d="M134.2,53.4l-1.5-0.1c0.1-3-1.9-6.1-5.1-8c-3-1.8-6.6-2.4-10-3l0.3-1.4c3.4,0.6,7.3,1.3,10.5,3.2
							C132.1,46.2,134.4,49.9,134.2,53.4z"/>
					</g>
				</g>
			</g>
		</g>
		<g>
			<g>
				<g>
					<g>
						<path fill="#231F20" d="M115.3,58c-3.7-2.4-8.3-3.4-12.6-2.8l-0.2-1.4c4.7-0.6,9.6,0.5,13.6,3L115.3,58z"/>
					</g>
				</g>
			</g>
		</g>
		<g id="XMLID_106_">
			<g>
				<g>
					<g>
						<g>
							<path fill="#231F20" d="M170.6,224.5L170.6,224.5c-3.2,1.8-9.7-0.5-9.7-0.5c1.1-1,1.9-1.7,2.5-2.4
								C163.4,221.6,169.2,221.8,170.6,224.5z"/>
						</g>
					</g>
				</g>
				<g>
					<g>
						<g>
							<path fill="#231F20" d="M145.7,218.4c0.4,0.9,1,1.9,1.7,2.7c-3.5,0.7-6.1,0.9-8.2,0.3C138.4,218.4,145.7,218.4,145.7,218.4z"
								/>
						</g>
					</g>
				</g>
			</g>
			<g>
				<g>
					<g>
						<g>
							<path fill="#231F20" d="M158,225.6c-2.4,0-5.5-0.9-8.3-2c-1-0.4-2-1.1-2.8-2c-0.7-0.8-1.3-1.8-1.8-2.8
								c-0.7-1.6-1.1-2.9-1.1-3l1.4-0.4c0,0,0.3,1.3,1,2.7c0.4,1,1,1.8,1.6,2.5c0.7,0.8,1.4,1.3,2.2,1.6c2.2,0.8,8.2,3,10.3,1.2
								l0.1-0.1c1-0.9,1.8-1.5,2.3-2.2c0.5-0.6,0.8-1.3,1-2.2l1.4,0.4c-0.3,1.1-0.7,1.9-1.3,2.7c-0.6,0.8-1.4,1.4-2.5,2.4l-0.1,0.1
								C160.5,225.3,159.3,225.6,158,225.6z"/>
						</g>
					</g>
				</g>
				<g>
					<g>
						<g>
							<path fill="#231F20" d="M138.5,221.5c-0.2-0.7-0.1-1.4,0.3-1.9c1.4-1.9,6.3-2,6.9-2h0v1.5c-1.9,0-5,0.4-5.7,1.4
								c-0.1,0.1-0.2,0.3-0.1,0.6L138.5,221.5z"/>
						</g>
					</g>
				</g>
				<g>
					<g>
						<g>
							<path fill="#231F20" d="M170,224.8c-1-1.9-5.1-2.4-6.6-2.5l0-1.5c0.6,0,6.3,0.3,7.8,3.3L170,224.8z"/>
						</g>
					</g>
				</g>
				<g>
					<g>
						<g>
							<path fill="#231F20" d="M142.2,222.5c-1.2,0-2.2-0.1-3.2-0.4c-2.5-0.7-4.3-2.6-5.6-5.7c-1.9-4.8,1.6-8.4,3.8-9.6l0.7,1.3
								c-0.2,0.1-5.1,2.9-3.1,7.7c1.1,2.8,2.5,4.3,4.6,4.9c1.8,0.5,4.3,0.5,7.8-0.3l0.3,1.4C145.4,222.2,143.7,222.5,142.2,222.5z"
								/>
						</g>
					</g>
				</g>
				<g>
					<g>
						<g>
							<path fill="#231F20" d="M167.3,225.9c-3.2,0-6.5-1.2-6.7-1.2l0.5-1.4c0.1,0,6.2,2.2,9.1,0.6c0.3-0.2,0.5-0.3,0.7-0.5
								c2.6-2.8,3.5-7.8,0.1-11.5l1.1-1c4,4.3,2.9,10.2-0.1,13.5c-0.3,0.3-0.6,0.6-1.1,0.8C169.9,225.7,168.6,225.9,167.3,225.9z"/>
						</g>
					</g>
				</g>
			</g>
		</g>
		<g>
			<g>
				<g>
					<g>
						<path fill="#231F20" d="M119.3,197.9c-8.5,0-31.2-0.8-33.5-4.4c-1.9-2.8-2.8-13.2-2.8-30.9v-0.3c0-3.9,0.8-6.7,2.3-8.3
							c1-1,2.4-1.5,4-1.4c4.8,0.1,46.8,1.6,50.7,5.1c4.3,3.7,5.8,10.5,4.4,19.6c-0.3,2-0.5,3.9-0.7,5.5c-0.6,6.1-1.1,10.5-5.5,13.1
							C135.4,197.7,124.1,197.9,119.3,197.9z M88.9,154.1c-1.1,0-1.9,0.3-2.5,1c-1.2,1.3-1.9,3.7-1.9,7.2v0.3
							c0,21.6,1.4,28.3,2.6,30.1c1.3,2,16.4,3.7,32.3,3.7c9.5,0,16.4-0.7,18.2-1.7c3.8-2.3,4.2-6.2,4.8-12c0.2-1.7,0.4-3.6,0.7-5.6
							c1.3-8.4-0.1-14.9-3.9-18.3c-2.7-2.4-31.3-4.1-49.9-4.7C89.1,154.1,89,154.1,88.9,154.1z"/>
					</g>
				</g>
			</g>
		</g>
		<g>
			<g>
				<g>
					<g>
						<path fill="#231F20" d="M186.4,199L186.4,199c-5.6,0-12.4-0.5-15.9-4.2c-5-5.4-2.4-32.3-2.2-33.4l0.2-0.4
							c4-4.3,20.5-4.8,27.3-4.8c9.4,0,20.4,0.9,22.5,2.3c4.2,3,1.8,27,0,31.9c-2.3,6.5-10.9,7.8-19.8,8.2c-1,0-2,0.1-3,0.2
							C192.5,198.8,189.4,199,186.4,199z M169.7,161.7c-0.8,7.8-1.8,28,1.9,32.1c3.1,3.4,9.9,3.8,14.8,3.8l0,0c3,0,6.1-0.2,9-0.3
							c1-0.1,2-0.1,3-0.1c11.5-0.5,16.8-2.6,18.5-7.2c2.1-5.9,3.4-28.2,0.5-30.3c-1.4-1-10.6-2.1-21.7-2.1
							C182.4,157.5,172.5,159.1,169.7,161.7z"/>
					</g>
				</g>
			</g>
		</g>
		<g>
			<g>
				<g>
					<g>
						<path fill="#231F20" d="M161.7,169.5c-9.2,0-18-2.5-18.5-2.6l0.8-2.8c0.1,0,13.6,3.8,24.1,2l0.5,2.9
							C166.3,169.3,164,169.5,161.7,169.5z"/>
					</g>
				</g>
			</g>
		</g>
		<g>
			<g>
				<g>
					<g>
						<path fill="#231F20" d="M163.4,172.5c-8.3,0-18.5-2.4-19.1-2.5l0.2-0.7c0.2,0,15.4,3.6,23.8,2.1l0.1,0.7
							C166.9,172.4,165.2,172.5,163.4,172.5z"/>
					</g>
				</g>
			</g>
		</g>
		<g>
			<g>
				<g>
					<g>
						<path fill="#231F20" d="M98.6,170l-0.2-1.4c5.3-0.7,7.9-2.5,7.9-2.5l0.8,1.2C107,167.3,104.3,169.3,98.6,170z"/>
					</g>
				</g>
			</g>
		</g>
		<g>
			<g>
				<g>
					<g>
						<path fill="#231F20" d="M208.6,173.2c-8.1-0.6-9.6-3.1-9.7-3.4l1.3-0.7l-0.7,0.3l0.6-0.4c0,0,1.3,2,8.6,2.6L208.6,173.2z"/>
					</g>
				</g>
			</g>
		</g>
		<g>
			<g>
				<g>
					<g>
						<path fill="#231F20" d="M101.8,244.5l-0.4-0.6c4.6-3.1,6.2-5.7,6.2-5.7l0.6,0.4C108.1,238.6,106.6,241.2,101.8,244.5z"/>
					</g>
				</g>
			</g>
		</g>
		<g>
			<g>
				<g>
					<g>
						<path fill="#231F20" d="M182.5,250.1c-3.2-2.5-3.1-6.9-3.1-7l0.7,0c0,0-0.1,4.1,2.8,6.5L182.5,250.1z"/>
					</g>
				</g>
			</g>
		</g>
		<g>
			<g>
				<g>
					<g>
						<path fill="#231F20" d="M97.7,235.7c-2.2,0-4.6-0.2-7.3-0.9c-11.2-2.6-14.4-15.6-14.5-16.2l1.4-0.3c0,0.1,3.1,12.6,13.4,15.1
							c10.4,2.5,17.2-1.4,17.2-1.5l0.7,1.3C108.5,233.3,104.5,235.7,97.7,235.7z"/>
					</g>
				</g>
			</g>
		</g>
		<g>
			<g>
				<g>
					<g>
						<path fill="#231F20" stroke="#231F20" stroke-linejoin="bevel" stroke-miterlimit="10" d="M136.1,250.4"/>
					</g>
				</g>
			</g>
		</g>
		<g>
			<g>
				<g>
					<g>
						<path fill="#231F20" d="M83.6,171.1c-4.1-1.1-13.6-3.7-14.5-4.5c-1.2-1.1-0.5-5.7-0.2-7.7c0-0.3,0.2-0.5,0.5-0.6
							c1.4-0.8,9.8,1.8,14.6,3.4l-0.5,1.4c-5.4-1.8-11.7-3.6-13.2-3.6c-0.5,2.7-0.6,5.5-0.2,6c0.7,0.5,7.7,2.5,13.9,4.2L83.6,171.1z
							"/>
					</g>
				</g>
			</g>
		</g>
		<g>
			<g>
				<g>
					<g>
						<path fill="#231F20" d="M68.5,163.8c-9.6-3.3-21.2-6.5-23.3-6.1l-1.2-4.2c3.9-1.2,19.4,3.9,25.9,6.1L68.5,163.8z"/>
					</g>
				</g>
			</g>
		</g>
	</g>
</g>
</svg>
