<?xml version="1.0" encoding="utf-8"?>
<!-- Generator: Adobe Illustrator 18.1.0, SVG Export Plug-In . SVG Version: 6.00 Build 0)  -->
<svg version="1.1" xmlns="http://www.w3.org/2000/svg" xmlns:xlink="http://www.w3.org/1999/xlink" x="0px" y="0px"
	 viewBox="0 0 267 294" enable-background="new 0 0 267 294" xml:space="preserve">
<g id="圖層_1">
</g>
<g id="圖層_2">
</g>
<g id="圖層_3">
</g>
<g id="圖層_4">
	<g>
		<g id="XMLID_105_">
			<g>
				<g>
					<g>
						<g>
							<path fill="#231F20" d="M27,159.6c-1.9-6.2,1.6-13,2.4-19.3c1.3-11.1,6.2-26.2,6.2-26.2l-4.4,4l14.2-34.6L40,84.3
								c0,0,10.2-11.3,14.2-20.3c4-9,20-35.6,33.7-42.3c13.8-6.7,34.6-11.5,48-7.5s21.3,12,20.9,24.4c0,0,3.1-8.4,20.4-8.9
								c17.3-0.4,37.8,10.7,46.2,20.9l-4.9-0.9c0,0,15.5,9.8,21.3,33.8l-4-3.6c0,0,7.6,34.6,7.6,50.6c0,3.9-0.3,7.7-0.6,11.6
								c-0.5-0.8-1-1.6-1.4-2.3c-0.1,2.2-0.3,4.4-0.4,6.6c-0.2-0.6-0.5-1.1-0.7-1.7c-0.1,4.8-0.6,9.6-1.4,14.3
								c-0.5-1.2-0.9-2.5-1.4-3.7c-0.3,2.8-0.3,5.6-0.2,8.3c-0.3-1-0.6-2-0.9-3c-0.7,3-1,6.1-1.1,9.2c-0.8-1.7-1.6-3.5-2.4-5.2
								c0.2,3.3,0,6.7-0.7,10c-0.2-0.8-0.5-1.6-0.7-2.3c-0.4,3.1-0.8,6.3-1.2,9.4c-0.9-0.7-1.6-1.9-1.7-3c-0.1,1.6-0.2,3.1-0.4,4.7
								c-0.7-0.1-1.3-0.5-1.7-1c-0.2,1.2-0.4,2.4-0.7,3.7c-0.3-0.5-0.9,0.1-1,0.7c-1.5,5.7-3,11.4-4.5,17.1
								c-0.9-1.1-1.8-2.3-2.7-3.3c-1,4-3.3,5.4-5.6,8.5c1.3-4.5,2-8.2,1.3-10.6c-1.8-5.3,0.6-10.2,0.3-16.4
								c-0.3-6.2,1.5-34.2,1.9-45.3c0.4-11.1,5.8-28.9-20.4-55.5c-1.3-1.4-13.5-13.5-15.9-10.3c0.4-0.6,0.7-1.3,0.7-2
								c-1.9,0.1-3.8,0.3-5.6,0.4c0.1-0.8,0.2-1.6,0.4-2.4c-1.8,0.1-3.5,0.5-5.1,1.3c0.8-0.9,1.1-2.2,1-3.4c-1.9,0.1-3.7,1-5,2.4
								c0.1-1.1,0.3-2.2,0.4-3.3c-1.9,0.4-3.7,1.3-5.1,2.6c0.3-1.5,0.5-3.1,0.3-4.6c-1.5,0.6-2.7,2-3,3.6c0.1-2,0.3-4,0.4-6
								c-1.8,0.5-3.1,2.3-3.4,4.1c0-0.9,0-1.9,0-2.8c-2,0.8-3.2,3-3,5.1c-0.7-3.6-1.6-7.2-2.9-10.7c-0.5,2.5-0.9,5.1-1.4,7.6
								c-0.8-1.6-1.6-3.2-2.4-4.9c0.4,1.9,0.5,3.8,0.3,5.7c-1.5-0.9-2.8-2.2-3.5-3.8c0.5,1.7,0.4,3.5-0.4,5.1
								c-0.7-0.3-1.3-1-1.4-1.8c-0.9,0.5-1.4,1.5-1.2,2.5c-0.8-0.1-1.5-0.6-1.7-1.4c-3.1,1.5-8.2,0.4-11.8,0.8
								c-4,0.5-8.1,1.2-12,2.1c-5.2,1.2-11.2,2.5-15.6,5.7c-6.1,4.4-9.5,10.8-15.3,15c0.3,0.6,1,1.1,1.7,1c0.1,0.7,0.2,1.3,0.3,2
								c-1.1,0.8-1.9,1.9-2.3,3.1c0.7-0.1,1.3-0.2,1.9-0.4c-1.2,1.5-2.5,2.9-3.7,4.4c0.9,0.3,1.8,0.4,2.7,0.3
								c-1.2,1.5-1.9,3.4-2.1,5.3c0.5,0,0.9,0,1.4,0c0.5,1.7-1.8,3.2-1.7,5c0,1.2,1.1,2.6,0.4,3.6c0.3,0.1,0.7,0.2,1,0.3
								c-1,1.6-1.9,3.2-2.9,4.8c-0.4,0.6-0.3,1.8,0.4,1.6c-1.5,0.6-1.2,4.4-2,5.8c-1.4,2.3-3.9,3.9-5.2,6.4
								c-5.2,9.4-5.8,22.4-8.3,32.7c-1.7,7-4.3,26-13,28.7c-0.2,0.1-0.5,0.1-0.7,0.2c-0.2-1.3,0.1-2.8,0.2-4.2
								c-0.6,0.1-1.2,0-1.7-0.3c0.9-2,1.8-4,2.7-6c-0.6,0.1-1.1,0.2-1.7,0.3c0.5-2.1,0.7-4.2,0.7-6.4c0,0.6-0.8,0.7-1.4,0.7
								c0-1.6,0-3.1,0-4.7c-0.3,0.7-0.9,1.3-1.7,1.7c0-1.7,0-3.4,0-5c-0.9,1.3-1.8,2.7-2.7,4c0.2-6.1,0.1-12.3-0.2-18.4
								c-1.6,4.6-3.5,9-5.8,13.3c0-3.1,0.1-6.2,0.1-9.2c-1.2,1.9-2.4,3.8-3.6,5.7c0-1.5-0.1-3-0.1-4.4c-1.9,1.6-3.7,3.2-5.6,4.8
								c0.4-1.8,0.7-3.6,0.7-5.4c-1.1,0.6-2.2,1.2-3.3,1.8C27.3,160.4,27.1,160,27,159.6z"/>
						</g>
					</g>
				</g>
				<g>
					<g>
						<g>
							<path fill="#FFFFFF" d="M101.1,275.2l-0.2,0.1c0,0-3.6,0.9-18.2-9.8s-29.3-31.1-31.1-40c-0.7-3.5-0.8-9.2-0.8-15
								c0-2.7,0.1-5.4,0.2-7.9c0.2-5.3,0.5-9.5,0.5-10.3c8.7-2.7,11.3-21.7,13-28.7c2.5-10.3,3.2-23.3,8.3-32.7
								c1.4-2.5,3.9-4.1,5.2-6.4c0.8-1.4,0.5-5.3,2-5.8c-0.7,0.2-0.7-1-0.4-1.6c1-1.6,1.9-3.2,2.9-4.8c-0.3-0.1-0.7-0.2-1-0.3
								c0.7-1-0.4-2.3-0.4-3.6c-0.1-1.8,2.3-3.3,1.7-5c-0.5,0-0.9,0-1.4,0c0.2-1.9,0.9-3.8,2.1-5.3c-0.9,0.1-1.9,0-2.7-0.3
								c1.2-1.5,2.5-2.9,3.7-4.4c-0.7,0.1-1.3,0.2-1.9,0.4c0.4-1.2,1.2-2.3,2.3-3.1c-0.1-0.7-0.2-1.3-0.3-2c-0.7,0.1-1.4-0.3-1.7-1
								c5.8-4.2,9.2-10.6,15.3-15c4.4-3.2,10.4-4.5,15.6-5.7c4-0.9,8-1.6,12-2.1c3.5-0.4,8.6,0.7,11.8-0.8c0.2,0.7,0.9,1.3,1.7,1.4
								c-0.1-1,0.4-2,1.2-2.5c0.1,0.8,0.7,1.5,1.4,1.8c0.8-1.6,0.9-3.4,0.4-5.1c0.8,1.6,2,2.9,3.5,3.8c0.3-1.9,0.2-3.9-0.3-5.7
								c0.8,1.6,1.6,3.3,2.4,4.9c0.5-2.5,0.9-5.1,1.4-7.6c1.3,3.5,2.2,7.1,2.9,10.7c-0.2-2.1,1.1-4.3,3-5.1c0,0.9,0,1.9,0,2.8
								c-0.1,0.4-0.1,0.8,0,1.2c0-0.4,0-0.8,0-1.2c0.2-1.8,1.6-3.6,3.4-4.1c-0.1,2-0.3,4-0.4,6c0.3-1.6,1.5-3,3-3.6
								c0.1,1.5,0,3.1-0.3,4.6c1.4-1.3,3.2-2.3,5.1-2.6c-0.1,1.1-0.3,2.2-0.4,3.3c1.3-1.4,3.1-2.2,5-2.4c0.1,1.2-0.3,2.4-1,3.4
								c1.6-0.8,3.3-1.3,5.1-1.3c-0.1,0.8-0.2,1.6-0.4,2.4c1.9-0.1,3.8-0.3,5.6-0.4c0,0.7-0.3,1.4-0.7,2c2.3-3.2,14.5,9,15.9,10.3
								c26.2,26.6,20.9,44.4,20.4,55.5c-0.4,11.1-2.2,39.1-1.9,45.3c0.3,6.2-2.1,11.1-0.3,16.4c0.8,2.3,0.1,6.1-1.3,10.6
								c-1.7,5.9-4.5,12.9-6.3,19.2c-3.1,11.1-18.1,39.1-22.2,42.6c-10,8.8-19.8,10.2-22.4,12.9c-2,2-6.7,7.1-13.8,8.4
								c-10.6,2-29.5-3.5-37.5-8.4C106.1,281.5,103.1,278.1,101.1,275.2z"/>
						</g>
					</g>
				</g>
				<g>
					<g>
						<g>
							<path fill="#FFFFFF" d="M36.9,203.3c-2.9-2.7-4.2-8.4-5.2-14.6c-1.3-7.7-4-17.7-5.6-21.7c-1.3-3.1,0.2-6.2,0.9-7.4
								c0.1,0.4,0.3,0.8,0.4,1.2c1.1-0.6,2.2-1.2,3.3-1.8c0,1.8-0.3,3.6-0.7,5.4c1.9-1.6,3.7-3.2,5.6-4.8c0,1.5,0.1,3,0.1,4.4
								c1.2-1.9,2.4-3.8,3.6-5.7c0,3.1-0.1,6.2-0.1,9.2c2.3-4.3,4.3-8.7,5.8-13.3c0.3,6.1,0.4,12.3,0.2,18.4c0.9-1.3,1.8-2.7,2.7-4
								c0,1.7,0,3.4,0,5c0.7-0.4,1.3-1,1.7-1.7c0,1.6,0,3.1,0,4.7c0.6,0,1.3-0.1,1.4-0.7c0,2.1-0.2,4.3-0.7,6.4
								c0.6-0.1,1.1-0.2,1.7-0.3c-0.9,2-1.8,4-2.7,6c0.5,0.3,1.1,0.4,1.7,0.3c-0.2,1.4-0.5,2.9-0.2,4.2c0.2-0.1,0.5-0.1,0.7-0.2
								c-0.1,0.8-0.3,5-0.5,10.3c-5,2.6-7,3.4-11.7,2C38.4,204.4,37.6,203.9,36.9,203.3z"/>
						</g>
					</g>
				</g>
				<g>
					<g>
						<g>
							<path fill="#231F20" d="M51,202.6c-0.1,2.5-0.2,5.2-0.2,7.9h0l-2.4,5.8c0,0-2-3-2-5.8c0-2.8-5,7.5-5,7.5s0.3-3.3,0-5.3
								c-0.3-2-4.6,3-4.6,3c-0.3-3.6,0.1-10.2,0.2-12.4c0.7,0.7,1.5,1.1,2.4,1.4C44,206,46,205.3,51,202.6z"/>
						</g>
					</g>
				</g>
			</g>
			<g>
				<g>
					<g>
						<g>
							<path fill="#231F20" d="M100.6,276.7c-1.7,0-6.6-1.2-18.8-10.1c-14.8-10.8-29.8-31.5-31.6-40.8c-0.6-3.1-0.9-8.1-0.8-15.3
								c0-2.7,0.1-5.4,0.2-7.9c0.1-3.4,0.3-7,0.5-10.3l2.9,0.2l0,0c-0.2,3.2-0.4,6.9-0.5,10.2c-0.1,2.5-0.2,5.1-0.2,7.8
								c-0.1,6.9,0.2,11.9,0.7,14.7c1.7,8.7,16.5,28.9,30.5,39.1c13,9.5,17,9.6,17,9.5l0.7,2.8C101.1,276.7,100.9,276.7,100.6,276.7
								z"/>
						</g>
					</g>
				</g>
				<g>
					<g>
						<g>
							<path fill="#231F20" d="M213.1,209.9l-2.3-1.7c0.7-1,1.4-1.7,2.1-2.5c1.5-1.7,2.7-3,3.3-5.5l2.4-0.6c0.4,0.4,0.7,0.8,1,1.2
								l3.8-14.4c0.2-0.6,0.6-1.3,1.2-1.6c0.2-0.9,0.3-1.7,0.5-2.6l1.8-0.5c0.1-1,0.2-2,0.2-3l2.1,0c0.1-0.7,0.2-1.5,0.3-2.2
								l0.5-4.2l1.1-0.1c0.3-2.4,0.4-4.9,0.3-7.3l2.7-0.7l0.1,0.2c0.2-1.3,0.4-2.6,0.7-3.9l0.8,0c0-1.7,0.1-3.4,0.3-5.1l2-0.3
								c0.5-3.4,0.7-6.8,0.8-10.3l0.8-0.1l0.3-4.9l1.6-0.4c0.2-2.9,0.4-5.9,0.4-8.8c0-15.7-7.4-50-7.5-50.3l2.3-1.4l0.4,0.3
								c-6.3-19.8-19.3-28.2-19.4-28.3l1-2.6l0.6,0.1c-9.3-8.9-26.5-17.3-41.2-17.3c-0.3,0-0.6,0-1,0c-16,0.4-19.1,7.9-19.1,8
								l-2.8-0.6c0.4-11.2-6.3-18.9-19.9-23c-12.8-3.8-33.3,0.9-46.9,7.5c-13,6.3-28.9,32.3-33.1,41.6c-2.8,6.3-8.5,13.7-11.9,17.7
								l1.5-0.2l1.6,1.9l-11.9,29.1l2.2,1.4c0,0.1-4.9,15.1-6.2,25.9c-0.3,2.2-0.8,4.5-1.4,6.7c-1.1,4.1-2.1,8-1.1,11.6
								c0.2-0.1,0.3-0.2,0.5-0.3l1.3-0.7l2.1,1.3c0,0.6,0,1.2-0.1,1.7l2.6-2.3l2.2,1c0.4-0.6,0.8-1.3,1.2-1.9l2.6,0.8c0,1,0,2,0,3
								c1.1-2.5,2.1-5,3-7.5l2.8,0.4c0.2,4.5,0.4,9.1,0.3,13.7l2.6,0.8l0,3l1.7,0.4c0,1.3,0,2.7,0,4l1.4,0c0,1.7-0.1,3.3-0.4,5
								l1.3,1.7l-2.2,4.8l1.2,1.1l-0.1,0.8c-0.1,0.4-0.1,0.8-0.1,1.2c5.9-3.2,8.6-16.3,10.1-23.5c0.3-1.4,0.6-2.7,0.8-3.7
								c0.7-3.1,1.3-6.4,1.9-9.9c1.4-8.1,2.8-16.4,6.5-23.1c0.8-1.5,1.9-2.6,3-3.7c0.9-0.9,1.7-1.8,2.3-2.7c0.2-0.3,0.3-1.3,0.4-1.9
								c0.2-1.1,0.4-2.3,0.9-3.2c-0.2-0.8,0-1.6,0.3-2.2l2.3-3.9l-0.4-1.4c0-0.1-0.2-0.5-0.3-0.8c-0.2-0.5-0.4-1.2-0.4-1.8
								c0-1.3,0.6-2.3,1.2-3.1c0.2-0.2,0.3-0.5,0.4-0.7l-1.2-1.3c0.1-1.4,0.5-2.7,1.1-3.9c-0.3-0.1-0.5-0.1-0.8-0.2l-0.6-2.3
								l2.2-2.7l-0.8-0.9c0.4-1.2,1.2-2.3,2.1-3.2l0-0.1c-0.8-0.3-1.4-0.9-1.8-1.6l0.4-1.8c2.7-2,4.9-4.5,7.2-7.1
								c2.4-2.7,4.9-5.6,8.1-7.9c4.6-3.3,10.6-4.7,15.9-5.9l0.2,0c3.8-0.9,7.8-1.5,12.2-2.1c1.4-0.2,3-0.1,4.6-0.1
								c2.5,0.1,5,0.2,6.7-0.6l1.3,0.6c0.3-0.7,0.9-1.3,1.6-1.6l1.3,0.6c0.1-0.7,0-1.5-0.2-2.2l2.6-1.1c0.2,0.5,0.6,1,0.9,1.5
								c0-0.8-0.2-1.6-0.3-2.4l2.7-0.9c0.2,0.3,0.3,0.6,0.5,0.9l0.6-3.3l2.7-0.2c0.7,2,1.4,4.1,1.9,6.2c0.6-0.6,1.3-1.1,2.1-1.4
								l2,1.3l0,2.8l-2.6,0c-0.4,0.6-0.5,1.4-0.5,2.1l-2.8,0.4c-0.3-1.7-0.7-3.3-1.1-5l-0.3,1.8l-2,0.3c0,0.2,0,0.4-0.1,0.5l-2.1,1
								c-0.5-0.3-0.9-0.6-1.3-0.9c-0.1,0.5-0.3,1.1-0.6,1.6l-1.9,0.7c-0.3-0.1-0.6-0.3-0.9-0.6l-1.3,1.3c-0.8-0.1-1.6-0.4-2.2-1
								c-2.1,0.6-4.5,0.5-6.8,0.4c-1.5-0.1-3-0.1-4.1,0c-4.3,0.5-8.2,1.2-11.9,2.1l-0.2,0c-5,1.1-10.8,2.4-14.9,5.4
								c-3,2.1-5.3,4.8-7.6,7.5c-1.9,2.2-3.9,4.5-6.2,6.4l0.9,0.7l0.3,2l-0.6,1.4c-0.4,0.3-0.7,0.6-1,1l0.9,1.5l-2.1,2.5l1.2,2.1
								c-0.7,0.9-1.3,2-1.6,3.2l1.1,0.8c0.5,1.6-0.4,2.9-1,3.8c-0.4,0.6-0.7,1.1-0.7,1.5c0,0.3,0.1,0.6,0.3,1
								c0.2,0.6,0.4,1.3,0.4,2.1l0.6,1.6l-2.9,4.8c0,0,0,0.1,0,0.1c0-0.1-0.1-0.3-0.4-0.5c-0.3-0.2-0.6-0.2-0.9-0.1l1,2.7
								c-0.2,0.2-0.4,1.6-0.5,2.3c-0.2,1.1-0.3,2.2-0.8,3c-0.8,1.3-1.7,2.3-2.7,3.3c-1,1-1.9,2-2.5,3.1c-3.5,6.3-4.9,14.4-6.2,22.2
								c-0.6,3.6-1.2,6.9-2,10.1c-0.2,1-0.5,2.2-0.8,3.7c-1.8,8.8-4.9,23.5-13.2,26.1c-0.2,0.1-0.5,0.1-0.7,0.2l-1.8-1.1
								c-0.2-1-0.1-2.1,0-3.2c-0.3-0.1-0.6-0.2-0.9-0.4l-0.5-1.8l1.9-4.3l-1-1.1c0.3-1.3,0.5-2.7,0.6-4l-1.3-1.3c0-0.7,0-1.3,0-2
								l-1.7-1l0-0.4c0,0-0.1,0.1-0.1,0.1l-2.6-0.8c0.1-3.8,0.1-7.6,0-11.4c-1,2.4-2.2,4.7-3.4,7l-2.7-0.7c0-1.4,0-2.8,0-4.2
								c-0.3,0.5-0.6,1-0.9,1.5l-2.6-0.7c0-0.5,0-0.9,0-1.4l-3.3,2.8l-2.3-1.4c0.2-0.8,0.4-1.7,0.5-2.6c-0.3,0.2-0.7,0.4-1,0.5
								l-2-0.7c-0.2-0.5-0.4-0.9-0.5-1.4c-1.4-4.5-0.2-9.1,1-13.6c0.6-2.2,1.1-4.3,1.3-6.3c0.9-7.3,3.2-16.1,4.8-21.5l-0.6,0.6
								l-2.3-1.6l13.2-32.3l-2.8,0.5L39,83.4c0.1-0.1,10.1-11.3,14-19.9c4.4-9.9,20.5-36.3,34.4-43c13.7-6.6,34.9-11.8,49-7.6
								c13.1,3.9,20.5,11.4,21.7,21.7c2.8-2.7,8.4-6,19.1-6.2c0.3,0,0.7,0,1,0c17.2,0,37.7,10.9,46.3,21.4l-1.2,2
								c5.2,4.6,13.8,14.6,17.9,31.4l-2.3,1.4l-0.8-0.7c2,9.8,6.7,33.9,6.7,46.7c0,3.4-0.2,6.8-0.5,10.1l-0.1,1.6l-1.6,0.4l-0.3,3.9
								l-0.8,0.1c-0.2,4.3-0.7,8.5-1.4,12.7l-1.6,0.2c0,1.4,0,2.8,0,4.2l-1.4,0.2c-0.3,2-0.5,4-0.5,6l-2.5,0.5
								c-0.1,1.5-0.3,3-0.6,4.5l-1,0.1l-0.2,1.7c-0.2,1.7-0.4,3.5-0.7,5.2l-2,0.8c0,0.2,0,0.5-0.1,0.7l-1.7,1.3
								c-0.1,0-0.2-0.1-0.4-0.1c-0.1,0.5-0.2,1.1-0.3,1.6l-2.7,0.4c0.2,0.3,0.5,0.5,0.9,0.6c0.4,0,0.7-0.1,0.7-0.2l-4.5,17.1
								l-2.5,0.5l-0.4-0.5c-0.2-0.3-0.4-0.6-0.7-0.9c-0.8,1.7-1.9,3-3.1,4.3C214.4,208.3,213.8,209,213.1,209.9z"/>
						</g>
					</g>
				</g>
				<g>
					<g>
						<g>
							<path fill="#231F20" d="M153.8,65.1c-0.1-0.5-0.1-1.1,0-1.6l2.8,0.2l0,1.2L153.8,65.1z"/>
						</g>
					</g>
				</g>
				<g>
					<g>
						<g>
							<path fill="#231F20" d="M142.3,294c-11.3,0-26.5-4.9-33.2-9.1c-4.1-2.5-7.2-6.3-9.1-8.9c-2.5-3.5-3.8-6.4-3.9-6.6l2.6-1.2
								c0,0,1.3,2.8,3.6,6.1c1.7,2.5,4.6,5.9,8.3,8.2c7.6,4.7,26.3,10.2,36.5,8.2c6.2-1.2,10.6-5.5,12.6-7.6l0.4-0.4
								c1.2-1.2,3.2-2,5.9-3.2c4.4-1.8,10.4-4.4,16.6-9.8c3.6-3.1,18.5-30.4,21.8-41.9c1-3.5,2.2-7.1,3.5-10.7c1-3,2-5.9,2.8-8.5
								c0.5-1.8,2.1-7.2,1.3-9.7c-1.2-3.5-0.7-6.7-0.2-10c0.3-2.2,0.6-4.4,0.5-6.8c-0.2-4.3,0.5-18.3,1.2-30.8
								c0.3-5.7,0.6-11.1,0.7-14.7c0.1-1.3,0.2-2.8,0.3-4.3c0.9-10.8,2.3-27.1-20.3-50.2c-5.9-6-12.3-10.9-13.8-10.4l-1.8-1.4
								l-4.2,0.3l-1.5-1.6l0.1-0.6c-0.9,0.2-1.9,0.5-2.7,1l-1.8-2.2c0.2-0.2,0.3-0.4,0.4-0.6c-0.8,0.3-1.6,0.8-2.2,1.5l-2.5-1.1
								l0.1-1.1c-0.9,0.4-1.7,0.9-2.4,1.6l-2.4-1.3c0-0.1,0.1-0.3,0.1-0.4l-2.8-0.4l0.2-2.7c-0.2,0.3-0.3,0.7-0.3,1.1l-2.8-0.4
								c0.3-2.5,2.1-4.6,4.4-5.3l1.8,1.5l-0.1,1.3c0.2-0.1,0.5-0.3,0.8-0.4l1.9,1.2c0,0.6,0.1,1.1,0,1.7c0.9-0.5,1.9-0.8,3-1
								l1.7,1.6l0,0.1c1-0.4,2-0.7,3.1-0.8l1.5,1.3c0,0.4,0,0.7,0,1.1c0.9-0.2,1.7-0.3,2.6-0.3l1.5,1.6l-0.1,0.7l3.9-0.3l1.5,1.4
								c0,0,0,0.1,0,0.1c4.6,1,12.4,8.7,14.8,11.2c23.6,24,22.1,41.1,21.1,52.4c-0.1,1.5-0.2,2.9-0.3,4.2c-0.1,3.6-0.4,9-0.7,14.7
								c-0.6,11.7-1.4,26.3-1.2,30.5c0.1,2.7-0.2,5-0.5,7.3c-0.4,3.2-0.8,5.9,0.1,8.7c0.8,2.4,0.4,5.8-1.3,11.4
								c-0.8,2.7-1.8,5.6-2.9,8.7c-1.2,3.5-2.5,7.1-3.4,10.5c-3.2,11.3-18.3,39.6-22.6,43.3c-6.5,5.7-13,8.4-17.3,10.3
								c-2.3,1-4.2,1.8-5,2.6l-0.4,0.4c-2.3,2.3-7,7.1-14.1,8.4C145.9,293.9,144.2,294,142.3,294z"/>
						</g>
					</g>
				</g>
				<g>
					<g>
						<g>
							<path fill="#231F20" d="M43.3,206.8c-1.3,0-2.6-0.2-4.3-0.7c-1.1-0.3-2.1-0.9-3-1.7c-3.3-3.1-4.6-9.3-5.7-15.4
								c-1.4-7.9-4-17.6-5.5-21.4c-1.5-3.7,0.2-7.3,1-8.7c0.3-0.5,0.4-0.7,0.4-0.7l2.4,1.6c0,0-0.1,0.2-0.3,0.5
								c-0.6,1-1.8,3.7-0.8,6.2c1.8,4.4,4.4,14.6,5.7,21.9c0.9,5.4,2.1,11.3,4.8,13.8c0.6,0.5,1.2,0.9,1.8,1.1
								c4.1,1.2,5.6,0.7,10.6-1.9l1.3,2.5C48.1,205.8,45.9,206.8,43.3,206.8z"/>
						</g>
					</g>
				</g>
				<g>
					<g>
						<g>
							<path fill="#231F20" d="M42.6,218.6l-2.7-0.8c0.1-0.6,0.2-2.2,0.1-3.6c-0.7,0.6-1.5,1.4-2.3,2.3l-2.5-0.8
								c-0.2-2.5-0.1-6.7,0.2-12.6c0-0.5,0.1-0.7,0.1-0.7l2.9,0.1c0,0,0,0.3-0.1,0.8c-0.2,4-0.3,6.9-0.3,8.9c2.1-1.8,3-1.5,3.4-1.4
								c0.7,0.2,1.1,0.7,1.3,1.4c2.3-4,3-3.8,3.8-3.6c0.3,0.1,1.3,0.4,1.3,1.9c0,0.8,0.2,1.6,0.5,2.4l1.2-2.9l2.6,1.1l-2.4,5.8
								l-2.5,0.2c-0.1-0.1-1.1-1.7-1.8-3.8C44.6,214.8,43.5,216.8,42.6,218.6z"/>
						</g>
					</g>
				</g>
			</g>
		</g>
		<g>
			<g>
				<g>
					<g>
						<path fill="#231F20" d="M129,209.1c-10.5-2.7-10.7-7.2-11-12.9c0-0.6-0.1-1.3-0.1-1.9c-0.5-7.2,8.1-9.9,8.2-9.9l0.4,1.4
							c-0.3,0.1-7.6,2.3-7.2,8.4c0,0.7,0.1,1.3,0.1,2c0.3,5.7,0.5,9.1,9.9,11.6L129,209.1z"/>
					</g>
				</g>
			</g>
		</g>
		<g>
			<g>
				<g>
					<g>
						<path fill="#231F20" d="M140.3,184.8l-1.4-0.2c1.7-9.6,6.5-20.5,6.6-20.6l1.3,0.6C146.7,164.6,141.9,175.4,140.3,184.8z"/>
					</g>
				</g>
			</g>
		</g>
		<g>
			<g>
				<g>
					<g>
						<path fill="#231F20" d="M164,203.2l-1.2-0.8c5.1-8.1,4-14.6,3-20.4c-0.1-0.5-0.2-1-0.3-1.5c-1-6-2.6-18.7-2.7-18.8l1.4-0.2
							c0,0.1,1.7,12.8,2.6,18.8c0.1,0.5,0.2,1,0.3,1.5C168.2,187.5,169.4,194.6,164,203.2z"/>
					</g>
				</g>
			</g>
		</g>
		<g>
			<g>
				<g>
					<g>
						<path fill="#231F20" d="M172,215.2c-0.2,0-0.3,0-0.5,0l0-1.4c8.1,0.2,8.6-5.2,9.1-10.5l0-0.2c0.4-4-5-7.9-7-9.3
							c-0.5-0.4-0.8-0.6-0.9-0.7l1-1c0.1,0.1,0.4,0.3,0.8,0.6c2.4,1.7,8.1,5.8,7.6,10.6l0,0.2C181.7,208.3,181,215.2,172,215.2z"/>
					</g>
				</g>
			</g>
		</g>
		<g id="XMLID_104_">
			<g>
				<g>
					<g>
						<g>
							<path fill="#231F20" d="M172.1,210.1l-9.4-1c1-0.9,2-1.5,3.3-1.5C171.1,207.5,172.1,210.1,172.1,210.1z"/>
						</g>
					</g>
				</g>
				<g>
					<g>
						<g>
							<path fill="#231F20" d="M141.3,204.9c-5.2,1.3-9.4-2.3-9.4-2.3v0c1.8-0.8,4.2-1.3,6.2,0C139.5,203.5,140.5,204.2,141.3,204.9
								z"/>
						</g>
					</g>
				</g>
			</g>
			<g>
				<g>
					<g>
						<g>
							<path fill="#231F20" d="M172,210.8l-9.4-1l-0.4-1.2c0.8-0.7,2.1-1.7,3.8-1.7c5.5,0,6.7,2.9,6.8,3L172,210.8z M164.7,208.6
								l5.5,0.6c-0.8-0.5-2.1-0.9-4.2-0.9C165.6,208.2,165.1,208.3,164.7,208.6z"/>
						</g>
					</g>
				</g>
				<g>
					<g>
						<g>
							<path fill="#231F20" d="M155.6,213.9c-3.4,0-7.6-1.3-10.1-3.8c-0.8-0.8-1.5-1.5-2-2.1c-1-1.1-1.7-1.8-2.6-2.5
								c-0.8-0.7-1.8-1.4-3.2-2.3c-1.8-1.1-4-0.6-5.5,0.1c-1.5,0.6-2.5,1.5-2.5,1.5l-0.9-1.1c0,0,1.2-0.9,2.9-1.7
								c2.6-1.1,5-1.1,6.9,0c1.5,0.9,2.5,1.6,3.3,2.4c0.9,0.8,1.7,1.6,2.7,2.6c0.6,0.6,1.2,1.3,2,2.1c3.4,3.4,10.3,4.1,12.3,2.6
								c0.8-0.5,1.4-1.2,2.1-1.9c0.4-0.4,0.9-0.9,1.3-1.3l0.9,1.1c-0.4,0.4-0.8,0.8-1.2,1.2c-0.7,0.7-1.4,1.5-2.3,2.1
								C158.7,213.6,157.3,213.9,155.6,213.9z"/>
						</g>
					</g>
				</g>
				<g>
					<g>
						<g>
							<path fill="#231F20" d="M139,205.9c-4.3,0-7.4-2.6-7.6-2.7l0.9-1.1c0,0,4,3.3,8.8,2.1l0.2,0l0,0.7l0.2,0.7
								C140.6,205.9,139.8,205.9,139,205.9z"/>
						</g>
					</g>
				</g>
			</g>
		</g>
		<g>
			<g>
				<g>
					<g>
						<path fill="#231F20" d="M79.5,207.2c-7-4.8-8.8-13-8.8-13.1l0.7-0.1c0,0.1,1.7,8,8.5,12.7L79.5,207.2z"/>
					</g>
				</g>
			</g>
		</g>
		<g>
			<g>
				<g>
					<g>
						<path fill="#231F20" d="M105.2,208.6l-0.6-0.4c0,0,1.8-3.2,3.9-9.2c5.1-10.2,11.8-10.8,12.1-10.8l0.1,0.7
							c-0.1,0-6.6,0.6-11.5,10.4C107,205.3,105.2,208.6,105.2,208.6z"/>
					</g>
				</g>
			</g>
		</g>
		<g>
			<g>
				<g>
					<g>
						<path fill="#231F20" d="M185.7,217.6l-0.7-0.1c1.4-7.7-3.8-14.1-3.9-14.2l0.5-0.5C181.7,203,187.2,209.6,185.7,217.6z"/>
					</g>
				</g>
			</g>
		</g>
		<g id="XMLID_103_">
			<g>
				<g>
					<g>
						<g>
							<path fill="#231F20" d="M171.3,237.9c0.4,0.6,0.7,1.2,0.8,1.9c0,0-2.5,2-6.5,3.6c-0.1-0.4-0.4-1.2-0.5-1.5
								c0-0.1-0.1-0.2-0.2-0.1l-0.5,0c1.4-1.1,2.8-6.9,2.8-6.9C169,235.6,170.5,236.6,171.3,237.9z"/>
						</g>
					</g>
				</g>
				<g>
					<g>
						<g>
							<path fill="#231F20" d="M171.4,237.8L171.4,237.8c-0.9-1.2-2.4-2.2-4.1-3c-1.3-0.6-2.8-1.1-4.3-1.5c-1.5-0.4-3-0.8-4.3-1
								c-1.5-0.3-2.9-0.5-3.9-0.7c-0.6-0.1-1.3-0.2-2-0.3c-2.8-0.4-6.3-0.6-9.6-0.9c-2.2-0.2-4.3-0.4-6-0.7
								c-0.7-0.1-1.4-0.3-2.3-0.4c-2.2-0.4-5-0.9-7.9-1.3c-2.6-0.3-5.2-0.6-7.4-0.7c-1.7,0-3.3,0.1-4.4,0.3c0.6-0.2,10.2-3.7,16-3.3
								c6,0.5,11.3,2.7,14.9,3.3c3.6,0.7,12.7-1.3,16.4,0C166.4,228.9,171.4,237.8,171.4,237.8z"/>
						</g>
					</g>
				</g>
				<g>
					<g>
						<g>
							<path fill="#231F20" d="M151.1,245c1.2,0.1,2.3,0.2,3.3,0.3c0.6,0,1.3,0.1,1.9,0.1c1.6,0,3.1-0.2,4.6-0.5
								c1.8-0.4,3.4-0.9,4.8-1.5c0,0.1,0,0.1,0,0.1c0,0-7.4,7-11.4,8.1c-4,1.1-8.2,1.7-16.7,0.1c-8.5-1.6-11.1-3.2-15.5-6.9
								c-4.3-3.6-7.3-8.7-7.5-9c1.3,0.8,2.7,1.6,4.1,2.4c1.4,0.8,2.8,1.4,3.9,1.8c0.4,0.1,0.8,0.3,1.3,0.4c1.7,0.5,4.2,1.1,7,1.6
								c2.3,0.4,4.7,0.9,7.3,1.3c2.3,0.4,4.6,0.7,6.8,1C147.1,244.6,149.2,244.8,151.1,245z"/>
						</g>
					</g>
				</g>
				<g>
					<g>
						<g>
							<path fill="#231F20" d="M120.1,232.9c0.1,0.3,0.1,0.6,0.2,0.8c-0.2,0-0.3,0.7-0.4,0.9c-0.5,1-1,2.5-1.3,3.5
								c-1.3-0.7-2.8-1.5-4.1-2.4c0,0,0,0,0,0c-3.5-2.2-6.6-4.3-6.6-4.3s2.9-2.9,7.3-4c0,0-0.5,4.2,1.1,5.4
								C118,234.1,120.1,232.9,120.1,232.9z"/>
						</g>
					</g>
				</g>
			</g>
			<g>
				<g>
					<g>
						<g>
							<path fill="#231F20" d="M156.3,246.1c-0.7,0-1.3,0-2-0.1c-1-0.1-2.1-0.2-3.3-0.3c-2-0.2-4.1-0.4-6.2-0.7
								c-2.3-0.3-4.6-0.7-6.8-1c-2.3-0.4-4.8-0.8-7.3-1.3c-3-0.6-5.4-1.1-7.1-1.6c-0.5-0.1-0.9-0.3-1.3-0.4c-1.1-0.4-2.5-1-4-1.9
								c-1.2-0.7-2.6-1.5-4.1-2.4l0.7-1.2c1.5,0.9,2.9,1.7,4.1,2.3c1.5,0.8,2.8,1.4,3.8,1.8c0.4,0.1,0.8,0.3,1.2,0.4
								c1.6,0.5,4,1,7,1.6c2.5,0.5,4.9,0.9,7.3,1.3c2.2,0.4,4.5,0.7,6.8,1c2.1,0.3,4.2,0.5,6.2,0.7c1.1,0.1,2.2,0.2,3.3,0.3
								c0.6,0,1.2,0.1,1.9,0.1c1.4,0,2.9-0.2,4.4-0.5c1.6-0.3,3.2-0.8,4.7-1.4c3-1.2,5.1-2.7,5.9-3.2c-0.1-0.4-0.3-0.8-0.6-1.2
								c-0.7-1-2-2-3.7-2.8c-1.2-0.6-2.6-1.1-4.2-1.5c-1.3-0.4-2.7-0.7-4.3-1c-0.9-0.2-1.8-0.3-2.5-0.5c-0.5-0.1-1-0.2-1.4-0.3
								c-0.6-0.1-1.3-0.2-2-0.3c-1.8-0.2-3.9-0.4-6.2-0.6c-1.1-0.1-2.2-0.2-3.4-0.3c-2.7-0.2-4.6-0.5-6-0.7l-2.3-0.4
								c-2.2-0.4-5-0.9-7.9-1.2c-3-0.4-5.3-0.6-7.3-0.6c-1.8,0-3.2,0.1-4.2,0.3l-0.3-1.4c1.1-0.3,2.7-0.4,4.6-0.3
								c2,0,4.5,0.3,7.5,0.7c2.9,0.4,5.7,0.9,7.9,1.3l2.3,0.4c1.4,0.3,3.3,0.5,5.9,0.7c1.1,0.1,2.2,0.2,3.3,0.3
								c2.3,0.2,4.4,0.4,6.3,0.6c0.7,0.1,1.4,0.2,2,0.3c0.4,0.1,0.9,0.2,1.4,0.3c0.8,0.1,1.6,0.3,2.5,0.5c1.6,0.3,3.1,0.7,4.4,1
								c1.6,0.5,3.1,1,4.4,1.6c2,0.9,3.4,2,4.3,3.3c0.5,0.7,0.8,1.4,0.9,2.2l-0.3,0.7c-0.1,0.1-2.6,2.1-6.7,3.7
								c-1.6,0.6-3.3,1.1-4.9,1.5C159.4,245.9,157.8,246.1,156.3,246.1L156.3,246.1z"/>
						</g>
					</g>
				</g>
				<g>
					<g>
						<g>
							<path fill="#231F20" d="M114.2,236.4c-3.5-2.1-6.6-4.3-6.6-4.3l-0.1-1.1c0.1-0.1,3.1-3,7.6-4.2l0.4,1.4
								c-3,0.8-5.2,2.4-6.3,3.2c1.1,0.8,3.3,2.2,5.8,3.7L114.2,236.4z"/>
						</g>
					</g>
				</g>
				<g>
					<g>
						<g>
							<path fill="#231F20" d="M146.6,253.4c-2.5,0-5.4-0.3-9.2-1c-8.7-1.6-11.4-3.3-15.9-7.1c-4.4-3.7-7.6-9-7.7-9.2l0.2-0.1
								l-0.3-0.3h1.4h-0.7l0-0.7l0.6,0.4c0.1,0.2,3.1,5.3,7.4,8.8c4.4,3.7,6.8,5.2,15.2,6.7c8,1.5,12.2,1.1,16.3-0.1
								c3.8-1,11.1-7.9,11.1-7.9l1,1c-0.3,0.3-7.6,7.1-11.7,8.3C152.1,253,149.7,253.4,146.6,253.4z"/>
						</g>
					</g>
				</g>
				<g>
					<g>
						<g>
							<path fill="#231F20" d="M170.8,238.2c-1.4-2.4-5.5-8.9-8.4-10c-2-0.7-5.9-0.4-9.3-0.1c-2.8,0.2-5.4,0.4-7,0.1
								c-1.3-0.2-2.7-0.6-4.3-1.1c-3-0.9-6.6-1.9-10.5-2.2c-5.1-0.4-13.3,2.4-15.6,3.3l0,0l-0.3,0.1v-0.7l-0.5-0.5l0.2-0.1
								c2.5-0.9,10.9-3.8,16.3-3.4c4,0.3,7.8,1.4,10.8,2.3c1.6,0.5,3,0.9,4.2,1.1c1.4,0.3,4,0.1,6.7-0.2c3.7-0.3,7.6-0.6,9.9,0.2
								c4,1.4,9,10.2,9.2,10.6L170.8,238.2z"/>
						</g>
					</g>
				</g>
				<g>
					<g>
						<g>
							<path fill="#231F20" d="M142.3,240.3c-1.5,0-3.8-0.4-3.8-0.4c-2.6-0.4-4.3-1-4.9-1.7c-0.2-0.2-0.4-0.6-0.5-1
								c-0.6-2.4,1-7.6,1.2-8.2l1.4,0.4c-0.5,1.5-1.5,5.8-1.1,7.5c0.1,0.3,0.1,0.4,0.1,0.4c0.3,0.4,1.6,0.9,4.1,1.3
								c1.8,0.3,3.3,0.4,3.9,0.3c0.2-1.2,0-5-0.2-8.5l1.4-0.1c0.6,9.3,0,9.6-0.3,9.8C143.4,240.2,142.9,240.3,142.3,240.3z"/>
						</g>
					</g>
				</g>
				<g>
					<g>
						<g>
							<path fill="#231F20" d="M149.3,241.1c-1.1,0-2.4-0.1-3.9-0.4c-1.3-0.2-2.3-0.5-2.3-0.5l0.4-1.4c0,0,0.9,0.2,2.2,0.5
								c2.5,0.5,4.4,0.5,5.3,0.2c0.3-0.1,0.4-0.2,0.4-0.2c0.9-1.4,0.9-6.2,0.8-8l1.4-0.1c0,0.7,0.3,6.7-1,8.8
								c-0.2,0.4-0.6,0.6-1.1,0.9C150.9,241,150.2,241.1,149.3,241.1z"/>
						</g>
					</g>
				</g>
				<g>
					<g>
						<g>
							<path fill="#231F20" d="M155.8,242.5c-1.5,0-3.4-1.6-4.3-2.4l0.9-1.1c1.4,1.2,3.1,2.2,3.5,2c0-0.1,0.1-0.3,0.3-0.9
								c0.8-2.5,1.8-8,1.8-8l1.4,0.3c0,0.2-1,5.6-1.9,8.2c-0.2,0.6-0.4,1-0.5,1.2c-0.1,0.2-0.2,0.2-0.2,0.3
								C156.5,242.4,156.2,242.5,155.8,242.5z"/>
						</g>
					</g>
				</g>
				<g>
					<g>
						<g>
							<path fill="#231F20" d="M159.5,242.6c-1.7,0-3.1-1.7-3.2-1.8l1.1-0.9c0,0,1.3,1.5,2.5,1.2c0,0,0.1,0,0.2-0.2
								c0.1-0.2,0.3-0.4,0.5-0.8c1-2.2,1.6-6.4,1.6-6.4l1.4,0.2c0,0.2-0.7,4.4-1.8,6.8c-0.2,0.5-0.5,0.9-0.7,1.1
								c-0.3,0.3-0.6,0.6-0.9,0.7C160,242.6,159.8,242.6,159.5,242.6z"/>
						</g>
					</g>
				</g>
				<g>
					<g>
						<g>
							<path fill="#231F20" d="M164.1,242.4l-3.2-1.4l0.6-1.3l2.7,1.2c0.9-1.1,1.9-4.2,2.4-6.3l1.4,0.3c-0.2,1-1.5,6-3.1,7.2
								l-0.2,0.1L164.1,242.4z"/>
						</g>
					</g>
				</g>
				<g>
					<g>
						<g>
							<path fill="#231F20" d="M129.1,238.2c-1.9,0-2.4-0.4-2.7-0.8c-0.1-0.2-0.3-0.6-0.3-1.6c-0.2-2.5,0.2-7.3,0.2-7.6l1.4,0.1
								c0,0.1-0.4,4.9-0.2,7.3c0,0.7,0.1,0.9,0.1,0.9c0,0,0.2,0.1,1.4,0.1c0.6,0,1.4,0,2.5-0.2c0.9-0.1,1.7-0.2,2-0.3l0.2,0l0.1,1.4
								c-0.3,0.1-1.2,0.2-2.1,0.3C130.6,238.2,129.7,238.2,129.1,238.2z"/>
						</g>
					</g>
				</g>
				<g>
					<g>
						<g>
							<path fill="#231F20" d="M123.3,237.2c-1.1,0-2.3-0.9-3.3-2.5c-0.1-0.2-0.2-0.4-0.3-0.7c-0.1-0.2-0.2-0.6-0.3-0.9
								c-0.5-2.1-0.5-5.2-0.5-5.3l1.4,0c0,0,0,3,0.4,5c0.1,0.3,0.1,0.5,0.2,0.7c0.1,0.3,0.2,0.4,0.2,0.5c1,1.5,1.8,1.9,2.2,1.8
								c0.4-0.2,1.1-0.3,1.6-0.4c0.5-0.1,0.9-0.2,1.2-0.2c0.2,0,0.3,0,0.3-0.1l0.2,0l0,0.7l0.2,0.7c-0.1,0-0.2,0-0.4,0.1
								c-0.3,0.1-0.8,0.1-1.2,0.2c-0.6,0.1-1.2,0.2-1.4,0.3C123.7,237.2,123.5,237.2,123.3,237.2z"/>
						</g>
					</g>
				</g>
				<g>
					<g>
						<g>
							<path fill="#231F20" d="M118.1,234.2c-0.7,0-1.4-0.2-2.1-0.7c-1.9-1.4-1.5-5.6-1.4-6.1l1.4,0.2c-0.2,1.5-0.1,4.1,0.9,4.8
								c1.2,0.9,2.9,0,2.9-0.1l0.7,1.2C120.4,233.6,119.3,234.2,118.1,234.2z"/>
						</g>
					</g>
				</g>
				<g>
					<g>
						<g>
							
								<rect x="137.6" y="239.6" transform="matrix(0.9919 0.1269 -0.1269 0.9919 31.7619 -15.6074)" fill="#231F20" width="1.4" height="3.8"/>
						</g>
					</g>
				</g>
				<g>
					<g>
						<g>
							<path fill="#231F20" d="M145.6,244.4l-1.4-0.1c0.1-1.3,0.3-2.7,0.5-4.4l0-0.2l1.4,0.1l-0.1,0.4
								C145.9,241.7,145.7,243.1,145.6,244.4z"/>
						</g>
					</g>
				</g>
				<g>
					<g>
						<g>
							<path fill="#231F20" d="M151.8,245.4l-1.4-0.4c0.3-1.6,0.4-3.1,0.1-4.6l1.4-0.2c0.2,1.7,0.2,3.3-0.1,4.9
								C151.8,245.2,151.8,245.3,151.8,245.4z"/>
						</g>
					</g>
				</g>
				<g>
					<g>
						<g>
							<path fill="#231F20" d="M157,245.5l-1.4-0.1c0.2-1.3,0.2-2.5,0.1-3.7l1.4-0.1C157.2,242.9,157.2,244.2,157,245.5z"/>
						</g>
					</g>
				</g>
				<g>
					<g>
						<g>
							<path fill="#231F20" d="M161.6,244.9l-1.4-0.1c0.1-1,0.1-2.5-0.1-3.2l1.4-0.4C161.8,242.4,161.6,244.5,161.6,244.9z"/>
						</g>
					</g>
				</g>
				<g>
					<g>
						<g>
							<path fill="#231F20" d="M165,243.7l0-0.2c0-0.2-0.1-0.5-0.2-0.7c-0.1-0.3-0.2-0.5-0.2-0.7c0.1,0.2,0.2,0.3,0.4,0.3l0.1-0.6
								l-0.6-0.4l0.8-0.3c0.3,0.1,0.6,0.4,0.7,0.7c0,0.1,0.1,0.4,0.2,0.6c0.1,0.3,0.2,0.6,0.2,0.8L165,243.7z"/>
						</g>
					</g>
				</g>
				<g>
					<g>
						<g>
							<path fill="#231F20" d="M131.6,242l-1.4-0.1c0.1-1.5,0.4-2.9,0.8-4.3l1.4,0.4C131.9,239.2,131.7,240.6,131.6,242z"/>
						</g>
					</g>
				</g>
				<g>
					<g>
						<g>
							<path fill="#231F20" d="M124.6,240.3l-1.4-0.2c0.3-1.5,0.7-3,1.4-4.3l1.3,0.6C125.2,237.7,124.8,239,124.6,240.3z"/>
						</g>
					</g>
				</g>
				<g>
					<g>
						<g>
							<path fill="#231F20" d="M119.3,238.4L118,238c0.3-1,0.9-2.6,1.4-3.6l0-0.1c0.1-0.5,0.3-1.1,0.9-1.2l0.2,1.4
								c0.2,0,0.4-0.2,0.4-0.2c0,0.1-0.1,0.3-0.1,0.4c0,0.1-0.1,0.2-0.1,0.3C120.2,235.9,119.6,237.4,119.3,238.4z"/>
						</g>
					</g>
				</g>
			</g>
		</g>
		<g>
			<g>
				<g>
					<g>
						<path fill="#231F20" d="M195.4,228.2c-0.5,0-0.8-0.1-0.8-0.1l0.1-0.7c0,0,3.9,0.7,8.6-3.5l0.5,0.5
							C200,227.8,196.8,228.2,195.4,228.2z"/>
					</g>
				</g>
			</g>
		</g>
		<g>
			<g>
				<g>
					<g>
						<path fill="#231F20" d="M172.3,245.7l-0.3-0.7c8.9-3.5,10.1-8.1,10.1-8.1l0.7,0.2C182.8,237.3,181.6,242.1,172.3,245.7z"/>
					</g>
				</g>
			</g>
		</g>
		<g>
			<g>
				<g>
					<g>
						<path fill="#231F20" d="M100.7,248.6c-13.1-5.3-17.4-22.4-17.4-22.5l0.7-0.2c0,0.2,4.2,16.8,17,22L100.7,248.6z"/>
					</g>
				</g>
			</g>
		</g>
		<g>
			<g>
				<g>
					<g>
						<path fill="#231F20" d="M107.8,235.2c-2.7-1.2-7.1-6.4-7.2-6.6l0.5-0.5c0,0.1,4.4,5.3,7,6.4L107.8,235.2z"/>
					</g>
				</g>
			</g>
		</g>
		<g>
			<g>
				<g>
					<g>
						<path fill="#231F20" d="M143.6,261.5c-5.1,0-8.4-2.6-8.5-2.7l0.5-0.6c0,0,3.2,2.6,8.1,2.6V261.5z"/>
					</g>
				</g>
			</g>
		</g>
		<g>
			<g>
				<g>
					<g>
						<path fill="#231F20" d="M133.3,158.3l-0.5-0.5c-0.1,0.1-0.1,0.2-0.1,0.2c-0.1-0.8-6.1-8.2-15.6-10.4
							c-7.6-1.7-13.3,2.4-16.7,4.8c-1,0.7-1.8,1.3-2.4,1.6c-2.9,1.3-6.8-1.9-6.9-2l0.5-0.5c0,0,3.7,3,6.2,1.9
							c0.6-0.3,1.3-0.8,2.3-1.5c3.5-2.5,9.4-6.7,17.3-4.9c9.3,2.2,15.6,9.4,16.1,10.9C133.4,158,133.4,158.2,133.3,158.3z"/>
					</g>
				</g>
			</g>
		</g>
		<g>
			<g>
				<g>
					<g>
						<path fill="#231F20" d="M201.3,170c-2.7-5.5-6.4-8.9-10.8-10.1c-7.1-1.9-13.9,2.6-14,2.7l-0.4-0.6c0.3-0.2,7.2-4.7,14.6-2.8
							c4.7,1.2,8.4,4.8,11.3,10.5L201.3,170z"/>
					</g>
				</g>
			</g>
		</g>
		<g>
			<g>
				<g>
					<g>
						<path fill="#231F20" d="M197,178.8c-1.4,0-3.1-0.1-5.2-0.4c-6.2-0.9-10.6-4.8-10.8-5l0.5-0.5c0,0,4.4,4,10.4,4.8
							c6,0.8,9,0,9,0l0.2,0.7C201,178.4,199.7,178.8,197,178.8z"/>
					</g>
				</g>
			</g>
		</g>
		<g>
			<g>
				<g>
					<g>
						<path fill="#231F20" d="M113.1,165.5c-5.2,0-13.6-2.8-14.2-3.6l0.6-0.5l-0.3,0.2l0.3-0.2c0.6,0.5,8.8,3.5,14.1,3.3
							c5.2-0.1,8-1,8-1l0.2,0.7c-0.1,0-2.9,0.9-8.2,1.1C113.4,165.5,113.3,165.5,113.1,165.5z"/>
					</g>
				</g>
			</g>
		</g>
		<g>
			<g>
				<g>
					<g>
						<path fill="#231F20" d="M72.6,174.1l-0.5-0.5c4.2-5,10.1-6.7,10.3-6.8l0.2,0.7C82.5,167.6,76.7,169.2,72.6,174.1z"/>
					</g>
				</g>
			</g>
		</g>
		<g>
			<g>
				<g>
					<g>
						<path fill="#231F20" d="M212.8,188.7c-1.2-4.6-4.7-7.2-4.7-7.2l0.4-0.6c0.2,0.1,3.7,2.8,5,7.6L212.8,188.7z"/>
					</g>
				</g>
			</g>
		</g>
		<g>
			<g>
				<g>
					<g>
						<path fill="#231F20" d="M99,136.2c-0.3-0.5-0.9-1-1.7-1.2c-0.7-0.2-1.5-0.2-2.5-0.2c-1.4,0-2.8,0.1-3.9,0.7l-0.7-1.3
							c1.4-0.7,2.9-0.8,4.5-0.9c1,0,1.9,0,2.9,0.2c1.2,0.3,2.1,1,2.6,1.9L99,136.2z"/>
					</g>
				</g>
			</g>
		</g>
		<g>
			<g>
				<g>
					<g>
						<path fill="#231F20" d="M102,135.3c0,0-0.1-0.2-0.7-0.3c-2.7-0.6-5.4-1.1-8.1-1.4l0.2-1.4c2.8,0.3,5.5,0.8,8.2,1.4
							c1.1,0.2,1.7,0.7,1.8,1.5L102,135.3L102,135.3z"/>
					</g>
				</g>
			</g>
		</g>
		<g>
			<g>
				<g>
					<g>
						<path fill="#231F20" d="M103.6,135.8c-1.6-2-3.7-3.6-6.1-4.4c-0.5-0.2-0.6-0.1-0.7-0.1l-0.7-1.2c0.6-0.4,1.3-0.2,1.9,0
							c2.7,0.9,5.1,2.6,6.8,4.9L103.6,135.8z"/>
					</g>
				</g>
			</g>
		</g>
		<g>
			<g>
				<g>
					<g>
						<path fill="#231F20" d="M106.5,134.9c-1.6-2-3.9-3.4-6.4-4c-0.6-0.1-0.8-0.5-0.8-0.8l0.4-0.5l0.4,0.4l-0.4-0.4l0.2-0.3
							c0.3-0.1,0.7,0,0.9,0.3c2.7,0.7,5.1,2.2,6.8,4.4L106.5,134.9z"/>
					</g>
				</g>
			</g>
		</g>
		<g>
			<g>
				<g>
					<g>
						<path fill="#231F20" d="M110.3,135c-1.4-1.7-3-3.3-4.8-4.6c-0.6-0.5-1.3-0.9-1.9-0.9l-0.1-1.4c1.1-0.1,2.1,0.5,2.9,1.2
							c1.8,1.4,3.5,3,5,4.8L110.3,135z"/>
					</g>
				</g>
			</g>
		</g>
		<g>
			<g>
				<g>
					<g>
						<path fill="#231F20" d="M114.1,135c-2.7-3.2-5.9-5.8-9.4-8c-0.6-0.4-0.7-0.9-0.6-1.3l0.9-0.5c0.3,0.1,0.7,0.3,0.7,0.7
							c3.6,2.2,6.8,4.9,9.5,8.1L114.1,135z M104.3,126.1c0,0.2,0.1,0.5,0.4,0.6l0.1-0.6L104.3,126.1z"/>
					</g>
				</g>
			</g>
		</g>
		<g>
			<g>
				<g>
					<g>
						<path fill="#231F20" d="M115.9,134.3c-1.2-3.1-3.4-5.8-6.2-7.6l0.7-1.2c3.1,1.9,5.5,4.8,6.8,8.3L115.9,134.3z"/>
					</g>
				</g>
			</g>
		</g>
		<g>
			<g>
				<g>
					<g>
						<path fill="#231F20" d="M174.8,142.5c-0.4-0.6-0.2-1.4,0.6-2c2.3-1.8,5.1-3.1,8.1-3.6l0.2,1.4c-2.7,0.5-5.3,1.6-7.4,3.3
							c-0.2,0.1-0.2,0.2-0.2,0.3c0,0,0-0.1,0-0.2L174.8,142.5z"/>
					</g>
				</g>
			</g>
		</g>
		<g>
			<g>
				<g>
					<g>
						<path fill="#231F20" d="M178.2,144c-0.3,0-0.5-0.1-0.7-0.3c-0.4-0.4-0.3-1.1-0.1-1.5c0.7-1.4,2-2.2,3-2.7
							c1.2-0.5,2.4-0.8,3.6-1.1l0.3,1.4c-1.1,0.2-2.3,0.5-3.3,1c-0.8,0.3-1.8,1-2.3,2c0,0-0.1-0.1-0.2-0.2c-0.1-0.1-0.3-0.1-0.4,0
							l0.5,1.3C178.4,143.9,178.3,144,178.2,144z"/>
					</g>
				</g>
			</g>
		</g>
		<g>
			<g>
				<g>
					<g>
						<path fill="#231F20" d="M181.6,143.2l-1.4,0c0-0.9,0.9-1.4,1.2-1.6c1.3-0.8,2.7-1.5,4.1-2.1c1.3-0.6,2.7-1.1,4.1-0.7l-0.4,1.4
							c-1-0.3-2.2,0.2-3.2,0.6c-1.4,0.6-2.7,1.3-4,2C181.7,143.1,181.6,143.2,181.6,143.2z"/>
					</g>
				</g>
			</g>
		</g>
		<g>
			<g>
				<g>
					<g>
						<path fill="#231F20" d="M184.6,143.3l-1-1c2.8-2.9,7.1-3.4,10.2-3.3l-0.1,1.4C190.9,140.4,187.1,140.8,184.6,143.3z"/>
					</g>
				</g>
			</g>
		</g>
		<g>
			<g>
				<g>
					<g>
						<path fill="#231F20" d="M187.6,143.9c0.1,0,0.1-0.2,0.1-0.3c0,0,0,0,0,0l-1.4,0.2c-0.2-0.8,0.4-1.5,1.4-1.9
							c3.4-1.2,7.1-1.8,10.8-1.6l-0.1,1.4c-0.9-0.1-1.7-0.1-2.6,0c2.4,0,4.8,0.2,7.3,0.5l-0.2,1.4c-4.6-0.6-9.3-0.7-13.9-0.1l-0.4,0
							C188.3,143.7,187.7,143.7,187.6,143.9z"/>
					</g>
				</g>
			</g>
		</g>
		<g>
			<g>
				<g>
					<g>
						<path fill="#231F20" d="M190.5,146.7c-0.3-0.6,0-1.4,0.6-1.8c0.4-0.3,0.9-0.4,1.3-0.5c3.3-0.6,6.7-0.9,10.1-0.9
							c1.2,0,2.4,0.2,3.3,1.1l-1.1,0.9c-0.5-0.5-1.3-0.6-2.2-0.6c-3.3,0-6.6,0.3-9.8,0.9c-0.3,0.1-0.6,0.1-0.7,0.2
							c-0.1,0-0.1,0.1-0.1,0.1L190.5,146.7z"/>
					</g>
				</g>
			</g>
		</g>
		<g>
			<g>
				<g>
					<g>
						<path fill="#231F20" d="M194.1,148l-0.3-1.4c3.7-0.8,7.5-1.1,11.2-0.7l-0.2,1.4C201.2,147,197.6,147.2,194.1,148z"/>
					</g>
				</g>
			</g>
		</g>
		<g>
			<g>
				<g>
					<g>
						<path fill="#231F20" d="M209.5,151c-3.7-1.3-7.8-1.8-11.7-1.5l-0.1-1.4c4.1-0.4,8.4,0.1,12.3,1.5L209.5,151z"/>
					</g>
				</g>
			</g>
		</g>
		<g>
			<g>
				<g>
					<g>
						<path fill="#231F20" d="M212.6,154.1l-1.4-0.2l0,0c0,0-0.2-0.1-0.5-0.3c-3-1.1-6.2-1.7-9.4-1.7l0-1.4c3.4,0,6.7,0.6,9.9,1.8
							C212.6,152.8,212.6,153.7,212.6,154.1z"/>
					</g>
				</g>
			</g>
		</g>
		<g>
			<g>
				<g>
					<g>
						<path fill="#231F20" d="M210.3,156.8c-1.4-0.9-3-1.5-4.7-1.6l0.2-1.4c1.9,0.2,3.7,0.8,5.3,1.9L210.3,156.8z"/>
					</g>
				</g>
			</g>
		</g>
		<g>
			<g>
				<g>
					<g>
						<path fill="#231F20" d="M210.2,158.4c-1.3-0.6-2.6-1-4-1.2l0.3-1.4c1.5,0.3,3,0.7,4.4,1.3L210.2,158.4z"/>
					</g>
				</g>
			</g>
		</g>
		<g>
			<g>
				<g>
					<g>
						<path fill="#231F20" d="M209.9,160.9c-0.7-0.5-1.6-0.9-2.4-1.1l0.4-1.4c1,0.3,2,0.7,2.8,1.3L209.9,160.9z"/>
					</g>
				</g>
			</g>
		</g>
		<g>
			<g>
				<g>
					<g>
						<path fill="#231F20" d="M117.9,135c-0.4-3.1-1.7-6-3.7-8.4l1.1-0.9c2.2,2.5,3.6,5.8,4,9.1L117.9,135z"/>
					</g>
				</g>
			</g>
		</g>
		<g>
			<g>
				<g>
					<g>
						<path fill="#231F20" d="M119.5,132.7c0-2-0.7-4.1-2-5.7c-0.1-0.1-0.2-0.2-0.3-0.2c0.1,0,0.3-0.1,0.4-0.2l-1.3-0.6
							c0.2-0.4,0.5-0.6,0.8-0.6c0.6-0.1,1.2,0.3,1.5,0.8c1.4,1.9,2.2,4.2,2.3,6.5L119.5,132.7z"/>
					</g>
				</g>
			</g>
		</g>
		<g>
			<g>
				<g>
					<g>
						<path fill="#231F20" d="M124.4,134.1L123,134c0.3-3-0.9-6.2-3.1-8.2l1-1C123.4,127.1,124.7,130.7,124.4,134.1z"/>
					</g>
				</g>
			</g>
		</g>
		<g>
			<g>
				<g>
					<g>
						<path fill="#231F20" d="M126.7,135l-1.4,0c0.1-3.2-0.9-6.5-2.7-9.2l1.2-0.8C125.7,127.9,126.7,131.4,126.7,135z"/>
					</g>
				</g>
			</g>
		</g>
		<g>
			<g>
				<g>
					<g>
						<path fill="#231F20" d="M128.4,133.9l-1.4-0.1c0.2-1.7-0.1-3.5-0.7-5.1l1.3-0.5C128.4,130,128.6,132,128.4,133.9z"/>
					</g>
				</g>
			</g>
		</g>
		<g>
			<g>
				<g>
					<g>
						<path fill="#231F20" d="M130.4,135l-1.4-0.1c0.2-2.3,0.1-4.7-0.4-7c0-0.1-0.1-0.2-0.1-0.2c0,0,0.1,0.1,0.3,0
							c0.2,0,0.3-0.1,0.3-0.2l-1.2-0.8c0.2-0.4,0.6-0.5,1-0.4c0.6,0.1,1.1,0.7,1.2,1.3C130.5,130,130.6,132.5,130.4,135z"/>
					</g>
				</g>
			</g>
		</g>
		<g>
			<g>
				<g>
					<g>
						<path fill="#231F20" d="M134.8,135.9l-1.4,0l0.1-4.8c0,0,0-0.2,0-0.2c0.1,0.1,0.2,0.2,0.4,0.2c0.2,0,0.3-0.2,0.4-0.4l-1.4-0.3
							c0.1-0.3,0.4-0.6,0.7-0.7c0.4-0.1,0.8,0,1.1,0.3c0.3,0.4,0.3,0.8,0.3,1.1L134.8,135.9z"/>
					</g>
				</g>
			</g>
		</g>
		<g>
			<g>
				<g>
					<g>
						<path fill="#231F20" d="M136.8,136.1l-1.3-0.6c0.8-1.5,0.8-3.4,0.2-5l1.3-0.5C137.8,132,137.7,134.3,136.8,136.1z"/>
					</g>
				</g>
			</g>
		</g>
		<g>
			<g>
				<g>
					<g>
						<path fill="#231F20" d="M132.5,136.6l-1.4-0.2c0.3-1.9,0.3-3.8,0.1-5.8c0,0,0,0,0,0c0,0,0.1,0.1,0.3,0.1
							c0.1,0,0.3-0.1,0.4-0.2l-1.1-1c0.2-0.3,0.6-0.4,0.9-0.3c0.5,0.2,0.8,0.7,0.8,1.2C132.8,132.6,132.7,134.6,132.5,136.6z"/>
					</g>
				</g>
			</g>
		</g>
		<g>
			<g>
				<g>
					<g>
						<path fill="#231F20" d="M139,136.7l-1.4,0l0.1-3.4c0-0.5,0.2-0.8,0.5-1c0.4-0.2,0.9-0.1,1.2,0.3l-0.2,1.1l-0.1-0.1L139,136.7z
							 M138.3,132.6l0.4,0.6l-0.6,0.3c0.2,0.3,0.5,0.3,0.7,0.1c0,0,0.1,0,0.1-0.1L138.3,132.6z"/>
					</g>
				</g>
			</g>
		</g>
		<g>
			<g>
				<g>
					<g>
						<path fill="#231F20" d="M141.1,139.3l-1.2-0.8c0.8-1.2,1-2.7,0.6-4l1.3-0.5C142.5,135.7,142.2,137.8,141.1,139.3z"/>
					</g>
				</g>
			</g>
		</g>
		<g id="XMLID_102_">
			<g>
				<g>
					<g>
						<g>
							<path fill="#231F20" d="M119.5,151.5c0,0,2.8,2.8,0,7.5c-0.7-0.1-1.5-0.1-2.3-0.2c-3.5-0.2-6.8-0.6-9.6-0.9
								c-2.6-1.9-0.1-6.8-0.1-6.8c2.4-0.8,5.2-1.2,8.5-0.5C117.3,150.8,118.4,151.1,119.5,151.5z"/>
						</g>
					</g>
				</g>
			</g>
			<g>
				<g>
					<g>
						<g>
							<path fill="#231F20" d="M129.5,161.5c-0.6,0-1.3-0.2-2.4-0.5c-1.7-0.4-4.2-1-7.7-1.4c-0.7-0.1-1.5-0.1-2.3-0.2
								c-3.3-0.2-6.5-0.5-9.7-0.9c-4.7-0.6-8.2-1.2-9-1.3c-3.1,1.2-7.3-0.8-7.5-0.9l0.6-1.3c0,0,4,1.9,6.5,0.8
								c0.6-0.3,1.4-0.8,2.3-1.5c1.7-1.2,4-2.9,6.9-3.9c2.8-1,5.8-1.2,8.9-0.5c1.3,0.3,2.5,0.6,3.5,0.9c7,2.3,10.3,6,11,8.8
								c0.1,0.5,0.2,1.2-0.2,1.6C130.2,161.4,129.9,161.5,129.5,161.5z M100.4,156.1c1.6,0.3,4.2,0.7,7.3,1c3.1,0.4,6.3,0.7,9.6,0.9
								c0.8,0,1.6,0.1,2.3,0.2c3.6,0.4,6.2,1,7.9,1.4c0.8,0.2,1.5,0.4,1.9,0.4c0-0.1,0-0.1,0-0.2c-0.6-2.3-3.5-5.7-10-7.7
								c-1-0.3-2.1-0.6-3.4-0.9c-2.9-0.6-5.5-0.5-8.2,0.5c-2.7,0.9-4.8,2.5-6.5,3.7C101,155.6,100.7,155.9,100.4,156.1z"/>
						</g>
					</g>
				</g>
				<g>
					<g>
						<g>
							<path fill="#231F20" d="M107.2,158.4c-3.1-2.2-0.4-7.5-0.3-7.7l1.3,0.7c0,0-2.2,4.4-0.2,5.9L107.2,158.4z"/>
						</g>
					</g>
				</g>
				<g>
					<g>
						<g>
							<path fill="#231F20" d="M120.1,159.3l-0.6-0.4l-0.7,0l0.1-0.4c2.5-4.2,0.1-6.6,0.1-6.6l1-1
								C120.1,151.1,123.1,154.2,120.1,159.3z"/>
						</g>
					</g>
				</g>
			</g>
		</g>
		<g id="XMLID_96_">
			<g>
				<g>
					<g>
						<g>
							<path fill="#231F20" d="M193,163.7c0.2,0.2,3.1,2.9-0.8,7c-1.3-0.3-2.7-0.6-3.9-0.7c-2.4-0.3-4.3-0.6-6.1-0.8
								c-2.5-2.6-0.6-6-0.4-6.3c0,0,0,0,0,0c1.8-0.6,3.9-0.9,6.2-0.6C190.1,162.5,191.7,163,193,163.7
								C193,163.7,193,163.7,193,163.7z"/>
						</g>
					</g>
				</g>
			</g>
			<g>
				<g>
					<g>
						<g>
							<path fill="#231F20" d="M203.3,174.7l-0.2-0.1l0,0.1c-2.4-0.8-6.8-2.3-11-3.3c-1.4-0.3-2.7-0.6-3.8-0.7
								c-1.1-0.1-2.2-0.3-3.1-0.4c-1.1-0.1-2-0.3-3-0.4c-2.9-0.4-5.3-0.6-8.7-0.6l-0.7-0.7c0-0.7,3.9-4.7,8.8-6.4l0.4,1.4
								c-3.3,1.1-5.7,3.1-7,4.3c2.6,0.1,4.8,0.3,7.2,0.6c0.9,0.1,1.9,0.2,3,0.4c1,0.1,2,0.3,3.1,0.4c1.2,0.1,2.5,0.4,3.9,0.7
								c4.3,1,8.7,2.5,11,3.3l0.1,0c0,0-0.1,0-0.1,0V174.7z"/>
						</g>
					</g>
				</g>
				<g>
					<g>
						<g>
							<path fill="#231F20" d="M203,174.7c-0.3-0.1-1.7-0.9-3.9-3.1c-0.6-0.6-1.1-1.5-1.7-2.3c-1-1.7-2.2-3.6-4.8-4.9l0.6-1.3
								c2.9,1.5,4.2,3.6,5.3,5.4c0.5,0.8,0.9,1.5,1.5,2.1c2.1,2.1,3.5,2.9,3.5,2.9L203,174.7z"/>
						</g>
					</g>
				</g>
				<g>
					<g>
						<g>
							<path fill="#231F20" d="M192.7,164.3c-1.4-0.7-2.9-1.1-4.7-1.3c-2-0.2-3.9-0.1-5.9,0.6l-0.4-1.4c2.1-0.7,4.3-0.9,6.5-0.6
								c2,0.2,3.7,0.7,5.2,1.5L192.7,164.3z"/>
						</g>
					</g>
				</g>
				<g>
					<g>
						<g>
							<path fill="#231F20" d="M205.8,175.3c-1.5,0-2.7-0.6-2.8-0.6l0.6-1.3c0,0,1.5,0.7,3.1,0.4l0.3,1.4
								C206.6,175.2,206.2,175.3,205.8,175.3z"/>
						</g>
					</g>
				</g>
				<g>
					<g>
						<g>
							<path fill="#231F20" d="M181.8,169.7c-2.9-2.9-0.8-6.8-0.5-7.2l0.1-0.1l1.1,0.9l0,0c-0.1,0.2-1.7,3.2,0.4,5.3L181.8,169.7z"
								/>
						</g>
					</g>
				</g>
				<g>
					<g>
						<g>
							<path fill="#231F20" d="M192.8,171.2l-1-1c1.3-1.4,1.9-2.7,1.8-3.9c-0.1-1.3-1-2.1-1-2.1l1-1l0,0c0.1,0.1,1.3,1.2,1.4,3.1
								C195.1,167.9,194.3,169.5,192.8,171.2z"/>
						</g>
					</g>
				</g>
			</g>
		</g>
		<g>
			<g>
				<g>
					<g>
						<path fill="#231F20" d="M39.8,191.9c-1.8,0-3.1-1.8-5.7-6.2c-3.2-5.3-2.1-16.1-2.1-16.5l1.4,0.1c0,0.1-1,10.8,1.9,15.6
							c3.2,5.3,3.8,5.7,5,5.5l0.3,1.4C40.4,191.9,40.1,191.9,39.8,191.9z"/>
					</g>
				</g>
			</g>
		</g>
		<g>
			<g>
				<g>
					<g>
						<path fill="#231F20" d="M44.9,185.5c-1.4,0-2.9-0.3-4.6-0.8c-1.2-0.4-2.1-1.1-2.6-2.3c-1.5-3.3,1-8.6,1.1-8.9l1.3,0.6
							c0,0.1-2.3,5-1.1,7.7c0.3,0.7,0.9,1.2,1.7,1.5c3.6,1.1,6.3,0.8,7.1-0.1c0.1-0.2,0.5-0.6,0-1.8l1.3-0.6
							c0.7,1.7,0.3,2.7-0.3,3.3C48.1,185,46.7,185.5,44.9,185.5z"/>
					</g>
				</g>
			</g>
		</g>
		<g>
			<g>
				<g>
					<g>
						<path fill="#231F20" d="M142.3,259.2c-1.5,0-3-0.6-4.2-1.6l0.5-0.5c1.2,1,2.8,1.5,4.3,1.4l0.1,0.7
							C142.7,259.2,142.5,259.2,142.3,259.2z"/>
					</g>
				</g>
			</g>
		</g>
		<g>
			<g>
				<g>
					<g>
						<path fill="#FFFFFF" d="M156,56.4l-0.7,0c0-2.5-0.1-4.9-0.2-7.4c-0.2-2.3-0.5-5-2.1-7c-0.3-0.3-0.7-0.6-1-0.6
							c-0.1,0-0.2,0-0.3,0.1l-0.5-0.5c0.2-0.2,0.5-0.3,0.8-0.3c0.6,0,1.2,0.5,1.5,0.9c1.7,2.1,2,4.9,2.2,7.4
							C156,51.5,156.1,54,156,56.4z"/>
					</g>
				</g>
			</g>
		</g>
		<g>
			<g>
				<g>
					<g>
						<path fill="#FFFFFF" d="M150.1,55.8c-1-9-6-17.5-13.4-22.7l0.4-0.6c7.6,5.3,12.7,14,13.7,23.2L150.1,55.8z"/>
					</g>
				</g>
			</g>
		</g>
		<g>
			<g>
				<g>
					<g>
						<path fill="#FFFFFF" d="M146.8,56.1c-2.1-4.5-5.9-8.3-10.5-10.3l0.3-0.7c4.7,2.1,8.7,6,10.8,10.7L146.8,56.1z"/>
					</g>
				</g>
			</g>
		</g>
		<g>
			<g>
				<g>
					<g>
						<path fill="#FFFFFF" d="M165.4,56.3l-0.7-0.1c0.6-3.7,4.2-6,7.3-7.6c5.3-2.8,12.4-6,20.1-6.3l0.3,0.6l-0.9,1.2l-0.6-0.4
							l0.4-0.5c-7.3,0.5-13.9,3.5-19,6.2C169.4,50.7,166,52.9,165.4,56.3z"/>
					</g>
				</g>
			</g>
		</g>
		<g>
			<g>
				<g>
					<g>
						<path fill="#FFFFFF" d="M168.9,60.2c0-1.4,1.1-2.7,3.4-3.5c4.4-1.8,9-2.9,13.7-3.3l0.1,0.7c-4.6,0.4-9.2,1.5-13.5,3.2
							c-1.3,0.5-2.9,1.5-2.9,2.9L168.9,60.2z"/>
					</g>
				</g>
			</g>
		</g>
		<g>
			<g>
				<g>
					<g>
						<path fill="#FFFFFF" d="M235,139.9l-0.6-0.4c0.9-1.1,1-2.7,1.1-4.2c1.1-16.7-2.9-33.9-11.2-48.5l0.6-0.4
							c8.4,14.7,12.4,32,11.3,48.9C236.2,137,236,138.7,235,139.9z"/>
					</g>
				</g>
			</g>
		</g>
		<g>
			<g>
				<g>
					<g>
						<path fill="#FFFFFF" d="M226.4,123.5l-0.7-0.1c0.4-3,0.8-6.1,1-9.1c0.4-6.5,0.3-14.7-4.3-20.7l0.6-0.4
							c4.7,6.2,4.8,14.6,4.4,21.2C227.2,117.4,226.8,120.5,226.4,123.5z"/>
					</g>
				</g>
			</g>
		</g>
		<g>
			<g>
				<g>
					<g>
						<path fill="#FFFFFF" d="M42.4,116.9l-0.6-0.4c7.5-12.5,17.9-23.5,30-31.7l0.4,0.6C60.1,93.6,49.8,104.5,42.4,116.9z"/>
					</g>
				</g>
			</g>
		</g>
		<g>
			<g>
				<g>
					<g>
						<path fill="#FFFFFF" d="M46.5,121l-0.6-0.4c5.7-9,12.3-17.4,19.7-25.1L66,96C58.7,103.7,52.2,112.1,46.5,121z"/>
					</g>
				</g>
			</g>
		</g>
		<g>
			<g>
				<g>
					<g>
						
							<rect x="53.8" y="109.5" transform="matrix(0.8732 0.4873 -0.4873 0.8732 67.5034 -10.6067)" fill="#FFFFFF" width="0.7" height="29.8"/>
					</g>
				</g>
			</g>
		</g>
	</g>
</g>
<g id="圖層_5">
</g>
</svg>
