<?xml version="1.0" encoding="utf-8"?>
<!-- Generator: Adobe Illustrator 18.1.0, SVG Export Plug-In . SVG Version: 6.00 Build 0)  -->
<svg version="1.1" xmlns="http://www.w3.org/2000/svg" xmlns:xlink="http://www.w3.org/1999/xlink" x="0px" y="0px"
	 viewBox="0 0 267 294" enable-background="new 0 0 267 294" xml:space="preserve">
<g id="圖層_1">
</g>
<g id="圖層_2">
</g>
<g id="圖層_3">
	<g>
		<g id="XMLID_95_">
			<g>
				<g>
					<g>
						<g>
							<path fill="#FFFFFF" d="M155.5,279.8c-2.8,3.8-7.7,8.6-15.4,10.6c-13.5,3.6-36.9-2.7-41.7-4.7c-4.4-1.8-8.9-6.6-12.2-11.6
								c0,0-13.4-8.1-23.4-31.1c-2.5-5.7-4.5-12.6-6.3-20.2c-4-17.1-6.2-37.2-7-52.7c-0.3-5.4-0.4-10.2-0.3-14.2
								c0.4-20.3,5.3-47,5.9-49.6c0,0,2.3-13.5,7.2-24.4c0,0,7.7-1.8,12.6-5.4c5-3.6,24.4-20.8,32.5-23c8.1-2.2,46-23.9,88.4,11.3
								c20.3,19.8,14.4,44.2,15.4,51c0.9,6.8,3.6,18.1,4.1,24.8c0.4,6.8,0.9,22.1,3.2,24.4c0,0,3.4-5.6,8.5-8.7
								c5.1-3,7.4-3.4,10.2-2c2.7,1.4,5.1,9.5,4.7,19.6c-0.3,10.2-9.4,37.6-11.7,41.6c-2.2,4-7.2,12.4-18,7.5
								c-3.6,8.4-9.9,22.1-16.3,31.7c-9.9,14.9-40.2,25.3-40.2,25.3L155.5,279.8z"/>
						</g>
					</g>
				</g>
				<g>
					<g>
						<g>
							<path fill="#231F20" d="M232.1,81.1c7.8,13.9,11.5,36.9,5.1,73.1c-2.7-1.4-5.1-1-10.2,2c-5.1,3-8.5,8.7-8.5,8.7
								c-2.3-2.3-2.7-17.6-3.2-24.4c-0.5-6.8-3.2-18.1-4.1-24.8c-0.9-6.8,5-31.1-15.4-51c-42.4-35.2-80.3-13.5-88.4-11.3
								c-8.1,2.3-27.5,19.4-32.5,23c-5,3.6-12.6,5.4-12.6,5.4c-5,10.8-7.2,24.4-7.2,24.4c-0.5,2.7-5.4,29.3-5.9,49.6
								c-0.1,4,0,8.8,0.3,14.2l-0.3,0c0,0-2.5-6-5.4-12.4c-0.6-1.4-1.3-2.8-2-4.2c-3.7-7.7-8.5-15.5-8.8-24.3
								c-0.3-8.8,10.8-47.7,17.9-57.5S76.4,52,81.2,47.3s19-16.9,32.2-21.3s50.8-1,67.4,5.1s25.1,12.9,24.7,29.1
								C205.4,60.2,224.3,67.3,232.1,81.1z"/>
						</g>
					</g>
				</g>
				<g>
					<g>
						<g>
							<path fill="#FFFFFF" d="M56.6,222.8c0,0-6.9-1.9-8.6-4.2c-1.7-2.2-2-16.4-2.7-22.1c-0.7-5.8-2.7-14.2-2.9-20
								c-0.2-5.8-1.5-9.1-1.5-12.8c0-3.6,3-6.1,3-6.1h0c2.9,6.4,5.4,12.4,5.4,12.4l0.3,0C50.4,185.6,52.6,205.8,56.6,222.8z"/>
						</g>
					</g>
				</g>
			</g>
			<g>
				<g>
					<g>
						<g>
							<path fill="#231F20" d="M218.5,226c-2,0-4.3-0.5-6.8-1.6l-0.2-0.1l1.3-2.6l0.2,0.1c8.7,4,13.1-1.6,16-6.9
								c2.2-4,11.1-31.1,11.5-41c0.4-10.7-2.3-17.5-3.9-18.3c-2-1-3.8-1-8.7,2c-4.7,2.8-7.9,8.1-8,8.2l-2.5-1.5c0.1-0.2,3.6-6,9-9.2
								c5.3-3.2,8.3-3.7,11.6-2.1c3.6,1.8,5.9,10.6,5.5,21c-0.3,10.5-9.5,38.1-11.8,42.3C230.1,218.9,226.2,226,218.5,226z"/>
						</g>
					</g>
				</g>
				<g>
					<g>
						<g>
							<path fill="#231F20" d="M156.3,281.4l-0.9-2.8c0.3-0.1,29.9-10.4,39.4-24.7c6.2-9.2,12.2-22.2,16.2-31.5
								c1.9-4.5,3.1-7.5,3.1-7.5l2.7,1.1c0,0-1.2,3.1-3.1,7.6c-4,9.4-10.1,22.5-16.4,32C187.1,270.7,157.6,281,156.3,281.4z"/>
						</g>
					</g>
				</g>
				<g>
					<g>
						<g>
							<path fill="#231F20" d="M130.1,293c-13.3,0-28.5-4.3-32.3-5.9c-4.3-1.8-9.1-6.4-12.8-12.2c-1.3-2-2.4-4.1-3.2-6l2.7-1.1
								c0.7,1.8,1.7,3.7,2.9,5.6c3.3,5.3,7.7,9.5,11.5,11.1c4,1.7,27.3,8.2,40.7,4.6c7.3-1.9,12-6.6,14.6-10.1
								c2-2.7,2.9-4.8,2.9-4.8l2.7,1.1c0,0.1-1,2.5-3.3,5.5c-2.9,3.9-8.1,9-16.2,11.2C137.3,292.7,133.8,293,130.1,293z"/>
						</g>
					</g>
				</g>
				<g>
					<g>
						<g>
							<path fill="#231F20" d="M85.5,275.4c-0.6-0.3-13.9-8.6-23.9-31.8c-2.4-5.5-4.5-12.3-6.4-20.5c-3.5-15-6.1-34.8-7-52.9
								c-0.3-5.2-0.4-10.2-0.3-14.3c0.5-21.3,5.8-49.6,5.9-49.9c0.1-0.5,2.3-13.8,7.3-24.7l0.3-0.6l0.7-0.2c0.1,0,7.4-1.8,12.1-5.2
								c1.2-0.8,3.2-2.5,5.7-4.5c8.3-6.7,20.8-16.9,27.3-18.7c0.9-0.2,2.2-0.8,3.9-1.4c13.1-5.1,47.8-18.6,85.9,13
								c17,16.6,16.3,36.1,15.9,46.5c-0.1,2.4-0.2,4.2,0,5.4c0.4,2.7,1,6.2,1.7,9.9c1,5.4,2.1,11,2.4,15.1c0.1,1.1,0.1,2.3,0.2,3.7
								c0.3,5.4,1,18.2,2.5,19.7c2.6,2.6,2.3,11.1,2.2,12.8l-2.9-0.1c0.2-4.2-0.3-9.5-1.4-10.6c-1.9-1.9-2.7-8.8-3.4-21.6
								c-0.1-1.4-0.1-2.7-0.2-3.7c-0.3-3.9-1.3-9.4-2.3-14.7c-0.7-3.7-1.4-7.2-1.7-10c-0.2-1.4-0.1-3.4,0-5.9
								c0.4-10,1.1-28.6-14.9-44.3c-36.7-30.4-70.2-17.4-82.8-12.4c-1.8,0.7-3.2,1.2-4.2,1.5c-5.9,1.6-18.6,12-26.2,18.2
								c-2.6,2.1-4.6,3.7-5.8,4.6c-4.3,3.1-10.4,4.9-12.4,5.5c-4.6,10.4-6.8,23.2-6.8,23.4c-0.1,0.3-5.4,28.4-5.8,49.4
								c-0.1,4,0,8.9,0.3,14.1c0.9,18,3.5,37.6,6.9,52.4c1.8,7.9,3.9,14.7,6.2,20c9.6,22.3,22.6,30.3,22.8,30.4L85.5,275.4z"/>
						</g>
					</g>
				</g>
				<g>
					<g>
						<g>
							<path fill="#231F20" d="M48,170.7c0-0.1-2.5-6.1-5.4-12.4c-0.6-1.3-1.2-2.6-1.9-3.9l-0.1-0.3c-0.6-1.3-1.2-2.5-1.9-3.8
								c-3.3-6.6-6.8-13.4-7-21.1c-0.3-8.9,10.7-48.1,18.2-58.5c4.7-6.5,14-12.9,21.4-18c3.9-2.7,7.3-5,8.8-6.6
								c4.5-4.5,19.1-17.1,32.7-21.7c13.8-4.6,51.9-0.9,68.3,5.1c16.3,6,25.8,12.8,25.7,29.5c4.1,1.7,19.5,8.7,26.5,21.3
								c9.3,16.5,11,41.4,5.2,74.1l-2.9-0.5c5.6-31.5,3.9-56.4-4.9-72.1c-7.4-13.2-25.8-20.3-26-20.3l-1-0.4l0-1
								c0.4-15.8-8-21.9-23.8-27.7c-15.7-5.8-53.3-9.4-66.4-5.1c-13.1,4.4-27.2,16.6-31.6,21c-1.8,1.8-5.2,4.2-9.3,6.9
								c-7.3,5-16.3,11.2-20.7,17.3c-7.2,9.9-18,48.4-17.7,56.6c0.3,7,3.6,13.5,6.7,19.9c0.7,1.3,1.3,2.6,1.9,3.9l0.1,0.3
								c0.6,1.3,1.3,2.7,1.9,4c2.9,6.4,5.4,12.4,5.5,12.5L48,170.7z"/>
						</g>
					</g>
				</g>
				<g>
					<g>
						<g>
							<path fill="#231F20" d="M56.2,224.2c-1.2-0.3-7.5-2.2-9.4-4.7c-1.3-1.8-1.8-7.5-2.4-16.1c-0.2-2.6-0.4-5.1-0.6-6.7
								c-0.3-2.2-0.7-4.8-1.2-7.6c-0.8-4.4-1.6-8.9-1.7-12.5c-0.1-2.9-0.5-5.3-0.9-7.3c-0.3-1.9-0.6-3.6-0.6-5.5
								c0-4.2,3.4-7.1,3.5-7.2l1.9,2.2l-0.9-1.1l0.9,1.1c0,0-2.5,2.2-2.5,5c0,1.6,0.3,3.1,0.6,5c0.4,2.2,0.8,4.6,0.9,7.7
								c0.1,3.4,0.9,7.8,1.7,12.1c0.5,2.8,1,5.5,1.2,7.7c0.2,1.7,0.4,4.2,0.6,6.9c0.3,4.6,0.9,13.3,1.9,14.5c1,1.3,5.1,2.9,7.8,3.6
								L56.2,224.2z"/>
						</g>
					</g>
				</g>
			</g>
		</g>
		<g>
			<g>
				<g>
					<g>
						<path fill="#231F20" d="M217.7,208.9l-0.9-1.1c1.6-1.3,3.5-3.4,3-4.2c-1.2-2-0.1-5.2,1.5-9.2c1.3-3.2,0.6-8-1.4-10
							c-2.2-2.2-4.9-4.7-5-4.7l1-1.1c0,0,2.8,2.5,5,4.8c2.4,2.4,3.2,7.9,1.7,11.6c-1.1,2.7-2.5,6.4-1.6,7.9
							C222.4,205,218.5,208.2,217.7,208.9z"/>
					</g>
				</g>
			</g>
		</g>
		<g>
			<g>
				<g>
					<g>
						<path fill="#231F20" d="M220.7,183.9l-0.7-0.3c0-0.1,2.7-6.1,4.5-10.4c1.8-4.3,2.1-4.8,3.9-7.5l0.3-0.4c2-3,4.7-7.1,6.9-6.1
							c2.2,1.1,4.7,7.6,3.6,15.3l-0.7-0.1c1.2-7.9-1.5-13.8-3.2-14.6c-1.6-0.8-4.4,3.3-6,5.8l-0.3,0.4c-1.8,2.7-2,3.1-3.8,7.4
							C223.4,177.7,220.8,183.8,220.7,183.9z"/>
					</g>
				</g>
			</g>
		</g>
		<g>
			<g>
				<g>
					<g>
						<path fill="#231F20" d="M226,198.9l-0.4-0.6c1.3-0.8,2.1-1.8,2.3-2.9c0.3-1.9-1.1-3.7-1.1-3.7l0.6-0.5c0.1,0.1,1.6,2,1.3,4.3
							C228.4,196.8,227.5,198,226,198.9z"/>
					</g>
				</g>
			</g>
		</g>
		<g>
			<g>
				<g>
					<g>
						<path fill="#231F20" d="M230.1,208.5l-0.7-0.3c2.1-4.4,4.5-19,4.5-19.2l0.7,0.1C234.6,189.7,232.3,203.9,230.1,208.5z"/>
					</g>
				</g>
			</g>
		</g>
		<g>
			<g>
				<g>
					<g>
						<path fill="#231F20" d="M68.1,97.4l-0.4-0.6c0.1-0.1,12.7-7.9,22.4-10.9c10.3-3.2,16.3-1.2,19.9,0l-0.2,0.7
							c-3.5-1.2-9.4-3.1-19.4,0C80.7,89.6,68.3,97.3,68.1,97.4z"/>
					</g>
				</g>
			</g>
		</g>
		<g>
			<g>
				<g>
					<g>
						<path fill="#231F20" d="M77.8,97.4l-0.2-0.7c0.5-0.1,1.7-0.6,3.3-1.3c3.8-1.6,9.7-4.1,14.6-5l0.1,0.7
							c-4.9,0.8-10.6,3.3-14.4,4.9C79.6,96.8,78.4,97.3,77.8,97.4z"/>
					</g>
				</g>
			</g>
		</g>
		<g>
			<g>
				<g>
					<g>
						<path fill="#231F20" d="M124.3,100.2c-2.2,0-4.4-0.2-6.4-0.8c-8-2.3-22.1-2-22.2-2l0-0.7c0.1,0,14.4-0.3,22.5,2
							c4.9,1.4,10.6,0.6,16.2-0.2c3.7-0.5,7.2-1,10.5-0.9c8,0.3,12.8,0.4,12.8,0.4l0,0.7c0,0-4.8-0.1-12.9-0.4
							c-3.2-0.1-6.6,0.4-10.3,0.9C131.1,99.8,127.6,100.2,124.3,100.2z"/>
					</g>
				</g>
			</g>
		</g>
		<g>
			<g>
				<g>
					<g>
						<path fill="#231F20" d="M165.9,97.4c-8.9-6.3-24.3-6.2-24.5-6.2l0-0.7c0.2,0,15.8-0.1,24.9,6.3L165.9,97.4z"/>
					</g>
				</g>
			</g>
		</g>
		<g>
			<g>
				<g>
					<g>
						<path fill="#231F20" d="M114.6,109.2c0-0.2-0.1-3.8-4.8-5.1c-4.9-1.3-16.6,1-18.1,1.4l-0.2-0.7c1.6-0.4,13.3-2.7,18.5-1.4
							c5.3,1.4,5.3,5.7,5.3,5.8L114.6,109.2z"/>
					</g>
				</g>
			</g>
		</g>
		<g>
			<g>
				<g>
					<g>
						<path fill="#231F20" d="M131,106.7l-0.2-0.7c0.1,0,11.3-3.7,19.4-2.9l-0.1,0.7C142.2,103,131.1,106.6,131,106.7z"/>
					</g>
				</g>
			</g>
		</g>
		<g id="XMLID_89_">
			<g>
				<g>
					<g>
						<g>
							<path fill="#231F20" d="M185.3,161.2c-6.5-3.5-11.5-5.5-11.5-5.5c1.8-1,2.5-1.9,2.5-1.9C179,155.7,182,158.2,185.3,161.2z"/>
						</g>
					</g>
				</g>
				<g>
					<g>
						<g>
							<path fill="#231F20" d="M163,147c0.5,0.2,5.9,3.1,1.2,11.3c-2.8,0.2-6.1,0.1-10-0.7c-5.7-5.4,0-10.9,0-10.9
								C156.5,146.3,159.3,146,163,147C163,147,163,147,163,147z"/>
						</g>
					</g>
				</g>
			</g>
			<g>
				<g>
					<g>
						<g>
							<path fill="#231F20" d="M161.9,159.1c-2.4,0-5.1-0.2-7.8-0.7c-2.6-0.5-5.3-1.2-8.1-2.1l-0.5-0.9c0.1-0.3,2.8-8.2,8.5-9.4
								c2.1-0.4,5-0.8,9.1,0.2l-0.4,1.4c-3.7-0.9-6.5-0.6-8.4-0.2c-4,0.8-6.4,5.8-7.2,7.7c2.4,0.8,4.9,1.4,7.2,1.8
								c3.5,0.6,6.8,0.9,9.8,0.6c4.5-0.3,7.5-1.6,9.2-2.5c1.6-0.9,2.3-1.7,2.4-1.7l1.1,1c0,0-0.9,1-2.7,2.1c-1.8,1-5,2.4-9.8,2.7
								C163.5,159,162.7,159.1,161.9,159.1z"/>
						</g>
					</g>
				</g>
				<g>
					<g>
						<g>
							<path fill="#231F20" d="M184.9,161.8c-6.4-3.5-11.4-5.5-11.5-5.5l0.5-1.4c0,0,2.6,1,6.3,2.9c-1.6-1.3-3.1-2.5-4.5-3.5
								c-4.7-3.4-9.1-5.7-13-6.7l0.4-1.4c4.1,1,8.6,3.4,13.5,6.9c2.8,2,5.9,4.6,9.1,7.5L184.9,161.8z"/>
						</g>
					</g>
				</g>
				<g>
					<g>
						<g>
							<path fill="#231F20" d="M153.7,158.1c-1.8-1.7-2.8-3.7-2.8-5.8c0-3.5,2.7-6.1,2.8-6.2l1,1.1c0,0-2.3,2.3-2.3,5.1
								c0,1.7,0.8,3.2,2.3,4.7L153.7,158.1z"/>
						</g>
					</g>
				</g>
				<g>
					<g>
						<g>
							<path fill="#231F20" d="M164.9,158.6l-1.3-0.7c1.6-2.9,2.2-5.3,1.6-7.3c-0.6-2-2.3-2.9-2.5-3l0.3-0.6v-0.8l0.4,0.1
								c0.4,0.2,2.4,1.3,3.2,3.9C167.3,152.6,166.7,155.4,164.9,158.6z"/>
						</g>
					</g>
				</g>
			</g>
		</g>
		<g id="XMLID_88_">
			<g>
				<g>
					<g>
						<g>
							<path fill="#231F20" d="M82.9,146.3l-0.1-0.2c1.3-0.5,2.7-0.9,4-1c1.9-0.2,3.5-0.2,4.9-0.1c0.7,0.5,5.2,4.1,1.1,10.3
								c-3.5,0.8-6.7,0.9-9.5,0.7C80.5,150.2,82.7,146.5,82.9,146.3z"/>
						</g>
					</g>
				</g>
				<g>
					<g>
						<g>
							<path fill="#231F20" d="M74.3,154.2L74.3,154.2c-3,1.1-8.5,6.3-8.9,6.6c0.2-0.3,2.8-3.8,6.6-7.5
								C72.1,153.3,72.9,153.7,74.3,154.2z"/>
						</g>
					</g>
				</g>
			</g>
			<g>
				<g>
					<g>
						<g>
							<path fill="#231F20" d="M66,161.3l-1-1l0,0c0.1-0.1,5.8-5.6,9.1-6.8l0.5,1.4C72.1,155.8,67.5,159.8,66,161.3z"/>
						</g>
					</g>
				</g>
				<g>
					<g>
						<g>
							<path fill="#231F20" d="M66.1,161.2l-1.2-0.8c0.1-0.2,2.7-3.8,6.7-7.6c3.8-3.6,7.5-6.1,11-7.4c1.4-0.5,2.8-0.9,4.2-1
								c1.8-0.2,3.5-0.2,5.1-0.1c10,0.7,10.2,7.9,10.2,8v0.4l-0.4,0.2c-2.7,1.4-5.6,2.4-8.6,3.1c-3.2,0.7-6.5,1-9.7,0.8
								c-4-0.2-7.2-1.1-9.2-1.8c-0.8-0.3-1.4-0.5-1.8-0.7C68.6,157.7,66.2,161.1,66.1,161.2z M73.4,153.1c0.3,0.1,0.7,0.3,1.1,0.4
								c1.9,0.7,5,1.5,8.8,1.8c3.1,0.2,6.3,0,9.3-0.7c2.7-0.6,5.3-1.5,7.8-2.8c-0.2-1.4-1.4-5.6-8.8-6.1c-1.4-0.1-3.1-0.1-4.8,0.1
								c-1.2,0.1-2.5,0.5-3.8,1C80,147.9,76.8,150,73.4,153.1z"/>
						</g>
					</g>
				</g>
				<g>
					<g>
						<g>
							<path fill="#231F20" d="M82.9,156.6l-0.2-0.3c-2.9-5.9-0.9-9.7-0.4-10.4l0.1-0.1l0.6,0.5l0.6,0.4c-0.2,0.4-2.1,3.6,0.4,8.9
								l0,0l0.1,0.2l-0.6,0.2L82.9,156.6z"/>
						</g>
					</g>
				</g>
				<g>
					<g>
						<g>
							<path fill="#231F20" d="M93.4,155.8l-0.5-0.5h-0.8l0,0V155l0.1-0.2c3.7-5.6-0.1-8.8-0.9-9.3l0.7-1.3l0.2,0.1
								c0.6,0.4,5.7,4.3,1.4,11.1v0.1L93.4,155.8z"/>
						</g>
					</g>
				</g>
			</g>
		</g>
		<g>
			<g>
				<g>
					<g>
						<path fill="#231F20" d="M172,167.8c-18.1,0-25.6-6.1-25.9-6.4l0.5-0.6c0.1,0.1,9.1,7.4,30.9,6l0,0.7
							C175.6,167.8,173.7,167.8,172,167.8z"/>
					</g>
				</g>
			</g>
		</g>
		<g>
			<g>
				<g>
					<g>
						<path fill="#231F20" d="M75.7,166.3v-0.7c13.8,0,26.6-6.2,26.8-6.2l0.3,0.7C102.7,160,89.7,166.3,75.7,166.3z"/>
					</g>
				</g>
			</g>
		</g>
		<g>
			<g>
				<g>
					<g>
						<path fill="#231F20" d="M81.8,183.4l-0.6-0.5c8.1-10,15.7-14.5,17.8-15.7l0.3,0.6C97.3,169,89.8,173.5,81.8,183.4z"/>
					</g>
				</g>
			</g>
		</g>
		<g>
			<g>
				<g>
					<g>
						<path fill="#231F20" d="M104.2,203.6c-2.3-0.4-3.9-1.5-4.7-3.3c-2.4-5.1,2.3-13.8,2.5-14.2l1.3,0.7c0,0.1-4.6,8.5-2.5,12.9
							c0.6,1.4,1.8,2.2,3.7,2.5L104.2,203.6z"/>
					</g>
				</g>
			</g>
		</g>
		<g>
			<g>
				<g>
					<g>
						<path fill="#231F20" d="M113.2,202c-0.2-0.8-2.3-4.5-3.9-4.5s-3.2,0.8-2.6,2.3C107.4,201.2,113.2,202,113.2,202z"/>
					</g>
				</g>
			</g>
			<g>
				<g>
					<g>
						<path fill="#231F20" d="M114.1,202.8l-1-0.1c-1.9-0.3-6.3-1-7-2.7c-0.3-0.7-0.3-1.4,0.1-2c0.6-1,2-1.3,3.1-1.3
							c2.2,0,4.4,4.3,4.6,5.1L114.1,202.8z M109.4,198.2c-1,0-1.7,0.3-1.9,0.7c-0.1,0.1-0.1,0.3,0,0.6c0.2,0.5,2.2,1.2,4.6,1.6
							C111.3,199.8,110.1,198.2,109.4,198.2z"/>
					</g>
				</g>
			</g>
		</g>
		<g>
			<g>
				<g>
					<g>
						<path fill="#231F20" d="M125.5,202.4c0,0,0.6-2.9,1.8-3.5c1.3-0.6,4.6-1.5,5.7,0.9C134.2,202.2,125.5,202.4,125.5,202.4z"/>
					</g>
				</g>
			</g>
			<g>
				<g>
					<g>
						<path fill="#231F20" d="M124.7,203.2l0.2-0.9c0.1-0.5,0.7-3.3,2.3-4c0.8-0.4,2.1-0.8,3.3-0.8c1.6,0,2.8,0.7,3.4,2
							c0.2,0.5,0.2,1.1-0.1,1.5c-1.1,1.8-6.5,2.1-8.2,2.1L124.7,203.2z M130.4,199c-1,0-2,0.3-2.7,0.6c-0.5,0.2-0.9,1.2-1.2,2
							c2.7-0.2,5.6-0.7,6-1.4c0,0,0,0,0-0.1C132.1,199.4,131.4,199,130.4,199z"/>
					</g>
				</g>
			</g>
		</g>
		<g>
			<g>
				<g>
					<g>
						<path fill="#231F20" d="M135.4,206.5l-0.1-1.5c0.1,0,7.5-0.6,7.9-4.8c0.4-4.6-4.1-10-4.1-10l1.1-0.9c0.2,0.2,4.9,5.9,4.4,11.1
							C144,205.9,135.7,206.5,135.4,206.5z"/>
					</g>
				</g>
			</g>
		</g>
		<g>
			<g>
				<g>
					<g>
						<path fill="#231F20" d="M77.9,224.7l-0.7-0.2c3.8-11,15.9-27.9,16-28.1l0.6,0.4C93.7,196.9,81.7,213.8,77.9,224.7z"/>
					</g>
				</g>
			</g>
		</g>
		<g>
			<g>
				<g>
					<g>
						<path fill="#231F20" d="M165.8,218.8c-6.7-15.8-11.7-18.1-11.7-18.1l0.3-0.7c0.2,0.1,5.3,2.3,12.1,18.5L165.8,218.8z"/>
					</g>
				</g>
			</g>
		</g>
		<g>
			<g>
				<g>
					<g>
						<path fill="#231F20" d="M91.6,232.4c0,0,2-0.3,5.1-3c3-2.7,9.1-7.4,13.2-6.4c4.1,1,6.1,4.6,7.8,4.7c1.7,0.1,1.7-4.2,9-3.1
							c7.3,1.1,18.5,9.3,25.1,10.9c0,0-7.3,4.1-11.2,2.7s-15.7-6.8-23.5-6.1S99.8,235.2,91.6,232.4z"/>
					</g>
				</g>
			</g>
			<g>
				<g>
					<g>
						<path fill="#231F20" d="M142.4,239.2c-0.8,0-1.5-0.1-2.1-0.3c-0.7-0.2-1.6-0.6-2.7-1c-5.2-2-14.2-5.5-20.5-5
							c-1.8,0.2-3.6,0.4-5.6,0.7c-3.6,0.5-7.3,1-11,1c-3.5,0-6.4-0.4-9-1.3l0.1-1.4c0,0,1.9-0.4,4.7-2.9c2.8-2.5,8.2-6.8,12.5-6.8
							c0.5,0,0.9,0.1,1.4,0.2c2.5,0.6,4.3,2.2,5.6,3.3c0.8,0.7,1.6,1.4,2,1.4l0,0c0.2,0,0.5-0.3,0.8-0.7c0.9-1,2.3-2.6,5.9-2.6
							c0.7,0,1.5,0.1,2.4,0.2c4.1,0.6,9.4,3.4,14.4,6.1c4,2.1,7.8,4.1,10.7,4.9l0.2,1.3C151.9,236.3,146.5,239.2,142.4,239.2z
							 M118.4,231.3c6.4,0,14.7,3.2,19.7,5.2c1.1,0.4,2,0.8,2.7,1c0.5,0.2,1,0.2,1.6,0.2c2.5,0,5.6-1.2,7.4-2.1
							c-2.7-1-5.9-2.7-9.3-4.4c-5-2.6-10.1-5.3-14-5.9c-0.8-0.1-1.5-0.2-2.1-0.2c-2.9,0-3.9,1.2-4.8,2.1c-0.5,0.6-1,1.2-1.9,1.2
							c-1,0-1.9-0.8-3-1.7c-1.3-1.1-2.8-2.4-5-3c-0.3-0.1-0.7-0.1-1-0.1c-3.9,0-9.4,4.5-11.5,6.4c-1.3,1.1-2.4,1.9-3.3,2.4
							c2,0.4,4.1,0.7,6.6,0.7c3.6,0,7.3-0.5,10.8-0.9c2-0.3,3.8-0.5,5.7-0.7C117.4,231.3,117.9,231.3,118.4,231.3z"/>
					</g>
				</g>
			</g>
		</g>
		<g>
			<g>
				<g>
					<g>
						<path fill="#231F20" d="M106.4,233.4c0,0,7.2,4.7,13,5.1c5.8,0.4,12.2-3.7,14.7-2.7s7.2,2.9,8.2,2.8c1-0.1-8.1,9.1-21.4,9.3
							c-13.3,0.2-22.5-8.1-24.1-14.3C96.7,233.5,103.5,233.7,106.4,233.4z"/>
					</g>
				</g>
			</g>
			<g>
				<g>
					<g>
						<path fill="#231F20" d="M120.3,248.5c-13.8,0-22.7-8.8-24.3-14.8l0.7-0.9c0,0,1.8,0,3.9,0c2.6,0,4.5-0.1,5.7-0.2l0.5,0.1
							c0.1,0,7.1,4.6,12.6,5c2.9,0.2,6-0.8,8.8-1.7c2.6-0.9,4.8-1.5,6.1-1l1.3,0.5c2.2,0.8,5.8,2.2,6.6,2.2h0c0.5,0,0.9,0.3,0.9,0.8
							c0,1.5-9.7,9.8-22.2,10L120.3,248.5z M97.7,234.3c2.1,5.5,10.3,12.8,22.6,12.8h0l0.5,0c10.3-0.2,18.1-5.8,20.3-8
							c-1.4-0.4-3.5-1.2-6-2.1l-1.3-0.5c-0.9-0.3-2.9,0.3-5.2,1c-2.8,0.9-6.1,2-9.3,1.8c-5.4-0.4-11.8-4.3-13.1-5.1
							c-1.2,0.1-3.1,0.2-5.6,0.2C99.5,234.3,98.5,234.3,97.7,234.3z"/>
					</g>
				</g>
			</g>
		</g>
		<g>
			<g>
				<g>
					<g>
						<path fill="#231F20" d="M121.9,254.7c-0.8,0-1.6,0-2.4,0c-14.1-0.4-21.5-6.6-21.5-6.6l0.5-0.6c0.1,0.1,7.2,6,21.1,6.5
							c14,0.4,26.8-3.2,26.9-3.3l0.2,0.7C146.6,251.4,135.1,254.7,121.9,254.7z"/>
					</g>
				</g>
			</g>
		</g>
		<g>
			<g>
				<g>
					<g>
						<path fill="#231F20" d="M85.9,251.2l-0.7-0.2c3-10.3,2.9-20.2,2.9-20.3l0.7,0C88.8,230.7,88.9,240.8,85.9,251.2z"/>
					</g>
				</g>
			</g>
		</g>
		<g>
			<g>
				<g>
					<g>
						<path fill="#231F20" d="M161.1,248c-2.7-4.6-2.9-9.3-2.9-9.5l0.7,0c0,0,0.1,4.7,2.8,9.1L161.1,248z"/>
					</g>
				</g>
			</g>
		</g>
		<g>
			<g>
				<g>
					<g>
						<path fill="#231F20" d="M46.3,181.7l-0.7-0.1c1.5-9.3,0-13,0-13l0.7-0.3C46.4,168.5,47.8,172.2,46.3,181.7z"/>
					</g>
				</g>
			</g>
		</g>
		<g>
			<g>
				<g>
					<g>
						<path fill="#231F20" d="M98.1,120.3l-1.4-0.2c0.1-0.6-0.2-1.4-0.8-1.9c-0.6-0.6-1.4-1-2.2-1.3c-1.2-0.5-2.6-1-3.9-0.7
							l-0.3-1.4c1.7-0.4,3.4,0.2,4.8,0.8c0.9,0.4,1.9,0.9,2.7,1.6C97.7,118.1,98.2,119.2,98.1,120.3z"/>
					</g>
				</g>
			</g>
		</g>
		<g>
			<g>
				<g>
					<g>
						<path fill="#231F20" d="M94.9,120.4c-0.3-1.2-1.2-2.3-2.6-2.8c-1.2-0.5-2.6-0.5-4.2-0.2l-0.3-1.4c1.9-0.4,3.6-0.2,5,0.3
							c1.8,0.7,3.1,2.2,3.5,3.8L94.9,120.4z"/>
					</g>
				</g>
			</g>
		</g>
		<g>
			<g>
				<g>
					<g>
						<path fill="#231F20" d="M92.9,121.2c-1.2-2.8-4.4-4.6-7.4-4.2l-0.2-1.4c3.7-0.5,7.5,1.7,9,5.1L92.9,121.2z"/>
					</g>
				</g>
			</g>
		</g>
		<g>
			<g>
				<g>
					<g>
						<path fill="#231F20" d="M90.8,122.2c-0.8-1-1.9-2.2-3.1-3.1c-1.3-0.9-2.6-1.3-3.9-1.2l-0.1-1.5c2-0.1,3.7,0.8,4.8,1.5
							c1.4,1,2.5,2.2,3.4,3.4L90.8,122.2z"/>
					</g>
				</g>
			</g>
		</g>
		<g>
			<g>
				<g>
					<g>
						<path fill="#231F20" d="M87.1,122.2c-3-1.3-6.5-1.6-9.7-0.9l-0.3-1.4c3.5-0.8,7.3-0.4,10.6,1L87.1,122.2z"/>
					</g>
				</g>
			</g>
		</g>
		<g>
			<g>
				<g>
					<g>
						<path fill="#231F20" d="M87.7,122.4c-0.9-1-1.8-2.1-3-2.9c-1.2-0.8-2.5-1-3.5-0.7l-0.4-1.4c1.5-0.4,3.2-0.1,4.7,0.9
							c1.3,0.9,2.3,2,3.3,3.1L87.7,122.4z"/>
					</g>
				</g>
			</g>
		</g>
		<g>
			<g>
				<g>
					<g>
						<path fill="#231F20" d="M76.1,124.1l-0.6-1.3c3.1-1.3,6.4-1.9,9.7-1.6l-0.1,1.5C82.1,122.4,79,122.9,76.1,124.1z"/>
					</g>
				</g>
			</g>
		</g>
		<g>
			<g>
				<g>
					<g>
						<path fill="#231F20" d="M76.4,128.2l-0.8-1.2c2.7-1.9,6.7-4.5,10.3-4.8l0.1,1.5C82.3,124,77.9,127.2,76.4,128.2z"/>
					</g>
				</g>
			</g>
		</g>
		<g>
			<g>
				<g>
					<g>
						<path fill="#231F20" d="M74.2,127.3l-0.9-1.2c2.8-2.1,6-3.6,9.3-4.4l0.3,1.4C79.8,123.9,76.8,125.3,74.2,127.3z"/>
					</g>
				</g>
			</g>
		</g>
		<g>
			<g>
				<g>
					<g>
						<path fill="#231F20" d="M149.8,120.4l-0.9-0.5c-0.2-0.5,0.1-1,0.5-1.2c1.9-1.2,3.9-2,6.1-2.5c1.5-0.3,2.7-0.4,3.8-0.2
							c1.5,0.2,2.7,0.9,3.5,2l-1.2,0.9c-0.5-0.7-1.5-1.2-2.5-1.4c-0.9-0.1-1.9-0.1-3.2,0.2c-2,0.4-3.9,1.2-5.6,2.3
							c0.2-0.1,0.2-0.4,0.1-0.5l-0.6,0.2L149.8,120.4z"/>
					</g>
				</g>
			</g>
		</g>
		<g>
			<g>
				<g>
					<g>
						<path fill="#231F20" d="M152.7,121.6l-0.6-0.9c0-0.2,0.2-0.5,0.6-0.7c4.4-2,9.4-2.6,14.1-1.9l-0.2,1.4
							c-4.3-0.7-8.9-0.1-12.9,1.6L152.7,121.6z M152.9,120.1c-0.3,0-0.5,0.2-0.6,0.4l1.2,0.4c0,0,0-0.1,0-0.1l-0.7-0.1l0.3-0.6
							C153,120.2,152.9,120.1,152.9,120.1z"/>
					</g>
				</g>
			</g>
		</g>
		<g>
			<g>
				<g>
					<g>
						<path fill="#231F20" d="M155.5,123.3l-1.3-0.7c0.4-0.8,1.1-1.4,2.1-2c1.5-0.8,3.2-1.1,4.7-1.3c1.6-0.2,3.4-0.4,4.9-0.6
							c1.6-0.2,3.8-0.4,5.6,0.7l-0.8,1.2c-1.3-0.8-2.9-0.7-4.7-0.5c-1.5,0.1-3.2,0.3-4.8,0.6c-1.4,0.2-2.9,0.5-4.2,1.2
							C156.2,122.4,155.7,122.8,155.5,123.3z"/>
					</g>
				</g>
			</g>
		</g>
		<g>
			<g>
				<g>
					<g>
						<path fill="#231F20" d="M158.3,124.6l-1.4-0.2c0.1-0.7,0.6-1.3,1.1-1.6c2.6-2.1,6-2.7,8.3-2.8c2.9-0.1,5.8,0.3,8.5,0.8
							l-0.2,1.4c-2.7-0.4-5.5-0.9-8.2-0.8c-2.1,0.1-5.1,0.6-7.4,2.5C158.6,124.1,158.3,124.4,158.3,124.6z"/>
					</g>
				</g>
			</g>
		</g>
		<g>
			<g>
				<g>
					<g>
						<path fill="#231F20" d="M161.6,125.3l-1.4-0.4c0.2-0.9,1-1.3,1.7-1.6c4.6-2.1,10-2.3,14.8-0.7l-0.5,1.4
							c-4.4-1.5-9.5-1.2-13.7,0.7C162.1,124.8,161.7,125.1,161.6,125.3z"/>
					</g>
				</g>
			</g>
		</g>
		<g>
			<g>
				<g>
					<g>
						<path fill="#231F20" d="M163.8,126.8l-1.5-0.1c0.1-1,1.1-1.6,1.4-1.8c5.2-3,11.4-1.6,14.7-0.5l-0.5,1.4c-3-1-8.7-2.3-13.5,0.4
							C163.9,126.5,163.8,126.8,163.8,126.8z"/>
					</g>
				</g>
			</g>
		</g>
		<g>
			<g>
				<g>
					<g>
						<path fill="#231F20" d="M179.9,129.9c-3.8-2.9-9.2-3.5-13.6-1.7l-0.6-1.3c4.9-2,10.8-1.3,15,1.9L179.9,129.9z"/>
					</g>
				</g>
			</g>
		</g>
		<g>
			<g>
				<g>
					<g>
						<path fill="#231F20" d="M180,130.9c-3.3-2.2-7.5-2.9-11.3-1.8l-0.4-1.4c4.2-1.2,8.9-0.5,12.5,2L180,130.9z"/>
					</g>
				</g>
			</g>
		</g>
		<g>
			<g>
				<g>
					<g>
						<path fill="#231F20" d="M180.2,131.9c-3.2-0.8-6.4-1.1-9.7-0.8l-0.1-1.5c3.4-0.2,6.8,0,10.1,0.9L180.2,131.9z"/>
					</g>
				</g>
			</g>
		</g>
		<g>
			<g>
				<g>
					<g>
						<path fill="#231F20" d="M133.4,181.9c-1.9-4.9-2.5-15.2-2.9-20.7c-0.1-1.6-0.2-3-0.3-3.3l0.7-0.2l-0.2-0.8l0.6,0.1
							c0.4,0.3,0.4,0.3,0.6,4c0.3,5.4,1,15.5,2.8,20.2L133.4,181.9z"/>
					</g>
				</g>
			</g>
		</g>
		<g>
			<g>
				<g>
					<g>
						<path fill="#231F20" d="M108.1,194.1c-3.4-4.9,1.3-16.1,1.5-16.6c2.3-7.6,4.2-23.9,4.2-24.1l1.5,0.2c-0.1,0.7-2,16.6-4.3,24.4
							c-0.1,0.2-4.6,11-1.7,15.2L108.1,194.1z"/>
					</g>
				</g>
			</g>
		</g>
		<g>
			<g>
				<g>
					<g>
						<path fill="#231F20" d="M63.4,156.2l-0.7-0.3c9-20.4,30.8-20.4,31-20.3l0,0.7C93.6,136.3,72.3,136.2,63.4,156.2z"/>
					</g>
				</g>
			</g>
		</g>
		<g>
			<g>
				<g>
					<g>
						<path fill="#231F20" d="M187.1,157.8c-9-14.6-25.1-18.7-25.3-18.7l0.2-0.7c0.2,0,16.6,4.2,25.7,19.1L187.1,157.8z"/>
					</g>
				</g>
			</g>
		</g>
		<g>
			<g>
				<g>
					<g>
						<path fill="#231F20" d="M114.9,122.7l-0.7-0.1c0.4-4.3-3.2-6.1-3.3-6.1l0.3-0.7C111.3,115.9,115.4,117.9,114.9,122.7z"/>
					</g>
				</g>
			</g>
		</g>
		<g>
			<g>
				<g>
					<g>
						<path fill="#231F20" d="M131.3,125.8l-0.7-0.1c1.2-10.5,4.9-11.3,6.1-11.6l0.1,0l0.2,0.7l-0.1,0
							C135.7,115,132.4,115.7,131.3,125.8z"/>
					</g>
				</g>
			</g>
		</g>
		<g>
			<g>
				<g>
					<g>
						<path fill="#231F20" d="M98.8,120.3c-2.2-2-4.6-3.8-7.1-5.3l0.7-1.3c2.7,1.5,5.2,3.4,7.4,5.5L98.8,120.3z"/>
					</g>
				</g>
			</g>
		</g>
		<g>
			<g>
				<g>
					<g>
						<path fill="#231F20" d="M100.4,120.5c-1.4-2.1-3.3-3.9-5.3-5.3l0.8-1.2c2.2,1.5,4.2,3.5,5.7,5.7L100.4,120.5z"/>
					</g>
				</g>
			</g>
		</g>
		<g>
			<g>
				<g>
					<g>
						<path fill="#231F20" d="M101.5,120c-0.1-0.8-0.2-1.6-0.5-2.3c-0.3-0.5-0.8-1-1.4-1l0-1.5c1.1,0,2.1,0.7,2.7,1.8
							c0.5,0.9,0.6,1.9,0.7,2.8L101.5,120z"/>
					</g>
				</g>
			</g>
		</g>
		<g>
			<g>
				<g>
					<g>
						<path fill="#231F20" d="M149.2,119.7l-1-1.1c1.8-1.7,3.8-3.2,6-4.4l0.7,1.3C152.8,116.6,150.9,118,149.2,119.7z"/>
					</g>
				</g>
			</g>
		</g>
	</g>
</g>
<g id="圖層_4">
</g>
<g id="圖層_5">
</g>
</svg>
