<?xml version="1.0" encoding="utf-8"?>
<!-- Generator: Adobe Illustrator 18.1.0, SVG Export Plug-In . SVG Version: 6.00 Build 0)  -->
<svg version="1.1" xmlns="http://www.w3.org/2000/svg" xmlns:xlink="http://www.w3.org/1999/xlink" x="0px" y="0px"
	 viewBox="0 0 267 294" enable-background="new 0 0 267 294" xml:space="preserve">
<g id="圖層_1">
</g>
<g id="圖層_2">
	<g>
		<g id="XMLID_110_">
			<g>
				<g>
					<g>
						<g>
							<path fill="#231F20" d="M240.4,97.4c5.3,13.2,8.3,28,4.2,38.4c-4.1,10.5-5.5,23.9-5.5,23.9c-1.6-0.6-3.8-0.5-6.8,0.6l0,0
								c-3.1-0.1-10,1-16.9,2.4c0.5-4.2,0.8-8.5,0.4-10.7c-0.9-5.2-3.4-11.3-7.9-20.9s-13.9-30.8-11.6-41.4c0.2-2.5,0.8-4.7,1.6-7
								c0.2-0.4,0.6-0.8,0.8-1.2l0.3-0.1c4-2.6,20.2-7,20.2-7S235.1,84.3,240.4,97.4z"/>
						</g>
					</g>
				</g>
				<g>
					<g>
						<g>
							<path fill="#231F20" d="M181.6,44.7c36.8,12,37.5,29.6,37.5,29.6s-16.1,4.4-20.2,7l-0.3,0.1c0.1-0.1,0.1-0.3,0.1-0.5
								c-0.1-0.8-2.2-2-2.1-2.6c-0.2,0.8-1.2,1.2-2,0.9c-0.8-0.3-1.4-1-1.9-1.6c-1.7-2.2-3.4-4.3-5-6.5c1,2.6,1.8,6.1-0.4,7.9
								c-0.4-0.7-1.1-1.2-1.9-1.3c-0.1,0.4-0.3,0.8-0.4,1.3c-2.1,1.5-5.2-2.4-7.3-0.9c0.3,0.7,0.6,1.3,0.9,2c-2.5-2.8-5-5.5-7.5-8.3
								c0.2,1.2,0.8,2.3,1.2,3.5c0.4,1.2,0.6,2.5-0.1,3.6c-0.7,1-2.4,1.4-3.1,0.3c-0.1,0.6-0.2,1.3-0.3,1.9
								c-1.8,0.2-3.7-0.9-4.4-2.5c0.2,1,0.3,2.1-0.5,2.7c-1.1-0.7-2.3-1.4-3.4-2c-0.3,4.8-6.8,3.8-10.2,4c-4.6,0.3-9.1,0.4-13.7,0.4
								c-6.4,0-13.3,0.2-19.6-1.3c-8.9-2.2-23.4-4.2-35.7,0.2c-9.8,3.5-16.7,19.1-19.7,31.9c-2.7,11.4-6.9,28-8.1,38.7
								c-0.5-1.5-0.8-2.7-0.8-2.7s-0.2,0.6-0.5,1.5c-1.8-3-5.2-8.1-6.7-8c0,0-7-10.1-7-18.3s8.2-41.5,30-60.2S120.6,22.4,181.6,44.7
								z"/>
						</g>
					</g>
				</g>
				<g>
					<g>
						<g>
							<path fill="#FFFFFF" d="M221.7,168c0.1-0.9,0.2-1.4,0.2-1.4c4.3-3.3,7.7-5.2,10.4-6.2c2.9-1.1,5.1-1.1,6.8-0.6
								c2.8,1,4.1,3.7,5,5.7c1.9,4.2-0.7,12.5-2.5,15.8c-1.8,3.3-3.5,11.3-4.9,14.8c-1.4,3.5-3.9,14.5-7.2,19.5
								c-3.3,5-7.4,5-10.2,4.8c-2.7-0.2-4.5-2.1-4.6-2.2c-2.2,7.6-5.2,19-8.3,25.5c-3.6,7.6-21.7,27.3-26.7,30.2
								c-4.9,2.8-20.7,8.8-21.6,9.2c-4.4,3.3-9.5,6.3-14.7,7.9c-9.2,2.7-37.4,1.5-43.2-0.9c-5.7-2.4-13.4-9.7-22.9-18.7
								c-9.5-9-19.4-36.2-22.4-50.9c-0.6-2.8-1-6.4-1.3-10.6c-1.2-15.1-0.9-36.9-0.5-48.3c0.7,2.2,1.5,4.2,2.5,4.1
								c1.7-0.1,5.7-0.8,6.8,1.6c-0.4,4.9,0.8,9.9,4.3,11.3c6.5,2.6,33.1,5.7,39.3,3.1c0,0,5.9-9.7,7.2-15.3l0.2,0
								c0.1-0.3,1.3-3,3.9-2.9c2.8,0.1,9.8-0.4,12,0.8c1.3,0.7,2.6,2.8,3.3,4.3c1.3,5.2,4.6,12.6,7.5,14.4c4.2,2.6,29.6,6.6,37.7,2
								l0.1,0.2c6.6-2.2,8.7-9,9.5-11c0.8-2.1,7.4,1,8.5,0.2c0.1-0.1,0.2-0.2,0.2-0.3l0.7-0.2c0,0,10.1-2.5,17.5-4.3
								c-0.4,2.4-0.7,4.1-0.7,4.1s1.2,5.1,3,3.2c1.8-1.8,2.4,6.4,2.5,7.1C219.8,179.6,221.2,171.3,221.7,168z"/>
						</g>
					</g>
				</g>
				<g>
					<g>
						<g>
							<path fill="#231F20" d="M232.3,160.3L232.3,160.3c-2.7,1.1-6.1,3-10.4,6.3c0,0-0.1,0.5-0.2,1.4c-1.1,0.2-3.9,0.9-7.3,1.7
								c0.3-2,0.7-4.5,1-7.1C222.4,161.3,229.2,160.2,232.3,160.3z"/>
						</g>
					</g>
				</g>
				<g>
					<g>
						<g>
							<path fill="#FFFFFF" d="M196.7,78.3c-0.1,0.6,2,1.8,2.1,2.6c0,0.2,0,0.3-0.1,0.5c-0.2,0.4-0.6,0.8-0.8,1.2
								c-0.8,2.4-1.4,4.5-1.6,7c-2.3,10.6,7,31.8,11.6,41.4s7.1,15.7,7.9,20.9c0.4,2.2,0.1,6.5-0.4,10.7c-9.6,1.9-19.6,4.2-20.3,4.3
								c-0.3-0.3-0.8-0.4-1.3-0.3c-3,0.7-5.4,0.2-10.4-2.8c-3.2-2-19.3-3.2-31.3-3.6c-6.7-0.3-12.1-0.3-13.4-0.2
								c-3.5,0.4-16.2,1.4-20.9,1c-4.7-0.4-19.8-3.7-25-4.2c-5.2-0.5-21.8-2-24.4-2.3c-2.6-0.4-4.3,1.5-6.9,3
								c-2.5,1.4-3.8,0.9-5.3,0.4c-0.9-0.3-1.9-2.7-2.5-4.8c1.3-10.7,5.4-27.3,8.1-38.7c3.1-12.8,10-28.3,19.7-31.9
								c12.3-4.4,26.8-2.4,35.7-0.2c6.3,1.5,13.2,1.3,19.6,1.3c4.6,0,9.1-0.1,13.7-0.4c3.3-0.2,9.9,0.9,10.2-4
								c1.1,0.7,2.3,1.3,3.4,2c0.8-0.6,0.7-1.8,0.5-2.7c0.7,1.7,2.6,2.7,4.4,2.5c0.1-0.6,0.2-1.3,0.3-1.9c0.7,1,2.4,0.7,3.1-0.3
								c0.7-1,0.5-2.4,0.1-3.6c-0.4-1.2-1-2.3-1.2-3.5c2.5,2.8,5,5.5,7.5,8.3c-0.3-0.7-0.6-1.3-0.9-2c2.2-1.4,5.2,2.5,7.3,0.9
								c0.1-0.4,0.3-0.8,0.4-1.3c0.8,0.1,1.5,0.6,1.9,1.3c2.1-1.8,1.3-5.2,0.4-7.9c1.7,2.2,3.4,4.3,5,6.5c0.5,0.7,1.1,1.4,1.9,1.6
								C195.5,79.5,196.5,79.1,196.7,78.3z"/>
						</g>
					</g>
				</g>
				<g>
					<g>
						<g>
							<path fill="#231F20" d="M221.7,168c-0.6,3.3-1.9,11.6-2.5,16.1c-0.1-0.7-0.7-8.9-2.5-7.1c-1.8,1.9-3-3.2-3-3.2
								s0.3-1.7,0.7-4.1C217.8,168.9,220.6,168.2,221.7,168z"/>
						</g>
					</g>
				</g>
				<g>
					<g>
						<g>
							<path fill="#231F20" d="M215.4,162.7c-0.3,2.5-0.7,5.1-1,7.1c-7.4,1.8-17.5,4.3-17.5,4.3l-0.7,0.2c0.7-1.3,0.5-5.9-1.1-7.2
								C195.8,166.8,205.7,164.5,215.4,162.7z"/>
						</g>
					</g>
				</g>
				<g>
					<g>
						<g>
							<path fill="#231F20" d="M195.1,167c1.6,1.3,1.7,5.9,1.1,7.2c-0.1,0.1-0.1,0.2-0.2,0.3c-1.1,0.8-7.8-2.3-8.5-0.2
								c-0.8,2-2.9,8.8-9.5,11l-0.1-0.2c0.5-0.3,1-0.6,1.3-1c6.2-6.1,6.2-15.5,3.6-17.9c-2.3-2.2-17.4-4.5-30.7-4.9l0-1.1
								c12,0.5,28.1,1.6,31.3,3.6c5,3.1,7.4,3.5,10.4,2.8C194.3,166.6,194.8,166.7,195.1,167z"/>
						</g>
					</g>
				</g>
				<g>
					<g>
						<g>
							<path fill="#FFFFFF" d="M132.6,168.7c-0.6-2.7-0.7-4.9,0.1-5.3c3.4-1.8,11.1-2.3,19.4-2.1c13.3,0.4,28.4,2.7,30.7,4.9
								c2.6,2.4,2.6,11.9-3.6,17.9c-0.4,0.4-0.8,0.7-1.3,1c-8.2,4.5-33.5,0.6-37.7-2C137.1,181.3,133.8,173.9,132.6,168.7z"/>
						</g>
					</g>
				</g>
				<g>
					<g>
						<g>
							<path fill="#231F20" d="M152.1,160.2l0,1.1c-8.3-0.2-16,0.3-19.4,2.1c-0.8,0.4-0.7,2.6-0.1,5.3c-0.7-1.5-2-3.6-3.3-4.3
								c-2.2-1.2-9.2-0.7-12-0.8c-2.6-0.1-3.8,2.6-3.9,2.9l-0.2,0c0.4-1.5,0.4-2.7-0.2-3.3c-2.5-2.8-41-9.2-46.3-5.7
								c-2.4,1.6-4,5.7-4.4,9.8c-1.2-2.4-5.1-1.6-6.8-1.6c-1,0-1.8-1.9-2.5-4.1c0.1-2,0.1-3.7,0.2-5c0-0.9,0.1-1.8,0.2-2.8
								c0-0.3,0.1-0.5,0.1-0.8c0.7,2,1.7,4.5,2.5,4.8c1.5,0.5,2.8,1,5.3-0.4c2.5-1.4,4.3-3.3,6.9-3c2.6,0.4,19.2,1.8,24.4,2.3
								c5.2,0.5,20.3,3.8,25,4.2c4.7,0.4,17.4-0.6,20.9-1C140,159.9,145.4,159.9,152.1,160.2z"/>
						</g>
					</g>
				</g>
				<g>
					<g>
						<g>
							<path fill="#FFFFFF" d="M62.3,167.3c0.4-4.2,2-8.2,4.4-9.8c5.3-3.5,43.8,2.9,46.3,5.7c0.5,0.6,0.5,1.8,0.2,3.3
								c-1.3,5.5-7.2,15.3-7.2,15.3c-6.3,2.5-32.9-0.5-39.3-3.1C63.2,177.2,61.9,172.2,62.3,167.3z"/>
						</g>
					</g>
				</g>
				<g>
					<g>
						<g>
							<path fill="#FFFFFF" d="M52.3,151.8c-0.5,1.4-1,3.5-0.6,4.8c0.3,1,0.8,3.1,1.4,5c-0.4,11.3-0.7,33.2,0.5,48.3
								c-9.5-8.1-8.2-22.4-8.8-26.6c-0.6-4.2,1-6.7,0.3-14.2c-0.6-7.6-1.6-16.2-2.6-20.9c-1-4.7,1-4.2,3-4.3
								C47,143.7,50.4,148.9,52.3,151.8z"/>
						</g>
					</g>
				</g>
			</g>
			<g>
				<g>
					<g>
						<g>
							<path fill="#231F20" d="M158.6,284.5l-1.1-2.8l0.3-0.1c5-1.9,17.1-6.6,21.2-9c5-2.8,22.8-22.4,26.1-29.5
								c2.4-5.1,4.8-13.5,6.8-20.3c0.5-1.8,1-3.5,1.5-5c0.3-1.2,0.7-2.3,1-3.3c2.2-6.9,2.3-16.9,2.3-17l3,0c0,0.4-0.1,10.6-2.4,17.9
								c-0.3,0.9-0.6,2-1,3.2c-0.5,1.6-0.9,3.2-1.5,5c-2.1,7.2-4.4,15.4-6.9,20.7c-3.6,7.6-21.9,27.8-27.4,30.8
								c-4.3,2.4-16.5,7.2-21.6,9.2L158.6,284.5z"/>
						</g>
					</g>
				</g>
				<g>
					<g>
						<g>
							<path fill="#231F20" d="M125.5,294c-10.7,0-22.2-1-25.9-2.5c-5.9-2.5-13.3-9.5-22.8-18.5l-0.6-0.6
								c-9.8-9.3-19.7-36.5-22.8-51.6c-0.6-2.7-1-6.4-1.3-10.7c-1.2-15.7-0.9-37.9-0.5-48.5c0.1-2.1,0.1-3.8,0.2-5
								c0-0.9,0.1-1.8,0.2-2.8l0.1-0.8c1.2-9.8,4.6-24.1,7.4-35.6l0.8-3.3c3.2-13.5,10.3-29.2,20.7-32.9c13.2-4.8,28.5-2.2,36.5-0.3
								c5.4,1.3,11.4,1.3,17.2,1.3l2,0c4.5,0,9-0.1,13.6-0.4c0.6,0,1.3,0,2.1,0c4.5,0,6.6-0.3,6.7-2.5l2.3-1.2
								c0.6,0.3,1.1,0.7,1.7,1c0,0,0-0.1,0-0.1l2.9-0.9c0.3,0.7,1,1.3,1.8,1.5l0.1-0.6l2.7-0.6c0.1,0,0.5-0.1,0.6-0.3
								c0.4-0.6,0.1-1.7-0.1-2.3c-0.1-0.4-0.3-0.7-0.4-1c-0.3-0.8-0.7-1.7-0.8-2.7l2.6-1.2c1.7,1.9,3.5,3.8,5.2,5.8
								c1.6-0.7,3.3,0.1,4.6,0.7c0.6,0.3,1.4,0.6,1.8,0.7l0.2-0.5l1.6-1.1c0.5,0.1,1.1,0.2,1.5,0.5c0.3-1.1,0.1-2.8-0.8-5.1l2.6-1.5
								l5,6.5c0.3,0.4,0.8,1,1.2,1.1c0.1,0,0.2,0,0.2,0c0,0-0.1,0.1-0.1,0.2l2.9,0.6c0.1-0.4-0.1-0.7-0.1-0.8
								c0.1,0.1,0.4,0.4,0.6,0.6c0.7,0.6,1.6,1.4,1.6,2.4c0,0.4,0,0.7-0.2,1.1c-0.2,0.4-0.4,0.7-0.6,1c-0.1,0.1-0.1,0.2-0.2,0.2
								c-0.9,2.5-1.4,4.5-1.5,6.6l0,0.2c-1.6,7.2,2.5,21.5,11.5,40.4c4.4,9.2,7.1,15.7,8,21.3c0.3,2.1,0.2,5.8-0.4,11.1
								c-0.3,2.8-0.7,5.4-1,7.1c-0.3,1.8-0.5,3.2-0.6,3.8c0.2,0.7,0.5,1.5,0.7,1.9c0.8-0.6,1.6-0.4,1.9-0.3c0.8,0.3,2.2,0.8,2.8,8.6
								l-3,0.3l0-0.1c-0.2-2.7-0.6-4.5-0.8-5.4c-0.6,0.3-1.2,0.2-1.5,0.1c-1.8-0.5-2.7-3.2-3.1-4.7l0-0.6c0,0,0.3-1.7,0.7-4.1
								c0.3-1.6,0.6-4.2,1-7c0.6-4.9,0.7-8.5,0.4-10.3c-0.9-5.3-3.5-11.5-7.8-20.5c-6.5-13.7-13.9-32.2-11.7-42.3
								c0.2-2.3,0.7-4.5,1.7-7.3c0.2-0.4,0.4-0.8,0.6-1c-0.1-0.1-0.3-0.3-0.5-0.4c0,0-0.1-0.1-0.1-0.1c-0.7,0.3-1.6,0.3-2.3,0.1
								c-1.2-0.4-2-1.4-2.5-2.1l-1.4-1.8c-0.2,1.4-0.8,2.6-1.8,3.5l-2.1-0.4l-0.3,0.4c-1.8,1.3-3.7,0.4-5.2-0.3
								c-0.3-0.1-0.6-0.3-0.9-0.4l-2.3,1.5c-1.1-1.2-2.2-2.5-3.3-3.7c0,0.8-0.3,1.6-0.7,2.3c-0.6,1-1.8,1.6-3,1.7
								c-0.1,0-0.1,0-0.2,0l0,0.1l-1.3,1.2c-1.2,0.2-2.5-0.1-3.5-0.7c-0.2,0.2-0.4,0.4-0.6,0.6l-1.7,0.1c-0.6-0.3-1.1-0.7-1.7-1
								c-1.6,3.2-6.2,3.2-9.1,3.1c-0.7,0-1.3,0-1.9,0c-4.6,0.3-9.2,0.4-13.8,0.4l-2,0c-6,0-12.2,0.1-18-1.4
								c-7.7-1.9-22.4-4.3-34.8,0.2c-9.2,3.3-15.9,18.7-18.8,30.8l-0.8,3.3c-2.6,10.8-6.2,25.6-7.3,35.2l-0.1,0.8
								c-0.1,0.9-0.2,1.8-0.2,2.6c-0.1,1.3-0.2,3-0.2,5c-0.4,9.8-0.7,32.5,0.5,48.1c0.3,4.3,0.8,7.8,1.3,10.4
								c3.1,15.1,12.9,41.5,21.9,50.1l0.6,0.6c9.2,8.7,16.5,15.6,21.9,17.9c5.3,2.2,33.1,3.5,42.1,0.8c4.4-1.3,9.2-3.9,14.3-7.7
								c4.4-3.3,8-6.7,10.4-8.9l0.9-0.9l2,2.2l-0.9,0.9c-2.5,2.3-6.2,5.8-10.7,9.2c-5.4,4-10.5,6.7-15.2,8.1
								C140,293.5,132.9,294,125.5,294z"/>
						</g>
					</g>
				</g>
				<g>
					<g>
						<g>
							<path fill="#231F20" d="M220.9,221.9c-0.6,0-1.2,0-1.6-0.1c-3.4-0.2-5.6-2.7-5.7-2.7l1.1-1l0.7-1.3l0,0l0.4,0.3l0,0
								c0,0,1.5,1.5,3.6,1.7c2.8,0.2,6.1,0.1,8.8-4.1c2.2-3.3,4.1-9.7,5.5-14.4c0.6-2,1.1-3.7,1.5-4.8c0.5-1.3,1.1-3.4,1.7-5.6
								c1-3.6,2.1-7.2,3.2-9.3c1.7-3.2,4.1-10.9,2.5-14.5c-0.8-1.7-1.9-4.1-4.1-4.9c-1.5-0.5-3.4-0.3-5.8,0.5
								c-2.7,1-5.9,2.9-9.5,5.7l-0.1,0.8c-0.5,2.8-1.9,11.5-2.5,16.1l0,0l0,0.1l-1.4-0.3l-0.3,0.1l-1.2,0.4l0-0.1l0,0l0-0.6
								c0.6-4.7,2-13.3,2.5-16.2l0.2-1.4l0.6-0.9c4.2-3.2,7.7-5.3,10.8-6.4c3-1.1,5.6-1.3,7.8-0.6c3.5,1.2,5,4.5,5.9,6.5
								c2.2,4.8-0.6,13.5-2.5,17.1c-1,1.8-2,5.5-2.9,8.7c-0.6,2.3-1.3,4.4-1.8,5.9c-0.4,1-0.9,2.7-1.5,4.6
								c-1.5,4.8-3.4,11.5-5.9,15.2C227.6,221.3,223.5,221.9,220.9,221.9z"/>
						</g>
					</g>
				</g>
				<g>
					<g>
						<g>
							<path fill="#231F20" d="M52.6,211.1c-8.4-7.2-8.9-18.6-9.1-24.8c0-1.1-0.1-2.1-0.2-2.8c-0.3-2.1-0.1-3.7,0.1-5.6
								c0.3-2.2,0.5-4.7,0.2-8.7c-0.6-6.8-1.5-15.8-2.5-20.8c-0.5-2.4-0.3-3.9,0.5-4.9c0.9-1.1,2.3-1.2,3.3-1.2c0.2,0,0.4,0,0.6,0
								c0.9-0.1,2.6-0.2,8.1,8.7c0.8,1.2,1.3,2.1,1.3,2.1l-2.6,1.5c0,0-0.5-0.8-1.2-2c-3.1-5-4.9-6.9-5.5-7.3c-0.2,0-0.4,0-0.5,0
								c-0.4,0-1,0-1.1,0.1l0,0c0,0-0.2,0.5,0.2,2.4c1,5.1,2,14.2,2.6,21.1c0.4,4.3,0.1,7.1-0.2,9.3c-0.2,1.8-0.4,3.2-0.1,4.9
								c0.1,0.8,0.1,1.8,0.2,3c0.2,5.7,0.7,16.3,8.1,22.6L52.6,211.1z"/>
						</g>
					</g>
				</g>
				<g>
					<g>
						<g>
							<path fill="#231F20" d="M44.3,144.7c-0.3-0.4-7.3-10.6-7.3-19.2c0-7.4,7.5-41.5,30.6-61.4c20.3-17.5,51-44,114.5-20.8
								c37.3,12.2,38.5,30.2,38.5,30.9l0.1,1.2l-1.2,0.3c-4.4,1.2-16.6,4.8-19.8,6.8l-1.6-2.5c3.5-2.2,15.3-5.7,19.3-6.8
								c-1-4-6.5-17.4-36.3-27.1c-61.9-22.6-91.8,3.2-111.6,20.2C47.6,85.3,40,118.7,40.1,125.5c0,7.6,6.7,17.4,6.8,17.5L44.3,144.7
								z"/>
						</g>
					</g>
				</g>
				<g>
					<g>
						<g>
							<path fill="#231F20" d="M240.6,159.9l-3-0.3c0.1-0.6,1.5-13.8,5.6-24.3c4.6-11.8-0.7-28.5-4.2-37.3
								c-5-12.6-20.5-22.3-20.6-22.4l1.6-2.5c0.7,0.4,16.4,10.4,21.8,23.8c3.7,9.3,9.2,26.8,4.2,39.6
								C242,146.6,240.6,159.8,240.6,159.9z"/>
						</g>
					</g>
				</g>
				<g>
					<g>
						<g>
							<path fill="#231F20" d="M97.5,183.5L97.5,183.5c-10.2,0-26.1-2.1-31.1-4.1c-4.2-1.7-5.2-7.6-4.8-12.1
								c0.3-3.7,1.8-8.4,4.8-10.4c1.2-0.8,3.6-1.2,7.4-1.2c12.6,0,37.5,4.4,39.9,7c0.7,0.8,0.8,2.1,0.3,4
								c-1.3,5.6-7.1,15.1-7.3,15.5l-0.4,0.3C104.6,183.2,101.7,183.5,97.5,183.5z M73.7,157.2c-4.5,0-6,0.6-6.5,0.9
								c-2.1,1.4-3.7,5-4.1,9.3c-0.4,4,0.4,9.2,3.9,10.6c4.8,2,20.5,4,30.6,4h0c4.6,0,6.9-0.4,8-0.8c0.9-1.5,5.9-9.9,7-14.8
								c0.5-1.9,0.1-2.5,0-2.7C110.8,161.8,86.8,157.2,73.7,157.2z"/>
						</g>
					</g>
				</g>
				<g>
					<g>
						<g>
							<path fill="#231F20" d="M165.5,188L165.5,188c-10.2,0-22.7-2.3-25.8-4.2c-3.4-2.1-6.7-10.1-7.8-14.9c-1.2-5.3,0-5.9,0.4-6.1
								c3.5-1.8,10.7-2.2,16.1-2.2c1.2,0,2.4,0,3.7,0.1c12.6,0.4,28.5,2.6,31.2,5.1c1.2,1.1,1.8,3.2,1.9,5.9c0,4.8-2,9.7-5.4,13.1
								c-0.4,0.4-0.9,0.8-1.5,1.1C175.6,187.2,171.3,188,165.5,188z M148.4,162c-7.4,0-12.9,0.7-15.4,2.1c-0.1,0.1-0.4,1.3,0.3,4.5
								c1.3,5.3,4.5,12.4,7.2,14c2.5,1.6,14.4,4,25,4c5.5,0,9.6-0.7,12-2c0.5-0.3,0.9-0.6,1.2-0.9c3.2-3.1,5-7.6,5-12
								c0-2.2-0.6-4-1.4-4.8c-1.9-1.8-15.8-4.3-30.2-4.7C150.8,162,149.6,162,148.4,162z"/>
						</g>
					</g>
				</g>
				<g>
					<g>
						<g>
							<path fill="#231F20" d="M178.2,186l-0.5-1.4c5.9-2,8-7.7,8.9-10.2l0.1-0.4c0.7-1.8,3.5-1.2,6-0.6c1,0.2,2.4,0.6,2.8,0.4
								c0.5-1.1,0.4-5.3-0.9-6.3c-0.2-0.2-0.4-0.2-0.6-0.2c-3.4,0.8-6.1,0-11-2.9c-2.4-1.5-14.6-2.9-31-3.5
								c-6.8-0.3-12.1-0.3-13.3-0.2c-2.5,0.3-16,1.4-21.1,1c-2.4-0.2-7.2-1.1-12.3-2.1c-5-0.9-10.1-1.9-12.7-2.1
								c-1.9-0.2-5.3-0.5-8.9-0.8c-6.5-0.6-13.8-1.3-15.5-1.5c-1.7-0.2-2.9,0.6-4.5,1.7c-0.6,0.4-1.2,0.8-1.9,1.2
								c-2.7,1.5-4.2,1-5.7,0.6l-0.2-0.1c-0.7-0.2-1.6-1-3-5.2c0-0.2-0.1-0.3-0.1-0.4c-0.4,1.6-0.6,2.8-0.3,3.6
								c0.1,0.4,0.2,0.9,0.4,1.5c0.3,1,0.6,2.3,1,3.5c1.1,3.4,1.7,3.6,1.7,3.6c0.2,0,0.5,0,0.8-0.1c2.1-0.2,5.5-0.5,6.7,2.1
								c0.1,0.2,0.2,0.5,0.3,0.8l-1.5,0.4c0-0.2-0.1-0.4-0.2-0.5c-0.8-1.6-3.5-1.4-5.2-1.2c-0.3,0-0.6,0.1-0.9,0.1
								c-1.3,0-2.2-1.3-3.2-4.7c-0.4-1.2-0.7-2.5-1-3.6c-0.1-0.6-0.3-1.1-0.4-1.4c-0.3-1.2-0.1-2.9,0.6-5.3c0.3-0.9,0.5-1.5,0.5-1.5
								l1.4,0.1c0,0,0.3,1.2,0.8,2.7c1,3.1,1.8,4.2,2.1,4.3l0.2,0.1c1.3,0.4,2.4,0.7,4.5-0.5c0.6-0.4,1.2-0.8,1.8-1.1
								c1.7-1.1,3.3-2.2,5.6-1.9c1.7,0.2,9,0.9,15.4,1.5c3.7,0.3,7.1,0.6,9,0.8c2.6,0.3,7.8,1.2,12.8,2.2c4.9,0.9,9.9,1.8,12.2,2.1
								c4.5,0.4,17-0.6,20.8-1c1.4-0.2,7.3-0.1,13.5,0.2c6.4,0.3,27.6,1.3,31.7,3.7c5,3.1,7.2,3.3,9.9,2.7c0.7-0.2,1.4,0,1.9,0.5
								c1.9,1.5,2.1,6.6,1.2,8.1c-0.1,0.2-0.3,0.4-0.5,0.6c-0.7,0.5-1.9,0.3-4-0.2c-1.2-0.3-4.1-0.9-4.3-0.3L188,175
								C187.1,177.4,184.8,183.9,178.2,186z"/>
						</g>
					</g>
				</g>
				<g>
					<g>
						<g>
							<path fill="#231F20" d="M132.6,170.6c0,0-0.3-0.7-0.7-1.5c-1-2-2.1-3.5-3-4c-1.5-0.8-6-0.7-8.9-0.7c-1.1,0-2,0-2.7,0
								c0,0-0.1,0-0.1,0c-2.1,0-3.1,2.4-3.1,2.5l-0.7-0.3l-0.8,0.2l0.1-0.6c0.1-0.3,1.5-3.4,4.6-3.3c0.7,0,1.6,0,2.6,0
								c3.5-0.1,7.9-0.1,9.7,0.9c1.5,0.8,2.8,3,3.6,4.6c0.5,0.9,0.8,1.6,0.8,1.6L132.6,170.6z"/>
						</g>
					</g>
				</g>
				<g>
					<g>
						<g>
							<path fill="#231F20" d="M195.3,167.7l-0.5-1.4l0.1,0c0.1,0,10.3-2.4,20.3-4.4c8.8-1.7,14.4-2.4,17.1-2.4l-0.1,1.5
								c-2.6-0.1-8.2,0.7-16.8,2.3C205.5,165.3,195.4,167.7,195.3,167.7z"/>
						</g>
					</g>
				</g>
				<g>
					<g>
						<g>
							<path fill="#231F20" d="M197.1,174.7l-0.4-1.5c0,0,10.1-2.5,17.5-4.3c3.4-0.8,6.2-1.5,7.3-1.7l0.3,0.7l-0.2-0.7
								c0.1,0,0.2,0,0.2,0l0.2,1.5l-0.3,0.1c-1.1,0.2-3.9,0.9-7.3,1.7C207.1,172.2,197.1,174.7,197.1,174.7z"/>
						</g>
					</g>
				</g>
			</g>
		</g>
		<g>
			<g>
				<g>
					<g>
						<path fill="#231F20" d="M241.2,176.1l-0.7-0.2c1-4.4,0.6-9-1-10.6c-0.6-0.6-1.2-0.8-2.1-0.7c-3.7,0.7-9.2,7.8-9.2,7.9
							l-0.6-0.5c0.2-0.3,5.7-7.5,9.7-8.2c1.1-0.2,2,0.1,2.7,0.9C242,166.9,242.2,172.1,241.2,176.1z"/>
					</g>
				</g>
			</g>
		</g>
		<g>
			<g>
				<g>
					<g>
						<path fill="#231F20" d="M233,196.9l-0.6-0.4c6.6-10.8,3.7-20.1,3.7-20.2l0.7-0.2C236.7,176.2,239.7,185.8,233,196.9z"/>
					</g>
				</g>
			</g>
		</g>
		<g>
			<g>
				<g>
					<g>
						<path fill="#231F20" d="M221.4,203.3c-0.4,0-0.6-0.2-0.7-0.4c-0.3-0.5,0.1-1.4,1.1-3.4c1-2,2.3-4.7,2.3-6.6
							c-0.1-3.3-2.2-7.6-2.3-7.6l-0.1-0.2l3.5-7.1l0.7,0.3l-3.3,6.8c0.4,0.9,2.2,4.6,2.3,7.7c0.1,2.1-1.3,4.8-2.4,6.9
							c-0.5,1.1-1.2,2.4-1.1,2.7c0.5,0.2,4-1.9,5.3-4.4c0.4-0.7,0.8-1.4,1.2-2.1c1.4-2.2,2.9-4.7,3.5-8l0.7,0.1
							c-0.6,3.4-2.2,6-3.6,8.3c-0.4,0.7-0.9,1.4-1.2,2C226,200.9,222.8,203.3,221.4,203.3L221.4,203.3z"/>
					</g>
				</g>
			</g>
		</g>
		<g>
			<g>
				<g>
					<g>
						<path fill="#231F20" d="M48.4,188.4c0-0.2-0.8-4.5-0.5-14.8c0.3-9.7,1.3-17.3,1.4-18.2c-1.1-3.6-2.7-7.4-3.5-7.4h0
							c-0.1,0-0.1,0-0.2,0.1c-0.5,0.5-0.2,2.9,0.1,4.9c0.1,1.2,0.3,2.4,0.4,3.5l-0.8,0c0-1.1-0.2-2.3-0.3-3.5
							c-0.4-2.9-0.6-4.8,0.1-5.5c0.2-0.2,0.4-0.3,0.7-0.3h0c1.7,0,3.7,6.1,4.2,8l0,0.1l0,0.1c0,0.1-1.1,8-1.4,18.2
							c-0.3,10.2,0.5,14.6,0.5,14.6L48.4,188.4z"/>
					</g>
				</g>
			</g>
		</g>
		<g>
			<g>
				<g>
					<g>
						<path fill="#231F20" d="M115.3,131.4c-13.1-10.5-25.5-6.7-25.6-6.6l-0.2-0.7c0.1,0,12.8-4,26.3,6.7L115.3,131.4z"/>
					</g>
				</g>
			</g>
		</g>
		<g>
			<g>
				<g>
					<g>
						<path fill="#231F20" d="M138.3,132.5l-0.4-0.7c0.3-0.1,6.4-3.6,20.8-2l-0.1,0.7C144.5,129.1,138.4,132.5,138.3,132.5z"/>
					</g>
				</g>
			</g>
		</g>
		<g>
			<g>
				<g>
					<g>
						<path fill="#231F20" d="M128.4,123.4c0,0-3.2-1.1-11.3-2.4c-10.3-1.6-21.1-3.2-29.6-3.2c0,0,0,0,0,0c-9,0-14.5,4.3-14.6,4.3
							l-0.5-0.6c0.2-0.2,5.8-4.5,15-4.5c0,0,0,0,0,0c8.6,0,19.3,1.5,29.7,3.2c8.2,1.3,11.3,2.4,11.4,2.4L128.4,123.4z"/>
					</g>
				</g>
			</g>
		</g>
		<g>
			<g>
				<g>
					<g>
						<path fill="#231F20" d="M179.8,128.8c-3-3.6-9.9-4.3-18.7-5.2l-1.5-0.1c-9.4-0.9-18.2,0.3-18.3,0.3l-0.1-0.7
							c0.1,0,9-1.3,18.5-0.3l1.5,0.1c9,0.9,16,1.6,19.2,5.4L179.8,128.8z"/>
					</g>
				</g>
			</g>
		</g>
		<g>
			<g>
				<g>
					<g>
						<path fill="#231F20" d="M74.1,117.7l-0.5-0.5c0.2-0.2,5.2-5.3,18.5-5.5c7.9-0.1,15.4,0.8,21.4,1.5c4.1,0.5,7.6,0.9,10.1,0.8
							l0,0.8c-2.5,0-6.1-0.4-10.2-0.8c-6-0.7-13.4-1.6-21.3-1.4C79.1,112.6,74.1,117.6,74.1,117.7z"/>
					</g>
				</g>
			</g>
		</g>
		<g>
			<g>
				<g>
					<g>
						<path fill="#231F20" d="M185.2,122.6c-6.2-4.1-13.3-4.1-14.5-3.8l-0.2-0.7c1.4-0.4,8.6-0.5,15.1,3.9L185.2,122.6z"/>
					</g>
				</g>
			</g>
		</g>
		<g>
			<g>
				<g>
					<g>
						<path fill="#231F20" d="M91.1,244.3c0,0,12.7-0.1,19.8,0.5c7,0.6,10.8,0.9,15.3,0.9c4.6,0,20.9-1,23.8-0.5
							c0,0-17.7-4.3-22.6-4.5c-4.8-0.2-7.6,1.6-7.6,1.6s-3.4-4-9.6-2.6C104.1,241.1,91.1,244.3,91.1,244.3z"/>
					</g>
				</g>
			</g>
			<g>
				<g>
					<g>
						<path fill="#231F20" d="M126.4,246.5L126.4,246.5c-4.8,0-8.7-0.3-15.5-0.9c-5-0.5-12.8-0.5-17-0.5c-1.7,0-2.7,0-2.7,0
							l-0.2-1.5c0.1,0,13.1-3.2,19.2-4.6c0.9-0.2,1.8-0.3,2.7-0.3c3.8,0,6.2,1.9,7.2,2.8c1.1-0.5,3.7-1.5,7.5-1.4
							c4.9,0.2,22,4.3,22.7,4.5l-0.3,1.5c-0.5-0.1-1.6-0.1-3.2-0.1c-3.2,0-8,0.2-12.3,0.4C131,246.4,128,246.5,126.4,246.5z
							 M97.4,243.6c4.3,0,9.7,0.2,13.6,0.5c6.8,0.6,10.6,0.9,15.3,0.9l0.1,0.8V245c1.6,0,4.8-0.1,8.1-0.2c2.9-0.1,6-0.2,8.7-0.3
							c-5.5-1.2-12.9-2.8-15.7-2.9c-4.5-0.2-7.2,1.5-7.2,1.5l-1-0.2c-0.1-0.1-2.3-2.7-6.4-2.7c-0.8,0-1.6,0.1-2.4,0.3
							C107.1,241.2,101.6,242.5,97.4,243.6z"/>
					</g>
				</g>
			</g>
		</g>
		<g>
			<g>
				<g>
					<g>
						<path fill="#231F20" d="M103.4,247.7c0,0,8.2,3.7,12.8,4.1s19.3-3.1,22.1-3.2s3.1,1,0.7,2.4c-2.4,1.4-8.2,7.9-15.6,8.9
							c-7.4,1-14.6,0.5-17.6-3.8c-3-4.2-7.2-7.6-6.2-8.4S101.7,246.9,103.4,247.7z"/>
					</g>
				</g>
			</g>
			<g>
				<g>
					<g>
						<path fill="#231F20" d="M117.6,261c-6,0-10.2-1.5-12.3-4.5c-1.2-1.7-2.5-3.2-3.7-4.5c-1.9-2.1-2.8-3.2-2.7-4.1
							c0-0.3,0.2-0.6,0.4-0.8c1.2-1,2.4-1.1,4.5-0.1c0.1,0,8.1,3.7,12.6,4.1c2.9,0.2,9.8-1.1,15.3-2.1c3.2-0.6,5.7-1.1,6.8-1.1
							c1.8-0.1,2.8,0.3,3.1,1.2c0.2,0.8-0.4,1.7-1.9,2.6c-0.5,0.3-1.4,1-2.3,1.8c-3.1,2.6-7.8,6.4-13.6,7.2
							C121.4,260.9,119.4,261,117.6,261z M100.4,248.1c0.2,0.5,1.4,1.8,2.3,2.9c1.2,1.3,2.6,2.9,3.8,4.6c1.8,2.6,5.5,3.8,11,3.8
							c1.8,0,3.7-0.1,5.8-0.4c5.3-0.7,9.8-4.4,12.8-6.9c1-0.8,1.8-1.5,2.5-1.9c0.7-0.4,1-0.7,1.2-0.9c-0.2-0.1-0.7-0.2-1.5-0.1
							c-1,0-3.5,0.5-6.5,1.1c-5.6,1-12.6,2.4-15.7,2.1c-4.8-0.4-12.8-4-13.1-4.2C101.7,247.7,101.1,247.7,100.4,248.1z"/>
					</g>
				</g>
			</g>
		</g>
		<g>
			<g>
				<g>
					<g>
						<path fill="#231F20" d="M155.7,274.6l-0.5-0.6c5.3-4.9,7.1-14.8,7.1-14.9l0.7,0.1C163,259.7,161.2,269.6,155.7,274.6z"/>
					</g>
				</g>
			</g>
		</g>
		<g>
			<g>
				<g>
					<g>
						<path fill="#231F20" d="M121.2,222.5c-0.7,0-1.4,0-2.2-0.1c-4.5-0.6-5.5-1.8-6.9-3.5c-0.6-0.7-1.3-1.6-2.5-2.5
							c-1.5-1.2-2.7-0.9-4.3-0.5c-2,0.5-4.6,1.1-8.3-1c-1.2-0.7-2-1.7-2.4-3c-0.9-3.3,1.5-7.3,1.6-7.5l1.3,0.8c0,0-2.1,3.6-1.4,6.3
							c0.2,0.9,0.8,1.6,1.7,2.1c3.2,1.8,5.2,1.3,7.2,0.8c1.7-0.4,3.5-0.9,5.6,0.7c1.3,1,2.1,1.9,2.8,2.7c1.3,1.5,2.1,2.5,5.9,2.9
							c5.5,0.7,7.9-1.4,10-3.3c1.5-1.3,2.9-2.5,5.1-2.1c1.8,0.4,3.3,1.1,4.7,1.8c2,1,3.6,1.8,5.8,1.2c2.1-0.6,3.7-1.7,4.4-3.2
							c0.8-1.6,0.7-3.6-0.3-5.9c-2.3-5.5-6.5-7.6-6.6-7.6l0.6-1.4c0.2,0.1,4.8,2.3,7.3,8.4c1.1,2.8,1.2,5.2,0.2,7.2
							c-0.9,1.9-2.9,3.3-5.4,4c-2.7,0.7-4.7-0.3-6.8-1.3c-1.3-0.6-2.7-1.3-4.3-1.6c-1.3-0.3-2.3,0.5-3.8,1.8
							C128.4,220.4,125.9,222.5,121.2,222.5z"/>
					</g>
				</g>
			</g>
		</g>
		<g>
			<g>
				<g>
					<g>
						<path fill="#231F20" d="M158.7,218.7c-3.4-9.3-9.2-9.3-9.1-9.3l0-0.8c0.3,0,6.3,0,9.9,9.7L158.7,218.7z"/>
					</g>
				</g>
			</g>
		</g>
		<g>
			<g>
				<g>
					<g>
						<path fill="#231F20" d="M88.7,216.8l-0.7-0.3c4-8.5,7-8.4,7.4-8.4l-0.1,0.7l0-0.4l0,0.4C95.2,208.9,92.4,208.8,88.7,216.8z"/>
					</g>
				</g>
			</g>
		</g>
		<g>
			<g>
				<g>
					<g>
						<path fill="#231F20" d="M176.2,172.8c-1.8-0.5-3.3-1.6-4.9-2.8c-11.5,4.8-25.1,0.8-25.7,0.6l-0.1-1.4c0.8-0.4,3.1-1.5,3.9-2.1
							c0.1-0.1,0.3-0.3,0.6-0.6c1.6-1.6,5.3-5.4,11.4-4.2c3.9,0.8,6.9,3.2,9.4,5.3c1.9,1.6,3.8,3.1,5.8,3.7L176.2,172.8z
							 M148.1,169.7c4.1,0.9,13.6,2.3,21.9-0.8c0,0-0.1,0-0.1-0.1c-2.6-2.1-5.2-4.3-8.8-5c-5.3-1-8.5,2.2-10.1,3.8
							c-0.3,0.3-0.6,0.6-0.7,0.7C149.8,168.8,148.9,169.3,148.1,169.7z"/>
					</g>
				</g>
			</g>
		</g>
		<g>
			<g>
				<g>
					<g>
						<path fill="#231F20" d="M94.2,168.4c-4.7,0-10.6-1-14.4-5.1c-1.3,0.7-2.6,1.2-4,0.9l0.3-1.5c1.6,0.4,3.1-0.7,5-2
							c2.8-1.9,6.2-4.2,11.4-3.2c7.4,1.5,9.6,8.9,9.7,9.2l-0.6,0.9C101.4,167.7,98.2,168.4,94.2,168.4z M81.1,162.5
							c5.6,5.8,16.3,4.4,19.4,3.8c-0.8-1.8-3.1-6.3-8.3-7.3c-4.5-0.9-7.5,1.1-10.2,2.9C81.7,162.1,81.4,162.3,81.1,162.5z"/>
					</g>
				</g>
			</g>
		</g>
		<g>
			<g>
				<g>
					<g>
						<path fill="#231F20" d="M91.9,175c-2,0-4.1-0.2-6.4-0.5c-6.7-0.8-8.8-7-8.8-7.1l0.7-0.2c0,0.1,1.9,5.8,8.1,6.6
							c6.7,0.8,11.6,1.1,17.9-3l0.4,0.6C99.6,174.1,95.8,175,91.9,175z"/>
					</g>
				</g>
			</g>
		</g>
		<g>
			<g>
				<g>
					<g>
						<path fill="#231F20" d="M162.1,180.3c-3.7,0-7.3-0.6-9.7-1.5c-4-1.4-5.6-4.4-5.7-4.5l0.7-0.4c0,0,1.6,2.9,5.3,4.2
							c4,1.4,12.4,2.2,17.1,0.1c4.8-2.2,5.8-3.3,5.8-3.3l0.6,0.5c0,0-1.1,1.2-6.1,3.5C167.9,179.9,165,180.3,162.1,180.3z"/>
					</g>
				</g>
			</g>
		</g>
		<g>
			<g>
				<g>
					<g>
						<path fill="#231F20" d="M89.3,167.2c0,0-3-1.8-2.5-4.4s2.2-3.9,4.3-3.8c2.1,0.1,5.2,1.3,4.9,4.4
							C95.7,166.4,94.3,168.1,89.3,167.2z"/>
					</g>
				</g>
			</g>
			<g>
				<g>
					<g>
						<path fill="#231F20" d="M91.6,168.2c-0.7,0-1.5-0.1-2.4-0.2l-0.3-0.1c-0.1-0.1-3.4-2.1-2.9-5.2c0.5-2.7,2.3-4.5,4.8-4.5l0.3,0
							c1.5,0.1,3.4,0.6,4.6,2c0.8,0.9,1.1,2,1,3.2C96.5,165.7,95.7,168.2,91.6,168.2z M89.6,166.5c0.8,0.1,1.4,0.2,2,0.2
							c2.4,0,3.3-0.9,3.6-3.4c0.1-0.8-0.1-1.5-0.6-2.1c-0.9-1-2.5-1.5-3.6-1.5l-0.2,0c-1.7,0-3,1.2-3.3,3.2
							C87.2,164.8,89.1,166.2,89.6,166.5z"/>
					</g>
				</g>
			</g>
		</g>
		<g>
			<g>
				<g>
					<g>
						<path fill="#231F20" d="M157,171.6c0,0-3.6-0.3-3.9-2.7c-0.3-2.4,0.8-5.2,3.5-5.6s5.8,0.5,6.1,3.6
							C162.9,169.9,161.1,171.9,157,171.6z"/>
					</g>
				</g>
			</g>
			<g>
				<g>
					<g>
						<path fill="#231F20" d="M157.8,172.3c-0.3,0-0.6,0-0.9,0c-0.2,0-4.2-0.4-4.6-3.4c-0.3-2.8,1-6,4.2-6.4
							c0.4-0.1,0.8-0.1,1.2-0.1c3.3,0,5.5,1.7,5.7,4.3c0.1,1.6-0.2,3-1.1,4C161.3,171.8,159.8,172.3,157.8,172.3z M157.7,163.9
							c-0.3,0-0.7,0-1,0.1c-2.5,0.3-3.1,3-2.9,4.7c0.2,1.8,3.2,2.1,3.2,2.1c1.9,0.1,3.4-0.2,4.2-1.1c0.6-0.7,0.8-1.6,0.7-2.8
							C161.7,164.2,158.9,163.9,157.7,163.9z"/>
					</g>
				</g>
			</g>
		</g>
		<g>
			<g>
				<g>
					<g>
						<path fill="#231F20" d="M71.7,143.3l-0.5-1.4c0,0,0,0,0,0l-0.3-0.6l1-0.6l1.1,0.6c0,0,0,0,0,0.1c1.3-0.4,2.7-0.7,4-0.9
							l-2.5-0.3l-0.3-1.4c2.2-1.2,4.7-1.6,7.2-1.7c-1.3-0.3-2.6-0.6-3.9-0.8l0.1-1.5c2.4,0,4.9,0,7.3,0.2c-1.6-0.3-3.2-0.4-4.8-0.4
							l-0.2-1.5c1.5-0.4,3.1-0.6,4.6-0.5c-0.4-0.1-0.8-0.2-1.2-0.3l-0.1-1.4c2.1-1,4.6-0.7,7.7,0.7c0.6,0,1.3,0.1,1.9,0.1l-0.4-0.2
							l0.6-1.4c0.7,0.2,1.4,0.4,2.1,0.7l0.2-0.4c0,0,0,0,0,0l0,0h0c0.1,0,0.1,0,0.2,0.1c1.2,0.5,2.5,1,3.8,1.5c-0.3-0.3-0.7-0.7-1-1
							l1-1.1c1.7,1.3,3.4,2.4,5.2,3.5c0,0,0,0,0,0l0.7,0.2c1.6,0.4,3.5,0.9,4.2,2.7l-1.4,0.5c-0.3-0.9-1.4-1.3-2.5-1.6l-0.1,0.4
							c-0.4-0.1-0.8-0.2-1.2-0.3l-0.7,1.2c-1.3-0.8-2.6-1.4-3.9-2.1l-0.5,0.9c0,0,0,0-0.1,0l-0.2,1.1c-1.3-0.1-2.6-0.4-3.7-0.9
							l-0.4,1c-1.3-0.4-2.8-0.9-4.3-1.3c0.5,0.2,1.1,0.5,1.6,0.7l-0.5,1.4c-2.2-0.3-4.4-0.6-6.7-0.7c0.7,0.2,1.4,0.5,2.1,0.8
							l-0.3,1.4c-2.6-0.1-5.7-0.3-8.5,0.3l6.5,0.7l-0.1,1.5C80,141.3,75.8,142,71.7,143.3z M87.6,132c0.6,0.2,1.3,0.4,1.9,0.6l0,0
							C88.8,132.4,88.2,132.2,87.6,132z"/>
					</g>
				</g>
			</g>
		</g>
		<g>
			<g>
				<g>
					<g>
						<path fill="#231F20" d="M188.4,148.8l-3.7-0.5l-0.4-1.3l0.6-0.5c-1.2-0.5-2.5-0.8-3.7-0.7l-0.4-1.4l0.8-0.4
							c-2.2-0.1-4.4,0.1-6.5,0.6l-0.3-1.5l5.6-1.3c-3.4,0.1-6.9,0.4-10.3,0.8c-0.4,0.1-0.9,0.1-1.3,0.2l-0.2-1.5
							c0.4-0.1,0.9-0.1,1.3-0.2c3.6-0.5,7.1-1.5,10.4-2.8c-1.2-0.2-2.5-0.1-3.9,0.2c-0.7,0.1-1.4,0.2-2,0.4l0,0.4
							c-3.7,1.3-7.6,2.3-11.5,2.8l-0.3-1.5c1.9-0.7,3.8-1.3,5.7-1.8c-0.9,0.1-1.8,0.2-2.7,0.4c-2.7,1.3-5.6,2.2-8.5,2.9l-0.4-1.4
							c2.9-1.2,5.7-2.3,8.5-2.9c0.1-0.1,0.3-0.1,0.4-0.2c-1.9,0.1-3.8,0.4-5.7,0.9c-1.7,0.9-3.4,1.5-5.3,1.9l-0.3-1
							c-0.5,0.1-0.9,0.3-1.4,0.4c-0.5,0.2-1.1,0.4-1.6,0.5l-0.3-0.8c-0.4,0.2-0.8,0.5-1.1,0.7l-0.9-1.2c2.5-1.8,5.5-2.8,8.5-2.9
							l0.2,0.7c1-0.3,2.1-0.5,3.1-0.7l0.2,0.5c2.5-0.5,5.1-0.7,7.6-0.6l0.3,1.2c1.5-0.1,3,0,4.4,0.3c1-0.2,1.9-0.4,2.9-0.6
							c2.3-0.4,4.6-0.6,6.5,0.7l-0.1,1.3c-1.1,0.5-2.2,1-3.3,1.4c0.7,0,1.4-0.1,2.2-0.1c1.5,0,2.5,0.4,2.8,1.3l-0.5,1l-0.4,0.1
							c0.4,0,0.7,0.1,1.1,0.1l0.2,1.4l-0.8,0.4c1,0.2,2,0.6,2.9,1.2l0.1,1.2l-0.1,0.1l2,0.3L188.4,148.8z"/>
					</g>
				</g>
			</g>
		</g>
		<g>
			<g>
				<g>
					<g>
						<path fill="#231F20" d="M112.9,207.7c-1.7-2.8-1.2-7.2-1.2-7.4l0.7,0.1c0,0-0.5,4.4,1.1,7L112.9,207.7z"/>
					</g>
				</g>
			</g>
		</g>
		<g>
			<g>
				<g>
					<g>
						<path fill="#231F20" d="M129.9,208.1l-0.5-0.5c3.2-3.3,2.3-6.9,2.3-6.9l0.7-0.2C132.4,200.7,133.4,204.5,129.9,208.1z"/>
					</g>
				</g>
			</g>
		</g>
		<g>
			<g>
				<g>
					<g>
						<path fill="#231F20" d="M119.3,263.5c-7.3,0-11.7-2.1-11.8-2.1l0.3-0.7c0.1,0,10.2,4.8,25.2-0.4l0.2,0.7
							C128,262.9,123.2,263.5,119.3,263.5z"/>
					</g>
				</g>
			</g>
		</g>
		<g>
			<g>
				<g>
					<g>
						<path fill="#231F20" d="M124.2,271c-2.3,0-4.2-0.2-5.9-0.4c-5.7-0.7-9-2.3-9.1-2.4l0.3-0.7c0.1,0.1,13.2,6.2,32.7-0.5l0.2,0.7
							C135.3,270.2,129.1,271,124.2,271z"/>
					</g>
				</g>
			</g>
		</g>
		<g>
			<g>
				<g>
					<g>
						<path fill="#231F20" d="M99.7,158.7c-4.2-4.3-6.3-4.2-10.5-4.1l-0.4,0c-4.3,0.1-7.8,3.4-7.8,3.4l-0.5-0.5
							c0.1-0.1,3.7-3.5,8.3-3.6l0.4,0c4.3-0.1,6.7-0.2,11.1,4.3L99.7,158.7z"/>
					</g>
				</g>
			</g>
		</g>
		<g>
			<g>
				<g>
					<g>
						<path fill="#231F20" d="M171.2,164.2c-0.1-0.1-0.3-0.3-0.5-0.4c-1.8-1.6-5.6-4.9-10.5-5.1c-5.4-0.3-9.5,1.9-9.6,1.9l-0.3-0.7
							c0.2-0.1,4.3-2.2,9.9-2c5.1,0.2,9.1,3.6,11,5.2c0.2,0.2,0.4,0.3,0.5,0.4L171.2,164.2z"/>
					</g>
				</g>
			</g>
		</g>
		<g>
			<g>
				<g>
					<g>
						<path fill="#231F20" d="M111,180.2c-0.2,0-0.4,0-0.6-0.1c-1.9-0.6-1.7-3.7-1.7-4.7l1.5,0.1c-0.1,2.2,0.3,3.1,0.6,3.2
							c0.9,0.3,3.3-2.1,4.4-3.8c1.2-1.9,1.4-7.4,0.7-8c-0.5-0.1-2.1,1.3-3.1,2.7l-1.2-0.9c0.7-0.9,2.9-3.8,4.8-3.3
							c0.5,0.1,0.8,0.5,1.1,1.1c0.8,2,0.2,7.2-1,9.1C116.6,175.8,113.6,180.2,111,180.2z"/>
					</g>
				</g>
			</g>
		</g>
		<g>
			<g>
				<g>
					<g>
						<path fill="#231F20" d="M137.6,181.3c-2.7,0-5.5-0.5-6.4-5.7c-0.6-3.1-0.2-5.9,0-7.4c0-0.2,0-0.3,0.1-0.5l-0.6-0.4
							c0.4-0.6,0.9-1.2,1.6-1c0.7,0.3,0.6,0.9,0.4,2c-0.2,1.4-0.6,4.1-0.1,6.9c0.8,4.4,2.9,4.4,5,4.4L137.6,181.3z"/>
					</g>
				</g>
			</g>
		</g>
		<g>
			<g>
				<g>
					<g>
						<path fill="#FFFFFF" d="M191.6,74.5c-3.7-4.5-7.9-8.6-12.4-12.3c-2.4-1.9-5.3-4.1-8.7-5.5c-3.5-1.4-7-1.7-10-0.8l-0.2-0.7
							c3.1-0.9,6.9-0.6,10.5,0.9c3.5,1.4,6.5,3.6,8.9,5.6c4.6,3.7,8.8,7.8,12.5,12.4L191.6,74.5z"/>
					</g>
				</g>
			</g>
		</g>
		<g>
			<g>
				<g>
					<g>
						<path fill="#FFFFFF" d="M180.6,73.8c-7.9-9.4-19.4-15.5-31.6-16.6l0.1-0.7c12.4,1.1,24.1,7.2,32.1,16.8L180.6,73.8z"/>
					</g>
				</g>
			</g>
		</g>
		<g>
			<g>
				<g>
					<g>
						<path fill="#FFFFFF" d="M176.2,77.3c-0.6-1.1-1.9-1.8-2.9-2.3c-7.3-3.8-14.8-7.8-22.7-10.5c-8.9-3-17.1-4.1-24.6-3.1l-0.1-0.7
							c7.5-1,15.9,0,24.9,3.1c8,2.7,15.5,6.7,22.9,10.5c1.1,0.6,2.5,1.3,3.2,2.6L176.2,77.3z"/>
					</g>
				</g>
			</g>
		</g>
		<g>
			<g>
				<g>
					<g>
						<path fill="#FFFFFF" d="M164,76.6c-2.8-2-6.1-4.3-9.8-5.6c-2.7-1-6.8-1.9-11-0.8l-0.2-0.7c4.4-1.2,8.6-0.2,11.5,0.8
							c3.8,1.4,7.2,3.7,10,5.7L164,76.6z"/>
					</g>
				</g>
			</g>
		</g>
	</g>
</g>
<g id="圖層_3">
</g>
<g id="圖層_4">
</g>
<g id="圖層_5">
</g>
</svg>
