<?xml version="1.0" encoding="utf-8"?>
<!-- Generator: Adobe Illustrator 18.1.0, SVG Export Plug-In . SVG Version: 6.00 Build 0)  -->
<svg version="1.1" xmlns="http://www.w3.org/2000/svg" xmlns:xlink="http://www.w3.org/1999/xlink" x="0px" y="0px"
	 viewBox="0 0 267 294" enable-background="new 0 0 267 294" xml:space="preserve">
<g id="圖層_1">
	<g>
		<g id="XMLID_118_">
			<g>
				<g>
					<g>
						<g>
							<path fill="#231F20" d="M152.6,7.6c0.1,0.4,0.3,0.9,0.3,1.5C152.4,8.8,152.4,8.1,152.6,7.6z M10.2,158.4
								c0.1,0,0.3-0.1,0.5-0.1C10.5,158.3,10.4,158.3,10.2,158.4z M10.2,158.4c-1.7,0.4-2.9,2.2-2.8,3.9c0.2,1.9,1.9,3.2,3.7,3.4
								c-3.4-0.5,3.2,19.9,3,21.3c-0.2,1.4-6.6,17.3,1.6,12.7c-1.2,1.6-1.5,3.9-0.8,5.8c0.7,1.9,2.5,3.4,4.5,3.7
								c1.7,2.7,2.8,5.8,3.2,9c1.6,0.5,3.3,0.6,4.9,0.2c-1,2.7,2,5.9,4.8,5.2c0.3-0.4,0.6-0.9,0.9-1.3c0.7,1.8,1.5,3.6,2.8,5
								c2.9,2.9,9.3,2.7,12.9,3.8c1.6,0.5,2.9,1.8,4.6,2.3c1.6,0.5,4-0.5,3.7-2.2l0.6,0c-0.5-2.6-1-4.9-1.2-6.1
								c-1.5-1.8-2.7-3.7-3.4-5.5c-2.7-7-5-24.6-4.7-30.6c0.1-1.6,0.4-3.2,0.7-4.6c0,0-0.9-11.3,0-23c1-11.7,0.6-20,5.6-32
								s11.7-24,25.6-31.6s20.6-1.7,25,0c4.3,1.7,7.3-3.3,16-3.8c8.5-0.5,16.2-3.8,25-2.7c6.2,0.8,12,3.3,16.9,7.1
								c3.4,2.6,4,4,4.8,7.7c0.3,1.5,2.9,7.8,5.1,3.5c-0.9,1.6-0.7,3.8,0.6,5.2c1.2,1.4,3.4,1.9,5.1,1.2c-0.7,1.6-0.5,3.6,0.7,4.9
								c1.6,1.7,3.3,0.5,4.8,1.3c2.1,1.1,5.7,6.2,6,8.6c0.4,3-3.4,7.1,1.6,8.7c-0.8,0.8-1.6,1.8-1.9,2.9c-0.5,2.3,2,4.7,4.3,4.1
								c-0.5,1.1-1,2.4-0.4,3.4c0.7,1.3,2.6,1.2,4,1c-0.3,0.7-0.7,1.4-0.7,2.1c0,0.8,0.4,1.6,1.1,1.8c0.7,0.2,1.8-0.1,2.2,0.5
								c0.8,1.3,0,3.6,0,5c-0.1,3.3,1,4.6,0.1,7.8c-0.5,1.7-2,7.4,2.4,5.8c-0.7,1-1.4,2.1-1.7,3.3c-0.2,1.2,0.2,2.6,1.3,3.2
								c0.2,0.1,0.4,0.2,0.5,0.4c0.1,0.2,0,0.3,0,0.5c-0.3,0.9-0.6,1.7-0.9,2.6c2.5,1.6,2.3,0.5,3.1,3c0.6,1.7,0.2,4.1,0.6,6
								c0.9,3.6,2.6,7.2,5.6,9.6c1.3-1.5,1.9-3.4,2.1-5.3c2,1.9,5.5,1.2,7.1,3.5c2,3-0.8,5.4-1.7,8.1c-0.8,2.3-0.8,5.3-1.3,7.7
								c-0.6,3.4-1.3,7-2.1,10.6l0.3,0.1c2.8,3.1,3.5,7.5,5.8,10.9c2.4,3.4,8.3,5,10.2,1.4c0,0.6,9.4-1.1,10.4-1.7
								c3.9-2.3,5.2-5.4,7.2-9.2c1.8-3.4,3-6,5.4-9.6c2.3-3.6,4.4-7.5,1.3-11.5c5.4-1.5,8.1-9,4.7-13.5c2.1-0.1,4-1.5,4.8-3.3
								c0.7-1.7,0.2-15-1.4-16.2c2.7-5.8-2.2-12-4.8-17.9c-2.3-5.2-2.6-11.1-1.1-16.6c0.9-3.1,1.3-8-2-8.1c3.3-0.6,3.5-5.3,2.7-8.6
								c-1.5-5.9-5-12.1-5.5-18.1c-0.3-3.9,1.1-8.3-4.5-9.3c0.6-0.4,0.8-1,0.8-1.7c-0.1-1.3-0.2-2.7-0.9-3.8c-0.7-1.2-2-2.1-3.3-1.8
								c1-1.2,1-3.1,0.2-4.4c-1.7-2.6-3.8-1.5-5.5-4.4c-0.6-0.9-1.9-9.7-2.3-9.7c-3.1-0.3-3.4-4.7-2.8-7.8c-1.5,0-3,0.1-4.5,0.1
								c-2.6-4.1-2.4-7.1-3.8-11.6c-0.3-1-0.7-2-1.5-2.6c-0.8-0.6-2.2-0.6-2.7,0.2c-0.1-2.1-0.3-4.2-1.4-6c-1.1-1.7-3.5-2.8-5.3-1.8
								c0.4-1.8,0.1-3.7-0.8-5.2c-1.7-0.4-3.7,1.1-5.1,0.6c-1.5-0.6-3.3-3.3-4.5-4.5c0.8-1.2,1.7-2.4,2.5-3.5
								c-4.4-3.1-8.8-6.2-13.3-9.3c-1.1-0.8-2.4-1.6-3.7-1.3c-0.3,0.1-0.6,0.3-0.8,0.5c0.5,0.8,0.7,1.6,0.2,2.4
								c-1-0.3-0.9-1.7-0.2-2.4c-0.6-0.9-1.7-1.7-2.7-2.2c-5.4-2.6-10.7-3.4-16.4-5c-3.4-0.9-5.6-4.7-8.9-4.9
								c-2.2-0.1-4.3,1.3-5.1,3.3c-0.8-0.8-1.5-1.6-2.1-2.5c-0.8,0-1.7,0-2.3,0.4c-0.2,0.1-0.3,0.3-0.4,0.5c-1.3-3.7-5.1-2.1-8-2.1
								c-3.7-0.1-6.9-2-10.7-2.8c-4.8-0.9-12.7-1.4-17.4-0.6c-1.7,0.3-3.2,2-2.7,3.6c-1-2.4-3.4-4.1-5.9-4.2
								c-2.6-0.1-5.1,1.3-6.3,3.5c0.5-2.1-2-4.2-4.1-3.7c-2.5,0.5-2.1,3.5-4,4c-1.7,0.5-4-2.2-6.6-1.1c-2.4,1-4.1,3.4-4.6,6
								c-1.2-1.6-3.2-2.9-5.2-2.6c-2,0.3-3.7,2.6-2.8,4.5c-2.7-0.8-15,13.6-16.1,12.8c-3-2.4-8.1,2.2-6,5.4
								c-2.3-0.9-4.6,1.3-6.2,3.3c-1.6,2-2.3,3-4.6,3.8c-2.9,1-4.8-1.2-7,2.6c-0.3,0.6-0.6,1.2-0.5,1.9c0,0.3,0.2,0.6,0.5,0.8
								c0.3,0.1,0.6,0.1,0.9,0.3c-0.3,0.1-0.6-0.1-0.9-0.3c-2.7-0.5-5.8,1.8-5.8,4.6c0,0.5,0.1,1.1-0.1,1.5c-0.3,1-1.4,1.3-2.3,1.8
								c-4.9,2.7-3.6,8.1-3.6,12.5c0,5.6-3.2,9.8-5.6,14.9c-1.5,3.2-3.7,6.9-7.2,6.6c-0.7,2.8,0.3,6.1,2.6,7.8
								c-4.7-3.6-6,15.4-6.1,16c-0.6,4-6,10.2,1.3,11.8c-3.1,2.1-4.8,6.4-3.1,9.9c-2,0.7-3.6,2.7-3.3,4.8c0.5,3.4,3.5,1.7,4.9,3.3
								c1.7,2,4.4,8.3,4.1,10.9C9.8,151.5,3.6,159.5,10.2,158.4z"/>
						</g>
					</g>
				</g>
				<g>
					<g>
						<g>
							<path fill="#FFFFFF" d="M56.7,225.2c0.2,1.2,0.7,3.4,1.2,6.1c0.4,1.8,0.8,3.8,1.2,5.8c1.3,6.4,12.9,23.3,18.6,27.1
								c2.9,1.9,6.1,3.6,8.9,4.8c2,3.5,16.4,16.9,19.8,18.6c6.8,3.4,9.4,6.2,33.6,5.1c12.3-2.7,19.3-8.2,23-12.3
								c0,0,2.8,0.9,17.5-5.8c14.7-6.7,21.3-20,28-29.3c3.7-5.2,5.7-11.7,7.2-18.3c0.8-3.6,1.5-7.2,2.1-10.6
								c0.5-2.4,0.5-5.4,1.3-7.7c0.9-2.7,3.7-5,1.7-8.1c-1.6-2.3-5.1-1.6-7.1-3.5c-0.3,1.9-0.8,3.9-2.1,5.3c-2.9-2.4-4.7-6-5.6-9.6
								c-0.4-1.9,0-4.2-0.6-6c-0.8-2.5-0.6-1.4-3.1-3c0.3-0.9,0.6-1.7,0.9-2.6c0.1-0.2,0.1-0.4,0-0.5c-0.1-0.2-0.3-0.3-0.5-0.4
								c-1.1-0.6-1.5-2-1.3-3.2c0.2-1.2,0.9-2.3,1.7-3.3c-4.4,1.6-2.9-4.1-2.4-5.8c0.9-3.2-0.1-4.4-0.1-7.8c0-1.4,0.8-3.6,0-5
								c-0.4-0.7-1.4-0.3-2.2-0.5c-0.7-0.2-1.1-1.1-1.1-1.8c0-0.8,0.4-1.5,0.7-2.1c-1.5,0.2-3.3,0.3-4-1c-0.6-1-0.1-2.3,0.4-3.4
								c-2.3,0.6-4.8-1.8-4.3-4.1c0.2-1.1,1-2.1,1.9-2.9c-5-1.6-1.2-5.7-1.6-8.7c-0.3-2.4-3.9-7.4-6-8.6c-1.5-0.8-3.2,0.5-4.8-1.3
								c-1.2-1.3-1.5-3.3-0.7-4.9c-1.7,0.7-3.9,0.2-5.1-1.2c-1.2-1.4-1.5-3.6-0.6-5.2c-2.2,4.3-4.8-2-5.1-3.5
								c-0.8-3.7-1.4-5.1-4.8-7.7c-5-3.8-10.7-6.3-16.9-7.1c-8.8-1.1-16.4,2.2-25,2.7c-8.7,0.5-11.7,5.5-16,3.8
								c-4.3-1.7-11-7.7-25,0S60,117.5,55,129.5s-4.7,20.3-5.6,32c-0.9,11.7,0,23,0,23c-0.3,1.5-0.6,3.1-0.7,4.6
								c-0.3,6,2,23.6,4.7,30.6C54,221.5,55.3,223.4,56.7,225.2z"/>
						</g>
					</g>
				</g>
			</g>
			<g>
				<g>
					<g>
						<g>
							<path fill="#231F20" d="M130.3,294.5c-14.1,0-17.9-2-22.9-4.6c-0.5-0.3-1.1-0.6-1.7-0.9c-3.8-1.9-18.3-15.6-20.4-19.2
								l2.5-1.5c1.8,3.1,16,16.4,19.2,18.1c0.6,0.3,1.2,0.6,1.7,0.9c5.5,2.9,9.5,5,31,4c11.8-2.7,18.6-7.9,22.1-11.8
								c2.5-2.8,3.5-4.9,3.5-4.9l2.7,1.2c0,0.1-1.1,2.6-4,5.7c-3.9,4.3-11.1,9.9-23.8,12.8l-0.3,0
								C136.4,294.4,133.1,294.5,130.3,294.5z"/>
						</g>
					</g>
				</g>
				<g>
					<g>
						<g>
							<path fill="#231F20" d="M125,290.8c-0.4,0-0.8,0-1.2,0c-13.3-0.4-23-9.8-28.3-14.9c-1.2-1.2-2.6-2.6-3.1-2.7
								c-0.9-0.3-3.4-1.3-6.5-2.7c-3.4-1.6-6.4-3.2-9.1-5c-6-3.9-17.9-21.2-19.3-28c-0.4-2-0.8-4-1.2-5.8c-0.4-1.9-0.7-3.5-0.9-4.8
								l-0.4-2.3L58,224l0.4,2.3c0.2,1.2,0.6,2.9,0.9,4.8c0.4,1.8,0.8,3.8,1.2,5.8c1.3,6.1,12.7,22.7,18,26.1
								c2.5,1.6,5.4,3.2,8.7,4.7c3,1.4,5.4,2.3,6.3,2.7c1,0.4,2,1.4,4.1,3.4c4.9,4.8,14.1,13.7,26.3,14.1
								c14.9,0.4,24.2-7.3,27.6-10.7c2-2,7.7-6.4,7.9-6.6l1.8,2.3c-0.1,0-5.7,4.4-7.6,6.3C150.1,282.7,140.3,290.8,125,290.8z"/>
						</g>
					</g>
				</g>
				<g>
					<g>
						<g>
							<path fill="#231F20" d="M66.1,236.2c-0.3-0.2-6.2-4.7-10.5-10c-1.7-2.1-2.9-4.1-3.6-5.9c-2.8-7.4-5.1-25.4-4.8-31.2
								c0.1-1.5,0.3-3.2,0.7-4.9c1-4.3,2.7-7.8,2.7-8l2.6,1.3c0,0-1.6,3.4-2.5,7.4c-0.4,1.6-0.6,3.1-0.7,4.4
								c-0.3,5.5,1.9,23.1,4.6,30c0.6,1.5,1.6,3.2,3.2,5.1c4.1,5,9.9,9.5,10,9.6L66.1,236.2z"/>
						</g>
					</g>
				</g>
				<g>
					<g>
						<g>
							<path fill="#231F20" d="M163.4,281.9c-0.4,0-0.7,0-0.8-0.1l0.8-2.8c0,0,0,0,0,0c0.4,0,3.9-0.1,16.4-5.7
								c11.7-5.3,18.1-15,23.8-23.5c1.2-1.9,2.4-3.6,3.6-5.3c3.8-5.4,5.7-12.3,7-17.8c0.7-3,1.2-6,1.8-8.8l0.3-1.7
								c0.2-0.9,0.3-1.8,0.4-2.8c0.2-1.7,0.4-3.5,1-5.1c0.3-0.9,0.8-1.7,1.2-2.5c1.1-1.9,1.6-2.9,0.7-4.3c-0.5-0.8-1.4-1-2.8-1.4
								c-0.6-0.2-1.3-0.3-2-0.6c-0.4,1.6-1.1,2.9-2,4l-2,0.2c-3.6-3-5.3-7.3-6-10.4c-0.2-1-0.3-2.1-0.3-3.1c0-1,0-2-0.3-2.7
								c-0.1-0.3-0.3-0.9-0.4-1.1c-0.1,0-0.1-0.1-0.2-0.1c-0.4-0.2-1-0.4-1.9-1l-0.6-1.7l0.7-2c-1.3-1-1.9-2.7-1.5-4.5
								c0.1-0.5,0.3-1,0.5-1.5c-0.3-0.1-0.6-0.3-0.8-0.5c-1.3-1.2-1.4-3.6-0.4-7.2c0.5-1.7,0.3-2.6,0.1-4c-0.1-0.9-0.3-2-0.3-3.4
								c0-0.5,0.1-1,0.2-1.6c0.1-0.8,0.3-1.7,0.1-2.3c-0.1,0-0.1,0-0.2,0c-0.4,0-0.8,0-1.3-0.2c-1.3-0.4-2.2-1.7-2.1-3.3
								c0-0.2,0-0.4,0-0.5c-1.2-0.1-2.4-0.5-3.2-1.8c-0.5-0.9-0.5-1.9-0.4-2.8c-0.8-0.2-1.5-0.7-2.1-1.3c-1.3-1.2-1.9-2.9-1.5-4.5
								c0.2-0.8,0.5-1.5,1-2.1c-2.5-1.8-1.7-4.6-1.2-6.5c0.3-0.9,0.5-1.9,0.5-2.5c-0.2-1.8-3.5-6.5-5.3-7.5
								c-0.3-0.1-0.6-0.1-1.2-0.1c-1,0-2.6,0.1-4-1.5c-1-1.1-1.5-2.6-1.5-4.1c-1.6-0.1-3.3-0.8-4.4-2c-0.8-0.9-1.3-2.1-1.4-3.3
								c0,0,0,0,0,0c-3-0.4-4.5-6.1-4.5-6.1c-0.7-3.4-1.2-4.5-4.3-6.8c-4.9-3.7-10.5-6-16.2-6.8c-5.1-0.6-9.8,0.3-14.8,1.3
								c-3.2,0.6-6.5,1.3-9.9,1.5c-4,0.2-6.7,1.5-9,2.5c-2.5,1.1-4.8,2.2-7.6,1.2c-0.7-0.3-1.5-0.7-2.3-1.1
								c-4.3-2.2-10.3-5.1-21.4,1c-13.8,7.6-20.2,19.3-25,30.9c-4,9.7-4.5,16.7-5.1,25.7c-0.1,1.9-0.3,3.8-0.4,5.8
								c-0.9,11.4,0,22.6,0,22.7l-2.9,0.2c0-0.1-0.9-11.6,0-23.2c0.2-2,0.3-3.9,0.4-5.8c0.6-8.9,1.1-16.5,5.3-26.6
								c4.8-11.5,11.7-24.3,26.3-32.4c12.5-6.8,19.8-3.2,24.1-1c0.8,0.4,1.5,0.7,2.1,1c1.5,0.6,2.9,0,5.3-1.1
								c2.4-1.1,5.5-2.5,10-2.8c3.2-0.2,6.4-0.8,9.5-1.4c5-1,10.2-2,15.7-1.3c6.3,0.8,12.4,3.3,17.6,7.3c3.6,2.8,4.5,4.5,5.3,8.5
								c0.3,1.2,1.3,3.3,2,3.8c0.1-0.1,0.2-0.2,0.3-0.5c0-0.1,0.1-0.1,0.1-0.2l2.6,1.4c0,0,0,0.1-0.1,0.1c-0.5,1.1-0.4,2.6,0.4,3.5
								c0.8,0.9,2.3,1.3,3.5,0.8l1.9,2c-0.5,1-0.3,2.4,0.5,3.2c0.5,0.5,0.9,0.5,1.7,0.5c0.8,0,1.7,0,2.7,0.5
								c2.4,1.3,6.4,6.6,6.8,9.7c0.2,1.3-0.2,2.5-0.6,3.7c-0.8,2.6-0.7,3.2,1.1,3.8l0.6,2.4c-0.7,0.7-1.3,1.4-1.5,2.2
								c-0.1,0.7,0.3,1.4,0.7,1.8c0.4,0.4,1.1,0.8,1.8,0.6l1.7,2c-0.2,0.4-0.8,1.6-0.5,2c0.1,0.2,0.6,0.6,2.6,0.3l1.5,2.1
								c-0.3,0.6-0.5,1.1-0.5,1.5c0,0.2,0.1,0.4,0.1,0.4c0,0,0.3,0,0.4,0c0.6,0,1.8,0,2.5,1.1c0.8,1.4,0.6,3.1,0.4,4.5
								c-0.1,0.4-0.1,0.9-0.1,1.2c0,1.1,0.1,2,0.2,2.9c0.2,1.5,0.4,3-0.2,5.2c-0.8,2.6-0.6,4-0.4,4.2c0,0,0.3,0,0.9-0.2l1.7,2.2
								c-0.6,0.9-1.2,1.8-1.4,2.7c-0.1,0.7,0.1,1.5,0.5,1.7c0.3,0.2,0.9,0.5,1.1,1.2c0.2,0.6,0,1.2,0,1.4l-0.5,1.5
								c0.2,0.1,0.4,0.2,0.5,0.2c1.4,0.6,1.6,1.2,2.2,3c0.4,1.1,0.4,2.4,0.4,3.6c0,0.9,0,1.8,0.2,2.5c0.6,2.3,1.7,5.3,3.9,7.7
								c0.4-0.9,0.7-2,0.9-3.3l2.5-0.9c0.6,0.6,1.7,0.9,2.7,1.2c1.6,0.4,3.4,0.9,4.5,2.6c1.9,2.9,0.5,5.5-0.6,7.3
								c-0.4,0.7-0.8,1.4-1,2c-0.4,1.3-0.6,2.9-0.8,4.5c-0.1,1-0.2,2-0.4,3l-0.3,1.7c-0.5,2.9-1.1,5.9-1.8,8.9
								c-1.3,5.7-3.3,13-7.4,18.8c-1.2,1.6-2.3,3.4-3.5,5.2c-5.6,8.4-12.6,18.9-25,24.6C169.8,281.1,165.2,281.9,163.4,281.9z"/>
						</g>
					</g>
				</g>
				<g>
					<g>
						<g>
							<path fill="#231F20" d="M54.6,234.3c-0.4,0-0.8-0.1-1.2-0.2c-0.9-0.3-1.7-0.8-2.4-1.2c-0.7-0.4-1.4-0.9-2.1-1.1
								c-1.1-0.4-2.6-0.6-4.1-0.8c-3.3-0.5-7-1.1-9.1-3.2c-1.1-1.1-1.9-2.6-2.5-4L33,224l-0.4,0.3c-1.6,0.4-3.3-0.2-4.5-1.5
								c-0.9-1-1.4-2.3-1.3-3.5c-1.4,0.2-2.9,0.1-4.3-0.4l-0.5-0.6c-0.4-3-1.4-5.9-2.9-8.4c-2.1-0.5-4-2.1-4.8-4.1
								c-0.6-1.5-0.6-3.1-0.1-4.6c-1,0.2-1.7,0.1-2.3-0.4c-2.1-1.7-0.5-7.2,1.1-12.2c0.2-0.7,0.5-1.5,0.5-1.6c0-0.4-0.6-2.7-1.1-4.9
								c-2.2-8.8-3.3-14-2.6-16c-1.5-0.6-2.8-1.9-3-3.7c-0.2-2,1.3-4.1,3.3-4.6l0.4,1.4c-1.3,0.4-2.4,1.8-2.2,3.1
								c0.1,1.6,1.7,2.6,3.1,2.8l-0.2,1.4c-1,1.1,1.7,11.4,2.7,15.3c0.9,3.6,1.2,4.9,1.2,5.4c0,0.3-0.2,0.8-0.5,1.9
								c-0.7,2.3-3,9.4-1.5,10.7c0.4,0.3,1.4,0.1,2.6-0.6l0.9,1.1c-1.1,1.4-1.4,3.4-0.7,5.1c0.7,1.7,2.2,2.9,4,3.3l0.5,0.3
								c1.7,2.7,2.8,5.7,3.2,8.8c1.3,0.4,2.8,0.4,4.1,0l0.9,1c-0.4,1,0,2.2,0.8,3.2c0.8,0.9,1.9,1.3,2.8,1.2l0.7-1.1l1.3,0.1
								c0.6,1.6,1.4,3.4,2.7,4.7c1.8,1.8,5.3,2.3,8.3,2.8c1.6,0.2,3.1,0.5,4.3,0.9c0.9,0.3,1.7,0.8,2.5,1.3c0.7,0.4,1.4,0.9,2.1,1.1
								c0.8,0.2,1.8,0,2.4-0.5c0.4-0.4,0.4-0.8,0.4-0.9l1.4-0.3c0.2,0.8-0.1,1.6-0.8,2.2C56.5,234,55.5,234.3,54.6,234.3z"/>
						</g>
					</g>
				</g>
				<g>
					<g>
						<g>
							<path fill="#231F20" d="M10.4,159.1l-0.4-1.4c0.2-0.1,0.4-0.1,0.6-0.1l0.2,1.4C10.7,159,10.5,159,10.4,159.1z"/>
						</g>
					</g>
				</g>
				<g>
					<g>
						<g>
							<polygon fill="#231F20" points="10.2,159.1 10.2,159.1 10.2,157.6 							"/>
						</g>
					</g>
				</g>
				<g>
					<g>
						<g>
							<path fill="#231F20" d="M9.1,159.2c-1,0-1.7-0.3-2.2-0.9c-1.1-1.5,0.2-4.2,1.3-6.5c0.5-1,1-2.1,1.1-2.6
								c0.2-2.4-2.3-8.5-3.9-10.4c-0.4-0.4-1-0.5-1.7-0.6c-1.3-0.2-3.1-0.5-3.4-3.1c-0.3-2.1,1-4.3,3.1-5.3
								c-1.1-3.2-0.1-6.8,2.5-9.2c-1.2-0.5-2-1.1-2.5-2c-1-2,0-4.5,1-6.8c0.5-1.2,1-2.3,1.1-3.3c0-0.1,0-0.3,0.1-0.5
								c0.9-10,2.5-15.4,4.8-16.4c0,0,0,0,0,0c-1.4-2-1.9-4.6-1.3-7l0.8-0.5c3.1,0.2,5.2-3.4,6.5-6.2c0.6-1.2,1.2-2.4,1.8-3.5
								c1.9-3.6,3.7-7,3.7-11c0-0.8,0-1.5-0.1-2.3c-0.2-3.9-0.3-8.4,4.1-10.8c0.2-0.1,0.4-0.2,0.5-0.3c0.7-0.3,1.3-0.7,1.5-1.2
								c0.1-0.2,0.1-0.6,0.1-0.9c0-0.1,0-0.3,0-0.4c0-1.5,0.7-2.9,2-4c1.3-1.1,3.1-1.6,4.6-1.3l-0.3,1.4c-1.1-0.2-2.4,0.2-3.4,1
								c-0.9,0.8-1.5,1.8-1.5,2.9l0,0.3c0,0.4,0,0.9-0.1,1.4c-0.4,1.1-1.3,1.6-2.2,2c-0.2,0.1-0.3,0.2-0.5,0.3
								c-3.6,2-3.5,5.7-3.3,9.5c0,0.8,0.1,1.6,0.1,2.4c0,4.4-1.9,8-3.9,11.7c-0.6,1.1-1.2,2.3-1.8,3.5c-1.4,3-3.7,6.9-7.3,7.1
								c-0.4,2.5,0.5,5.1,2.4,6.5L11.8,93l0,0l0,0c0,0,0,0,0,0c-0.6-0.4-0.9-0.3-1-0.2C10.3,93,8.2,94.9,7,107.9
								c0,0.4-0.1,0.6-0.1,0.6c-0.2,1.1-0.7,2.3-1.2,3.6c-0.9,2.1-1.7,4.2-1,5.6c0.4,0.8,1.4,1.4,2.9,1.7l0.2,1.3
								c-3.1,2.1-4.3,5.9-2.9,9l-0.4,1c-1.6,0.5-3.1,2.2-2.9,4.1c0.2,1.5,1,1.7,2.2,1.8c0.9,0.1,1.9,0.3,2.6,1.1
								c1.9,2.2,4.6,8.7,4.3,11.5c-0.1,0.8-0.6,1.8-1.2,3.1c-0.8,1.6-2.1,4.3-1.5,5c0.2,0.3,1,0.4,2,0.2l0.3,1.4
								C9.9,159.2,9.5,159.2,9.1,159.2z"/>
						</g>
					</g>
				</g>
				<g>
					<g>
						<g>
							<path fill="#231F20" d="M35,43.6L35,43.6c-0.4,0-0.9-0.2-1.2-0.5l0.6-1.2c0.3,0.1,0.7,0.2,1.1,0.3l-0.2,1.4
								C35.2,43.6,35.1,43.6,35,43.6z"/>
						</g>
					</g>
				</g>
				<g>
					<g>
						<g>
							<path fill="#231F20" d="M33.8,43.1c-0.4-0.3-0.7-0.8-0.7-1.3c-0.1-0.9,0.3-1.7,0.6-2.3c1.6-2.9,3.3-2.8,4.9-2.7
								c0.8,0,1.6,0.1,2.5-0.2c2-0.7,2.6-1.4,4.1-3.3l0.2-0.2c2-2.5,3.8-3.7,5.6-3.8c-0.3-1.7,0.6-3.3,1.8-4.4
								c1.5-1.3,3.7-2.1,5.6-0.8c0.8-0.5,3.1-2.7,5-4.5c4.6-4.5,7.9-7.5,9.9-8.1c-0.1-0.7,0-1.5,0.4-2.2c0.7-1.3,1.9-2.2,3.2-2.3
								c2-0.3,3.7,0.7,5,1.9c0.9-2.4,2.6-4.3,4.7-5.2c1.8-0.7,3.4,0,4.7,0.5c0.8,0.3,1.5,0.7,2,0.5c0.6-0.2,0.9-0.7,1.3-1.5
								c0.5-1,1.1-2.2,2.8-2.6c1.4-0.3,2.9,0.2,4,1.3c0.4,0.4,0.6,0.8,0.8,1.2c1.5-1.6,3.7-2.5,5.9-2.4c2.1,0.1,4.1,1.2,5.4,2.8
								c0-0.1,0.1-0.1,0.1-0.2c0.6-1,1.7-1.8,2.9-2c4.8-0.8,12.8-0.3,17.6,0.6c1.6,0.3,3.1,0.8,4.5,1.3c2.1,0.7,4,1.4,6.1,1.4
								c0.7,0,1.4-0.1,2.1-0.1c2.4-0.3,5.4-0.6,6.6,2.8l-1.4,0.5c-0.7-2.1-2.4-2.1-5-1.8c-0.8,0.1-1.6,0.2-2.3,0.2
								c-2.3,0-4.5-0.8-6.6-1.5c-1.4-0.5-2.8-1-4.3-1.3c-4.7-0.9-12.5-1.4-17.1-0.6c-0.8,0.1-1.5,0.6-1.9,1.3
								c-0.2,0.3-0.4,0.8-0.2,1.4l-1.4,0.5c-0.9-2.1-3-3.6-5.3-3.8c-2.3-0.1-4.6,1.2-5.6,3.2l-1.4-0.5c0.2-0.6-0.1-1.3-0.6-1.9
								c-0.7-0.7-1.8-1.1-2.6-0.9c-0.9,0.2-1.3,0.8-1.8,1.8c-0.5,0.9-1,1.9-2.2,2.2c-1,0.3-2-0.1-3-0.6c-1.1-0.5-2.3-1-3.5-0.5
								c-2,0.9-3.6,2.9-4.2,5.4l-1.3,0.3C80.6,9.4,78.9,8,77,8.3c-0.9,0.1-1.7,0.7-2.1,1.6c-0.2,0.4-0.5,1.1-0.1,1.8l-0.9,1
								c-1.2-0.3-6.9,5.2-9.6,7.8c-4.9,4.7-5.8,5.5-6.7,4.8c-1.2-1-2.9-0.4-4,0.6c-1.1,1-1.8,2.6-1,3.9l-0.9,1.1
								c-1.5-0.6-3.3,0.5-5.3,3.1l-0.2,0.2c-1.5,1.9-2.4,3-4.7,3.8c-1.2,0.4-2.1,0.3-3,0.3c-1.5-0.1-2.4-0.1-3.5,2
								c-0.2,0.4-0.5,0.9-0.4,1.4c0,0.1,0.1,0.3,0.2,0.4L33.8,43.1z"/>
						</g>
					</g>
				</g>
				<g>
					<g>
						<g>
							<path fill="#231F20" d="M152.6,9.7c-0.8-0.4-1.1-1.5-0.6-2.5l1.4,0.1c0.2,0.5,0.3,1.1,0.3,1.6L152.6,9.7z"/>
						</g>
					</g>
				</g>
				<g>
					<g>
						<g>
							<polygon fill="#231F20" points="152.6,8.3 151.9,7.9 152.1,7.1 152.6,7.6 152.6,6.9 152.6,7.6 153.3,7.3 152.6,7.6 
								152.6,7.6 152.6,7.6 152.6,7.6 							"/>
						</g>
					</g>
				</g>
				<g>
					<g>
						<g>
							<path fill="#231F20" d="M189.9,18.4c-0.5-0.7-1.4-1.5-2.4-1.9c-3.9-1.9-7.7-2.8-11.8-3.8c-1.5-0.4-2.9-0.7-4.4-1.1
								c-1.7-0.5-3.1-1.6-4.4-2.6c-1.4-1.1-2.8-2.2-4.3-2.3c-1.9-0.1-3.7,1.1-4.4,2.8l-1.2,0.2c-0.7-0.7-1.4-1.5-1.9-2.3
								c-0.6,0-1.1,0-1.5,0.3c-0.1,0.1-0.1,0.2-0.2,0.3L152,7.2c0.2-0.3,0.4-0.6,0.6-0.8c0.9-0.7,2-0.6,2.8-0.6l0.6,0.3
								c0.4,0.6,0.8,1.2,1.3,1.7c1.1-1.7,3.2-2.9,5.3-2.8c2,0.1,3.6,1.4,5.1,2.6c1.2,1,2.5,2,3.9,2.4c1.5,0.4,2.9,0.8,4.4,1.1
								c4.2,1,8.1,2,12.1,3.9c1.3,0.6,2.4,1.5,3,2.5L189.9,18.4z"/>
						</g>
					</g>
				</g>
				<g>
					<g>
						<g>
							<path fill="#231F20" d="M190.5,21.1c-0.6-0.2-1-0.6-1.1-1.2c-0.2-0.8,0-1.7,0.6-2.4l1.1,0.1c0.8,1.1,0.8,2.3,0.2,3.2
								L190.5,21.1z"/>
						</g>
					</g>
				</g>
				<g>
					<g>
						<g>
							<path fill="#231F20" d="M232.6,240.3c-0.4,0-0.7,0-0.9-0.1l-0.4-0.7h1.5c0-0.4-0.3-0.6-0.4-0.6c0.9,0.2,8.8-1.2,9.7-1.7
								c3.2-1.9,4.5-4.3,6.1-7.5c0.2-0.5,0.5-0.9,0.7-1.4c0.4-0.8,0.8-1.5,1.1-2.2c1.3-2.5,2.4-4.6,4.3-7.4
								c2.3-3.6,4.2-7.1,1.4-10.7l0.4-1.2c2.3-0.6,4.2-2.5,5.1-5.1c0.9-2.6,0.6-5.3-0.8-7.2l0.6-1.2c1.8-0.1,3.5-1.3,4.2-2.9
								c0.7-1.6,0-14.2-1.2-15.4l-0.2-0.9c1.9-4.2-0.5-8.7-2.8-13.2c-0.7-1.4-1.4-2.8-2-4.1c-2.3-5.4-2.7-11.4-1.1-17.1
								c0.7-2.3,0.9-5.2,0-6.5c-0.3-0.4-0.7-0.6-1.3-0.6l-0.1-1.4c0.7-0.1,1.3-0.5,1.7-1.2c1.1-1.7,0.9-4.6,0.4-6.6
								c-0.6-2.3-1.5-4.7-2.4-7.1c-1.4-3.6-2.8-7.4-3.1-11.1c-0.1-0.8-0.1-1.6-0.1-2.4c0-3.2,0.1-5.5-3.8-6.2l-0.3-1.3
								c0.3-0.2,0.5-0.6,0.4-1.1c-0.1-1.3-0.2-2.5-0.8-3.6c-0.5-0.9-1.5-1.6-2.5-1.4l-0.7-1.2c0.8-1,0.8-2.5,0.1-3.6
								c-0.7-1.1-1.4-1.4-2.3-1.8c-1-0.5-2.2-1-3.2-2.7c-0.3-0.5-0.6-2.1-1.3-5.4c-0.3-1.4-0.6-3.3-0.9-4c-0.9-0.2-1.6-0.7-2.1-1.4
								c-1.2-1.6-1.3-4.1-1.1-6.3l-3.6,0.1l-0.6-0.3c-1.8-2.9-2.3-5.2-2.9-7.8c-0.3-1.2-0.6-2.5-1-4c-0.2-0.8-0.6-1.7-1.2-2.2
								c-0.3-0.2-0.8-0.3-1.1-0.3c-0.2,0-0.4,0.1-0.5,0.3l-1.3-0.4c-0.1-1.8-0.2-4-1.3-5.6c-0.9-1.4-2.9-2.4-4.3-1.5l-1.1-0.8
								c0.3-1.5,0.1-3.1-0.6-4.4c-0.6,0-1.3,0.2-1.9,0.4c-1,0.3-2,0.6-2.9,0.2c-1.2-0.4-2.4-1.9-3.5-3.2c-0.5-0.5-0.9-1.1-1.2-1.4
								l-0.1-0.9c0.7-1,1.4-2,2.1-2.9c-4.2-3-8.4-5.9-12.7-8.9c-1-0.7-2.1-1.4-3.1-1.2c-0.2,0-0.3,0.1-0.4,0.3l-1.1-0.9
								c0.3-0.4,0.7-0.7,1.2-0.8c1.7-0.4,3.4,0.7,4.3,1.4c4.4,3.1,8.8,6.2,13.3,9.3l0.2,1l-0.1,0.1c-0.7,1-1.4,2-2.1,2.9
								c0.3,0.3,0.6,0.7,0.9,1.1c0.9,1.1,2.1,2.5,2.9,2.8c0.5,0.2,1.2,0,2-0.3c0.9-0.3,2-0.6,3-0.4l0.5,0.4c0.8,1.4,1.1,3,1,4.5
								c1.9-0.3,4,0.8,5.1,2.5c1,1.6,1.3,3.4,1.4,5.1c0.1,0,0.2,0,0.3-0.1c0.8-0.1,1.6,0.1,2.3,0.6c1,0.8,1.5,1.9,1.8,3
								c0.5,1.5,0.8,2.8,1,4.1c0.5,2.4,1,4.5,2.5,6.9l4.1-0.1l0.7,0.9c-0.4,1.9-0.4,4.6,0.7,6c0.4,0.5,0.9,0.8,1.5,0.9
								c0.7,0.1,0.8,0.3,1.7,5.1c0.4,1.8,0.9,4.5,1.1,5c0.8,1.3,1.6,1.7,2.5,2.1c0.9,0.4,2,0.9,2.9,2.3c0.8,1.2,0.9,2.8,0.4,4.1
								c1.2,0.3,2.2,1.2,2.7,2.1c0.7,1.3,0.8,2.7,1,4.1c0,0.5,0,1-0.2,1.4c3.9,1.2,3.9,4.4,3.9,7.3c0,0.8,0,1.6,0,2.3
								c0.3,3.5,1.7,7.2,3,10.7c0.9,2.4,1.9,4.9,2.4,7.2c0.6,2.4,0.8,5.6-0.6,7.7c-0.3,0.4-0.6,0.8-0.9,1c0.2,0.2,0.4,0.4,0.5,0.6
								c1.3,1.8,1,5.2,0.2,7.8c-1.5,5.3-1.1,11.1,1.1,16.1c0.6,1.3,1.3,2.7,2,4c2.4,4.6,4.9,9.4,3,14.1c1.6,2.9,1.9,14.8,1.2,16.6
								c-0.8,1.8-2.4,3.1-4.3,3.6c1.2,2.2,1.3,4.9,0.4,7.6c-0.9,2.7-2.8,4.8-5.2,5.8c2.5,4.1,0.4,8.1-1.9,11.5
								c-1.8,2.8-2.9,4.9-4.2,7.3c-0.4,0.7-0.7,1.4-1.2,2.2c-0.3,0.5-0.5,0.9-0.7,1.4c-1.7,3.2-3.1,6-6.7,8.1
								C242.1,238.8,235.2,240.3,232.6,240.3z"/>
						</g>
					</g>
				</g>
				<g>
					<g>
						<g>
							<path fill="#231F20" d="M228.3,242.2c-2.6,0-5.6-1.5-7.1-3.8c-1.1-1.6-1.8-3.3-2.6-5.1c-0.9-2.1-1.8-4.2-3.2-5.8l1.1-1
								c1.6,1.8,2.6,4.1,3.5,6.2c0.7,1.6,1.4,3.3,2.4,4.8c1.3,1.9,4,3.3,6.2,3.1c0.9-0.1,2.1-0.4,2.8-1.6l0,0l0.1-0.2l0.5,0.5h0.8
								l-0.1,0.4c-0.8,1.5-2.2,2.3-4,2.4C228.6,242.2,228.5,242.2,228.3,242.2z"/>
						</g>
					</g>
				</g>
			</g>
		</g>
		<g>
			<g>
				<g>
					<g>
						<path fill="#231F20" d="M167,267.9l-0.4-0.6c0,0,13.3-8.3,22.6-14.1c9.1-5.6,14.4-20.5,14.5-20.7l0.7,0.2
							c-0.1,0.2-5.5,15.3-14.8,21.1C180.3,259.6,167,267.9,167,267.9z"/>
					</g>
				</g>
			</g>
		</g>
		<g>
			<g>
				<g>
					<g>
						<path fill="#231F20" d="M185.6,224.5l-0.4-0.6c9.1-6.1,14.9-15.8,15-15.9l0.6,0.4C200.8,208.5,194.9,218.4,185.6,224.5z"/>
					</g>
				</g>
			</g>
		</g>
		<g>
			<g>
				<g>
					<g>
						<path fill="#231F20" d="M165.4,230.5c-2.3,0-7.2-0.7-13.1-6c-8-7.1-15.1-21.2-15.1-21.4l0.7-0.3c0.1,0.1,7.1,14.2,15,21.2
							c7.7,6.9,13.8,5.7,13.9,5.7l0.2,0.7C166.8,230.4,166.3,230.5,165.4,230.5z"/>
					</g>
				</g>
			</g>
		</g>
		<g id="XMLID_117_">
			<g>
				<g>
					<g>
						<g>
							<path fill="#231F20" d="M97.2,214.9l-0.1,0.3c1.7,0.5,4,0.3,7.1-1.3c-0.8-0.5-1.4-1.2-1.9-2l-0.4,0.2
								C101.9,212,98.1,211.4,97.2,214.9z"/>
						</g>
					</g>
				</g>
				<g>
					<g>
						<g>
							<path fill="#231F20" d="M119.8,210.9L119.8,210.9c0.1,0.1,3.8,1.4,7.8,1.9c3.1-5.4-7.2-3.6-7.2-3.6S120.2,209.9,119.8,210.9z
								"/>
						</g>
					</g>
				</g>
			</g>
			<g>
				<g>
					<g>
						<g>
							<path fill="#231F20" d="M110.1,216c-2.7,0-4.7-0.5-6.3-1.6c-0.8-0.6-1.5-1.3-2.1-2.2c-1.5-2.5-1.6-6.1-1.5-9.2
								c0.1-2.4,0.1-4.4,1-6.8c0.8-2.1,2.2-4.6,4.6-8c4-5.8,1.9-19.1,1.9-19.2l1.4-0.2c0.1,0.6,2.3,14-2.1,20.3
								c-2.3,3.4-3.7,5.7-4.4,7.7c-0.8,2.1-0.9,3.8-0.9,6.3c-0.1,2.9,0,6.2,1.3,8.5c0.4,0.7,1,1.3,1.6,1.8c1.8,1.3,4.7,1.7,8.7,1.1
								c3.5-0.5,5.1-2.3,5.8-3.8c0.4-0.8,0.5-1.4,0.5-1.4l0.6-0.6c1.1-0.2,6.7-1,8.3,1.2c0.6,0.9,0.5,2-0.2,3.4
								c0,0.1-0.1,0.2-0.1,0.2l-1.2-0.9c0.4-0.7,0.7-1.5,0.4-2c-0.7-1-4-1-6.3-0.7c-0.1,0.3-0.2,0.8-0.5,1.3c-0.9,1.8-2.8,4.1-7,4.6
								C112.3,215.9,111.1,216,110.1,216z"/>
						</g>
					</g>
				</g>
				<g>
					<g>
						<g>
							<path fill="#231F20" d="M98.8,216.1c-0.7,0-1.3-0.1-2-0.3c-4-1.3-5.2-6.8-4.6-11.4c0.7-5.5,9.1-8.6,9.4-8.8l0.2,0.7l0.5,0.5
								l-0.3,0.2c-0.1,0-7.9,2.9-8.5,7.6c-0.4,3.3,0.2,8.7,3.6,9.8c1.7,0.5,3.9,0.1,6.5-1.3l0.7,1.3
								C102.4,215.6,100.5,216.1,98.8,216.1z"/>
						</g>
					</g>
				</g>
				<g>
					<g>
						<g>
							<path fill="#231F20" d="M130.1,213.7c-0.8,0-1.6-0.1-2.6-0.2c-4-0.5-7.7-1.9-7.9-1.9l0.5-1.4c0,0,3.7,1.4,7.5,1.8
								c4.6,0.6,7.4-0.3,8.2-2.6c1.4-3.3,1.4-6.2,0.1-8.6c-2.5-4.6-9.1-6-9.2-6l0.3-1.4c0.3,0.1,7.4,1.5,10.2,6.8
								c1.5,2.8,1.5,6.1,0,9.8C136.6,211.7,134.8,213.7,130.1,213.7z"/>
						</g>
					</g>
				</g>
				<g>
					<g>
						<g>
							<path fill="#231F20" d="M97.9,215l-1.4-0.4c0.9-3.2,4-3.6,5.5-3.4l-0.2,1.4C101.7,212.7,98.7,212.3,97.9,215z"/>
						</g>
					</g>
				</g>
			</g>
		</g>
		<g>
			<g>
				<g>
					<g>
						<path fill="#231F20" d="M81.8,230.4l-0.4-0.6c8.5-6.4,12.7-19.4,12.8-19.6l0.7,0.2C94.8,210.6,90.5,223.8,81.8,230.4z"/>
					</g>
				</g>
			</g>
		</g>
		<g>
			<g>
				<g>
					<g>
						<path fill="#231F20" d="M159.2,256.9l-0.7-0.2c0.8-2.5,5.4-6.9,6.6-8c-6.5-6.3-10.6-17.3-10.7-17.4l0.7-0.3
							c0,0.1,4.3,11.3,10.8,17.4l0,0.5C165.8,249,160.1,254.2,159.2,256.9z"/>
					</g>
				</g>
			</g>
		</g>
		<g>
			<g>
				<g>
					<g>
						<path fill="#231F20" d="M87,251.5l-0.7-0.3c5.5-12.2,5.5-20,5.5-20.1h0.7C92.5,231.2,92.5,239.1,87,251.5z"/>
					</g>
				</g>
			</g>
		</g>
		<g>
			<g>
				<g>
					<g>
						<path fill="#231F20" d="M152.1,238.4c0,0-4.2-1-8.2-3.4c-4-2.3-10.9-5.7-15.1-4.9c-4.2,0.8-10,4.5-12.4,3.9
							c-2.4-0.7-6.1-4-9-2.9c-3,1.1-10.5,5.5-12.8,6.9C94.5,238,135.3,238.8,152.1,238.4z"/>
					</g>
				</g>
			</g>
			<g>
				<g>
					<g>
						<path fill="#231F20" d="M138.4,239.2c-18.7,0-43.6-0.5-43.9-0.5l-0.3-1.4c0.4-0.2,0.9-0.5,1.6-0.9c3.3-1.9,8.8-5.1,11.3-6
							c0.5-0.2,1-0.3,1.5-0.3c1.8,0,3.7,1,5.3,1.9c1,0.5,1.9,1,2.6,1.2c0.1,0,0.3,0.1,0.5,0.1c1.3,0,3.3-0.9,5.5-1.8
							c2.1-0.9,4.2-1.8,6.1-2.1c0.5-0.1,1-0.1,1.5-0.1c4.9,0,11.5,3.6,14.1,5.1c3.9,2.2,8,3.3,8,3.3l-0.2,1.4
							C148.8,239.2,144.1,239.2,138.4,239.2z M97.2,237.3c6.9,0.1,26.1,0.4,41.2,0.4c3.6,0,6.7,0,9.4-0.1c-1.3-0.5-2.8-1.2-4.3-2.1
							c-2-1.2-8.8-4.9-13.4-4.9c-0.4,0-0.8,0-1.2,0.1c-1.7,0.3-3.8,1.2-5.8,2.1c-2.8,1.2-5.4,2.2-6.9,1.8c-0.9-0.2-1.9-0.8-2.9-1.3
							c-1.9-1-4.1-2.1-5.7-1.6C105.4,232.6,100.3,235.5,97.2,237.3z"/>
					</g>
				</g>
			</g>
		</g>
		<g>
			<g>
				<g>
					<g>
						<path fill="#231F20" d="M140.1,241.6c0,0-4.3,5.8-9.1,7.8c-4.8,2-9.1,1.1-12.5,1.2c-3.3,0.1-8.3,1.3-11.5-0.2
							c-3.2-1.5-7.5-6.7-7.2-7.7s3.9-0.5,8.2,0.5C112.3,244.1,138.9,240.6,140.1,241.6z"/>
					</g>
				</g>
			</g>
			<g>
				<g>
					<g>
						<path fill="#231F20" d="M111.2,251.8c-1.9,0-3.3-0.3-4.5-0.8c-3-1.4-8.1-6.9-7.6-8.6c0.3-1.1,1.8-1.1,2.3-1.1
							c1.4,0,3.4,0.3,6.8,1.1c0.5,0.1,1.2,0.2,2.3,0.2h0c3.6,0,9.8-0.5,15.8-1.1c5.1-0.4,9.9-0.9,12.3-0.9c1.3,0,1.8,0.1,2,0.3
							l0.1,1c-0.2,0.2-4.5,6-9.4,8c-2.8,1.2-5.4,1.4-7.4,1.4c-0.9,0-1.8,0-2.6-0.1c-1,0-1.9-0.1-2.7-0.1c-0.9,0-1.9,0.1-2.9,0.2
							C114.2,251.7,112.7,251.8,111.2,251.8z M100.5,242.9c0.4,1.2,3.9,5.5,6.8,6.8c1,0.5,2.2,0.7,3.9,0.7c1.4,0,2.9-0.2,4.3-0.3
							c1.1-0.1,2.1-0.2,3-0.3c0.9,0,1.8,0,2.8,0.1c0.8,0,1.7,0.1,2.6,0.1c1.8,0,4.2-0.1,6.8-1.2c3.4-1.4,6.6-4.9,8-6.6
							c-2.2,0-7.2,0.4-12.3,0.9c-6,0.5-12.2,1.1-15.9,1.1h0c-1.2,0-2.1-0.1-2.7-0.2c-2.2-0.5-4.9-1-6.5-1
							C100.9,242.8,100.7,242.9,100.5,242.9z"/>
					</g>
				</g>
			</g>
		</g>
		<g>
			<g>
				<g>
					<g>
						<path fill="#231F20" d="M118.5,165.9l-0.7-0.1c0-0.1,1.2-5.9,4.2-12.5c3.2-6.8,19.8-8.1,20.5-8.2l0.1,0.7
							c-0.2,0-16.9,1.4-19.9,7.8C119.6,160.1,118.5,165.9,118.5,165.9z"/>
					</g>
				</g>
			</g>
		</g>
		<g>
			<g>
				<g>
					<g>
						<path fill="#231F20" d="M100.6,160.4c-2-7-11.1-7.7-11.2-7.7l0.1-0.7c0.1,0,9.7,0.8,11.9,8.3L100.6,160.4z"/>
					</g>
				</g>
			</g>
		</g>
		<g>
			<g>
				<g>
					<g>
						<path fill="#231F20" d="M141.2,176.5c-2.7,0-5.5-0.3-8.3-1.2l0.2-0.7c10.5,3.3,22.5-1.5,22.6-1.5l0.3,0.7
							C155.9,173.8,149.1,176.5,141.2,176.5z"/>
					</g>
				</g>
			</g>
		</g>
		<g>
			<g>
				<g>
					<g>
						<path fill="#231F20" d="M83.4,182c-3.9,0-7.8-0.7-11.1-1.6l0.2-0.7c6.7,1.8,16.1,2.9,23-1.7c0.4-0.2,0.5-0.3,0.6-0.3v0.4
							l0.1,0.3c-0.1,0-0.2,0.1-0.3,0.2C92.2,181.1,87.8,182,83.4,182z"/>
					</g>
				</g>
			</g>
		</g>
		<g>
			<g>
				<g>
					<g>
						<path fill="#231F20" d="M130.6,164.1l-0.5-0.5c0.2-0.2,5.2-4.5,12.5-4.5c4.6,0,11.2,1,17,1.8c3.4,0.5,6.5,1,8.9,1.2l-0.1,0.7
							c-2.4-0.2-5.6-0.7-9-1.2c-5.8-0.8-12.4-1.8-16.9-1.8C135.6,159.8,130.6,164.1,130.6,164.1z"/>
					</g>
				</g>
			</g>
		</g>
		<g>
			<g>
				<g>
					<g>
						<path fill="#231F20" d="M60.1,175.1l-0.3-0.7c0.1,0,7-2.9,11.8-5.7c4.6-2.7,8.6-4,13.4-4.5c4.4-0.4,12.7,2.3,13.1,2.5
							l-0.2,0.7c-0.1,0-8.6-2.9-12.7-2.4c-4.7,0.5-8.6,1.8-13.1,4.4C67.2,172.2,60.2,175.1,60.1,175.1z"/>
					</g>
				</g>
			</g>
		</g>
		<g>
			<g>
				<g>
					<g>
						<path fill="#231F20" d="M171.9,146.8c-1.3,0-7.1-4-7.1-4.9c-0.6,0-1.2,0.1-1.8,0c0-0.2,0-0.4,0-0.6c-0.4,0-0.7-0.6-0.4-0.9
							c-1.2,0.1-1.5,0.3-2.7,0.1c-0.9-0.1-1.9-0.3-2.7-0.7c-6.5-3.2-10.4,0.2-15.3,0.9c-2.5,0.3-16.2,2.3-16.9,5.6
							c0.1,0,0.3,0.2,0.4,0.2c0,0-0.6,0.6-0.6,0.7c0.2,0.2,0.3,0.3,0.5,0.5c-2.2,3.3,7.1,0.9,8.6,0.5c2.7-0.8,5.4-1.6,8.2-2.4
							c0.2,0,3.6-1.2,3-1.4c0.6,0.2,1.5,0.3,1.7-0.2c0.3,0.3,0.8,0.5,1.3,0.6c0-0.3,0.1-0.6,0.1-0.9c0.4,0.3,0.8,0.6,1.2,0.7
							c-1.2-3.4,4.9-3,7.4-1.5C159.9,144.9,168,146.7,171.9,146.8z"/>
					</g>
				</g>
			</g>
		</g>
		<g>
			<g>
				<g>
					<g>
						<path fill="#231F20" d="M93.1,149.6c0.4-0.2,0.7-0.5,0.7-0.9c0-1.2-4-2.3-5-2.5c-3.5-0.5-13.1-3.3-15.9-1.7
							c-1.6,0.9-3.7,4-5.4,4.8c0.1,0.2,0.1,0.7,0.3,0.9c-0.6,0.3-2.2,2.6-2.8,3.2c-1,1.2,0.2,0.7-0.9,1.8c0,0,5.8-7.2,8.6-7.3
							c0.2,0,3.9,0.2,3.7-0.1c0.3,0.5-0.1,1.8,0.4,2.1c0.2-0.2,1.4-0.5,1.5-0.8c0.6-0.1,1.1,1.3,1.6,1.6c0.5-1.1,1.4-1.1,2.4-0.9
							c1.5,0.2,9,4,8.9,1.6c0.6,0,1.2,0,1.7,0c-0.6-0.3-1.1-0.8-1.4-1.4C92.2,149.9,92.7,149.8,93.1,149.6z"/>
					</g>
				</g>
			</g>
		</g>
		<g id="XMLID_112_">
			<g>
				<g>
					<g>
						<g>
							<path fill="#231F20" d="M139,166.9c0,0,0.2,1.9,0.9,3.5c2.4-0.1,5.3-0.3,8.6-0.3c1-1.4,0.1-4.6,0.1-4.6
								C145.9,164.7,141.9,164.6,139,166.9z"/>
						</g>
					</g>
				</g>
			</g>
			<g>
				<g>
					<g>
						<g>
							<path fill="#231F20" d="M133.6,171.5l0.1-0.8l0,0.1l0-0.1l0,0l0,0l-0.1-0.6l0.1,0.6l0,0.1l-0.3-0.6l0.1-0.1
								c0.6-0.4,2.4-1.7,5.1-3.8c3.1-2.3,7.3-2.4,10.2-1.6c0.4,0.1,0.8,0.2,1.2,0.4c2.4,1,7.6,4.3,7.9,4.4l-0.4,1.3
								c-3-0.1-5.9-0.1-8.8-0.1c-2.9,0.1-5.8,0.2-8.6,0.3c-3.1,0.2-5.3,0.4-6.1,0.5l0,0L133.6,171.5z M145.2,165.7
								c-2,0-4.1,0.5-5.7,1.8c-1.3,1-2.3,1.8-3.2,2.4c1-0.1,2.2-0.2,3.6-0.2c2.8-0.2,5.7-0.3,8.6-0.3c2,0,4.1,0,6.2,0
								c-1.7-1-4-2.4-5.3-2.9c-0.3-0.1-0.6-0.2-1-0.3C147.4,165.9,146.3,165.7,145.2,165.7z"/>
						</g>
					</g>
				</g>
				<g>
					<g>
						<g>
							<path fill="#231F20" d="M148.9,170.6l-1.1-1c0.6-0.9,0.3-2.9,0-4.1l1.4-0.4c0.1,0.4,1,3.7-0.2,5.3
								C149,170.5,148.9,170.6,148.9,170.6z"/>
						</g>
					</g>
				</g>
				<g>
					<g>
						<g>
							<path fill="#231F20" d="M139.2,170.6c-0.7-1.6-0.9-3.6-0.9-3.7l1.5-0.2c0,0,0.2,1.8,0.8,3.3L139.2,170.6z"/>
						</g>
					</g>
				</g>
			</g>
		</g>
		<g id="XMLID_111_">
			<g>
				<g>
					<g>
						<g>
							<path fill="#231F20" d="M80.1,171.3c0,0-1.2,2,0.7,4.3c2.4-0.3,5.1-0.7,7.8-1.1c1-2.2-0.3-4.1-0.4-4.3l0,0
								c-1.6-0.6-3.2-0.8-4.7-0.4C82.3,170.3,81.1,170.8,80.1,171.3z"/>
						</g>
					</g>
				</g>
			</g>
			<g>
				<g>
					<g>
						<g>
							<path fill="#231F20" d="M72.7,177.6v-0.7l-0.2-0.7l0.6-0.1c1.1-0.2,4.1-0.6,7.7-1.2c2.4-0.3,5.1-0.7,7.8-1.1
								c1.4-0.2,2.8-0.4,4.2-0.5c-1.2-0.8-2.9-1.8-4.7-2.4l0.5-1.4c3.4,1.2,6.5,3.6,6.7,3.7l-0.4,1.3c-1.8,0.2-3.9,0.4-6.1,0.7
								c-2.6,0.3-5.3,0.7-7.7,1.1c-3.6,0.5-6.6,1-7.7,1.2l-0.4,0.1l0,0L72.7,177.6z"/>
						</g>
					</g>
				</g>
				<g>
					<g>
						<g>
							<path fill="#231F20" d="M73,177.6l-0.5-1.4c0.9-0.3,1.8-1.2,2.9-2.1c1.2-1.1,2.5-2.3,4.4-3.4c1.1-0.7,2.3-1.1,3.6-1.5
								c1.4-0.4,3.1-0.3,5.1,0.4L88,171c-1.7-0.6-3.1-0.7-4.2-0.4c-1.2,0.3-2.3,0.8-3.3,1.4c-1.7,1-3,2.2-4.2,3.2
								C75.2,176.2,74.2,177.1,73,177.6z"/>
						</g>
					</g>
				</g>
				<g>
					<g>
						<g>
							<path fill="#231F20" d="M89.3,174.9l-1.3-0.6c0.8-1.9-0.3-3.6-0.3-3.6l1.2-0.9l0,0C88.9,170,90.4,172.2,89.3,174.9z"/>
						</g>
					</g>
				</g>
				<g>
					<g>
						<g>
							<path fill="#231F20" d="M80.3,176.1c-2.2-2.6-0.8-5-0.8-5.1l1.3,0.7l-0.6-0.4l0.6,0.4c0,0.1-0.9,1.6,0.7,3.5L80.3,176.1z"/>
						</g>
					</g>
				</g>
			</g>
		</g>
		<g>
			<g>
				<g>
					<g>
						<path fill="#231F20" d="M161.4,170.9c-1.3-0.1-4.1-0.4-4.1-0.4l0.1-0.7c0,0,1.2,0.1,2.5,0.2c-2.4-1.4-6.9-4.2-7.9-4.7
							c-1.1-0.7-4.7-2.3-7.3-1.9c-2.7,0.4-8.3,2.2-9.2,3.6l-0.6-0.4c1.2-1.9,7.4-3.6,9.7-4c2.7-0.4,6.3,1.1,7.8,1.9
							c1.3,0.7,9.2,5.5,9.3,5.5L161.4,170.9z"/>
					</g>
				</g>
			</g>
		</g>
		<g>
			<g>
				<g>
					<g>
						<path fill="#231F20" d="M67.3,178.4l-0.2-0.7c1.8-0.5,2.8-1.4,4.1-2.6c1.7-1.7,3.9-3.7,9-5.7c9.1-3.6,14.7,1.5,14.8,1.6
							l-0.5,0.5c-0.1,0-5.4-4.8-14-1.4c-5,2-7,4-8.7,5.6c-0.6,0.6-1.1,1.1-1.7,1.5l2.5-0.5l0.2,0.7L67.3,178.4z"/>
					</g>
				</g>
			</g>
		</g>
		<g>
			<g>
				<g>
					<g>
						<path fill="#231F20" d="M166.7,172c-4.3-0.4-5.4-1.1-5.5-1.1l0.4-0.6c0,0,1.1,0.6,5.2,1L166.7,172z"/>
					</g>
				</g>
			</g>
		</g>
		<g>
			<g>
				<g>
					<g>
						
							<rect x="65.4" y="177" transform="matrix(0.2654 0.9641 -0.9641 0.2654 220.3621 67.6744)" fill="#231F20" width="0.7" height="3"/>
					</g>
				</g>
			</g>
		</g>
		<g>
			<g>
				<g>
					<g>
						<path fill="#231F20" d="M174.5,172l-0.1-0.7c4.8-0.7,10.7-7.5,10.7-7.6l0.6,0.5C185.4,164.4,179.6,171.2,174.5,172z"/>
					</g>
				</g>
			</g>
		</g>
		<g>
			<g>
				<g>
					<g>
						<path fill="#231F20" d="M56.5,175.2c-0.2,0-4.7-0.7-7.8-4.9l0.6-0.4c2.9,4,7.3,4.6,7.3,4.6L56.5,175.2z"/>
					</g>
				</g>
			</g>
		</g>
		<g>
			<g>
				<g>
					<g>
						<path fill="#FFFFFF" d="M113.6,89c-0.6-3.3,1.5-6.6,6.3-9.9c14.4-10,31.2-16.4,48.6-18.6l0.1,0.7c-17.3,2.2-34,8.6-48.3,18.5
							c-4.5,3.1-6.5,6.2-6,9.2L113.6,89z"/>
					</g>
				</g>
			</g>
		</g>
		<g>
			<g>
				<g>
					<g>
						<path fill="#FFFFFF" d="M105,90.5c-1.3-9.8,0.1-19.8,3.8-28.9c0.5-1.3,1.2-1.9,2.1-1.8l-0.1,0.7c-0.6-0.1-1.1,0.9-1.3,1.3
							c-3.7,9-5,18.9-3.7,28.5L105,90.5z"/>
					</g>
				</g>
			</g>
		</g>
		<g>
			<g>
				<g>
					<g>
						<path fill="#FFFFFF" d="M95.8,90.9c-1.5-5.2-1.9-10.8-1.2-16.1l0.7,0.1c-0.7,5.3-0.2,10.7,1.2,15.8L95.8,90.9z"/>
					</g>
				</g>
			</g>
		</g>
		<g>
			<g>
				<g>
					<g>
						<path fill="#FFFFFF" d="M89.3,88.8c-2.4-1.3-5.2-1.6-7.8-1l-0.2-0.7c2.8-0.7,5.8-0.3,8.3,1L89.3,88.8z"/>
					</g>
				</g>
			</g>
		</g>
		<g>
			<g>
				<g>
					<g>
						<path fill="#FFFFFF" d="M245.8,141.2l-0.6-0.4c1-1.9,2.1-3.8,2.4-5.9c-1.2-0.1-2.5-0.2-3.7-0.6c-1.4-0.5-2.5-1.5-2.9-2.7
							c-1.7-0.6-3.4-1.8-3.8-3.8c-0.3-1.2,0.1-2.5,1-3.5c0.1-0.2,0.3-0.3,0.4-0.4c-1.3-0.3-2.5-1.2-3.3-2.4c-1.1-1.8-1-4.3,0.2-6.1
							c1.2-1.8,3.7-3.1,5.9-2.1c1.1,0.5,1.9,1.8,1.9,3.1c0,1.2-0.5,2.1-1.4,2.6l-0.3-0.6c0.7-0.3,1-1,1-1.9c0-1.1-0.6-2.1-1.5-2.5
							c-1.8-0.8-4,0.3-5,1.9c-1,1.6-1.1,3.8-0.2,5.4c0.8,1.3,2.2,2.1,3.7,2.2c0.4-0.1,0.8-0.2,1.2-0.2l0.1,0.7
							c-0.4,0.1-0.8,0.2-1.2,0.2c-0.4,0.2-0.7,0.4-1,0.8c-0.7,0.8-1,1.9-0.8,2.9c0.3,1.5,1.6,2.5,2.9,3.1c-0.1-1.4,0.7-2.8,1.9-3.2
							c0.8-0.2,1.7,0,2.3,0.7c0.6,0.6,0.8,1.3,0.6,2c-0.4,1.4-2.2,1.9-3.6,1.6c0,0-0.1,0-0.1,0c0.5,0.8,1.3,1.4,2.3,1.8
							c1.2,0.5,2.6,0.5,3.9,0.6l0.3,0.4C248.1,137.1,246.9,139.3,245.8,141.2z M241.5,131.1c0.2,0,0.4,0.1,0.5,0.1
							c1.2,0.2,2.5-0.1,2.8-1.1c0.2-0.6-0.2-1.1-0.4-1.3c-0.4-0.4-1.1-0.6-1.6-0.5C241.8,128.7,241.3,130,241.5,131.1z"/>
					</g>
				</g>
			</g>
		</g>
		<g>
			<g>
				<g>
					<g>
						<path fill="#FFFFFF" d="M11,106.5l-0.7-0.2l1.9-8.5c0.2-0.8,0.4-1.7,1.1-2.4c0.5-0.4,1-0.6,1.6-0.8c0.2-0.1,0.4-0.2,0.6-0.2
							c2.1-1,3.3-3.8,2.4-6c-0.3,0-0.6,0-0.9,0l-0.3-0.6c0.2-0.3,0.6-0.5,1-0.4c0.2,0,0.4,0.1,0.5,0.2c1.5-0.2,3-0.6,4.3-1.3
							c1.2-0.7,1.9-1.5,2.1-2.3c0.1-0.8-0.2-1.7-0.5-2.4c-0.2-0.5-0.5-1.1-0.8-1.7c-0.1,0-0.2,0-0.3-0.1c-0.4-0.1-0.9-0.2-1.3-0.2
							c-1.3-0.1-2.8,0.4-3,1.5l-0.7,0.1c-0.5-0.7-0.6-1.8-0.2-2.7s1.2-1.6,2.1-1.7c1.5-0.3,2.8,0.6,4,2.4c0.7,0.1,1.4,0.2,2,0
							c1.2-0.3,2.2-1.3,2.4-2.5c0.2-1.2-0.3-2.5-1.3-3.2l0.4-0.6c1.2,0.9,1.8,2.5,1.5,3.9c-0.3,1.5-1.5,2.7-2.9,3
							c-0.6,0.1-1.2,0.1-1.7,0.1c0.2,0.4,0.4,0.8,0.6,1.3c0.3,0.8,0.7,1.8,0.5,2.8c-0.2,1.1-1,2-2.5,2.8c-1.3,0.7-2.7,1.2-4.2,1.4
							c0.9,2.5-0.3,5.6-2.8,6.7c-0.2,0.1-0.4,0.2-0.7,0.3c-0.5,0.2-1,0.4-1.3,0.7c-0.5,0.5-0.7,1.4-0.9,2L11,106.5z M20.3,77.5
							c-0.1,0-0.2,0-0.4,0c-0.7,0.1-1.2,0.6-1.5,1.3c-0.2,0.4-0.2,0.9-0.2,1.3c0.7-1,2.1-1.4,3.4-1.3c0.4,0,0.7,0.1,1.1,0.1
							C22.1,78.2,21.3,77.5,20.3,77.5z"/>
					</g>
				</g>
			</g>
		</g>
		<g>
			<g>
				<g>
					<g>
						<path fill="#FFFFFF" d="M40.4,211.6L40,211c1.1-0.7,1.9-1.9,2.2-3.3c0.3-1.3,0.1-2.6-0.5-3.7c0,0,0,0,0,0c0.1,0.5,0,1-0.2,1.5
							l-0.6,0.1c-0.3-0.4-0.4-1-0.2-1.5c0.1-0.1,0.1-0.3,0.2-0.4c-0.1-0.3-0.2-0.6-0.3-0.9c-0.4-0.8-1.1-1.3-1.9-1.5l0.1-0.7
							c1,0.2,1.8,0.9,2.4,1.8c0.1,0.2,0.2,0.5,0.3,0.8c0.1,0,0.2-0.1,0.3-0.1l0.4,0.2c0.8,1.3,1.1,2.9,0.8,4.5
							C42.6,209.4,41.7,210.8,40.4,211.6z"/>
					</g>
				</g>
			</g>
		</g>
		<g>
			<g>
				<g>
					<g>
						<path fill="#FFFFFF" d="M176,27.5l-0.1-0.7c0.7-0.1,0.9-0.7,1-1c0.1-0.2,0.1-0.4,0.1-0.6c-0.5,0.4-1.2,0.6-1.8,0.8
							c-1.3,0.3-2.7,0-3.7-0.8l-0.1-0.3c-0.1-0.9,0.3-1.9,0.9-2.6l0.2-0.1c1.5-0.4,3.5-0.4,4.7,0.9c0.2,0.2,0.3,0.4,0.4,0.6
							c0-0.1,0.1-0.1,0.1-0.2c0.5-0.9,0.6-2.1,0.2-3.2c-0.4-1.1-1.2-1.9-2.1-2.2c-1-0.3-2.1-0.2-3.1,0.5c-0.2,0.1-0.3,0.2-0.4,0.3
							c0.1,0.2,0.1,0.4,0.2,0.6c0.1,0.6-0.1,1.3-0.6,1.7c-0.3,0.3-0.8,0.4-1.2,0.3l-0.3-0.4c0-0.8,0.4-1.6,1-2.3
							c-0.2-0.2-0.3-0.3-0.5-0.4c-0.7-0.5-1.7-0.6-2.5-0.4c-1.2,0.3-2.2,1-3.2,1.7c-0.3,0.2-0.5,0.4-0.8,0.6
							c-1.8,1.2-3.4,1.7-4.8,1.3l0.2-0.7c1.2,0.3,2.5-0.1,4.2-1.2c0.3-0.2,0.5-0.4,0.8-0.5c1.1-0.8,2.2-1.6,3.5-1.9
							c1-0.2,2.2,0,3.1,0.5c0.2,0.2,0.4,0.3,0.6,0.5c0.1-0.1,0.3-0.2,0.4-0.3c1.2-0.8,2.5-1,3.7-0.6c1.2,0.4,2.1,1.4,2.5,2.7
							c0.5,1.3,0.4,2.7-0.3,3.8c-0.1,0.2-0.3,0.5-0.5,0.7c0.1,0.5,0,1-0.1,1.4C177.3,26.8,176.7,27.3,176,27.5z M172,24.7
							c0.8,0.6,1.9,0.8,3,0.5c0.7-0.1,1.4-0.5,1.9-0.9c-0.1-0.2-0.2-0.5-0.4-0.7c-1-1.1-2.6-1.1-3.8-0.7C172.2,23.4,172,24,172,24.7
							z M171.6,19.6c-0.3,0.4-0.5,0.8-0.5,1.2c0.1,0,0.1-0.1,0.2-0.1C171.5,20.4,171.7,20,171.6,19.6
							C171.6,19.6,171.6,19.6,171.6,19.6z"/>
					</g>
				</g>
			</g>
		</g>
	</g>
</g>
<g id="圖層_2">
</g>
<g id="圖層_3">
</g>
<g id="圖層_4">
</g>
<g id="圖層_5">
</g>
</svg>
