<?xml version="1.0" encoding="utf-8"?>
<!-- Generator: Adobe Illustrator 18.0.0, SVG Export Plug-In . SVG Version: 6.00 Build 0)  -->
<!DOCTYPE svg PUBLIC "-//W3C//DTD SVG 1.1//EN" "http://www.w3.org/Graphics/SVG/1.1/DTD/svg11.dtd">
<svg version="1.1" id="Layer_1" xmlns="http://www.w3.org/2000/svg" xmlns:xlink="http://www.w3.org/1999/xlink" x="0px" y="0px"
	 viewBox="0 0 340.2 340.2" enable-background="new 0 0 340.2 340.2" xml:space="preserve">
<g>
	<circle cx="170.1" cy="170.1" r="113.9"/>
	<g>
		<path fill="#FFFFFF" d="M160.1,135.5l-7.5,8.5c-3.4-3.2-8.4-5.7-16.2-5.7c-11.4,0-23.2,6.1-23.2,30.3c0,22.9,8,32.2,23.1,32.2
			c4.4,0,9.5-0.8,12.3-2.5v-29.8h11.6v35c-5.4,4.2-13.2,7.2-26.3,7.2c-21.5,0-32.5-13.7-32.5-41c0-29,15.7-41.8,35.6-41.8
			C151.2,127.9,157.6,132.9,160.1,135.5z"/>
		<path fill="#FFFFFF" d="M206.3,210.6c-19.4,0-31.2-11.1-31.2-41c0-29.5,12.8-41.8,32.2-41.8c19.3,0,31.3,11.2,31.3,41
			C238.7,198.4,225.8,210.6,206.3,210.6z M207.1,200.5c12,0,19.6-7.5,19.6-30.9c0-23.6-7.8-31.7-20.2-31.7
			c-11.7,0-19.6,7.2-19.6,30.7C186.9,192.5,194.9,200.5,207.1,200.5z"/>
	</g>
</g>
</svg>
