<?xml version="1.0" encoding="utf-8"?>
<!-- Generator: Adobe Illustrator 18.1.0, SVG Export Plug-In . SVG Version: 6.00 Build 0)  -->
<svg version="1.1" id="圖層_1" xmlns="http://www.w3.org/2000/svg" xmlns:xlink="http://www.w3.org/1999/xlink" x="0px" y="0px"
	 viewBox="0 0 240 80" enable-background="new 0 0 240 80" xml:space="preserve">
<g>
	<g>
		<g>
			<circle fill="#FFFFFF" cx="215.8" cy="24.7" r="19.3"/>
			<path fill="#1C75BC" d="M215.8,45.1c-1.1,0-2.2-0.1-3.3-0.3c-5.4-0.9-10.1-3.8-13.2-8.2c-3.2-4.4-4.4-9.8-3.5-15.2
				c1.6-9.9,10.1-17,20.1-17c1.1,0,2.2,0.1,3.3,0.3c5.4,0.9,10.1,3.8,13.2,8.2c3.2,4.4,4.4,9.8,3.5,15.2
				C234.2,37.9,225.8,45.1,215.8,45.1z M215.7,6.5c-9,0-16.5,6.4-18,15.3c-0.8,4.8,0.3,9.6,3.2,13.6c2.8,4,7.1,6.6,11.9,7.4
				c1,0.2,2,0.2,3,0.2c9,0,16.5-6.4,18-15.3c0.8-4.8-0.3-9.6-3.2-13.6c-2.8-4-7.1-6.6-11.9-7.4C217.7,6.6,216.7,6.5,215.7,6.5z"/>
		</g>
		<g>
			<circle fill="#FFFFFF" cx="215.8" cy="24.7" r="16.9"/>
			<path fill="#1C75BC" d="M215.8,41.8c-0.9,0-1.9-0.1-2.8-0.2c-9.3-1.5-15.6-10.3-14-19.6c1.4-8.3,8.4-14.3,16.8-14.3
				c0.9,0,1.9,0.1,2.8,0.2c9.3,1.5,15.6,10.3,14,19.6C231.2,35.8,224.1,41.8,215.8,41.8z M215.7,8c-8.2,0-15.2,5.9-16.5,14
				c-1.5,9.1,4.7,17.7,13.8,19.2c0.9,0.2,1.8,0.2,2.7,0.2c8.2,0,15.2-5.9,16.5-14c1.5-9.1-4.7-17.7-13.8-19.2
				C217.6,8.1,216.7,8,215.7,8z"/>
		</g>
		<g>
			<g>
				
					<ellipse transform="matrix(0.9866 0.1631 -0.1631 0.9866 8.5156 -34.4498)" fill="#FFFFFF" cx="214.1" cy="34.7" rx="2.7" ry="2.7"/>
				<path fill="#231F20" d="M214.1,37.7c-0.2,0-0.3,0-0.5,0c-0.8-0.1-1.5-0.6-1.9-1.2c-0.5-0.7-0.6-1.5-0.5-2.3
					c0.2-1.5,1.5-2.5,3-2.5c0.2,0,0.3,0,0.5,0c0.8,0.1,1.5,0.6,1.9,1.2c0.5,0.7,0.6,1.5,0.5,2.3C216.8,36.6,215.6,37.7,214.1,37.7z
					 M214.1,32.2c-1.2,0-2.2,0.9-2.4,2c-0.1,0.6,0,1.3,0.4,1.8c0.4,0.5,0.9,0.9,1.5,1c0.1,0,0.3,0,0.4,0c1.2,0,2.2-0.9,2.4-2
					c0.1-0.6,0-1.3-0.4-1.8c-0.4-0.5-0.9-0.9-1.5-1C214.4,32.2,214.3,32.2,214.1,32.2z"/>
			</g>
			<g>
				
					<ellipse transform="matrix(0.9866 0.1631 -0.1631 0.9866 8.3625 -34.4882)" fill="#FFFFFF" cx="214.3" cy="33.7" rx="4.1" ry="1.8"/>
				<path fill="#231F20" d="M215.5,35.9c-0.5,0-1,0-1.5-0.1c-2.5-0.4-4.2-1.6-4-2.8c0.1-0.9,1.4-1.5,3.2-1.5c0.5,0,1,0,1.5,0.1
					c2.5,0.4,4.2,1.6,4,2.8C218.5,35.3,217.3,35.9,215.5,35.9z M213.1,32.1c-1.4,0-2.5,0.4-2.6,1c-0.1,0.7,1.3,1.7,3.5,2.1
					c0.5,0.1,1,0.1,1.4,0.1c1.4,0,2.5-0.4,2.6-1c0.1-0.7-1.3-1.7-3.5-2.1C214,32.2,213.6,32.1,213.1,32.1z"/>
			</g>
			<g>
				
					<ellipse transform="matrix(0.9866 0.1631 -0.1631 0.9866 8.2303 -34.5213)" fill="#FFFFFF" cx="214.4" cy="32.9" rx="4.1" ry="1.8"/>
				<path fill="#231F20" d="M215.6,35.1c-0.5,0-1,0-1.5-0.1c-2.5-0.4-4.2-1.6-4-2.8c0.1-0.9,1.4-1.5,3.2-1.5c0.5,0,1,0,1.5,0.1
					c2.5,0.4,4.2,1.6,4,2.8C218.6,34.5,217.4,35.1,215.6,35.1z M213.2,31.3c-1.4,0-2.5,0.4-2.6,1c-0.1,0.7,1.3,1.7,3.5,2.1
					c0.5,0.1,1,0.1,1.4,0.1c1.4,0,2.5-0.4,2.6-1c0.1-0.7-1.3-1.7-3.5-2.1C214.2,31.3,213.7,31.3,213.2,31.3z"/>
			</g>
			<g>
				
					<ellipse transform="matrix(0.9866 0.1631 -0.1631 0.9866 8.098 -34.5545)" fill="#FFFFFF" cx="214.6" cy="32.1" rx="4.1" ry="1.8"/>
				<path fill="#231F20" d="M215.7,34.2c-0.5,0-1,0-1.5-0.1c-2.5-0.4-4.2-1.6-4-2.8c0.1-0.9,1.4-1.5,3.2-1.5c0.5,0,1,0,1.5,0.1
					c2.5,0.4,4.2,1.6,4,2.8C218.8,33.7,217.6,34.2,215.7,34.2z M213.4,30.5c-1.4,0-2.5,0.4-2.6,1c-0.1,0.7,1.3,1.7,3.5,2.1
					c0.5,0.1,1,0.1,1.4,0.1c1.4,0,2.5-0.4,2.6-1c0.1-0.7-1.3-1.7-3.5-2.1C214.3,30.5,213.8,30.5,213.4,30.5z"/>
			</g>
			<g>
				
					<ellipse transform="matrix(0.9866 0.1631 -0.1631 0.9866 7.9657 -34.5876)" fill="#FFFFFF" cx="214.7" cy="31.2" rx="4.1" ry="1.8"/>
				<path fill="#231F20" d="M215.9,33.4c-0.5,0-1,0-1.5-0.1c-2.5-0.4-4.2-1.6-4-2.8c0.1-0.9,1.4-1.5,3.2-1.5c0.5,0,1,0,1.5,0.1
					c2.5,0.4,4.2,1.6,4,2.8C218.9,32.9,217.7,33.4,215.9,33.4z M213.5,29.7c-1.4,0-2.5,0.4-2.6,1c-0.1,0.7,1.3,1.7,3.5,2.1
					c0.5,0.1,1,0.1,1.4,0.1c1.4,0,2.5-0.4,2.6-1c0.1-0.7-1.3-1.7-3.5-2.1C214.4,29.7,214,29.7,213.5,29.7z"/>
			</g>
			<g>
				<path fill="#FFFFFF" d="M224.6,22.2c0.8-4.9-2.2-9.4-6.8-10.2c-4.6-0.8-8.9,2.6-9.7,7.5c-0.3,1.7-0.1,3.3,0.5,4.8l0,0l0,0
					c0.1,0.2,0.1,0.3,0.2,0.5c0.4,1,1.4,3.6,1.9,5.7c0,0,1.4,1.3,3.8,1.7c2.4,0.4,4.2-0.4,4.2-0.4c1.1-1.7,2.8-3.7,3.5-4.6
					C223.5,25.9,224.3,24.2,224.6,22.2z"/>
				<path fill="#231F20" d="M215.9,32.6C215.9,32.6,215.9,32.6,215.9,32.6c-0.5,0-1,0-1.4-0.1c-2.4-0.4-3.9-1.7-4-1.8l-0.1-0.1
					l0-0.1c-0.5-2.1-1.5-4.6-1.9-5.6c-0.1-0.1-0.1-0.3-0.2-0.5c-0.6-1.6-0.7-3.3-0.5-5c0.7-4.5,4.4-7.8,8.7-7.8c0.4,0,0.9,0,1.3,0.1
					c2.3,0.4,4.3,1.7,5.6,3.7c1.3,2,1.8,4.4,1.4,6.9c-0.3,1.9-1.2,3.7-2.5,5.1c-0.8,1-2.4,2.9-3.5,4.6l0,0.1l-0.1,0
					C218.8,32.1,217.6,32.6,215.9,32.6z M211,30.3c0.3,0.2,1.6,1.2,3.6,1.6c0.4,0.1,0.9,0.1,1.3,0.1c1.3,0,2.3-0.3,2.6-0.4
					c1.1-1.7,2.7-3.6,3.5-4.6c1.2-1.3,2-3,2.3-4.8c0.4-2.3-0.1-4.6-1.3-6.4c-1.2-1.9-3.1-3.1-5.2-3.4c-0.4-0.1-0.8-0.1-1.2-0.1
					c-3.9,0-7.4,3.1-8.1,7.3c-0.3,1.6-0.1,3.2,0.4,4.7c0.1,0.1,0.1,0.3,0.2,0.4C209.5,25.7,210.4,28.2,211,30.3z"/>
			</g>
			<g>
				<path fill="#231F20" d="M214.7,36.3c-0.3,0-0.6,0-0.8-0.1c-1.4-0.2-2.4-1.1-2.5-1.1l0.2-0.2c0,0,1,0.8,2.3,1
					c1.4,0.2,2.5-0.2,2.6-0.2l0.1,0.3C216.5,36,215.7,36.3,214.7,36.3z"/>
			</g>
			<g>
				<g>
					<path fill="#231F20" d="M220.9,26.3c-0.1,0-0.1,0-0.2,0c-0.1,0-0.2-0.1-0.3-0.1c-0.4-0.3-0.6-0.8-0.3-1.3c2.2-3.7,1-7.4,1-7.5
						c-0.2-0.5,0.1-1,0.6-1.2c0.1,0,0.2,0,0.3,0c0.4,0,0.8,0.3,0.9,0.6c0.1,0.2,1.5,4.5-1.2,9C221.6,26.1,221.3,26.3,220.9,26.3z
						 M222,16.5c-0.1,0-0.1,0-0.2,0c-0.3,0.1-0.5,0.5-0.4,0.8c0,0,1.3,3.8-1,7.7c-0.2,0.3-0.1,0.7,0.2,0.9c0.1,0,0.1,0.1,0.2,0.1
						c0.3,0,0.5-0.1,0.6-0.3c2.6-4.4,1.2-8.6,1.2-8.8C222.5,16.6,222.3,16.5,222,16.5z"/>
				</g>
			</g>
			<g>
				<path fill="#231F20" d="M219.5,28.6c-0.1,0-0.1,0-0.2,0c-0.5-0.1-0.9-0.6-0.8-1.1c0.1-0.5,0.6-0.9,1.1-0.8
					c0.5,0.1,0.9,0.6,0.8,1.1C220.3,28.2,219.9,28.6,219.5,28.6z M219.5,26.9c-0.3,0-0.6,0.2-0.7,0.6c-0.1,0.4,0.2,0.7,0.5,0.8
					c0.4,0.1,0.7-0.2,0.8-0.5c0.1-0.4-0.2-0.7-0.5-0.8C219.5,26.9,219.5,26.9,219.5,26.9z"/>
			</g>
		</g>
	</g>
	<g>
		<g>
			<g>
				<path d="M24.6,40.3l2.3-9.3l5,0l1-2.5l-4.3,0l2-7.9l-0.5,0l2.3-9.3l29,0l-2.3,9.3l-1.4,0L55.2,31l2,0l-2.3,9.3L24.6,40.3z
					 M45.2,31l0.6-2.5l-2.4,0l-1,2.5L45.2,31z"/>
			</g>
			<g>
				<path fill="#1C75BC" d="M33.5,12.5l1.4,0l22.9,0l2.2,0l-0.5,2.2l-0.9,3.4l-0.3,1.3l-1.4,0l-10.8,0l-0.4,1l8.8,0l2.2,0l-0.5,2.2
					l-2.4,9.6l2,0l-0.5,2.2l-0.9,3.4l-0.3,1.3l-1.4,0l-24.2,0l-2.2,0l0.5-2.2l0.9-3.4l0.3-1.3l1.4,0l3.5,0l2.1-4.9l-2.4,0l-2.2,0
					l0.5-2.2l0.9-3.4l0.3-1.3l1.4,0l4.4,0l0.4-1l-4.3,0l-2.2,0l0.5-2.2l0.9-3.4L33.5,12.5 M46.2,32.2l1.2-4.9l-4.7,0l-2.1,4.9
					L46.2,32.2 M31.6,10l-0.5,1.8l-0.3,1.3l-0.9,3.4l-0.5,2.2l-0.7,3l0.5,0l-0.7,2.8l-0.5,2.2l-0.7,3l3.1,0l1,0l0,0.1l-1.9,0l-1.4,0
					l-1.9,0l-0.5,1.8l-0.3,1.3l-0.9,3.4l-0.5,2.2l-0.7,3l3.1,0l2.2,0l24.2,0l1.4,0l1.9,0l0.5-1.8l0.3-1.3l0.9-3.4l0.5-2.2l0.7-3
					l-2,0l1.7-6.6l0.3-1.4l1.4,0l0.5-1.8l0.3-1.3l0.9-3.4l0.5-2.2l0.7-3l-3.1,0l-2.2,0l-22.9,0l-1.4,0L31.6,10L31.6,10z"/>
			</g>
		</g>
		<g>
			<g>
				<path d="M131.9,41l0.1-0.3l-6.7,0c-0.8,0-1.5-0.2-2.2-0.6l-0.1,0.5l-10.5,0c-2.2,0-3.3-0.9-3.9-1.7c-0.4-0.5-0.6-1-0.8-1.7
					c-1,1.6-2.7,2.6-4.9,2.6l-4.8,0L98,40.8l-9.9,0l0.2-0.9l-9.1,0l0.3-1.4c-0.9,0.4-1.9,0.7-3,0.7l-0.1,0l-0.9,0L75.2,41l-9.3,0
					l0.2-0.7l-13,0l2.2-8.8l-1.4,0l2.2-8.7l0.2,0l1.2-4.9l0.3,0l1.4-5.5l4.3,0l0.4-1.5l9.5,0L73,12.3h0.1l0.3-1.3l15.3,0l-0.4,1.8
					l6.6,0l0.5-2l10.3,0l-0.5,2l9,0l0.5-1.9l26.8,0l-1.4,5.6l7.3,0l-0.2,0.8l0.2,0l0.2-0.8l8.7,0l-0.2,0.8l5.2,0l0.6-1l9.8,0
					l-0.7,1.2l2.6,0L174,17l8.4,0l-0.1,0.4l12.3,0l0.4-0.7l8.4,0l-1.2,3.8l-2.4,9.7h0.1l-1.7,6.8c-0.6,2.4-2.7,3.8-5.7,3.8l-12.1,0
					l0-0.1c-0.4,0.1-0.8,0.1-1.1,0.1l-6.1,0l0.1-0.3l-10.3,0l-0.1,0.5l-8.7,0l0-0.2l-13.5,0c-0.6,0-1.2-0.1-1.7-0.3
					c-0.9,0.4-2,0.5-3.1,0.5L131.9,41z"/>
			</g>
			<g>
				<path fill="#1C75BC" d="M64.8,12.1l1.4,0l3.4,0l2.2,0l-0.4,1.5l2.6,0l0.3-1.3l1.4,0l9.3,0l2.2,0l-0.4,1.8l0.7,0l8.3,0l0.2-0.7
					l0.3-1.3l1.4,0l4.3,0l2.2,0l-0.5,2l7.4,0l2.2,0l-0.5,2.2l-0.8,3.3l-0.3,1.3l-1.4,0l-8.4,0l-0.2,0.7l7.1,0l2.2,0l-0.5,1.9l1.3,0
					l1,0l2.5-10l0.3-1.3l1.4,0l20.8,0l2.2,0l-0.5,2.2l-0.7,2.9l-0.3,1.3l-0.9,0l-0.3,1.2h0l-0.5,2.2l-0.4,1.5l1.8,0l-0.5,2.2l-0.3,1
					l0.2,0l0.5-1.8h0l0.5-2.2l0.9-3.6l0.3-1.3l1.4,0l2.7,0l2.2,0l-0.2,0.8l2.7,0l0.2-0.8l1.4,0l2.6,0l2.2,0l-0.2,0.8l3.4,0l2.2,0
					l-0.5,2.2l-0.2,1l0.4,0l0.4,0l1.9-3.2l0.5-0.9l1,0l3,0l3,0l-0.7,1.2l5.4,0l0.5-0.8l1,0l2.8,0l2.4,0l-0.1,0.4l0.7,0l13.8,0
					l0.4-0.7l0.9,0l2.8,0l2.4,0l-0.7,2.3c-0.2,0.6-0.4,1-0.6,1.5l0.3,0l-0.5,2.2l-0.3,1.4h0l-0.5,2.1l0,0.1l-0.5,1.9l-0.3,1.3
					l-0.6,0l-0.2,0.8l0.7,0l-0.5,2.2l-0.8,3.2c-0.6,2.5-3.1,2.9-4.5,2.9c0,0,0,0,0,0l-8.4,0l-2.2,0l0.3-1.1c-0.8,0.7-1.8,1-2.9,1
					c0,0,0,0,0,0l-2.4,0l-2.2,0l0.1-0.3l-0.7,0l-12.1,0l-0.1,0.5l-1.4,0l-2.7,0l-2.2,0l0-0.2l-1.3,0l-13.8,0c-0.6,0-1.2-0.1-1.7-0.4
					c-0.9,0.4-1.9,0.6-3.1,0.6c0,0,0,0,0,0l-2.2,0l0.1-0.3l-1.2,0l-7,0c-1.1,0-2.1-0.5-2.7-1.5l-0.1-0.2l-0.1,0.3l-0.3,1.3l-1.4,0
					l-8.2,0c-1.3,0-2.3-0.4-3-1.2c-0.4-0.5-0.8-1.4-0.5-2.7l1.4-5.7l-1.8,0l-1.4,5.7c-0.5,2-2.1,3.2-4.3,3.2c0,0,0,0,0,0l-4.9,0
					l-0.8,0L97,39.6l-1.4,0l-3.9,0l-2.2,0l0.5-2.2l2.3-9l-1.7,0l-2.2,8.9l-0.3,1.3l-1.4,0l-3.8,0l-2.2,0l0.5-2.2l3.4-13.6l0.3-1.3
					l1.4,0l7.7,0l0.2-0.7l-7.7,0l-1.6,0l-0.5,1.9c-0.3,1.1-0.7,2-1.4,2.7c0.3,0.8,0.3,1.6,0.1,2.5l-1.4,5.6
					c-0.7,2.6-2.5,4.2-5.3,4.3l0,0l0,0l-1.8,0l-0.1,0.5l-0.3,1.3l-1.4,0l-3.2,0l-2.2,0l0.2-1c-0.5,0.1-1,0.2-1.6,0.2c0,0,0,0,0,0
					l-9.3,0l-2.2,0l0.5-2.2l1.7-6.6l-1.4,0l0.5-2.2l0.7-2.8L57,24l0.2,0l0.1-0.6l0.8-3l0.3-1.3l0.3,0l0.3-1.3l0.7-2.9l0.3-1.3l1.4,0
					l2.9,0l0-0.2L64.8,12.1 M175.1,24.8C175.1,24.8,175.1,24.8,175.1,24.8l-1.1,0l-0.3,1l3.2,0l1,0l0.2-0.6l0.5-1.9
					c-0.1,0.1-0.3,0.3-0.4,0.4C177.3,24.4,176.3,24.8,175.1,24.8 M167.3,25.8l0.3-1l-2.1,0l-0.3,1L167.3,25.8 M156.9,34.1l1.5-6.1
					l-1.2,0l-0.6,2.3c0,0.2-0.1,0.3-0.1,0.5l0.8,0l-0.5,2.2l-0.3,1.1L156.9,34.1 M100.9,32.1l0.9-3.7l-2,0l-0.9,3.7L100.9,32.1
					 M134.9,34.7l0.8-0.2l0.5-2l-1,0l0.5-2.2l0.1-0.4l-0.1,0c-0.9,1.3-1.6,2.3-2.3,3l1.9,0L134.9,34.7 M119.3,33l-1.7-2.5l-0.6,2.5
					L119.3,33 M165.4,33.4l0.4-1.5l-2.1,0l-0.4,1.5L165.4,33.4 M176.1,33.4l0.4-1.5l-0.2,0l-4.1,0l-0.4,1.5l2.7,0L176.1,33.4
					 M178.1,33.9l0.1-0.2l-1.5,0l-0.1,0.2l0.7,0L178.1,33.9 M188,34l0.1-0.3l-3.2,0l-0.2,0.3L188,34 M62.9,9.7l-0.4,1.5l-1,0l-1.4,0
					l-1.9,0l-0.5,1.8l-0.3,1.3l-0.6,2.4l-0.3,0l-0.5,1.8l-0.3,1.3l-0.4,1.8l-0.2,0l-0.5,1.8l-0.3,1.3l-0.7,2.8l-0.5,2.2l-0.7,3
					l1.4,0l-0.9,3.6l-0.5,2.2l-0.7,3l3.1,0l2.2,0l7.7,0l-0.2,0.7l3.1,0l2.2,0l3.2,0l1.4,0l1.9,0l0.4-1.8h0l0.1,0l0,0
					c0.4,0,0.8-0.1,1.2-0.1L77.7,41l3.1,0l2.2,0l3.8,0h0L86.5,42l3.1,0l2.2,0l3.9,0l1.4,0l1.9,0l0.2-0.9l3.8,0
					c1.8,0,3.4-0.6,4.6-1.5c0,0.1,0.1,0.1,0.1,0.2c0.8,1,2.2,2.1,4.9,2.1l8.2,0l1.4,0l1.9,0l0-0.2c0.4,0.1,0.9,0.2,1.3,0.2l5.1,0
					l-0.1,0.3l3.1,0l2.2,0c1.1,0,2.1-0.2,3.1-0.5c0.5,0.1,1.1,0.2,1.7,0.2l12,0l0,0.2l3.1,0l2.2,0l2.7,0l1.4,0l1.9,0l0.1-0.5l7.8,0
					l-0.1,0.3l3.1,0l2.2,0l2,0l3.1,0l2.2,0l8.4,0c3.6,0,6.1-1.8,6.9-4.7l0.8-3.2l0.5-2.2l0.7-3l-0.1,0l0.3-1l0-0.1l0.5-2.1l0.7-3h0
					l0.1-0.5l0.4-1.4l0.7-2.1l1-3.1l-3.3,0l-2.4,0l-2.8,0l-0.9,0l-1.3,0l-0.4,0.7l-10,0l0.1-0.4l-3.3,0l-2.4,0l-2.8,0l-1,0l-1.2,0
					l0.2-0.4l-4.2,0l-3,0l-3,0l-1,0l-1.4,0l-0.6,1l-0.4,0l-2.2,0l-0.4,0l0.2-0.8l-3.1,0l-2.2,0l-2.6,0l-1.4,0l-0.7,0l-2,0l-2.2,0
					l-2,0l0.1-0.5l0.5-2.2l0.7-3l-3.1,0l-2.2,0l-20.8,0l-1.4,0l-1.9,0l-0.5,1.8l0,0.1l-2.2,0l-4.3,0l0.5-2l-3.1,0l-2.2,0l-4.3,0
					l-1.4,0l-1.9,0l-0.5,1.8l0,0.2l-4.1,0l0.4-1.8l-3.1,0l-2.2,0l-9.3,0l-0.9,0l0.1-0.2l-3.1,0l-2.2,0l-3.4,0l-1.4,0L62.9,9.7
					L62.9,9.7z"/>
			</g>
		</g>
		<g>
			<g>
				<path d="M182.1,71.1l0.2-1c-0.8,0.2-1.5,0.3-2.1,0.3l-8.1,0l0.3-1l-1.1,0c-1.5,0-2.4-0.6-3.1-1.1c-0.3,0.4-0.7,0.8-1.1,1.2
					c-1.2,1-2.6,1.5-4.1,1.5l-6.7,0l-9.5,0l1.5-6.2c-0.8,0.4-1.7,0.6-2.7,0.6l-19.2,0l0.1-0.3c-0.5,0.1-1,0.2-1.5,0.2l-18.7,0l1-4
					l-0.6,0l-1.1,4.2l-8.6,0l0.2-0.6c-0.5,0.2-1.1,0.3-1.6,0.3l-6.5,0L89,65.4l-6.8,0c-2.2,0-3.7-0.6-4.7-1.8
					c-1.1,1.2-2.6,1.9-4.5,1.9l-8.3,0l0-0.1l-1,0c-0.7,0-1.3-0.2-1.8-0.5c-0.6,0.3-1.2,0.5-1.8,0.5l-5.5,0l0.1-0.5l-10.1,0l2.1-8.4
					l0.6,0l1.7-7l-0.4,0l2.1-8.3l10.6,0l0.1-0.2l9.8,0l-0.9,1.5l1.2,0l0.3-1.2l20.4,0l0-0.2l11.9,0l-0.1,0.2l11.1,0l0,0.2l3.7,0
					l0.2-0.8l9.2,0l-0.2,0.8l4.2,0l0.1-0.5l23.4,0l-0.5,2l1.1-2l15.8,0l-0.8,1.8l7.8,0l0.1-0.4l10,0l0.4-1.6l9.7,0l-0.4,1.6l8.9,0
					l-0.1-1.1l8.5,0l0.1-0.3l9.9,0l-0.1,0.3l8.9,0l-1.3,2.1l2,0l-2.4,9.5l-1.6,0l-0.4,1.6l0.9,0l-3,12c-0.2,1-1.4,4.1-5.9,4.1
					l-24.1,0l0.1-0.2l-4.1,0c-0.6,0-1.9-0.1-3.1-1l-0.4,1.7L182.1,71.1z M201.7,61.4l0.1-0.4l-1.4,0c-0.4,0-0.9-0.1-1.3-0.2l0.1,0.6
					L201.7,61.4z M179,61.4l0.3-0.5l-1.5,0l-0.1,0.5L179,61.4z"/>
			</g>
			<g>
				<path fill="#1C75BC" d="M120.1,42l1.4,0l3.2,0l2.2,0l-0.2,0.8l5.4,0l1.2,0l0.1-0.5l1.4,0l17.4,0l2.2,0l-0.5,2.2l-1,3.9l0.8,0
					l0.3,0c0,0,0-0.1,0-0.1l0,0l0,0l2.8-5l0.5-0.9l1,0l3.8,0l3,0l2.6,0l2.7,0l-0.8,1.8l9.1,0l1.5,0l0.1-0.4l1.4,0l8.7,0l0.1-0.3
					l0.3-1.3l1.4,0l3.7,0l2.2,0l-0.4,1.6l7.8,0l2.2,0l-0.2,0.9l0.6,0l1.5,0l0-0.2l-0.2-1.9l1.9,0l3.8,0l1.6,0l0.2,1.5l0.1,0.5h0
					l0.3-1.1l0.3-1.3l1.4,0l3.9,0l2.2,0l-0.3,1.3l0.1-0.2l0.5-0.8l1,0l3.8,0l3.1,0l-1.3,2.1l0.4,0l2.2,0l-0.5,2.2l-0.9,3.7l-0.3,1.3
					l-1.4,0l-0.2,0l-0.9,3.5c0,0.2-0.1,0.4-0.2,0.5l1,0l-0.5,2.2l-2.1,8.4c-0.2,1-1.2,3.2-4.7,3.2c0,0,0,0,0,0l-20.4,0l-2.2,0
					l0.1-0.2l-1,0l-4.6,0c-0.8,0-2.7-0.3-3.7-2.5l-0.5,1.8l-0.3,1.3l-1.4,0l-3.7,0l-2.2,0l0.5-2.2l0-0.1c-1.4,1.3-2.8,1.6-3.9,1.6
					c0,0,0,0,0,0l-4.4,0l-2.2,0l0.3-1l-0.5,0l-2.2,0c-1.2,0-2-0.5-2.4-1c-0.3-0.3-0.6-0.7-0.7-1.2c-0.4,1-1,1.8-1.8,2.5
					c-0.9,0.8-2.1,1.2-3.4,1.2c0,0,0,0,0,0l-3.3,0l-2.2,0l0.4-1.7c-0.2,0-0.3,0-0.5,0c0,0,0,0,0,0l-1.6,0l-0.1,0.4l-0.3,1.3l-1.4,0
					l-3.4,0l-2.2,0l0.5-2.2l3.1-12.4l-0.9,0l-1.6,6.2c-0.6,2.5-3,2.8-3.9,2.8c0,0,0,0,0,0l-15.5,0l-2.2,0l0.5-1.8
					c-0.7,1-1.9,1.6-3.5,1.6c0,0,0,0,0,0L110,64l-2.2,0l0.5-2.2l0.5-1.8l-0.5,0l-2.6,0L105,63l-0.3,1.3l-1.4,0l-2.5,0l-2.2,0
					l0.5-2.2l0.5-2.1l-0.6,0l-0.2,1c-0.5,1.8-1.7,2.9-3.3,2.9c0,0,0,0,0,0l-6.3,0l-1.1,0l-0.1,0.2l-1.4,0l-4.5,0
					c-1.8,0-3.1-0.5-3.8-1.4c-0.3-0.4-0.6-1-0.6-1.8l-0.9,1.4l0,0l0,0c-0.6,0.8-1.7,1.8-3.9,1.8c0,0,0,0,0,0l-4.5,0l-2.2,0l0-0.1
					l-2.6,0c-0.8,0-1.4-0.3-1.8-0.8c-0.5,0.5-1.1,0.8-1.9,0.8c0,0,0,0,0,0l-1.8,0l-2.2,0l0.1-0.5l-7.9,0l-2.2,0l0.5-2.2l0.6-2.5
					l0.3-1.3l0.6,0l2.2-8.7l0.2-0.6l-0.4,0l0.5-2.2l0.6-2.5l0.3-1.3l1.4,0l9.1,0l0.1-0.2l1.1,0l2.9,0l3,0l-0.9,1.5l2.8,0l1.4,0
					l0.3-1.2l1.4,0l16,0l2.2,0l-0.5,2.2L91.7,45l0.8,0l0.3-1.3l0.3-1.3l1.4,0l5.9,0l2.2,0l-0.1,0.2l8.9,0l2.2,0l0,0.2l0.1,0l6.1,0
					L120.1,42 M177.1,54.5l-1.1,0l-0.5,0l-0.1,0.8l-0.5,6.3l1.6,0l-0.3,1l0.5,0l2.8,0c0,0,0.2-0.1,0.4-0.4l0,0l0,0l2-2.9
					c-0.6,0.3-1.2,0.5-1.8,0.5c0,0,0,0,0,0l-1.8,0l-2.2,0l0.5-2.2l0.8-3.1l0.3-1.3l1.2,0c0-0.1,0.1-0.2,0.1-0.3l1.1-2.3l-1.3,0
					l-1.3,3L177.1,54.5 M205,55.8l1-4l-1.4,0l0.3-1.3l-0.6,0l-1.1,0l0,0.4l0.2,2.4l1.7,0l-0.5,2.2l-0.1,0.4L205,55.8 M88.4,58.6
					l0.6-2.3h0l0.5-2.2L90,52l0.1-0.6l0,0l0.2-0.6h0l-1.4,5.5c-0.3,1-0.8,1.8-1.5,2.4L88.4,58.6 M68.8,58.3l0.3-1.1l1.6-6.4l-4,5.7
					l0.3,1.8l0.2,0L68.8,58.3 M58.9,57.6l0.9-1.4l-0.4,0l-1.1,0L58,57.6l0.7,0L58.9,57.6 M202.6,62.6l0.7-2.8l-1,0l-1.9,0
					c-0.9,0-1.7-0.4-2.3-1.1c-0.2-0.2-0.3-0.5-0.5-0.8c-0.1,0.1-0.1,0.2-0.2,0.2l0.1,0.6l0.6,3.8c0,0,0,0,0,0l2.5,0L202.6,62.6
					 M118.2,39.6l-0.2,0.8l-1.3,0l0-0.2l-3.1,0l-2.2,0l-5.8,0l0.1-0.2l-3.1,0l-2.2,0l-5.9,0l-1.4,0l-1.9,0l0,0.2l-1.2,0l-16,0l-1,0
					l0.2-0.3l-4.2,0l-3,0l-2.9,0l-1.1,0l-1.5,0l-0.1,0.2l-7.6,0l-1.4,0l-1.9,0l-0.5,1.8L49,43.1l-0.6,2.5l-0.5,2.2l-0.7,3l0.4,0
					l-1.1,4.6l-0.6,0L45.2,57l-0.3,1.3l-0.6,2.5l-0.5,2.2L43,66l3.1,0l2.2,0l4.8,0L53,66.5l3.1,0l2.2,0l1.8,0c0.5,0,1.1-0.1,1.8-0.4
					c0.4,0.2,0.9,0.3,1.3,0.3l0,0.1l3.1,0l2.2,0l4.5,0c2.1,0,3.5-0.7,4.5-1.4c1.2,0.9,2.8,1.4,4.7,1.4l4.5,0l1.4,0l1.9,0l0.1-0.2
					l5.5,0c0,0,0,0,0,0l-0.1,0.3l3.1,0l2.2,0l2.5,0l1.4,0l1.9,0l0.1-0.2l1.2,0l2.2,0l14.9,0l0,0.2l3.1,0l2.2,0l15.5,0
					c0.4,0,0.7,0,1.1-0.1l-0.1,0.5l-0.5,2.2l-0.7,3l3.1,0l2.2,0l3.4,0l0.3,0l0,0l3.1,0l2.2,0l3.3,0c1.9,0,3.6-0.6,4.9-1.8
					c0.2-0.2,0.3-0.3,0.5-0.5c0.7,0.4,1.6,0.7,2.5,0.7l-0.3,1.1l3.1,0l2.2,0l4.4,0c0.1,0,0.3,0,0.5,0l-0.2,0.7l3.1,0l2.2,0l3.7,0
					l1.4,0l1.9,0l0.3-1.1c0.7,0.3,1.5,0.4,2.3,0.4l2.5,0l-0.1,0.2l3.1,0l2.2,0l20.4,0c2.7,0,4.4-1,5.3-1.9c1.1-1.1,1.6-2.3,1.8-3.1
					l2.1-8.4l0.5-2.2l0.6-2.2l0.6,0l0.5-1.8l0.3-1.3l0.9-3.7l0.5-2.2l0.7-3l-1.4,0l1.3-2.1l-4.3,0l-3.1,0l-2.1,0l0.1-0.3l-3.1,0
					l-2.2,0l-3.9,0l-1.4,0l-1.9,0l-0.1,0.3l-0.4,0l-3.8,0l-1.9,0l-2.7,0l0.1,1.1l-1.3,0l-4.7,0l0.4-1.6l-3.1,0l-2.2,0l-3.7,0l-1.4,0
					l-1.9,0l-0.4,1.6l-6.8,0l-1.4,0l-1.9,0l-0.1,0.4l-4.9,0l0.8-1.8l-3.8,0l-2.7,0l-2.6,0l-3,0l-3.8,0l-1,0l-1.4,0l0,0.1l-1.4,0
					l-2.2,0l-17.4,0l-1.4,0l-1.9,0l-0.1,0.5l-1.7,0l0.2-0.8l-3.1,0l-2.2,0l-3.2,0l-1.4,0L118.2,39.6L118.2,39.6z"/>
			</g>
		</g>
	</g>
	<g>
		<g>
			<g>
				<path d="M27,38.4l1.4-5.5l4.8,0l2.6-6.2l-4.7,0l1.4-5.5l5.7,0l1-2.4l-6.6,0l1.4-5.5l25.1,0l-1.4,5.5l-12.1,0l-1,2.4l11.2,0
					l-3,11.8l2,0l-1.4,5.5L27,38.4z M46.7,32.9l1.6-6.2l-6,0l-2.6,6.2L46.7,32.9z"/>
			</g>
			<g>
				<path fill="#FFFFFF" d="M34.8,14.2l22.9,0l-0.9,3.4l-12,0L43,22.1l11.4,0l-3,11.8l2,0l-0.9,3.4l-24.2,0l0.9-3.4l4.7,0l3.5-8.3
					l-5,0l0.9-3.4l5.6,0l1.9-4.5l-6.9,0L34.8,14.2 M47.5,33.9l2.1-8.3l-8.1,0L38,33.9L47.5,33.9 M33.2,12.1l-0.4,1.6l-0.9,3.4
					l-0.7,2.6l2.7,0l3.7,0L37.5,20l-4.2,0l-1.6,0l-0.4,1.6l-0.9,3.4l-0.7,2.6l2.7,0l1.8,0l-1.7,4.1l-3.3,0l-1.6,0l-0.4,1.6l-0.9,3.4
					l-0.7,2.6l2.7,0l24.2,0l1.6,0l0.4-1.6l0.9-3.4l0.7-2.6l-2,0l2.3-9.2l0.7-2.6l-2.7,0l-8.2,0l0.1-0.3l10.6,0l1.6,0l0.4-1.6
					l0.9-3.4l0.7-2.6l-2.7,0l-22.9,0L33.2,12.1L33.2,12.1z M41.2,31.8l1.7-4.1l4,0l-1,4.1L41.2,31.8L41.2,31.8z"/>
			</g>
		</g>
		<g>
			<g>
				<path d="M68.3,39.1l0.4-1.5c-0.7,0.5-1.6,0.7-2.6,0.7l-10.6,0l2.2-8.8l-1.4,0l1.2-4.9l0.2,0l1.2-4.9l4.6,0l0.1-0.5l-4.3,0l1.3-5
					l4.3,0l0.4-1.5l5.6,0l-0.4,1.5l4,0l0.3-1.3l11.5,0l-2.4,9.7c-0.3,1.1-0.8,2-1.6,2.7c0.4,0.7,0.5,1.6,0.3,2.5l-1.4,5.6
					c-0.6,2.4-2.2,3.7-4.7,3.8l-0.1,0l-2.3,0l-0.4,1.8L68.3,39.1z M76.1,32.2l1.1-4.3c-0.1,0-0.3,0-0.5,0l-0.2,0l-1.1,4.4L76.1,32.2
					z M78.3,22.7c0.1,0,0.1,0,0.2,0l1.1-4.6l-0.7,0l-1.1,4.6L78.3,22.7z"/>
			</g>
			<g>
				<path fill="#FFFFFF" d="M66.1,13.8l3.4,0l-0.4,1.5l4.9,0l-0.7,2.9l-4.9,0l-0.7,2.6l0.4,0l1.4-2.2l3.3,0l-1.4,2.2l1.5,0l-0.8,3
					l-7.3,0l-1.2,1.7l7.8,0l-2.3,9.2c-0.4,1.7-1.5,2.6-3.2,2.6c0,0,0,0,0,0l-9.3,0l2.2-8.8l-1.4,0l0.7-2.8l0.9,0c0,0,0,0,0,0
					c0.5,0,0.9-0.3,1.3-0.8l0.8-1.1l-2.3,0l0.8-3l4.6,0l0.7-2.6l-4.3,0l0.7-2.9l4.3,0L66.1,13.8 M67.1,30.1l0.5-1.9l-5.2,0l-0.5,1.9
					L67.1,30.1 M65.4,34.6c0.4,0,0.7-0.2,0.7-0.5l0.3-1.4l-5.2,0l-0.5,1.9L65.4,34.6C65.4,34.6,65.4,34.6,65.4,34.6 M75.7,14l9.3,0
					l-2.1,8.4c-0.3,1.3-1,2.2-2.1,2.8c0.8,0.6,1,1.4,0.8,2.4l-1.4,5.6c-0.5,1.9-1.7,2.9-3.7,3l-3.1,0L72.9,38l-3.2,0L75.7,14
					 M78.3,23.7c0.6,0,1-0.2,1.1-0.6L81,17l-2.8,0l-1.7,6.7L78.3,23.7C78.3,23.7,78.3,23.7,78.3,23.7 M76.5,33.2
					c0.3,0,0.5-0.2,0.6-0.6l1.3-5.3c0.1-0.3-0.5-0.5-1.7-0.5l-1,0l-1.6,6.5L76.5,33.2C76.5,33.2,76.5,33.2,76.5,33.2 M64.5,11.7
					l-0.4,1.5l-2.6,0l-1.6,0l-0.4,1.6l-0.7,2.9l-0.3,1l-0.3,0l-0.4,1.6l-0.8,3l-0.1,0.3l-0.2,0l-0.4,1.6L55.6,28l-0.7,2.6l1.4,0
					l-1.5,6.2l-0.7,2.6l2.7,0l9.3,0c0.4,0,0.7,0,1.1-0.1l-0.2,0.8l2.7,0l3.2,0l1.6,0l0.4-1.6l0-0.2l1.5,0l0.1,0l0.1,0
					c2.9-0.2,4.9-1.8,5.6-4.6l1.4-5.6c0.2-0.9,0.2-1.7,0-2.5c0.6-0.8,1.1-1.7,1.4-2.7l2.1-8.4l0.7-2.6l-2.7,0l-9.3,0l-1.6,0
					l-0.3,1.3l-1.8,0l0.4-1.5l-2.7,0l-3.4,0L64.5,11.7L64.5,11.7z"/>
			</g>
		</g>
		<g>
			<g>
				<path d="M90.5,38.9l2.8-11.2l-3.1,0L87.6,38l-5.9,0l3.9-15.7l9.1,0l0.5-2.1l-9.9,0l1.4-5.4l9.7,0l0.5-2l6.5,0l-0.5,2l9.6,0
					l-1.4,5.4l-9.8,0l-0.5,2.1l9.3,0l-3.3,13.1c-0.4,1.7-1.8,2.7-3.7,2.7l-6.2,0l1.3-5.2l3.3,0l1.3-5.1l-3.4,0l-2.8,11.2L90.5,38.9z
					"/>
			</g>
			<g>
				<path fill="#FFFFFF" d="M97.6,13.8l4.3,0l-0.5,2l9.6,0l-0.8,3.3l-23.6,0l0.8-3.3l9.7,0L97.6,13.8 M96.2,20.3l3.9,0l-0.8,3l9.3,0
					l-3,11.8c-0.3,1.2-1.2,1.9-2.7,1.9c0,0,0,0,0,0l-4.9,0l0.8-3.1l2.8,0h0c0.3,0,0.6-0.2,0.7-0.5l1.7-6.7l-5.5,0l-2.8,11.2l-3.9,0
					l2.8-11.2l-5.3,0l-2.6,10.2l-3.8,0l3.4-13.6l9.1,0L96.2,20.3 M96,11.7l-0.4,1.6l-0.1,0.4l-8.1,0l-1.6,0l-0.4,1.6l-0.8,3.3
					l-0.7,2.6l0.8,0l-0.4,1.6l-3.4,13.6L80.3,39l2.7,0l3.8,0l1.6,0l0.4-1.6l2.2-8.6l1,0l-2.1,8.6l-0.7,2.6l2.7,0l3.9,0l1.6,0
					l0.2-0.9l0.5,0l4.9,0c2.4,0,4.2-1.3,4.7-3.5l3-11.8l0.6-2.6l0.5,0l0.4-1.6l0.8-3.3l0.7-2.6l-2.7,0l-6.9,0l0.5-2l-2.7,0l-4.3,0
					L96,11.7L96,11.7z M99.4,31.8l0.7-3l1.2,0l-0.7,3L99.4,31.8L99.4,31.8z"/>
			</g>
		</g>
		<g>
			<g>
				<path d="M125.3,38.8c-0.9,0-1.7-0.4-2.2-1.2l-1-1.4l-0.7,2.6l-9,0c-1.1,0-1.9-0.3-2.4-0.9c-0.3-0.4-0.6-1.1-0.3-2.2l1.6-6.5
					l-1.8,0l1.3-5l2.4,0l2.8-11.3l22.9,0l-1.3,5l-0.9,0l-0.6,2.6l-0.9,3.7l1.8,0l-0.9,3.7l0.1,0l-0.2,0.3l-0.3,1l-0.4,0l-0.2,0.3
					c-1.2,1.9-2.2,3.1-3,3.6c-0.3,0.2-0.6,0.4-0.9,0.5l3.2,0l-1.3,5.2L125.3,38.8z M120.5,33.7l-3-4.5l-0.4,0l-1.1,4.5L120.5,33.7z
					 M128.6,29.3c0,0,0,0,0.1-0.1l-3.6,0l0.1,0.1L128.6,29.3z"/>
			</g>
			<g>
				<path fill="#FFFFFF" d="M116.9,14l20.8,0l-0.7,2.9l-17.1,0l-0.3,1l16.2,0l-0.6,2.6l-16.2,0l-0.3,1l16.2,0l-0.7,2.6l-16.2,0
					l-0.3,1l17.9,0l-0.7,2.9l-18.6,0l-1.5,6.1c-0.1,0.4,0.1,0.5,0.5,0.5l6.1,0l-0.8,3l-8.2,0c-1.5,0-2-0.6-1.7-1.8l2-7.8l-1.8,0
					l0.7-2.9l2.4,0L116.9,14 M130.3,28.9l4.1,0c-1.1,1.8-2,2.9-2.7,3.3c-0.8,0.5-1.5,0.7-2.3,0.7c0,0,0,0,0,0l-3,0l0.6,0.9
					c0.3,0.6,0.8,0.8,1.4,0.8l4.9,0l-0.8,3.1l-7,0c-0.6,0-1-0.2-1.3-0.7l-5.3-8l5,0l0.8,1.2l4,0h0C129.1,30.4,129.7,29.9,130.3,28.9
					 M115.3,11.9l-0.4,1.6l-2.4,9.7l-0.8,0l-1.6,0l-0.4,1.6l-0.7,2.9l-0.7,2.6l1.8,0l-1.3,5.2c-0.4,1.5,0.1,2.5,0.5,3.1
					c0.7,0.9,1.8,1.3,3.3,1.3l8.2,0l1.6,0l0.3-1.2c0.7,0.8,1.6,1.2,2.7,1.2l7,0l1.6,0l0.4-1.6l0.8-3.1l0.7-2.6l-1.5,0
					c0.5-0.6,1.1-1.4,1.7-2.3l0.6,0l0.4-1.6l0-0.1l1.1-1.8l-0.7,0l0.3-1l0.7-2.6l-1.8,0l0.3-1l0.7-2.6h0l0.1-0.5l0.9,0l0.4-1.6
					l0.7-2.9l0.7-2.6l-2.7,0l-20.8,0L115.3,11.9L115.3,11.9z M117.4,32.6l0.3-1.3l0.9,1.3L117.4,32.6L117.4,32.6z"/>
			</g>
		</g>
		<g>
			<g>
				<path d="M134.3,39.2l1-3.9l0.6-0.2c0.2,0,0.3-0.1,0.3-0.1l0.8-3.3l-1,0l1.1-4.3l0.7,0l2.2-8.8l4.9,0l-0.2,0.8l4.1,0l0.2-0.8
					l4.8,0l-0.2,0.8l5.6,0l-1.1,4.3l-0.6,0l-1.6,6.5c-0.1,0.5-0.3,1-0.6,1.3l1.1,0l-0.8,3.3l0.5,0l-1,4.2l-14.6,0
					c-0.6,0-1.2-0.2-1.7-0.5c-0.9,0.5-1.9,0.7-3.1,0.7L134.3,39.2z"/>
			</g>
			<g>
				<path fill="#FFFFFF" d="M140.9,19.6l2.7,0l-0.9,3.6l-2.7,0L140.9,19.6 M149.9,19.6l2.6,0l-0.2,0.8l5.6,0l-0.5,2.2l-5.6,0l-0.3,1
					l5,0l-1.6,6.3c-0.3,1.1-1,1.7-2.2,1.7c0,0,0,0,0,0l-3.3,0l-0.2,1l5.8,0l-0.5,2.2l-5.8,0l-0.2,0.7l-2.6,0l0.2-0.7l-5.6,0l0.5-2.2
					l5.6,0l0.2-1l-5.1,0l2-8l5.1,0l0.3-1l-5.6,0l0.5-2.2l5.6,0L149.9,19.6 M148.1,26.6l0.3-1l-2.6,0l-0.3,1L148.1,26.6 M153.3,26.6
					l0.3-1l-2.5,0l-0.3,1L153.3,26.6 M147.4,29.6l0.3-1l-2.6,0l-0.3,1L147.4,29.6 M152.1,29.6c0.3,0,0.5-0.2,0.6-0.7l0.1-0.4l-2.5,0
					l-0.3,1L152.1,29.6C152.1,29.6,152.1,29.6,152.1,29.6 M139.8,24l2.7,0l-0.9,3.6l-2.7,0L139.8,24 M138,28.5l3.4,0l-1.5,6.1
					c-0.1,0.2,0.1,0.5,0.4,0.8c0.4,0.2,0.7,0.4,1,0.4l13.4,0l-0.5,2.1l-13.8,0c-0.7,0-1.2-0.2-1.6-0.7c-0.9,0.6-1.9,1-3.2,1
					c0,0,0,0,0,0l0.5-2c0.6-0.2,1-0.3,1-0.5l1.2-4.9l-1,0L138,28.5 M139.2,17.5l-0.4,1.6l-0.9,3.6l-0.7,2.6h0l-0.3,1.1l-0.7,0
					L136,28l-0.6,2.2l-0.7,2.6l1,0l-0.3,1.4l-0.9,0.2l-0.3,1.2l-0.5,2l-0.7,2.6h2.7c1.1,0,2.1-0.2,3.1-0.6c0.5,0.2,1.1,0.4,1.7,0.4
					l13.8,0l1.6,0l0.4-1.6l0.5-2.1l0.7-2.6l-0.5,0l0.2-0.7l0.7-2.6l-0.8,0c0,0,0,0,0,0l1.4-5.7l0.6,0l0.4-1.6l0.5-2.2l0.7-2.6
					l-2.7,0l-3,0l0.2-0.8l-2.7,0l-2.6,0l-1.6,0l-0.2,0.8l-1.9,0l0.2-0.8l-2.7,0l-2.7,0L139.2,17.5L139.2,17.5z"/>
			</g>
		</g>
		<g>
			<g>
				<path d="M156.3,39.1l3-11.8l-1.5,0l1.2-4.8l1.6,0c0,0,0.1-0.1,0.1-0.1l2.3-3.9l5.4,0l-0.7,1.2l6.9,0c0,0,0.1-0.1,0.2-0.3
					l0.3-0.5l4.8,0l-0.4,1.4c-0.5,1.4-1,2.4-1.7,3c-0.7,0.6-1.6,0.9-2.6,0.9l-1.7,0l-0.6,2.4l5.4,0l-1.2,4.7l-5.4,0l-0.7,2.8l4.9,0
					l-1.1,4.6l-13.5,0l-0.1,0.5L156.3,39.1z M166,34.1l0.7-2.8l-3.5,0l-0.7,2.8L166,34.1z M167.9,26.5l0.6-2.4l-3.5,0l0,0l-0.6,2.3
					L167.9,26.5z"/>
			</g>
			<g>
				<path fill="#FFFFFF" d="M163.5,19.5l3,0l-2.5,4.3l-3.6,14.3l-2.7,0l3-11.8l-1.5,0l0.7-2.7l1,0h0c0.2,0,0.5-0.2,0.7-0.7
					L163.5,19.5 M175.6,19.9l2.8,0c-0.4,1.2-0.8,2-1.4,2.5c-0.5,0.4-1.1,0.7-1.9,0.7c0,0,0,0,0,0l-2.5,0l-1.1,4.5l5.4,0l-0.7,2.6
					l-5.4,0l-1.2,4.9l4.9,0l-0.6,2.5l-12.4,0l0.6-2.5l4.6,0l1.2-4.9l-5.1,0l0.7-2.6l5.1,0l1.1-4.5l-4.4,0l0.6-2.4l8.5,0h0
					C175,20.7,175.3,20.4,175.6,19.9 M162.3,17.4l-0.6,1l-1.8,3l-0.2,0l-1.6,0l-0.4,1.6l-0.7,2.7l-0.7,2.6l1.5,0l-2.3,9.2l-0.7,2.6
					l2.7,0l2.7,0l1.6,0l0.1-0.5l11.8,0l1.6,0l0.4-1.6l0.6-2.5l0.7-2.6l-2.7,0l-2.2,0l0.2-0.7l3.8,0l1.6,0l0.4-1.6l0.7-2.6l0.7-2.6
					l-2.7,0l-2.7,0l0.1-0.3l0.8,0c1.2,0,2.4-0.4,3.3-1.2c0.9-0.7,1.5-1.8,2-3.5l0.9-2.7l-2.9,0l-2.8,0l-1.2,0l-0.5,0.8l-4.5,0
					l0.7-1.2l-3.7,0l-3,0L162.3,17.4L162.3,17.4z M165.7,25.4l0.1-0.3l1.3,0l-0.1,0.3L165.7,25.4L165.7,25.4z M163.8,33l0.2-0.7
					l1.3,0l-0.2,0.7L163.8,33L163.8,33z"/>
			</g>
		</g>
		<g>
			<g>
				<path d="M182.7,39l1.1-4.3l4.8,0l0.4-1.7l-4.5,0l-1.7,3.5c-1,2-2.5,2.4-3.6,2.4l-3.7,0l1.1-4.4l2,0c0-0.1,0.1-0.1,0.2-0.3
					l0.6-1.3l-2.4,0l1.6-6.3l-0.1,0l1.1-4.3l0.2,0l0.8-3.1l15,0c0,0,0.1,0,0.2-0.2l0.3-0.5l4.8,0l-0.4,1.4c-0.3,1-0.8,1.8-1.3,2.4
					l0.7,0l-0.9,3.5l-1,4.1l-0.6,0l-0.5,2.1l0.7,0l-1.1,4.5c-0.2,0.9-1,2.4-3.9,2.4L182.7,39z"/>
			</g>
			<g>
				<path fill="#FFFFFF" d="M196.5,19.7l2.8,0c-0.4,1.1-0.8,1.8-1.3,2.3c-0.5,0.4-1.1,0.6-1.9,0.6c0,0,0,0,0,0l-5,0l-0.2,0.9l7.5,0
					l-0.6,2.2l-7.5,0l-0.9,3.6l-3.1,0l0.9-3.6l-7.5,0l0.6-2.2l7.5,0l0.2-0.9l-7.2,0l0.6-2.2l14.2,0c0,0,0,0,0,0
					C195.9,20.3,196.3,20.1,196.5,19.7 M183.3,26.3l3.1,0l-1.8,2c-0.4,0.4-0.9,0.7-1.5,0.7c0,0,0,0,0,0l-4.1,0l0.5-2l3,0h0
					c0.1,0,0.3,0,0.4-0.2L183.3,26.3 M190.9,26.3l3.1,0l0.2,0.5c0,0.1,0.1,0.2,0.3,0.2l3,0l-0.5,2l-4.5,0c-0.4,0-0.7-0.2-0.9-0.7
					L190.9,26.3 M178.8,29.8l17.4,0l-0.6,2.3l-2.2,1l2.6,0l-0.8,3.2c-0.3,1.1-1.2,1.6-2.9,1.6c0,0,0,0,0,0l-8.4,0l0.5-2.2l7.6,0
					c0,0,0,0,0,0c0.3,0,0.5-0.1,0.5-0.2l0.1-0.6l-3.3,0l0.5-1.8l2.2-1.2l-8.4,0l-2,4.1c-0.6,1.2-1.5,1.8-2.7,1.8c0,0,0,0,0,0l-2.4,0
					l0.6-2.3l1.4,0h0c0.2,0,0.5-0.3,0.9-0.8l1.3-2.9l-2.7,0L178.8,29.8 M195.4,17.6l-0.4,0.7l-13.6,0l-1.6,0l-0.4,1.6l-0.4,1.5
					l-0.2,0l-0.4,1.6l-0.6,2.2l-0.7,2.6l0.1,0l-0.2,0.7l-0.7,2.6h0l-0.1,0.4l-0.5,2.1h0l-0.4,1.6l-0.6,2.3l-0.7,2.6l2.7,0l2.4,0
					c0.8,0,1.6-0.2,2.3-0.6l-0.1,0.6l2.7,0l8.4,0c3.7,0,4.7-2.2,4.9-3.2l0.8-3.2l0.7-2.6l-0.7,0l0,0l0.6,0l0.4-1.6l0.4-1.7h0
					l0.1-0.4l0.6-2.5h0l0.2-0.9l0.7-2.6l-0.1,0c0.1-0.3,0.3-0.6,0.4-1l0.9-2.8l-2.9,0l-2.8,0L195.4,17.6L195.4,17.6z"/>
			</g>
		</g>
		<g>
			<g>
				<path d="M63.7,63.5c-0.4,0-1.3-0.1-1.7-1.3c-0.5,0.6-1.1,1.3-2,1.3l-3.1,0L57,63l-10.1,0l1.2-4.7l0.6,0l2.5-10l3.6,0l0.2-0.7
					l-4,0l1.1-4.6l10.3,0l0.1-0.2l5.4,0L67,44.4l5.3,0l-0.8,3.3l0.5,0l-0.8,1.1l-0.1,0.4H71l-5,7.2l0.5,2.6l2.1,0l-1.1,4.5
					L63.7,63.5z M59.3,58.3l1.5-2.3l-0.3-1.5l-0.3,1.1l-2.5,0l-0.7,2.8L59.3,58.3z M64.8,49.5l0.1,0.4l0.5-0.7l-1.1,0
					c-0.1,0.1-0.1,0.2-0.2,0.3L64.8,49.5z"/>
			</g>
			<g>
				<path fill="#FFFFFF" d="M63.2,43.9l2.9,0l-0.9,1.5l5.8,0l-0.7,2.7l-6.7,0l-0.2,0.4c-0.6,1-1.2,1.5-2,1.5c0,0,0,0,0,0l-1.8,0
					l0.6-2.5l0.7,0h0c0.3,0,0.6-0.3,0.8-0.8L63.2,43.9 M53,44.1l9.3,0l-0.6,2.5l-2.7,0l-1.3,5.3l2.5,0l-0.7,2.6l-2.5,0l-1.2,4.9
					l2.9,0L58,61.9l-9.7,0l0.6-2.5l0.6,0l2.5-10l2.4,0l-2.5,10l1.2,0l3.2-12.8l-4,0L53,44.1 M66.9,48.7l3.1,0l-5.1,7.4l0.6,3.2
					c0.1,0.5,0.2,0.7,0.5,0.7l1.3,0l-0.6,2.4l-2.9,0c-0.4,0-0.7-0.3-0.8-0.9l-0.4-1.9l-1.2,1.7c-0.5,0.8-1,1.1-1.3,1.1h0l-1.8,0
					l0.6-2.5l0.4,0h0c0.2,0,0.5-0.3,0.9-1l1.7-2.6l-1.1-5.7l3.1,0l0.4,2.1L66.9,48.7 M61.9,41.8L61.8,42L53,42l-1.6,0l-0.4,1.6
					L50.3,46l-0.7,2.6l0.4,0l0,0.2l-2.1,8.4l-0.6,0l-0.4,1.6l-0.6,2.5L45.6,64l2.7,0l7.4,0l-0.1,0.5l2.7,0l1.8,0
					c0.7,0,1.3-0.3,1.9-0.7c0.5,0.5,1.2,0.7,1.8,0.7l2.9,0l1.6,0l0.4-1.6l0.6-2.4l0.7-2.6l-2.5,0l-0.2-1.3l4.4-6.3l0.5,0l0.3-1
					l1.8-2.6l-1.2,0l0.2-0.7l0.7-2.6l-2.7,0l-2.2,0l0.9-1.5l-3.7,0l-2.9,0L61.9,41.8L61.9,41.8z M58.4,57.3l0.2-0.7l0.5,0l-0.4,0.7
					l-0.1,0L58.4,57.3L58.4,57.3z"/>
			</g>
		</g>
		<g>
			<g>
				<path d="M67.1,63.6l1.1-4.3l4.1,0l0.4-0.6l-3.3,0l3.9-15.5l18.2,0L88.3,56c-0.4,1.7-1.7,2.7-3.6,2.7l-0.4,0l-0.1,0.5l4.5,0
					l-1.1,4.3l-5.3,0c-1.6,0-2.7-0.4-3.3-1.2c-0.3-0.4-0.7-1.2-0.4-2.3l0.3-1.3l-0.5,0L76.3,62c-0.5,0.7-1.4,1.5-3.3,1.5L67.1,63.6z
					"/>
			</g>
			<g>
				<path fill="#FFFFFF" d="M74.1,44.3l16,0l-2.9,11.5c-0.3,1.3-1.2,1.9-2.6,1.9c0,0,0,0,0,0l-1.2,0l-0.5,2.2
					c-0.1,0.3,0.1,0.5,0.7,0.5l3.7,0l-0.5,2.2l-4.5,0c-2.1,0-3-0.7-2.6-2.2l0.7-2.6l-9.5,0L74.1,44.3 M86.2,48.1l0.4-1.6l-10.1,0
					l-0.4,1.6L86.2,48.1 M85.3,51.7l0.3-1.3l-10.1,0l-0.3,1.3L85.3,51.7 M83.8,55.4c0.4,0,0.6-0.2,0.7-0.7l0.2-0.8l-10.1,0l-0.4,1.5
					L83.8,55.4C83.8,55.4,83.8,55.4,83.8,55.4 M74.2,58.4l3.2,0l-1.9,3.1c-0.5,0.7-1.3,1.1-2.4,1.1c0,0,0,0,0,0l-4.5,0l0.5-2.2
					l3.5,0c0,0,0,0,0,0c0.2,0,0.4-0.1,0.6-0.3L74.2,58.4 M72.5,42.2l-0.4,1.6l-3.4,13.4l-0.3,1.1l-1.1,0l-0.4,1.6L66.4,62l-0.7,2.6
					l2.7,0l4.5,0c2.3,0,3.6-1.1,4.2-2l0,0l0,0l0.4-0.6c0.1,0.4,0.3,0.8,0.5,1c0.8,1.1,2.2,1.6,4.1,1.6l4.5,0l1.6,0l0.4-1.6l0.5-2.2
					l0.7-2.6l-1.6,0c0.4-0.5,0.8-1.2,0.9-1.9l2.9-11.5l0.7-2.6l-2.7,0l-16,0L72.5,42.2L72.5,42.2z"/>
			</g>
		</g>
		<g>
			<g>
				<path d="M99.4,63.6l1.1-4.2l-2,0l-0.4,1.5c-0.5,2.2-2,2.4-2.6,2.4l-7.6,0l1.9-7.6l1.4-5.6L91,50l1.1-4.3l1,0l0.7-2.6l8.1,0
					l-0.1,0.2l11.1,0l-0.8,3.2l0.3,0l-2.8,6.8c-0.3,0.7-0.6,1.2-0.9,1.5l1.6,0l-1.1,4.5l-3.9,0l-1.1,4.2L99.4,63.6z M94,59.1
					l0.2-0.7l-0.5,0l-0.2,0.7L94,59.1z M99.8,54.9c0-0.1-0.1-0.1-0.1-0.2l0,0.2H99.8z"/>
			</g>
			<g>
				<path fill="#FFFFFF" d="M94.6,44.1l5.9,0l-0.5,2.1l-5.9,0L94.6,44.1 M101.8,44.4l9.6,0l-0.6,2.3l-3.6,0l-2.3,9.2l3.9,0l-0.6,2.4
					l-3.9,0l-1.1,4.2l-2.5,0l1.1-4.2l-3.6,0l0.6-2.4l3.6,0l2.3-9.2l-3.5,0L101.8,44.4 M92.9,46.7l8.1,0l-0.6,2.2l-8.1,0L92.9,46.7
					 M100.8,47.6l2.5,0l-0.5,4.2c-0.1,0.5,0,0.8,0.2,0.8l-0.5,2.2l-1,0c-0.7,0-1.1-0.6-1-1.8L100.8,47.6 M108.3,47.6l2.5,0l-2.2,5.4
					c-0.5,1.3-1.2,1.9-2,1.9c0,0,0,0,0,0l-1,0l0.6-2.2l0.2,0h0c0.1,0,0.3-0.3,0.5-0.8L108.3,47.6 M92.4,49.6l7.5,0l-0.5,2.1l-7.5,0
					L92.4,49.6 M91.7,52.4l7.5,0l-0.5,2.2l-7.5,0L91.7,52.4 M91,55.3l7.5,0l-1.3,5.3c-0.3,1.1-0.8,1.6-1.6,1.6c0,0,0,0,0,0l-6.3,0
					L91,55.3 M94.6,60.1c0.2,0,0.3-0.1,0.3-0.4l0.6-2.4l-2.7,0l-0.7,2.8L94.6,60.1L94.6,60.1 M92.9,42l-0.4,1.6l-0.3,1l-1,0
					l-0.4,1.6l-0.6,2.2l-0.7,2.6l0.2,0l0,0.2l0,0.1l-0.1,0.6L89.1,54l-0.7,2.6h0l-1.3,5l-0.7,2.6l2.7,0l6.3,0c1.3,0,2.4-0.7,3.1-1.8
					l-0.5,2.2l2.7,0l2.5,0l1.6,0l0.4-1.6l0.7-2.6l2.3,0l1.6,0l0.4-1.6l0.6-2.4l0.7-2.6l-1.1,0c0,0,0-0.1,0-0.1l2-5h0l0,0l0.2-0.4
					l1.2-2.9l-0.5,0l0.1-0.6l0.7-2.6l-2.7,0l-8.4,0l0.1-0.2l-2.7,0l-5.9,0L92.9,42L92.9,42z"/>
			</g>
		</g>
		<g>
			<g>
				<path d="M108.6,63.4l1.8-7.3l-0.5,0l0.7-2.7l-0.2,0l1-4l0.7,0l0.2-0.6l-0.7,0l1.3-5.2l7.5,0l0.2-0.8l5.4,0l-0.2,0.8l7.6,0
					l-1.3,5.2l-1.2,0c-0.2,0.2-0.3,0.4-0.5,0.6l1.6,0l-1,4l-0.2,0L130,56l-0.6,0l-1.3,5c-0.4,1.5-1.6,2.3-3.3,2.3L108.6,63.4z"/>
			</g>
			<g>
				<path fill="#FFFFFF" d="M121.4,43.8l3.2,0l-0.2,0.8l7.6,0l-0.8,3.1l-1,0c-0.3,0.5-0.6,0.9-1,1.2c-0.3,0.2-0.7,0.4-1.2,0.4
					l-0.7,1.1l3.2,0l-0.5,1.9l-7.8,0l-0.7,2.6l-2.9,0l0.7-2.6l-7.6,0l0.5-1.9l3.1,0l-0.1-1l-2.1,0l0.4-1.7l-0.7,0l0.8-3.1l7.5,0
					L121.4,43.8 M126.5,47.5c0.4,0,0.8-0.2,1.1-0.5l1.2,0l0.1-0.5l-12.9,0l-0.3,1L126.5,47.5C126.5,47.5,126.5,47.5,126.5,47.5
					 M119.9,50.4l0.3-1l-2.1,0l0.1,1L119.9,50.4 M124.6,50.4l0.6-1l-2.2,0l-0.3,1L124.6,50.4 M115.4,52.6l3.2,0l-1.8,1.8
					c-0.4,0.4-0.9,0.6-1.6,0.6c0,0,0,0,0,0l-3.9,0l0.4-1.7l2.7,0h0c0.2,0,0.3,0,0.4-0.2L115.4,52.6 M123,52.6l3.2,0l0.2,0.6
					c0,0.1,0.1,0.2,0.3,0.2l2.9,0l-0.4,1.7l-4.5,0c-0.4,0-0.8-0.2-1-0.6L123,52.6 M111.7,55.4l16.8,0l-1.4,5.4c-0.2,1-1,1.5-2.3,1.5
					c0,0,0,0,0,0l-14.9,0L111.7,55.4 M118.2,58l0.2-0.8l-4.5,0l-0.2,0.8L118.2,58 M125.3,58l0.2-0.8l-4.5,0l-0.2,0.8L125.3,58
					 M117.6,60.5l0.2-0.8l-4.5,0l-0.2,0.8L117.6,60.5 M124.2,60.5c0.3,0,0.5-0.2,0.6-0.5l0.1-0.2l-4.5,0l-0.2,0.8L124.2,60.5
					C124.2,60.5,124.2,60.5,124.2,60.5 M119.8,41.7l-0.2,0.8l-5.8,0l-1.6,0l-0.4,1.6l-0.8,3.1l-0.3,1.1l0,0l-0.4,1.6l-0.5,1.9
					l-0.7,2.6l0.2,0l0,0.1l-0.7,2.6l0.5,0l-1.2,4.7l-0.7,2.6l2.7,0l14.9,0c2.2,0,3.9-1.2,4.3-3.1l1.1-4.2l0.6,0l0.4-1.6l0.3-1.1
					l0.2,0l0.4-1.6l0.5-1.9l0.3-1.1h0l0.4-1.6l0.8-3.1l0.7-2.6l-2.7,0l-5,0l0.2-0.8l-2.7,0l-3.2,0L119.8,41.7L119.8,41.7z"/>
			</g>
		</g>
		<g>
			<g>
				<path d="M128.8,63.5l5.1-20.5l19.5,0l-4.6,18.3c-0.2,0.8-0.9,2.2-3.3,2.2L128.8,63.5z M135,59.5l-0.1-0.4l-0.2,0l-0.1,0.4
					L135,59.5z"/>
			</g>
			<g>
				<path fill="#FFFFFF" d="M134.7,44.1l17.4,0l-4.3,17c-0.2,1-1,1.4-2.3,1.4c0,0,0,0,0,0l-15.5,0L134.7,44.1 M144.8,60.6
					c0.4,0,0.7-0.2,0.8-0.5l3.5-14.1l-12.3,0l-3.7,14.6L144.8,60.6C144.8,60.6,144.8,60.6,144.8,60.6 M141.9,46.2l2.3,0l-0.1,0.3
					l4.3,0l-0.4,1.6l-4.3,0l-0.1,0.5l3.9,0l-1.1,4.4c-0.2,0.6-0.5,1-1,1.1l1.4,0c-0.3,0.8-0.6,1.3-1.1,1.6c-0.3,0.2-0.7,0.3-1.1,0.4
					l-0.1,0.4l1.3,0l-0.4,1.6l-1.3,0l-0.3,1.3c-0.2,0.7-0.7,1-1.7,1c0,0,0,0,0,0l-2.8,0l0.4-1.6l1.5,0c0,0,0,0,0,0
					c0.2,0,0.3-0.1,0.4-0.2l0.1-0.4l-7.2,0l0.4-1.6l7.2,0l0.1-0.4l-7.5,0l0.4-1.6l4.6,0l0.1-0.4l-4.1,0l1.4-5.6l4.1,0l0.1-0.5
					l-4.5,0l0.4-1.6l4.5,0L141.9,46.2 M140.7,50.6l0.1-0.5l-1.8,0l-0.1,0.5L140.7,50.6 M144.6,50.6l0.1-0.5l-1.6,0l-0.1,0.5
					L144.6,50.6 M140.3,52.5l0.1-0.5l-1.8,0l-0.1,0.5L140.3,52.5 M144,52.5c0.1,0,0.2-0.1,0.3-0.3l0-0.1l-1.6,0l-0.1,0.5L144,52.5
					L144,52.5 M143.6,54.5c0.3,0,0.6-0.1,0.8-0.4l-2.2,0l-0.1,0.4L143.6,54.5C143.6,54.5,143.6,54.5,143.6,54.5 M135.6,58.4l2.5,0
					l0.1,0.5c0,0.1,0.1,0.2,0.3,0.2l0.7,0l-0.3,1.3l-2,0c-0.4,0-0.6-0.1-0.8-0.5L135.6,58.4 M133.1,42l-0.4,1.6L128.1,62l-0.7,2.6
					l2.7,0l15.5,0c2.2,0,3.8-1.1,4.3-3l4.3-17l0.7-2.6l-2.7,0l-17.4,0L133.1,42L133.1,42z"/>
			</g>
		</g>
		<g>
			<g>
				<path d="M158.3,69.1l0.5-1.9c-0.5,0.2-1,0.3-1.4,0.3l-2.1,0l-0.4,1.7l-5.6,0l3.6-14.5l-1.5,0l1.4-5.5l1.5,0
					c0.1-0.1,0.1-0.2,0.3-0.4l3.1-5.6l11.7,0l-0.8,1.8l11.6,0l-0.9,3.6l-2.4,5.4l-6.1,0l-0.1,0.3l4.4,0l-0.7,8c0,0,0,0.1,0,0.1
					l1.5,0l-1.3,5.3l-3,0c-1,0-1.6-0.4-1.9-0.8c-0.6-0.7-0.9-1.7-0.8-3.1l0.1-2.4l-1,3.9c-0.3,1.1-0.9,2-1.8,2.8
					c-0.8,0.7-1.8,1.1-2.9,1.1L158.3,69.1z M162.2,63.9c0.1-0.1,0.1-0.3,0.2-0.7L163,61l-1.3,3L162.2,63.9z M156.5,62.2
					c0.1-0.1,0.2-0.3,0.4-0.7l3-7.3l4.8,0l0.8-3.1l0,0.1c-1.2,2.4-3,2.9-4.3,2.9l-2.6,0L156.5,62.2L156.5,62.2z M170.5,53.7l1.8-3.6
					l-0.9,0L170.5,53.7z M160.5,48.9c0.1-0.1,0.2-0.2,0.3-0.4l0.6-1.2l-1,1.7H160.5z"/>
			</g>
			<g>
				<path fill="#FFFFFF" d="M158.2,44.1l3.8,0l-3.5,5.9L154,68.1l-3.4,0l3.6-14.5l-1.5,0l0.9-3.4l0.9,0h0c0.3,0,0.6-0.3,1-1
					L158.2,44.1 M163.9,44.1l3.7,0l-0.8,1.8l11.9,0l-0.5,2.2l-2.1,4.7l-3.8,0l1.9-3.7l-8.8,0l-0.8,1.6c-0.8,1.5-1.9,2.3-3.3,2.3
					c0,0,0,0,0,0l-2.4,0l0.8-3.1l1.1,0h0c0.3,0,0.6-0.3,1-1L163.9,44.1 M166.6,51.1l3.6,0L166.6,65c-0.2,0.9-0.7,1.7-1.5,2.3
					c-0.6,0.5-1.4,0.8-2.2,0.8c0,0,0,0,0,0l-3.3,0l0.8-3.1l2.1,0c0,0,0,0,0,0c0.4,0,0.7-0.5,1-1.5L166.6,51.1 M170,55.1l3.7,0
					l-0.6,6.8c-0.1,0.9,0,1.3,0.3,1.3l0.9,0l-0.8,3.2l-2.2,0c-1.2,0-1.8-0.9-1.7-2.8L170,55.1 M160.6,55.2l3.7,0l-3.5,8.3
					c-0.9,1.9-2,2.9-3.5,2.9c0,0,0,0,0,0l-2.1,0l0.8-3.1l0.8,0h0c0.3,0,0.6-0.5,1.1-1.4L160.6,55.2 M157,42l-0.6,1.1l-2.7,5l-0.1,0
					l-1.6,0l-0.4,1.6l-0.9,3.4l-0.7,2.6l1.5,0l-3,11.9l-0.7,2.6l2.7,0l3.4,0l1.6,0l0.4-1.6l0-0.1l1.3,0c0,0,0,0,0,0l-0.4,1.7l2.7,0
					l3.3,0c1.4,0,2.6-0.5,3.6-1.3c0.7-0.6,1.2-1.2,1.6-1.9c0.1,0.2,0.3,0.4,0.5,0.6c0.5,0.5,1.3,1.1,2.7,1.1l2.2,0l1.6,0l0.4-1.6
					l0.8-3.2l0.7-2.6l-1.7,0l0.5-5.9l0-0.5l0.1,0l1.4,0l0.6-1.2l2.1-4.7l0.1-0.2l0-0.2l0.5-2.2l0.7-2.6l-2.7,0l-8.6,0l0.8-1.8
					l-3.3,0l-3.7,0l-1.3,0l-0.6,0l-3.8,0L157,42L157,42z"/>
			</g>
		</g>
		<g>
			<g>
				<path d="M184.5,69.3l1.1-4.6l-0.9,1.4c-1.5,2.1-3.2,2.6-4.4,2.6l-5.7,0l1.3-5.3l3.7,0c0.3,0,0.7-0.2,1-0.7l3-4.5l0.7,0
					c-0.3-0.4-0.5-0.9-0.5-1.7l0-0.2l-0.1,0.2c-0.9,1.8-2.1,2.7-3.5,2.7l-3.1,0l1.3-5.2l1.1,0c0.1-0.1,0.2-0.3,0.4-0.6l1.6-3.3
					l-1.9,0l1.4-5.4l10,0l0.4-1.6l5.8,0l-0.4,1.6l10,0l-1.4,5.4l-4,0l-0.1,0.2l1.5,0l0.3,4l1.5,0l-1.3,5.1l-2.7,0
					c-0.8,0-2.1-0.3-2.5-2.6l0-0.1l0-0.1c-0.2,0.4-0.6,1.1-1.2,1.7l0.1,0l0.8,4.9c0,0.2,0,0.3,0.6,0.3l3.9,0l-1.3,5.3l-5.4,0
					c-0.9,0-2.6-0.4-3.3-2.9l0,0l-0.3-1.7l-1.3,5.2L184.5,69.3z M188.5,50l0,3.3l0.9-3.5l-2.2,0l-0.1,0.2L188.5,50z M195,50.8
					l0.4-0.9l-0.1,0L195,50.8z"/>
			</g>
			<g>
				<path fill="#FFFFFF" d="M192,43.9l3.7,0l-0.4,1.6l10,0l-0.8,3.3l-10,0l-2.6,10.3l4.1,0l0.7,4c0.1,0.8,0.7,1.2,1.7,1.2l2.5,0
					l-0.8,3.2l-4.6,0c-1.1,0-1.9-0.7-2.3-2.1l-1.3-6.1l-2.2,8.8l-3.7,0l2.2-8.8l-4.2,6.1c-1,1.4-2.2,2.1-3.6,2.1c0,0,0,0,0,0l-4.4,0
					l0.8-3.2l2.8,0c0,0,0,0,0,0c0.7,0,1.3-0.4,1.8-1.2l2.7-4l4.1,0l2.6-10.3l-10,0l0.8-3.3l10,0L192,43.9 M182.6,49.5l3.6,0
					l-0.9,1.6l2.2,0l0,3c0,0.6,0.2,0.9,0.7,0.9l0.3,0l-0.7,2.9l-1.8,0c-0.6,0-1.1-0.6-1.2-1.7l-0.3-3.6l-1.8,3.2
					c-0.8,1.4-1.6,2.1-2.6,2.1c0,0,0,0,0,0l-1.8,0l0.8-3.1l0.4,0h0c0.4,0,0.8-0.4,1.2-1.3L182.6,49.5 M196.6,49.5l3.6,0l-0.8,1.6
					l2.3,0l0.2,3c0.1,0.6,0.4,0.9,1,0.9l0.2,0l-0.8,3l-1.9,0c-0.7,0-1.2-0.6-1.5-1.8l-0.4-3.5l-1.5,3c-0.7,1.4-1.5,2.1-2.3,2.1h0
					l-1.9,0l0.8-3.1l0.5,0c0,0,0,0,0,0c0.2,0,0.5-0.4,0.8-1.2L196.6,49.5 M190.3,41.8l-0.4,1.6l-8.4,0l-1.6,0l-0.4,1.6l-0.8,3.3
					l-0.7,2.6l1.6,0l-0.9,1.8c0,0,0,0,0,0.1l-1.3,0l-0.4,1.6l-0.8,3.1l-0.7,2.6l2.7,0l1.8,0c0.3,0,0.6,0,0.9-0.1l-1.3,2l0,0l0,0
					c-0.1,0.1-0.2,0.2-0.2,0.2l-2.7,0l-1.6,0l-0.4,1.6l-0.8,3.2l-0.7,2.6l2.7,0l4.4,0c0.9,0,2.1-0.2,3.3-1l-0.4,1.6l2.7,0l3.7,0
					l1.6,0l0.4-1.6l0.2-0.9c1.1,1.7,2.8,1.9,3.5,1.9l4.6,0l1.6,0l0.4-1.6l0.8-3.2l0.7-2.6l-2.7,0l-2.2,0l-0.5-3.1
					c0.6,0.7,1.5,1,2.4,1l1.9,0l1.6,0l0.4-1.6l0.8-3l0.7-2.6l-1.9,0l-0.1-2l0,0l0.7,0l1.6,0l0.4-1.6l0.8-3.3l0.7-2.6l-2.7,0l-7.3,0
					l0.4-1.6l-2.7,0l-3.7,0L190.3,41.8L190.3,41.8z"/>
			</g>
		</g>
		<g>
			<g>
				<path d="M201.8,68.9l3.1-12.3l0.7,0l1.4-5.4l-1.4,0l1.4-5.8l3.1,0l-0.2-2.1l6,0l0.2,2.1l1.1,0l0.6-2.4l6,0l-0.6,2.4l0.9,0
					l1.3-2.1l6.3,0l-1.3,2.1l2.9,0l-1.4,5.8l-1.6,0l-1,4c-0.1,0.6-0.4,1-0.6,1.4l1.2,0l-2.4,9.7c-0.2,1-1.1,2.7-4.1,2.7L201.8,68.9z
					"/>
			</g>
			<g>
				<path fill="#FFFFFF" d="M218.6,44l3.9,0l-0.6,2.4l2.8,0l1.3-2.1l3.8,0l-1.3,2.1l3.5,0l-0.9,3.7l-3.6,0l0.2-0.9l-17.1,0l-0.2,0.9
					l-3.6,0l0.9-3.7l3.5,0l-0.2-2.1l3.8,0l0.2,2.1l2.9,0L218.6,44 M208.2,50.4l21.3,0l-1.1,4.5c-0.3,1.3-1,1.9-2.1,1.9c0,0,0,0,0,0
					l-19.6,0L208.2,50.4 M224.8,54.3c0.2,0,0.3-0.1,0.4-0.2l0.3-1.1l-14.6,0l-0.3,1.4L224.8,54.3L224.8,54.3 M205.7,57.6l22.9,0
					l-2.1,8.4c-0.3,1.2-1.3,1.9-3.1,1.9c0,0,0,0,0,0l-20.4,0L205.7,57.6 M214.3,61.5l0.3-1.1l-6.1,0l-0.3,1.1L214.3,61.5
					 M224.1,61.5l0.3-1.1l-6.2,0l-0.3,1.1L224.1,61.5 M213.3,65.2l0.3-1.1l-6.1,0l-0.3,1.1L213.3,65.2 M222.3,65.2
					c0.5,0,0.9-0.2,1-0.6l0.1-0.5l-6.2,0l-0.3,1.1L222.3,65.2C222.3,65.2,222.3,65.2,222.3,65.2 M217,41.9l-0.2,0.7l0-0.4l-1.9,0
					l-3.8,0l-2.3,0l0.2,2.1l-1.1,0l-1.6,0l-0.4,1.6l-0.9,3.7l-0.7,2.6l1.4,0l-0.8,3.3l-0.7,0l-0.4,1.6l-2.6,10.2l-0.7,2.6l2.7,0
					l20.4,0c1.3,0,4.3-0.3,5.1-3.5l2.1-8.4l0.7-2.6l-0.9,0c0,0,0-0.1,0-0.1l0.8-3.2l1.6,0l0.4-1.6l0.9-3.7l0.7-2.6l-2.4,0l1.3-2.1
					l-3.7,0l-3.8,0l-0.9,0l0.1-0.3l-2.7,0l-3.9,0L217,41.9L217,41.9z"/>
			</g>
		</g>
	</g>
	<g>
		<g>
			<g>
				<g>
					<path fill="#FFFFFF" d="M31.1,67.1c-0.7,0-1.4-0.2-1.9-0.7L22.7,61c-1.2-1.1-1.4-2.9-0.4-4.2l6.8-8.1c0.6-0.7,1.4-1.1,2.3-1.1
						c0.7,0,1.4,0.2,1.9,0.7l6.5,5.5c0.6,0.5,1,1.2,1,2c0.1,0.8-0.2,1.6-0.7,2.2l-6.8,8.1C32.8,66.8,32,67.1,31.1,67.1L31.1,67.1z"
						/>
				</g>
				<g>
					<path fill="#1C75BC" d="M31.4,48.9c0.4,0,0.8,0.1,1.1,0.4l6.5,5.5c0.7,0.6,0.8,1.7,0.2,2.5l-6.8,8.1c-0.3,0.4-0.8,0.6-1.3,0.6
						c-0.4,0-0.8-0.1-1.1-0.4l-6.5-5.5c-0.7-0.6-0.8-1.7-0.2-2.5l6.8-8.1C30.4,49.1,30.9,48.9,31.4,48.9 M31.4,46.5
						c-1.2,0-2.4,0.5-3.2,1.5l-6.8,8.1c-1.5,1.8-1.3,4.4,0.5,5.9l6.5,5.5c0.7,0.6,1.7,1,2.7,1c1.2,0,2.4-0.5,3.2-1.5l6.8-8.1
						c1.5-1.8,1.3-4.4-0.5-5.9l-6.5-5.5C33.4,46.9,32.4,46.5,31.4,46.5L31.4,46.5z"/>
				</g>
			</g>
			<g>
				<g>
					<path fill="#FFFFFF" d="M27.4,74.6c-0.7,0-1.4-0.2-1.9-0.7l-9.5-8c-0.8-0.6-1.1-1.6-1-2.6c0.1-1,0.7-1.8,1.6-2.3l3.4-1.8
						c0.4-0.2,0.9-0.3,1.4-0.3c0.7,0,1.4,0.2,1.9,0.7l7.3,6.2c0.9,0.8,1.3,2,0.9,3.2l-1.2,3.6C29.9,73.8,28.7,74.6,27.4,74.6
						L27.4,74.6z"/>
				</g>
				<g>
					<path fill="#1C75BC" d="M21.3,60.1c0.4,0,0.8,0.1,1.1,0.4l7.3,6.2c0.5,0.5,0.8,1.2,0.5,1.9l-1.2,3.6c-0.3,0.8-1,1.2-1.7,1.2
						c-0.4,0-0.8-0.1-1.1-0.4l-9.5-8c-1-0.8-0.8-2.3,0.3-2.9l3.4-1.8C20.7,60.1,21,60.1,21.3,60.1 M21.3,57.7
						c-0.7,0-1.3,0.2-1.9,0.5L16,59.9c-1.2,0.6-2,1.9-2.2,3.2c-0.1,1.4,0.4,2.7,1.5,3.6l9.5,8c0.7,0.6,1.7,1,2.7,1
						c1.8,0,3.4-1.2,4-2.9l1.2-3.6c0.5-1.6,0-3.4-1.3-4.5L24,58.6C23.2,58,22.3,57.7,21.3,57.7L21.3,57.7z"/>
				</g>
			</g>
			<g>
				<g>
					<path fill="#FFFFFF" d="M41.4,55.8c-0.7,0-1.4-0.2-1.9-0.7l-7.3-6.2c-0.9-0.8-1.3-2-0.9-3.2l1.2-3.6c0.4-1.2,1.5-2,2.8-2
						c0.7,0,1.4,0.2,1.9,0.7l9.5,8c0.8,0.6,1.1,1.6,1,2.6c-0.1,1-0.7,1.8-1.6,2.3l-3.4,1.8C42.4,55.7,41.9,55.8,41.4,55.8L41.4,55.8
						z"/>
				</g>
				<g>
					<path fill="#1C75BC" d="M35.2,41.3c0.4,0,0.8,0.1,1.1,0.4l9.5,8c1,0.8,0.8,2.3-0.3,2.9l-3.4,1.8c-0.3,0.1-0.5,0.2-0.8,0.2
						c-0.4,0-0.8-0.1-1.1-0.4L32.9,48c-0.5-0.5-0.8-1.2-0.5-1.9l1.2-3.6C33.8,41.8,34.5,41.3,35.2,41.3 M35.2,38.9
						c-1.8,0-3.4,1.2-4,2.9l-1.2,3.6c-0.5,1.6,0,3.4,1.3,4.5l7.3,6.2c0.7,0.6,1.7,1,2.7,1c0.7,0,1.3-0.2,1.9-0.5l3.4-1.8
						c1.2-0.6,2-1.9,2.2-3.2c0.1-1.4-0.4-2.7-1.5-3.6l-9.5-8C37.2,39.3,36.2,38.9,35.2,38.9L35.2,38.9z"/>
				</g>
			</g>
			<g>
				<g>
					<path fill="#FFFFFF" d="M24.3,56.3c-0.4,0-0.7-0.1-1-0.4l0,0c-0.9-0.7-1-2.1-0.2-2.9l3.8-4.5l1.3,1.1c0.9,0.7,1,2.1,0.2,2.9
						l-2.7,3.2C25.3,56.1,24.8,56.3,24.3,56.3L24.3,56.3z"/>
				</g>
				<g>
					<path fill="#1C75BC" d="M27,50.1l0.3,0.3c0.4,0.3,0.4,0.9,0.1,1.2l-2.7,3.2c-0.1,0.1-0.2,0.2-0.3,0.2c-0.1,0-0.2,0-0.3-0.1l0,0
						c-0.4-0.3-0.4-0.9-0.1-1.2L27,50.1 M26.7,46.8l-1.5,1.8l-3,3.6c-1.2,1.4-1,3.5,0.4,4.6c0.5,0.4,1.2,0.7,1.8,0.7
						c0.8,0,1.6-0.4,2.2-1l2.7-3.2c0.6-0.7,0.8-1.5,0.8-2.4c-0.1-0.9-0.5-1.7-1.2-2.2l-0.3-0.3L26.7,46.8L26.7,46.8z"/>
				</g>
			</g>
			<g>
				<g>
					<path fill="#FFFFFF" d="M22.9,55.1c-0.4,0-0.8-0.1-1.1-0.4l0,0c-0.4-0.4-0.7-0.9-0.7-1.4c0-0.6,0.1-1.1,0.5-1.5l3.8-4.5
						l1.3,1.1c0.4,0.4,0.7,0.9,0.7,1.4c0,0.6-0.1,1.1-0.5,1.5l-2.7,3.2C23.9,54.9,23.4,55.1,22.9,55.1L22.9,55.1z"/>
				</g>
				<g>
					<path fill="#1C75BC" d="M25.5,48.9l0.3,0.3c0.4,0.3,0.4,0.9,0.1,1.2l-2.7,3.2c-0.1,0.1-0.2,0.2-0.3,0.2c-0.1,0-0.2,0-0.3-0.1
						l0,0c-0.4-0.3-0.4-0.9-0.1-1.2L25.5,48.9 M25.3,45.6l-1.5,1.8l-3,3.6c-1.2,1.4-1,3.5,0.4,4.6c0.5,0.4,1.2,0.7,1.8,0.7
						c0.8,0,1.6-0.4,2.2-1l2.7-3.2c1.2-1.4,1-3.5-0.4-4.6l-0.3-0.3L25.3,45.6L25.3,45.6z"/>
				</g>
			</g>
			<g>
				<g>
					
						<rect x="16.4" y="41.3" transform="matrix(-0.6446 0.7645 -0.7645 -0.6446 68.1766 63.1559)" fill="#FFFFFF" width="6.1" height="12.3"/>
				</g>
				<g>
					<path fill="#1C75BC" d="M16.8,42.8l7.6,6.4L22,52l-7.6-6.4L16.8,42.8 M16.5,39.4L15,41.3l-2.4,2.8L11,45.9l1.8,1.5l7.6,6.4
						l1.8,1.5l1.5-1.8l2.4-2.8l1.5-1.8l-1.8-1.5L18.4,41L16.5,39.4L16.5,39.4z"/>
				</g>
			</g>
			<g>
				<g>
					<path fill="#FFFFFF" d="M13.1,46.4c-0.7,0-1.4-0.2-1.9-0.7l-7.4-6.3c-0.6-0.5-1-1.2-1-2c-0.1-0.8,0.2-1.6,0.7-2.2l1.3-1.6
						C5.3,33,6.1,32.6,7,32.6c0.7,0,1.4,0.2,1.9,0.7l7.4,6.3c1.2,1.1,1.4,2.9,0.4,4.2l-1.3,1.6C14.8,46,14,46.4,13.1,46.4L13.1,46.4
						z"/>
				</g>
				<g>
					<path fill="#1C75BC" d="M7,33.8c0.4,0,0.8,0.1,1.1,0.4l7.4,6.3c0.7,0.6,0.8,1.7,0.2,2.5l-1.3,1.6c-0.3,0.4-0.8,0.6-1.3,0.6
						c-0.4,0-0.8-0.1-1.1-0.4l-7.4-6.3c-0.7-0.6-0.8-1.7-0.2-2.5l1.3-1.6C6,34,6.5,33.8,7,33.8 M7,31.4c-1.2,0-2.4,0.5-3.2,1.5
						l-1.3,1.6C1,36.2,1.2,38.9,3,40.3l7.4,6.3c0.7,0.6,1.7,1,2.7,1c1.2,0,2.4-0.5,3.2-1.5l1.3-1.6c1.5-1.8,1.3-4.4-0.5-5.9
						l-7.4-6.3C8.9,31.8,8,31.4,7,31.4L7,31.4z"/>
				</g>
			</g>
		</g>
		<g>
			<g>
				<path fill="#FFFFFF" d="M23.5,60.1l6.5,5.5c0.7,0.6,1.8,0.5,2.5-0.2l6.8-8.1c0.6-0.7,0.5-1.8-0.2-2.5l-6.5-5.5
					c-0.7-0.6-1.8-0.5-2.5,0.2l-6.8,8.1C22.7,58.3,22.8,59.4,23.5,60.1z"/>
			</g>
			<g>
				<path fill="#FFFFFF" d="M22.4,60.5c-0.5-0.5-1.3-0.5-1.9-0.2L17.1,62c-1.1,0.6-1.3,2.1-0.3,2.9l9.5,8c1,0.8,2.4,0.4,2.8-0.8
					l1.2-3.6c0.2-0.7,0-1.4-0.5-1.9L22.4,60.5z"/>
			</g>
			<g>
				<path fill="#FFFFFF" d="M40.3,54.2c0.5,0.5,1.3,0.5,1.9,0.2l3.4-1.8c1.1-0.6,1.3-2.1,0.3-2.9l-9.5-8c-1-0.8-2.4-0.4-2.8,0.8
					l-1.2,3.6c-0.2,0.7,0,1.4,0.5,1.9L40.3,54.2z"/>
			</g>
			<g>
				<path d="M24,55L24,55c0.2,0.2,0.5,0.1,0.6-0.1l2.7-3.2c0.3-0.4,0.3-0.9-0.1-1.2L27,50.1l-3,3.6C23.6,54.1,23.7,54.7,24,55z"/>
			</g>
			<g>
				<path d="M22.6,53.8L22.6,53.8c0.2,0.2,0.5,0.1,0.6-0.1l2.7-3.2c0.3-0.4,0.3-0.9-0.1-1.2l-0.3-0.3l-3,3.6
					C22.2,52.9,22.2,53.5,22.6,53.8z"/>
			</g>
			<g>
				
					<rect x="17.6" y="42.5" transform="matrix(-0.6446 0.7645 -0.7645 -0.6446 68.1761 63.1575)" fill="#FFFFFF" width="3.7" height="9.9"/>
			</g>
			<g>
				<path fill="#FFFFFF" d="M4.5,38.5l7.4,6.3c0.7,0.6,1.8,0.5,2.5-0.2l1.3-1.6c0.6-0.7,0.5-1.8-0.2-2.5l-7.4-6.3
					c-0.7-0.6-1.8-0.5-2.5,0.2L4.3,36C3.7,36.8,3.8,37.9,4.5,38.5z"/>
			</g>
		</g>
	</g>
</g>
</svg>
